<svg width="286" height="122" viewBox="0 0 286 122" fill="none" xmlns="http://www.w3.org/2000/svg">
<g clip-path="url(#clip0)">
<g style="mix-blend-mode:screen" opacity="0.85">
<path d="M171.886 61.5331C171.886 61.5331 234.452 87.8826 285.946 122C285.946 122 220.498 103.266 146.935 87.1972L171.886 61.5331Z" fill="url(#paint0_linear)"/>
</g>
<g style="mix-blend-mode:screen" opacity="0.85">
<path d="M167.563 22.0848C167.563 22.0848 210.715 45.9213 262.285 79.9625C262.285 79.9625 207.833 58.8676 134.27 42.7228L167.563 22.0848Z" fill="url(#paint1_linear)"/>
</g>
<path d="M51.9094 87.045C51.9094 87.045 58.0523 77.9064 70.4898 73.1848C82.9273 68.4632 130.705 74.0225 142.081 77.4494C153.457 80.8764 160.51 93.8989 160.51 93.8989C160.51 93.8989 75.9501 90.3196 51.9094 87.045Z" fill="url(#paint2_linear)"/>
<path d="M42.5816 35.4881C42.5816 35.4881 63.3613 28.7103 87.402 27.8726C111.443 27.0349 175.223 62.8277 175.223 62.8277C175.223 62.8277 71.7035 33.7366 42.5816 35.4881Z" fill="url(#paint3_linear)"/>
<path d="M205.33 79.2771C205.33 79.2771 166.046 53.7652 116.599 38.382C63.3609 21.7802 5.87556 43.5605 1.24944 50.3383L205.33 79.2771Z" fill="url(#paint4_linear)"/>
<path d="M147.693 84.151C147.693 84.151 135.255 83.9987 133.89 86.8926C132.525 89.7865 160.434 93.8988 160.434 93.8988C160.434 93.8988 115.689 96.1073 51.9091 87.0449C51.9091 87.0449 67.8352 86.2833 69.2002 82.7802C70.5653 79.2771 41.2159 75.4694 41.2159 75.4694L147.693 84.151Z" fill="url(#paint5_linear)"/>
<path d="M1.2495 50.3383C5.49643 41.6567 58.0523 43.1798 58.0523 43.1798C58.0523 43.1798 105.224 46.3783 107.271 40.5905C109.319 34.8027 102.266 21.7041 102.266 21.7041C149.741 31.2996 204.42 59.1723 204.42 59.1723C204.42 59.1723 146.176 49.0437 146.328 54.5268C146.48 59.9338 157.173 65.0362 157.173 65.0362C173.175 69.3009 189.632 74.0225 205.33 79.2771L198.732 90.3957C198.732 90.3957 107.044 87.2734 41.1404 75.4694C41.1404 75.4694 -2.99745 59.02 1.2495 50.3383Z" fill="url(#paint6_linear)"/>
<path d="M204.345 59.1723C204.345 59.1723 194.941 41.5044 178.939 28.025C178.939 28.025 141.323 1.59927 101.963 4.95008C99.3088 8.07243 100.219 14.8502 102.191 21.7041C102.191 21.7041 168.549 42.5706 204.345 59.1723Z" fill="url(#paint7_linear)"/>
<path d="M178.939 28.025C178.939 28.025 183.338 34.2697 181.669 36.4781C180.001 38.6866 159.676 25.2072 127.066 15.1548L120.695 5.40698C120.695 5.40698 150.424 8.37702 178.939 28.025Z" fill="url(#paint8_linear)"/>
<path d="M167.942 17.0587C167.942 17.0587 177.194 27.1873 178.256 32.5943C178.256 32.5943 155.125 21.0949 130.554 12.8702C130.554 12.8702 125.852 2.43697 121.377 0.0761719C121.377 0.152327 144.963 4.95008 167.942 17.0587Z" fill="url(#paint9_linear)"/>
<path d="M114.552 4.87387C114.552 4.87387 117.055 -0.837737 121.377 0.152276C125.7 1.14229 128.658 8.98623 130.554 12.9463L129.34 13.6317C129.34 13.6317 126.61 7.31083 126.003 6.24466L114.552 4.87387Z" fill="url(#paint10_linear)"/>
<path d="M206.089 79.201C206.089 79.201 211.549 82.628 212.99 89.558C212.99 89.558 193.121 93.2896 177.498 85.598C177.498 85.598 175.829 79.5056 177.574 74.1748C189.708 68.0062 206.089 79.201 206.089 79.201Z" fill="url(#paint11_linear)"/>
<path d="M181.896 89.4057C181.896 89.4057 184.626 90.9288 185.385 93.8988C185.385 93.8988 175.374 95.4981 167.563 92.1473C167.563 92.1473 166.729 89.4818 167.563 87.1972C173.63 84.5318 181.896 89.4057 181.896 89.4057Z" fill="url(#paint12_linear)"/>
<path d="M167.335 91.6142C167.107 92.7565 170.975 94.1273 175.905 94.8127C180.834 95.4219 185.005 95.0412 185.233 93.975C185.46 92.8327 181.592 91.4619 176.663 90.7765C171.658 90.1672 167.487 90.548 167.335 91.6142Z" fill="url(#paint13_linear)"/>
<path d="M169.004 91.8427C168.852 92.7566 171.961 93.8989 175.981 94.432C180 94.9651 183.337 94.6605 183.489 93.7466C183.64 92.8327 180.531 91.6904 176.512 91.1573C172.568 90.6242 169.155 90.9289 169.004 91.8427Z" fill="#00C2FF"/>
<path d="M177.346 84.4556C176.891 87.578 184.551 91.2334 194.334 92.6042C204.193 94.0511 212.535 92.6042 212.914 89.558C213.293 86.5118 205.709 82.7802 195.926 81.4094C186.143 79.9625 177.801 81.3333 177.346 84.4556Z" fill="url(#paint14_linear)"/>
<path d="M194.517 91.5671C186.555 90.426 180.389 87.4757 180.744 84.9774C181.099 82.4791 187.841 81.3788 195.802 82.5199C203.764 83.6609 209.93 86.6112 209.575 89.1095C209.22 91.6078 202.478 92.7081 194.517 91.5671Z" fill="#00C2FF"/>
<path d="M185.233 71.4331C185.233 71.4331 188.418 73.1847 189.177 76.6116C189.177 76.6116 177.725 78.4394 168.7 74.6316C168.7 74.6316 167.715 71.5854 168.7 68.92C175.753 65.8738 185.233 71.4331 185.233 71.4331Z" fill="url(#paint15_linear)"/>
<path d="M168.7 74.0986C168.397 76.0024 172.72 78.1348 178.408 78.8202C184.096 79.5056 188.949 78.5155 189.253 76.6117C189.556 74.7078 185.233 72.5755 179.545 71.8901C173.857 71.1285 169.004 72.1185 168.7 74.0986Z" fill="url(#paint16_linear)"/>
<path d="M170.596 74.3271C170.369 75.8502 173.857 77.6018 178.483 78.1348C183.109 78.7441 186.977 77.9064 187.28 76.3833C187.508 74.8602 184.019 73.1086 179.393 72.5756C174.843 71.9663 170.899 72.7279 170.596 74.3271Z" fill="#00C2FF"/>
<g style="mix-blend-mode:screen">
<path d="M176.89 101.286C171.152 101.286 166.501 97.3649 166.501 92.5281C166.501 87.6913 171.152 83.7703 176.89 83.7703C182.629 83.7703 187.28 87.6913 187.28 92.5281C187.28 97.3649 182.629 101.286 176.89 101.286Z" fill="url(#paint17_radial)"/>
</g>
<g style="mix-blend-mode:screen">
<path d="M130.63 15.0024C129.417 18.5055 134.649 23.6079 142.385 26.3495C150.12 29.091 157.401 28.4818 158.614 24.9787C159.828 21.4756 154.595 16.3732 146.859 13.6316C139.124 10.8901 131.843 11.4993 130.63 15.0024Z" fill="url(#paint18_radial)"/>
</g>
<g style="mix-blend-mode:screen">
<path d="M195.623 101.21C184.523 101.21 175.525 95.7203 175.525 88.9488C175.525 82.1773 184.523 76.6879 195.623 76.6879C206.722 76.6879 215.72 82.1773 215.72 88.9488C215.72 95.7203 206.722 101.21 195.623 101.21Z" fill="url(#paint19_radial)"/>
</g>
<g style="mix-blend-mode:screen">
<path d="M180.759 86.3596C171.67 86.3596 164.302 81.893 164.302 76.3833C164.302 70.8735 171.67 66.407 180.759 66.407C189.848 66.407 197.216 70.8735 197.216 76.3833C197.216 81.893 189.848 86.3596 180.759 86.3596Z" fill="url(#paint20_radial)"/>
</g>
<path d="M102.114 4.64539C102.114 4.64539 96.9572 9.59545 99.0807 34.2696C99.0807 34.2696 100.37 42.8751 103.555 43.4843C103.555 43.4843 110.911 43.6366 109.091 32.2134C107.726 23.6079 102.114 4.64539 102.114 4.64539Z" fill="url(#paint21_linear)"/>
<path d="M99.3841 12.1086C99.3841 12.1086 103.328 16.754 104.465 23.7603C105.375 29.7004 104.162 39.372 100.825 40.819C100.825 40.819 96.4264 41.352 93.3171 40.6666C93.3171 40.6666 89.2976 28.9388 91.1178 11.8801L99.3841 12.1086Z" fill="url(#paint22_linear)"/>
<path d="M90.7389 26.6541C91.4215 34.7265 92.7107 41.1235 93.6208 41.0474C94.5308 40.9712 94.7583 34.3458 94.0758 26.3495C93.3933 18.2771 92.104 11.8801 91.194 11.9562C90.2839 11.9562 90.1322 18.5817 90.7389 26.6541Z" fill="url(#paint23_linear)"/>
<path d="M92.1077 26.5316C91.6459 20.9993 91.6437 16.483 92.1028 16.4444C92.5619 16.4058 93.3085 20.8593 93.7703 26.3917C94.2321 31.9241 94.2343 36.4403 93.7751 36.4789C93.316 36.5176 92.5695 32.064 92.1077 26.5316Z" fill="#00C2FF"/>
<path d="M8.75758 52.7752L7.62001 51.9375C7.62001 51.9375 26.0487 39.2196 90.3595 48.2821C90.3595 48.2821 108.712 54.9837 130.705 71.5093L177.498 85.5979L179.394 87.8826L117.737 73.337L54.488 61.2284L8.75758 52.7752Z" fill="url(#paint24_linear)"/>
<g style="mix-blend-mode:screen">
<path d="M95.5161 47.3682C102.19 46.5305 106.513 36.8589 105.148 25.8164C103.783 14.774 97.1846 6.47308 90.5108 7.31079C83.8371 8.14849 79.5143 17.8202 80.8794 28.8626C82.2445 39.9812 88.8424 48.2821 95.5161 47.3682Z" fill="url(#paint25_radial)"/>
</g>
<path d="M90.435 51.0998C95.2887 52.0898 114.4 62.5992 128.127 71.8901C133.511 75.5455 173.25 85.141 173.25 85.141L173.326 86.2072L121.149 79.3532C95.137 80.5717 69.2003 78.9724 69.2003 78.9724C21.2706 71.357 8.75726 52.7752 8.75726 52.7752C17.5545 45.4643 72.6889 47.4444 90.435 51.0998Z" fill="url(#paint26_linear)"/>
<path d="M101.963 4.95007C101.963 4.95007 133.208 27.6442 179.47 48.8914L107.499 23.3795L101.963 4.95007Z" fill="url(#paint27_linear)"/>
<path d="M113.111 25.8164C114.552 28.0249 133.36 45.2359 141.399 47.2159C149.437 49.2721 178.559 50.186 179.393 48.8913C179.621 48.5105 179.697 47.6728 179.621 46.8351C179.469 44.8551 178.863 42.342 178.863 42.342C153.381 25.4356 123.728 20.714 123.425 20.4856C123.197 20.3333 116.827 22.0848 114.097 23.9125C113.263 24.5218 112.732 25.2072 113.111 25.8164Z" fill="url(#paint28_linear)"/>
<path d="M114.173 23.9125C117.13 27.3395 134.497 42.9512 142.157 44.8551C149.665 46.759 175.678 47.6728 179.621 46.759C179.469 44.779 178.863 42.2658 178.863 42.2658C153.381 25.3595 123.728 20.6379 123.425 20.4094C123.273 20.2571 116.903 22.0848 114.173 23.9125Z" fill="url(#paint29_linear)"/>
<path d="M135.104 93.6704C137.455 93.5942 113.491 87.4257 101.887 85.8264C90.3599 84.2272 69.2011 89.3296 69.2011 89.3296C69.2011 89.3296 106.969 94.7366 135.104 93.6704Z" fill="url(#paint30_linear)"/>
<path d="M141.55 87.7304C141.626 87.7304 141.702 87.7304 141.702 87.6542L144.811 83.1611L147.011 83.4657L149.589 79.5056L149.21 77.5256L156.49 65.417C157.021 59.0962 154.974 52.623 154.898 52.5468C154.898 52.4707 154.746 52.3945 154.67 52.3945C154.594 52.3945 154.519 52.5468 154.519 52.623C154.519 52.6991 156.566 59.0961 156.035 65.2647L148.755 77.4495L149.134 79.4295L146.783 83.0088L144.66 82.7041L141.399 87.3496C141.323 87.4257 141.323 87.578 141.474 87.6542C141.474 87.7304 141.55 87.7304 141.55 87.7304Z" fill="url(#paint31_linear)"/>
<path d="M141.55 87.1973C141.626 87.1973 141.702 87.1973 141.702 87.1211L144.811 82.628L147.011 82.9326L149.589 78.9726L149.21 76.9925L156.49 64.8839C157.021 58.5631 154.974 52.623 154.898 52.5468C154.898 52.4707 154.746 52.3945 154.67 52.3945C154.594 52.3945 154.519 52.5468 154.519 52.623C154.519 52.6991 156.566 58.5631 156.035 64.7316L148.755 76.9164L149.134 78.8964L146.783 82.4757L144.66 82.1711L141.399 86.8165C141.323 86.8927 141.323 87.045 141.474 87.1211C141.474 87.1973 141.55 87.1973 141.55 87.1973Z" fill="#2D2B93"/>
<path d="M47.9664 76.8402H48.0422C48.118 76.764 48.1939 76.6879 48.118 76.5356L46.9805 74.0225L45.0845 73.5655C43.1886 62.6754 45.5395 49.5006 45.7671 48.4344L48.4972 46.0736L50.469 43.5605C58.9629 36.7066 70.8695 32.5181 71.0212 32.4419C71.097 32.4419 71.1729 32.2896 71.1729 32.2135C71.1729 32.1373 71.0212 32.0612 70.9453 32.0612C70.7937 32.1373 58.8112 36.3258 50.2415 43.2559L48.2697 45.769L45.4637 48.206V48.2821C45.4637 48.4344 42.8094 62.3708 44.7812 73.7178V73.8701L46.753 74.4032L47.8147 76.6879C47.8147 76.8402 47.8905 76.8402 47.9664 76.8402Z" fill="url(#paint32_linear)"/>
<path d="M48.1938 76.764H48.2697C48.3455 76.6879 48.4213 76.6117 48.3455 76.4594L46.9804 73.5655L45.0844 73.1086C43.1885 62.2185 45.5395 49.0437 45.767 47.9775L48.4972 45.6167L50.469 43.1036C58.9628 36.2497 70.4902 32.5943 70.5661 32.5181C70.6419 32.5181 70.7178 32.3658 70.7178 32.2896C70.7178 32.2135 70.5661 32.1373 70.4902 32.1373C70.3386 32.1373 58.7353 35.8689 50.1656 42.799L48.1938 45.3121L45.3878 47.7491V47.8252C45.3878 47.9775 42.7335 61.9139 44.7053 73.2609V73.4132L46.6771 73.9463L47.9663 76.6879C48.0422 76.764 48.118 76.764 48.1938 76.764Z" fill="#2D2B93"/>
<path d="M119.102 56.2022C119.784 56.2022 120.391 56.0499 120.846 55.8214C123.5 54.2221 120.619 48.8152 116.903 41.9612C115.689 39.6766 114.4 37.3158 113.262 34.955C108.788 25.8164 104.238 12.4893 104.238 12.337C104.238 12.2608 104.086 12.1847 104.01 12.1847C103.934 12.1847 103.858 12.337 103.858 12.4132C103.934 12.5655 108.484 25.8926 112.959 35.1073C114.097 37.4681 115.386 39.8289 116.675 42.1897C120.164 48.5867 123.121 54.146 120.77 55.5168C120.391 55.7452 119.86 55.8214 119.254 55.8214C114.097 55.8214 102.19 48.2821 99.4598 44.2459L100.066 41.6566C100.066 41.5805 99.9906 41.4281 99.9148 41.4281C99.8389 41.4281 99.6873 41.5043 99.6873 41.5804L99.0806 44.322L99.1564 44.3982C101.356 48.0536 113.49 56.2022 119.102 56.2022Z" fill="url(#paint33_linear)"/>
<path d="M119.102 55.7453C119.784 55.7453 120.391 55.593 120.846 55.3645C123.5 53.7652 120.619 48.3582 116.903 41.5043C115.689 39.2197 114.4 36.8589 113.262 34.4981C108.788 25.3595 104.238 12.0324 104.238 11.8801C104.238 11.8039 104.086 11.7278 104.01 11.7278C103.934 11.7278 103.858 11.8801 103.858 11.9562C103.934 12.1086 108.484 25.4356 112.959 34.6504C114.097 37.0112 115.386 39.372 116.675 41.7328C120.164 48.1298 123.121 53.6891 120.77 55.0599C120.391 55.2883 119.86 55.3645 119.254 55.3645C114.097 55.3645 102.19 47.8252 99.4598 43.789L100.066 41.1997C100.066 41.1235 99.9906 40.9712 99.9148 40.9712C99.8389 40.9712 99.6873 41.0474 99.6873 41.1235L99.0806 43.8651L99.1564 43.9413C101.356 47.5967 113.49 55.7453 119.102 55.7453Z" fill="#2D2B93"/>
<path d="M69.8074 86.4357C75.3436 86.4357 82.6999 85.8264 83.9892 84.6841C84.2167 84.4556 84.2925 84.2272 84.2167 84.151C83.9133 82.171 67.7598 80.3433 64.5746 80.0386C64.4229 80.0386 64.3471 80.1148 64.3471 80.191C64.3471 80.2671 64.4229 80.4194 64.4987 80.4194C73.751 81.4094 83.6858 83.0848 83.8375 84.2272C83.8375 84.3033 83.8375 84.3795 83.6858 84.4556C81.9415 85.9787 67.6081 86.5118 64.4229 85.7503C64.1954 85.2933 63.2853 82.9325 62.982 79.9625C62.982 79.8863 62.9062 79.8102 62.7545 79.8102C62.6786 79.8102 62.527 79.8863 62.6028 80.0386C62.982 83.4656 64.1196 86.0549 64.1196 86.0549L64.1954 86.131H64.2712C65.2571 86.2833 67.3048 86.4357 69.8074 86.4357Z" fill="url(#paint34_linear)"/>
<path d="M69.8074 85.9788C75.3436 85.9788 82.6999 85.3695 83.9892 84.2272C84.2167 83.9987 84.2925 83.7703 84.2167 83.6941C83.9133 81.7141 67.7598 79.8864 64.5746 79.5817C64.4229 79.5817 64.3471 79.6579 64.3471 79.734C64.3471 79.8102 64.4229 79.9625 64.4987 79.9625C73.751 80.9525 83.6858 82.6279 83.8375 83.7703C83.8375 83.8464 83.8375 83.9226 83.6858 83.9987C81.9415 85.5218 67.6081 86.0549 64.4229 85.2934C64.1954 84.8364 63.2853 82.4756 62.982 79.5056C62.982 79.4294 62.9062 79.2771 62.7545 79.3533C62.6786 79.3533 62.527 79.4294 62.6028 79.5817C62.982 83.0087 64.1196 85.598 64.1196 85.598L64.1954 85.6741H64.2712C65.2571 85.8264 67.3048 85.9788 69.8074 85.9788Z" fill="#2D2B93"/>
<path d="M176.739 55.2123C185.915 54.9076 191.148 53.613 191.148 53.613L191.3 53.5369V53.3845C190.466 42.4183 184.929 33.3558 184.854 33.2035C184.778 33.1274 184.702 33.0512 184.55 33.1274C184.474 33.2035 184.399 33.2797 184.474 33.432C184.55 33.5081 190.011 42.4183 190.845 53.2322C189.859 53.4607 184.854 54.5269 176.663 54.7553C176.587 54.7553 176.436 54.8315 176.436 54.9838C176.511 55.1361 176.663 55.2123 176.739 55.2123Z" fill="#2D4FA4"/>
<path d="M162.254 18.9626C166.653 18.9626 168.018 17.5918 168.094 17.5156C168.169 17.4395 168.169 17.2871 168.094 17.211C168.018 17.1348 167.866 17.1348 167.79 17.211C167.79 17.211 164.908 20.0287 154.063 17.3633C143.067 14.6979 131.691 2.89389 131.615 2.81774C131.539 2.74158 131.388 2.74158 131.312 2.81774C131.236 2.89389 131.236 3.0462 131.312 3.12236C131.464 3.27466 142.915 15.0787 153.988 17.8202C157.476 18.6579 160.206 18.9626 162.254 18.9626Z" fill="url(#paint35_linear)"/>
<path d="M162.254 18.6579C166.653 18.6579 168.018 17.2871 168.094 17.2109C168.169 17.1348 168.169 16.9825 168.094 16.9063C168.018 16.8302 167.866 16.8302 167.79 16.9063C167.79 16.9063 164.908 19.724 154.063 17.0586C143.067 14.3932 131.691 2.5892 131.615 2.51305C131.539 2.43689 131.388 2.43689 131.312 2.51305C131.236 2.5892 131.236 2.74151 131.312 2.81767C131.388 2.96998 142.915 14.774 153.988 17.5155C157.476 18.3532 160.206 18.6579 162.254 18.6579Z" fill="#2D4FA4"/>
<path d="M198.884 56.9637C198.884 56.9637 199.87 58.3345 200.098 59.9338C200.098 59.9338 194.637 60.3145 190.542 58.1061C190.542 58.1061 190.087 56.126 190.618 54.9076C194.106 53.8414 198.884 56.9637 198.884 56.9637Z" fill="url(#paint36_linear)"/>
<path d="M190.466 57.8777C190.238 58.6392 192.21 59.7054 194.864 60.2385C197.519 60.8477 199.794 60.6954 200.021 60.01C200.249 59.2485 198.277 58.1823 195.623 57.6492C192.968 57.04 190.693 57.1161 190.466 57.8777Z" fill="url(#paint37_linear)"/>
<path d="M191.377 58.1061C191.225 58.7153 192.818 59.553 194.941 60.0099C197.064 60.4669 198.96 60.3907 199.112 59.7815C199.264 59.1722 197.671 58.3345 195.548 57.8776C193.424 57.4207 191.528 57.4968 191.377 58.1061Z" fill="white"/>
<g style="mix-blend-mode:screen">
<path d="M186.371 57.8015C186.143 60.3907 189.935 62.8277 194.865 63.2846C199.794 63.7415 203.965 62.0661 204.269 59.4769C204.496 56.8876 200.704 54.4507 195.775 53.9937C190.845 53.5368 186.674 55.2884 186.371 57.8015Z" fill="url(#paint38_radial)"/>
</g>
<path d="M157.476 93.1373C157.476 93.1373 158.386 93.975 158.766 95.1173C158.766 95.1173 154.974 96.1073 151.789 95.1934C151.789 95.1934 151.182 93.8227 151.409 92.9088C153.609 91.6142 157.476 93.1373 157.476 93.1373Z" fill="url(#paint39_linear)"/>
<path d="M151.636 94.965C151.636 95.4981 153.153 95.955 155.125 96.0312C157.097 96.1073 158.689 95.6504 158.689 95.1173C158.689 94.5842 157.173 94.1273 155.201 94.0511C153.305 94.0511 151.636 94.4319 151.636 94.965Z" fill="url(#paint40_linear)"/>
<path d="M152.32 94.9649C152.32 95.4218 153.533 95.8026 155.126 95.8026C156.719 95.8026 158.008 95.498 158.008 95.0411C158.008 94.5841 156.794 94.2034 155.202 94.2034C153.609 94.2034 152.32 94.508 152.32 94.9649Z" fill="white"/>
<g style="mix-blend-mode:screen">
<path d="M148.755 95.4981C148.907 97.3258 151.94 98.5442 155.505 98.1635C159.069 97.7827 161.799 95.955 161.572 94.1273C161.344 92.2996 158.387 91.0811 154.822 91.4619C151.258 91.8426 148.528 93.6703 148.755 95.4981Z" fill="url(#paint41_radial)"/>
</g>
<g style="mix-blend-mode:screen" opacity="0.5">
<path d="M90.4356 51.0998C90.4356 51.0998 97.3369 71.4331 103.328 80.4955L93.3175 79.2771C93.3175 79.2771 52.9716 66.5592 34.9979 47.749C34.9979 47.8251 70.566 46.6828 90.4356 51.0998Z" fill="url(#paint42_linear)"/>
</g>
<g style="mix-blend-mode:screen" opacity="0.5">
<path d="M28.172 48.4344C28.172 48.4344 44.9322 62.9039 68.3662 72.3471L66.2427 72.9563C66.2427 72.9563 31.6605 64.3508 13.7627 50.5668C13.7627 50.5668 18.8439 48.5106 28.172 48.4344Z" fill="url(#paint43_linear)"/>
</g>
<g style="mix-blend-mode:screen">
<path d="M80.8037 32.5942C80.8037 32.5942 46.6007 34.1173 29.7646 43.4843C29.7646 43.4843 10.9567 45.0836 5.42053 47.1398C5.42053 47.1398 38.1068 29.7765 80.8037 32.5942Z" fill="url(#paint44_linear)"/>
</g>
<path d="M128.809 57.2684C138.213 57.2684 146.252 55.2122 146.328 55.136C146.404 55.136 146.479 54.9837 146.479 54.9076C146.479 54.8314 146.328 54.7552 146.252 54.7552C146.1 54.8314 130.629 58.8676 117.358 55.593C117.282 55.593 117.13 55.6691 117.13 55.7453C117.13 55.8214 117.206 55.9737 117.282 55.9737C121.074 56.8876 125.093 57.2684 128.809 57.2684Z" fill="url(#paint45_linear)"/>
<path d="M129.189 56.8876C138.517 56.8876 146.252 54.7553 146.404 54.7553C146.48 54.7553 146.556 54.603 146.556 54.5268C146.556 54.4507 146.404 54.3745 146.328 54.3745C146.176 54.4507 131.236 58.4869 118.041 55.2884C117.965 55.2884 117.813 55.3645 117.813 55.4407C117.813 55.5168 117.889 55.6691 117.965 55.6691C121.605 56.5068 125.473 56.8876 129.189 56.8876Z" fill="#2D2B93"/>
<path d="M52.0617 65.3409C51.7583 68.1586 58.7354 71.2809 67.7602 72.3471C76.7849 73.4133 84.2929 72.0425 84.6721 69.2247C84.9755 66.407 77.9983 63.2847 68.9736 62.2185C59.9488 61.1523 52.365 62.5231 52.0617 65.3409Z" fill="url(#paint46_linear)"/>
<path d="M67.866 70.789C60.338 69.8914 54.4595 67.2678 54.7361 64.929C55.0126 62.5902 61.3394 61.4218 68.8674 62.3193C76.3954 63.2169 82.2739 65.8404 81.9973 68.1793C81.7208 70.5181 75.394 71.6865 67.866 70.789Z" fill="white"/>
<g style="mix-blend-mode:screen">
<path d="M68.3666 81.4856C52.7438 81.4856 40.079 74.8029 40.079 66.5593C40.079 58.3157 52.7438 51.6329 68.3666 51.6329C83.9895 51.6329 96.6543 58.3157 96.6543 66.5593C96.6543 74.8029 83.9895 81.4856 68.3666 81.4856Z" fill="url(#paint47_radial)"/>
</g>
<path d="M127.672 35.945L127.141 38.4582L119.406 31.9088L120.391 29.8527L127.672 35.945Z" fill="#06FFE0"/>
<path d="M128.657 36.7065L128.809 39.6766L130.25 40.7427V37.925L128.657 36.7065Z" fill="#06FFE0"/>
<path d="M178.256 32.5943L176.739 33.2797L166.273 28.1773V27.2634L178.256 32.5943Z" fill="#06FFE0"/>
<path d="M165.287 27.2633L164.301 26.1972L158.462 23.6079L159.675 25.131L165.287 27.2633Z" fill="#06FFE0"/>
<path d="M68.3662 72.3471L67.8353 70.7478C67.8353 70.7478 62.83 70.2148 59.3415 68.7678L58.7348 70.3671C58.7348 70.3671 62.83 71.9663 68.3662 72.3471Z" fill="#FFC7FE"/>
<path d="M57.9766 68.387L56.6873 69.6816L54.6397 68.6154L56.3081 67.2446L57.9766 68.387Z" fill="#FFC7FE"/>
</g>
<defs>
<linearGradient id="paint0_linear" x1="285.946" y1="91.7674" x2="146.925" y2="91.7674" gradientUnits="userSpaceOnUse">
<stop/>
<stop offset="0.1479" stop-color="#030406"/>
<stop offset="0.3513" stop-color="#0C0F18"/>
<stop offset="0.587" stop-color="#1B2135"/>
<stop offset="0.8449" stop-color="#303B5D"/>
<stop offset="1" stop-color="#3E4C79"/>
</linearGradient>
<linearGradient id="paint1_linear" x1="262.285" y1="51.0609" x2="134.263" y2="51.0609" gradientUnits="userSpaceOnUse">
<stop/>
<stop offset="0.1479" stop-color="#030406"/>
<stop offset="0.3513" stop-color="#0C0F18"/>
<stop offset="0.587" stop-color="#1B2135"/>
<stop offset="0.8449" stop-color="#303B5D"/>
<stop offset="1" stop-color="#3E4C79"/>
</linearGradient>
<linearGradient id="paint2_linear" x1="160.491" y1="82.7544" x2="51.9045" y2="82.3435" gradientUnits="userSpaceOnUse">
<stop stop-color="#2C71BB"/>
<stop offset="1" stop-color="#5CC3D1"/>
</linearGradient>
<linearGradient id="paint3_linear" x1="108.811" y1="62.6323" x2="108.943" y2="27.9784" gradientUnits="userSpaceOnUse">
<stop stop-color="#30409B"/>
<stop offset="1" stop-color="#00FEF4"/>
</linearGradient>
<linearGradient id="paint4_linear" x1="205.439" y1="56.0364" x2="1.20939" y2="55.2636" gradientUnits="userSpaceOnUse">
<stop stop-color="#2C8AE4"/>
<stop offset="1" stop-color="#5CC3D1"/>
</linearGradient>
<linearGradient id="paint5_linear" x1="160.482" y1="85.053" x2="41.113" y2="84.6013" gradientUnits="userSpaceOnUse">
<stop stop-color="#3036AF"/>
<stop offset="1" stop-color="#3C70CC"/>
</linearGradient>
<linearGradient id="paint6_linear" x1="103.055" y1="90.0251" x2="103.315" y2="21.72" gradientUnits="userSpaceOnUse">
<stop stop-color="#3036AF"/>
<stop offset="1" stop-color="#3C96CC"/>
</linearGradient>
<linearGradient id="paint7_linear" x1="204.472" y1="32.1" x2="100.222" y2="31.7055" gradientUnits="userSpaceOnUse">
<stop stop-color="#2C8AE4"/>
<stop offset="1" stop-color="#5CC3D1"/>
</linearGradient>
<linearGradient id="paint8_linear" x1="182.093" y1="21.1797" x2="120.663" y2="20.9472" gradientUnits="userSpaceOnUse">
<stop stop-color="#30A7FB"/>
<stop offset="1" stop-color="#00FEF4"/>
</linearGradient>
<linearGradient id="paint9_linear" x1="178.327" y1="16.4811" x2="121.332" y2="16.2654" gradientUnits="userSpaceOnUse">
<stop stop-color="#2C8AE4"/>
<stop offset="1" stop-color="#5CC3D1"/>
</linearGradient>
<linearGradient id="paint10_linear" x1="130.583" y1="6.83364" x2="114.533" y2="6.77291" gradientUnits="userSpaceOnUse">
<stop stop-color="#30409B"/>
<stop offset="1" stop-color="#559DCC"/>
</linearGradient>
<linearGradient id="paint11_linear" x1="194.847" y1="90.4448" x2="194.916" y2="72.3557" gradientUnits="userSpaceOnUse">
<stop stop-color="#164BCF"/>
<stop offset="1" stop-color="#143D97"/>
</linearGradient>
<linearGradient id="paint12_linear" x1="176.256" y1="94.2781" x2="176.286" y2="86.4134" gradientUnits="userSpaceOnUse">
<stop stop-color="#164BCF"/>
<stop offset="1" stop-color="#143D97"/>
</linearGradient>
<linearGradient id="paint13_linear" x1="175.977" y1="94.8412" x2="176.56" y2="90.7718" gradientUnits="userSpaceOnUse">
<stop offset="0.00396825" stop-color="#1183CC"/>
<stop offset="1" stop-color="#306DCE"/>
</linearGradient>
<linearGradient id="paint14_linear" x1="194.382" y1="92.6468" x2="195.996" y2="81.3866" gradientUnits="userSpaceOnUse">
<stop offset="0.00396825" stop-color="#1183CC"/>
<stop offset="1" stop-color="#306DCE"/>
</linearGradient>
<linearGradient id="paint15_linear" x1="178.756" y1="77.0494" x2="178.791" y2="68.0297" gradientUnits="userSpaceOnUse">
<stop stop-color="#164BCF"/>
<stop offset="1" stop-color="#143D97"/>
</linearGradient>
<linearGradient id="paint16_linear" x1="178.454" y1="78.8237" x2="179.452" y2="71.8569" gradientUnits="userSpaceOnUse">
<stop offset="0.00396825" stop-color="#1183CC"/>
<stop offset="1" stop-color="#306DCE"/>
</linearGradient>
<radialGradient id="paint17_radial" cx="0" cy="0" r="1" gradientUnits="userSpaceOnUse" gradientTransform="translate(176.917 92.5232) rotate(180) scale(10.425 8.73983)">
<stop stop-color="#005EFF"/>
<stop offset="0.1217" stop-color="#004DD1"/>
<stop offset="0.3025" stop-color="#003692"/>
<stop offset="0.4759" stop-color="#00235E"/>
<stop offset="0.6368" stop-color="#001435"/>
<stop offset="0.7828" stop-color="#000918"/>
<stop offset="0.9086" stop-color="#000206"/>
<stop offset="1"/>
</radialGradient>
<radialGradient id="paint18_radial" cx="0" cy="0" r="1" gradientUnits="userSpaceOnUse" gradientTransform="translate(144.574 19.9773) rotate(-160.414) scale(14.8386 6.75469)">
<stop stop-color="#005EFF"/>
<stop offset="0.1217" stop-color="#004DD1"/>
<stop offset="0.3025" stop-color="#003692"/>
<stop offset="0.4759" stop-color="#00235E"/>
<stop offset="0.6368" stop-color="#001435"/>
<stop offset="0.7828" stop-color="#000918"/>
<stop offset="0.9086" stop-color="#000206"/>
<stop offset="1"/>
</radialGradient>
<radialGradient id="paint19_radial" cx="0" cy="0" r="1" gradientUnits="userSpaceOnUse" gradientTransform="translate(195.586 88.9802) rotate(180) scale(20.1284 12.2589)">
<stop stop-color="#005EFF"/>
<stop offset="0.1217" stop-color="#004DD1"/>
<stop offset="0.3025" stop-color="#003692"/>
<stop offset="0.4759" stop-color="#00235E"/>
<stop offset="0.6368" stop-color="#001435"/>
<stop offset="0.7828" stop-color="#000918"/>
<stop offset="0.9086" stop-color="#000206"/>
<stop offset="1"/>
</radialGradient>
<radialGradient id="paint20_radial" cx="0" cy="0" r="1" gradientUnits="userSpaceOnUse" gradientTransform="translate(180.774 76.4065) rotate(180) scale(16.424 10.0028)">
<stop stop-color="#005EFF"/>
<stop offset="0.1217" stop-color="#004DD1"/>
<stop offset="0.3025" stop-color="#003692"/>
<stop offset="0.4759" stop-color="#00235E"/>
<stop offset="0.6368" stop-color="#001435"/>
<stop offset="0.7828" stop-color="#000918"/>
<stop offset="0.9086" stop-color="#000206"/>
<stop offset="1"/>
</radialGradient>
<linearGradient id="paint21_linear" x1="109.377" y1="24.0682" x2="98.5057" y2="24.0682" gradientUnits="userSpaceOnUse">
<stop stop-color="#1626C1"/>
<stop offset="1" stop-color="#2731B8"/>
</linearGradient>
<linearGradient id="paint22_linear" x1="104.713" y1="26.482" x2="90.5874" y2="26.482" gradientUnits="userSpaceOnUse">
<stop stop-color="#162581"/>
<stop offset="1" stop-color="#27518D"/>
</linearGradient>
<linearGradient id="paint23_linear" x1="94.5551" y1="26.4819" x2="90.377" y2="26.4819" gradientUnits="userSpaceOnUse">
<stop offset="0.00396825" stop-color="#1183CC"/>
<stop offset="1" stop-color="#306DCE"/>
</linearGradient>
<linearGradient id="paint24_linear" x1="93.5297" y1="87.8341" x2="93.5297" y2="45.0144" gradientUnits="userSpaceOnUse">
<stop stop-color="#23247C"/>
<stop offset="1" stop-color="#2767BF"/>
</linearGradient>
<radialGradient id="paint25_radial" cx="0" cy="0" r="1" gradientUnits="userSpaceOnUse" gradientTransform="translate(92.9947 27.3475) rotate(82.8627) scale(20.2108 12.2088)">
<stop stop-color="#005EFF"/>
<stop offset="0.1217" stop-color="#004DD1"/>
<stop offset="0.3025" stop-color="#003692"/>
<stop offset="0.4759" stop-color="#00235E"/>
<stop offset="0.6368" stop-color="#001435"/>
<stop offset="0.7828" stop-color="#000918"/>
<stop offset="0.9086" stop-color="#000206"/>
<stop offset="1"/>
</radialGradient>
<linearGradient id="paint26_linear" x1="91.0829" y1="86.2139" x2="91.0829" y2="47.8456" gradientUnits="userSpaceOnUse">
<stop stop-color="#2A4AAF"/>
<stop offset="1" stop-color="#3C8FCC"/>
</linearGradient>
<linearGradient id="paint27_linear" x1="179.42" y1="26.9076" x2="101.949" y2="26.9076" gradientUnits="userSpaceOnUse">
<stop stop-color="#2C8AE4"/>
<stop offset="1" stop-color="#46A4D1"/>
</linearGradient>
<linearGradient id="paint28_linear" x1="146.34" y1="49.4575" x2="146.34" y2="20.4272" gradientUnits="userSpaceOnUse">
<stop stop-color="#3093FB"/>
<stop offset="1" stop-color="#00D8F4"/>
</linearGradient>
<linearGradient id="paint29_linear" x1="146.925" y1="47.1417" x2="146.925" y2="20.4272" gradientUnits="userSpaceOnUse">
<stop stop-color="#30A7FB"/>
<stop offset="1" stop-color="#00FEF4"/>
</linearGradient>
<linearGradient id="paint30_linear" x1="102.263" y1="93.7869" x2="102.263" y2="85.4943" gradientUnits="userSpaceOnUse">
<stop stop-color="#00FEF4"/>
<stop offset="1" stop-color="#30A7FB"/>
</linearGradient>
<linearGradient id="paint31_linear" x1="156.516" y1="70.0452" x2="141.356" y2="70.0452" gradientUnits="userSpaceOnUse">
<stop stop-color="#2C8AE4"/>
<stop offset="1" stop-color="#46A4D1"/>
</linearGradient>
<linearGradient id="paint32_linear" x1="71.204" y1="54.4882" x2="43.9853" y2="54.4882" gradientUnits="userSpaceOnUse">
<stop stop-color="#2C8AE4"/>
<stop offset="1" stop-color="#46A4D1"/>
</linearGradient>
<linearGradient id="paint33_linear" x1="121.869" y1="34.1682" x2="98.8588" y2="34.1682" gradientUnits="userSpaceOnUse">
<stop stop-color="#2C8AE4"/>
<stop offset="1" stop-color="#46A4D1"/>
</linearGradient>
<linearGradient id="paint34_linear" x1="84.2403" y1="83.0389" x2="62.5649" y2="83.0389" gradientUnits="userSpaceOnUse">
<stop stop-color="#2C8AE4"/>
<stop offset="1" stop-color="#46A4D1"/>
</linearGradient>
<linearGradient id="paint35_linear" x1="168.119" y1="10.8935" x2="131.242" y2="10.8935" gradientUnits="userSpaceOnUse">
<stop stop-color="#2C8AE4"/>
<stop offset="1" stop-color="#46E0D1"/>
</linearGradient>
<linearGradient id="paint36_linear" x1="195.102" y1="59.708" x2="195.574" y2="55.0119" gradientUnits="userSpaceOnUse">
<stop stop-color="#164BCF"/>
<stop offset="1" stop-color="#143D97"/>
</linearGradient>
<linearGradient id="paint37_linear" x1="194.944" y1="60.2667" x2="195.59" y2="57.6109" gradientUnits="userSpaceOnUse">
<stop offset="0.00396825" stop-color="#1183CC"/>
<stop offset="1" stop-color="#306DCE"/>
</linearGradient>
<radialGradient id="paint38_radial" cx="0" cy="0" r="1" gradientUnits="userSpaceOnUse" gradientTransform="translate(195.327 58.6628) rotate(-174.569) scale(8.95871 4.6618)">
<stop stop-color="#FF1D43"/>
<stop offset="0.1217" stop-color="#D11837"/>
<stop offset="0.3025" stop-color="#921126"/>
<stop offset="0.4759" stop-color="#5E0B19"/>
<stop offset="0.6368" stop-color="#35060E"/>
<stop offset="0.7828" stop-color="#180306"/>
<stop offset="0.9086" stop-color="#060102"/>
<stop offset="1"/>
</radialGradient>
<linearGradient id="paint39_linear" x1="155.144" y1="95.6092" x2="154.806" y2="92.2189" gradientUnits="userSpaceOnUse">
<stop stop-color="#164BCF"/>
<stop offset="1" stop-color="#143D97"/>
</linearGradient>
<linearGradient id="paint40_linear" x1="155.111" y1="96.0268" x2="155.189" y2="94.055" gradientUnits="userSpaceOnUse">
<stop offset="0.00396825" stop-color="#1183CC"/>
<stop offset="1" stop-color="#306DCE"/>
</linearGradient>
<radialGradient id="paint41_radial" cx="0" cy="0" r="1" gradientUnits="userSpaceOnUse" gradientTransform="translate(155.155 94.8372) rotate(174.009) scale(6.46661 3.36518)">
<stop stop-color="#FF1D43"/>
<stop offset="0.1217" stop-color="#D11837"/>
<stop offset="0.3025" stop-color="#921126"/>
<stop offset="0.4759" stop-color="#5E0B19"/>
<stop offset="0.6368" stop-color="#35060E"/>
<stop offset="0.7828" stop-color="#180306"/>
<stop offset="0.9086" stop-color="#060102"/>
<stop offset="1"/>
</radialGradient>
<linearGradient id="paint42_linear" x1="69.1766" y1="80.5281" x2="69.1766" y2="47.6741" gradientUnits="userSpaceOnUse">
<stop/>
<stop offset="0.1479" stop-color="#030406"/>
<stop offset="0.3513" stop-color="#0C0F18"/>
<stop offset="0.587" stop-color="#1B2135"/>
<stop offset="0.8449" stop-color="#303B5D"/>
<stop offset="1" stop-color="#3E4C79"/>
</linearGradient>
<linearGradient id="paint43_linear" x1="41.0427" y1="72.946" x2="41.0427" y2="48.4189" gradientUnits="userSpaceOnUse">
<stop/>
<stop offset="0.1479" stop-color="#030406"/>
<stop offset="0.3513" stop-color="#0C0F18"/>
<stop offset="0.587" stop-color="#1B2135"/>
<stop offset="0.8449" stop-color="#303B5D"/>
<stop offset="1" stop-color="#3E4C79"/>
</linearGradient>
<linearGradient id="paint44_linear" x1="43.0931" y1="47.1407" x2="43.0931" y2="32.2826" gradientUnits="userSpaceOnUse">
<stop/>
<stop offset="0.1479" stop-color="#030406"/>
<stop offset="0.3513" stop-color="#0C0F18"/>
<stop offset="0.587" stop-color="#1B2135"/>
<stop offset="0.8449" stop-color="#303B5D"/>
<stop offset="1" stop-color="#3E4C79"/>
</linearGradient>
<linearGradient id="paint45_linear" x1="146.503" y1="55.9714" x2="117.14" y2="55.9714" gradientUnits="userSpaceOnUse">
<stop stop-color="#2C8AE4"/>
<stop offset="1" stop-color="#46A4D1"/>
</linearGradient>
<linearGradient id="paint46_linear" x1="84.6362" y1="67.282" x2="52.0441" y2="67.282" gradientUnits="userSpaceOnUse">
<stop stop-color="#D166FB"/>
<stop offset="1" stop-color="#FF98F4"/>
</linearGradient>
<radialGradient id="paint47_radial" cx="0" cy="0" r="1" gradientUnits="userSpaceOnUse" gradientTransform="translate(68.3399 66.5271) rotate(180) scale(28.2673 14.9475)">
<stop stop-color="#FF1D43"/>
<stop offset="0.1217" stop-color="#D11837"/>
<stop offset="0.3025" stop-color="#921126"/>
<stop offset="0.4759" stop-color="#5E0B19"/>
<stop offset="0.6368" stop-color="#35060E"/>
<stop offset="0.7828" stop-color="#180306"/>
<stop offset="0.9086" stop-color="#060102"/>
<stop offset="1"/>
</radialGradient>
<clipPath id="clip0">
<rect width="285" height="122" fill="white" transform="matrix(-1 0 0 1 285.946 0)"/>
</clipPath>
</defs>
</svg>
