<svg width="171" height="159" viewBox="0 0 171 159" fill="none" xmlns="http://www.w3.org/2000/svg">
<g clip-path="url(#clip0)">
<g style="mix-blend-mode:screen" opacity="0.5">
<path fill-rule="evenodd" clip-rule="evenodd" d="M36.5876 45.5857C36.5876 45.5857 -1.11244 101.586 7.48756 158.886C7.48756 158.886 9.88756 98.6857 44.6876 59.4857L36.5876 45.5857Z" fill="url(#paint0_linear)"/>
</g>
<g style="mix-blend-mode:screen" opacity="0.5">
<path fill-rule="evenodd" clip-rule="evenodd" d="M57.0871 48.8857C57.0871 48.8857 6.38714 97.9857 14.9871 155.286C14.9871 155.286 14.9871 103.286 63.0871 61.8857L57.0871 48.8857Z" fill="url(#paint1_linear)"/>
</g>
<path fill-rule="evenodd" clip-rule="evenodd" d="M44.6873 29.8859C44.6873 29.8859 36.4873 37.5859 31.4873 55.4859L34.3873 62.0859H50.0873L81.3873 59.6859L53.3873 26.7859L44.6873 29.8859Z" fill="url(#paint2_linear)"/>
<path fill-rule="evenodd" clip-rule="evenodd" d="M134.287 52.0858C134.287 52.0858 126.887 15.8858 99.7869 3.08578C99.7869 3.08578 85.8869 -2.01422 63.0869 0.985775C63.0869 0.985775 52.9869 10.0858 46.0869 24.8858L50.0869 59.6858H81.3869L134.287 52.0858Z" fill="url(#paint3_linear)"/>
<path fill-rule="evenodd" clip-rule="evenodd" d="M122.987 32.2857C119.387 34.3857 95.8874 34.8857 85.7874 32.2857C83.8874 31.7857 82.4874 31.1857 81.6874 30.4857C77.2874 25.8857 68.0874 3.98571 69.9874 3.38571C76.1874 1.28571 92.8874 1.78571 101.487 4.78571C111.687 8.18571 127.287 29.7857 122.987 32.2857Z" fill="url(#paint4_linear)"/>
<path opacity="0.5" fill-rule="evenodd" clip-rule="evenodd" d="M63.0874 1.08569C63.0874 1.08569 76.4874 16.4857 81.4874 51.4857L134.287 52.1857L81.4874 59.7857H50.1874L46.1874 24.9857C46.0874 24.9857 54.2874 8.78569 63.0874 1.08569Z" fill="url(#paint5_linear)"/>
<path opacity="0.7" fill-rule="evenodd" clip-rule="evenodd" d="M81.4875 51.3857L50.1875 59.6857H81.4875L134.288 52.0857L81.4875 51.3857Z" fill="#864577"/>
<path opacity="0.5" fill-rule="evenodd" clip-rule="evenodd" d="M46.5873 29.2859L44.6873 29.9859C44.6873 29.9859 35.6873 39.9859 31.4873 55.5859L34.3873 62.1859H50.0873L81.3873 59.7859H50.1873L46.5873 29.2859Z" fill="#864577"/>
<path opacity="0.5" fill-rule="evenodd" clip-rule="evenodd" d="M44.6873 29.8859L48.8873 59.6859L34.4873 62.0859H50.1873L81.4873 59.6859H50.1873L46.5873 29.2859L44.6873 29.8859Z" fill="#864577"/>
<path opacity="0.5" fill-rule="evenodd" clip-rule="evenodd" d="M46.0869 24.9857C46.0869 24.9857 48.4869 18.6857 56.4869 19.4857C64.3869 20.2857 68.2869 54.8857 68.2869 54.8857L50.0869 59.6857L46.0869 24.9857Z" fill="#864577"/>
<path fill-rule="evenodd" clip-rule="evenodd" d="M58.8877 20.7857L68.2877 9.08569C68.2877 9.08569 70.8877 13.7857 72.5877 18.0857L60.5877 23.2857L58.8877 20.7857Z" fill="#BBC5E3"/>
<path fill-rule="evenodd" clip-rule="evenodd" d="M61.9873 25.9857L74.2873 22.0857C74.2873 22.0857 76.8873 29.1857 78.1873 34.5857L65.4873 37.8857C65.4873 37.8857 63.4873 29.4857 61.9873 25.9857Z" fill="#BBC5E3"/>
<path d="M68.2869 54.8857C68.2869 54.5857 64.1869 26.3857 59.1869 21.2857C57.6869 19.7857 55.7869 19.0857 53.6869 19.4857C50.2869 19.9857 47.2869 22.6857 46.1869 24.9857L46.0869 24.8857C47.2869 22.5857 50.2869 19.8857 53.6869 19.2857C55.8869 18.9857 57.7869 19.5857 59.2869 21.1857C64.1869 26.2857 68.2869 54.5857 68.3869 54.7857L68.2869 54.8857Z" fill="#5C396B"/>
<path fill-rule="evenodd" clip-rule="evenodd" d="M61.9873 45.6859L61.2873 37.8859C61.2873 37.8859 37.7873 37.4859 1.6873 57.0859L0.987305 59.8859L1.7873 62.0859C1.7873 62.0859 27.2873 56.0859 49.2873 53.2859L61.9873 45.6859Z" fill="url(#paint6_linear)"/>
<path fill-rule="evenodd" clip-rule="evenodd" d="M130.388 39.5857C130.388 39.5857 153.688 42.5857 170.088 48.4857L169.388 51.6857C155.488 49.9857 144.088 49.2857 133.388 48.7857L130.388 39.5857Z" fill="url(#paint7_linear)"/>
<path opacity="0.5" fill-rule="evenodd" clip-rule="evenodd" d="M1.6873 57.0859L3.2873 58.3859C3.2873 58.3859 37.6873 45.5859 61.9873 45.6859L49.2873 53.3859C49.2873 53.3859 31.9873 55.3859 1.7873 62.1859L0.987305 59.8859L1.6873 57.0859Z" fill="#864577"/>
<path opacity="0.7" fill-rule="evenodd" clip-rule="evenodd" d="M169.388 51.5858C169.388 51.5858 158.688 48.9858 132.388 45.6858L133.388 48.7858C144.488 49.2858 155.488 49.8858 169.388 51.5858Z" fill="#864577"/>
<path opacity="0.7" fill-rule="evenodd" clip-rule="evenodd" d="M61.9871 45.6858L50.1871 59.6858L34.4871 62.0858L31.7871 56.0858L1.78711 62.0858L3.28711 58.3858C3.28711 58.3858 31.7871 47.5858 61.9871 45.6858Z" fill="#864577"/>
<path opacity="0.5" fill-rule="evenodd" clip-rule="evenodd" d="M89.2871 50.3857C89.2871 50.3857 91.0871 45.4857 93.5871 43.4857C96.0871 41.4857 120.987 40.8857 123.687 41.0857C126.387 41.2857 131.587 50.8857 131.587 50.8857L89.2871 50.3857Z" fill="#864577"/>
<path fill-rule="evenodd" clip-rule="evenodd" d="M89.2871 50.3859L128.887 50.8858C128.887 50.8858 125.087 44.1858 121.687 43.1858C118.287 42.1858 93.6871 43.3859 92.5871 44.4859C91.5871 45.5859 89.2871 50.3859 89.2871 50.3859Z" fill="#361537"/>
<path d="M109.187 42.7858L109.087 42.6858L110.387 41.3858L107.787 34.0858L107.987 33.9858L110.487 41.3858L109.187 42.7858Z" fill="#5C396B"/>
<path d="M142.787 49.2858V49.1858L152.187 48.3858L152.387 43.4858H152.487L152.387 48.4858H152.287L142.787 49.2858Z" fill="#5C396B"/>
<path d="M30.9873 50.3857L29.4873 44.5857H29.6873L31.0873 50.2857L30.9873 50.3857Z" fill="#5C396B"/>
<path fill-rule="evenodd" clip-rule="evenodd" d="M21.8877 47.4857L24.8877 48.6857L36.4877 45.5857L39.7877 41.3857C39.8877 41.3857 28.4877 44.6857 21.8877 47.4857Z" fill="url(#paint8_radial)"/>
<path fill-rule="evenodd" clip-rule="evenodd" d="M144.188 41.7859L146.188 44.4859L157.488 46.3859L160.387 45.4859C160.287 45.3859 151.188 43.0859 144.188 41.7859Z" fill="url(#paint9_radial)"/>
<path opacity="0.5" fill-rule="evenodd" clip-rule="evenodd" d="M101.487 4.68583C101.487 4.68583 88.8873 13.0858 85.8873 32.2858C83.9873 31.7858 82.5873 31.1858 81.7873 30.4858C77.2873 25.8858 68.0873 3.98583 69.9873 3.38583C76.1873 1.18583 92.8873 1.78583 101.487 4.68583Z" fill="url(#paint10_linear)"/>
<path fill-rule="evenodd" clip-rule="evenodd" d="M92.8877 4.78588C92.8877 4.78588 103.888 9.58588 114.088 21.3859L119.588 21.5859C119.588 21.5859 113.388 9.88588 102.788 5.28588C102.788 5.28588 98.4877 3.88588 92.8877 4.78588Z" fill="white"/>
<path fill-rule="evenodd" clip-rule="evenodd" d="M90.9874 4.78589C90.9874 4.78589 99.3874 7.58589 112.187 21.5859L100.687 22.0859C100.687 22.0859 93.1874 9.08589 80.8874 5.08589C80.7874 5.18589 85.1874 4.78589 90.9874 4.78589Z" fill="white"/>
<g style="mix-blend-mode:screen">
<path d="M127.087 46.4858C132.61 46.4858 137.087 42.0087 137.087 36.4858C137.087 30.963 132.61 26.4858 127.087 26.4858C121.564 26.4858 117.087 30.963 117.087 36.4858C117.087 42.0087 121.564 46.4858 127.087 46.4858Z" fill="url(#paint11_radial)"/>
</g>
<g style="mix-blend-mode:screen">
<path d="M83.8877 49.0857C89.4105 49.0857 93.8877 44.6085 93.8877 39.0857C93.8877 33.5628 89.4105 29.0857 83.8877 29.0857C78.3648 29.0857 73.8877 33.5628 73.8877 39.0857C73.8877 44.6085 78.3648 49.0857 83.8877 49.0857Z" fill="url(#paint12_radial)"/>
</g>
<path fill-rule="evenodd" clip-rule="evenodd" d="M58.7871 21.1858C58.7871 21.1858 63.7871 25.6858 66.0871 45.3858C66.1871 45.3858 64.1871 29.2858 58.7871 21.1858Z" fill="#9D89B8"/>
<path fill-rule="evenodd" clip-rule="evenodd" d="M78.3877 35.4858C78.3877 35.4858 87.5877 37.4858 89.2877 38.9858C90.9877 40.5858 79.7877 41.7858 79.7877 41.7858C79.7877 41.7858 79.1877 38.6858 78.3877 35.4858Z" fill="white"/>
<path fill-rule="evenodd" clip-rule="evenodd" d="M128.287 34.7859C128.287 34.7859 123.887 36.8859 123.687 37.8859C123.487 38.8859 130.287 39.5859 130.287 39.5859C130.287 39.5859 129.187 36.5859 128.287 34.7859Z" fill="white"/>
</g>
<defs>
<linearGradient id="paint0_linear" x1="25.404" y1="158.937" x2="25.404" y2="45.5896" gradientUnits="userSpaceOnUse">
<stop/>
<stop offset="1" stop-color="#4A59D6"/>
</linearGradient>
<linearGradient id="paint1_linear" x1="38.4856" y1="155.293" x2="38.4856" y2="48.8749" gradientUnits="userSpaceOnUse">
<stop/>
<stop offset="1" stop-color="#4A59D6"/>
</linearGradient>
<linearGradient id="paint2_linear" x1="56.5011" y1="62.1104" x2="56.5011" y2="26.8218" gradientUnits="userSpaceOnUse">
<stop stop-color="#9089BF"/>
<stop offset="1" stop-color="#D1BDF1"/>
</linearGradient>
<linearGradient id="paint3_linear" x1="90.2168" y1="59.7348" x2="90.2168" y2="0.0857728" gradientUnits="userSpaceOnUse">
<stop stop-color="#AEA9ED"/>
<stop offset="1" stop-color="#EAE1F9"/>
</linearGradient>
<linearGradient id="paint4_linear" x1="96.7179" y1="34.0437" x2="96.7179" y2="2.05581" gradientUnits="userSpaceOnUse">
<stop stop-color="#6A6FE2"/>
<stop offset="1" stop-color="#5B2D74"/>
</linearGradient>
<linearGradient id="paint5_linear" x1="46.129" y1="30.3941" x2="134.306" y2="30.3941" gradientUnits="userSpaceOnUse">
<stop stop-color="#8B7CBD"/>
<stop offset="1" stop-color="#724577"/>
</linearGradient>
<linearGradient id="paint6_linear" x1="0.987305" y1="49.9829" x2="61.9816" y2="49.9829" gradientUnits="userSpaceOnUse">
<stop stop-color="#AEA9ED"/>
<stop offset="1" stop-color="#EAE1F9"/>
</linearGradient>
<linearGradient id="paint7_linear" x1="130.365" y1="45.5896" x2="170.077" y2="45.5896" gradientUnits="userSpaceOnUse">
<stop stop-color="#AEA9ED"/>
<stop offset="1" stop-color="#EAE1F9"/>
</linearGradient>
<radialGradient id="paint8_radial" cx="0" cy="0" r="1" gradientUnits="userSpaceOnUse" gradientTransform="translate(30.8975 45.0067) scale(6.8468)">
<stop stop-color="#55DBD6"/>
<stop offset="1" stop-color="#4AA1FF"/>
</radialGradient>
<radialGradient id="paint9_radial" cx="0" cy="0" r="1" gradientUnits="userSpaceOnUse" gradientTransform="translate(152.226 44.0917) scale(5.9408)">
<stop stop-color="#55DBD6"/>
<stop offset="1" stop-color="#4AA1FF"/>
</radialGradient>
<linearGradient id="paint10_linear" x1="69.7042" y1="17.1646" x2="101.468" y2="17.1646" gradientUnits="userSpaceOnUse">
<stop stop-color="#C77CBD"/>
<stop offset="1" stop-color="#974577"/>
</linearGradient>
<radialGradient id="paint11_radial" cx="0" cy="0" r="1" gradientUnits="userSpaceOnUse" gradientTransform="translate(127.046 36.4941) scale(10.0224)">
<stop stop-color="#0056FF"/>
<stop offset="1"/>
</radialGradient>
<radialGradient id="paint12_radial" cx="0" cy="0" r="1" gradientUnits="userSpaceOnUse" gradientTransform="translate(83.9368 39.0579) scale(10.0224)">
<stop stop-color="#0056FF"/>
<stop offset="1"/>
</radialGradient>
<clipPath id="clip0">
<rect width="169.1" height="158.9" fill="white" transform="translate(0.987305 0.0856934)"/>
</clipPath>
</defs>
</svg>
