<svg width="12" height="24" viewBox="0 0 12 24" fill="none" xmlns="http://www.w3.org/2000/svg">
<path d="M6.75 0.919067C6.75 0.504854 6.41421 0.169067 6 0.169067C5.58579 0.169067 5.25 0.504854 5.25 0.919067L6.75 0.919067ZM5.46967 23.2085C5.76256 23.5014 6.23744 23.5014 6.53033 23.2085L11.3033 18.4355C11.5962 18.1427 11.5962 17.6678 11.3033 17.3749C11.0104 17.082 10.5355 17.082 10.2426 17.3749L6 21.6175L1.75736 17.3749C1.46447 17.082 0.989592 17.082 0.696698 17.3749C0.403805 17.6678 0.403805 18.1427 0.696698 18.4355L5.46967 23.2085ZM5.25 0.919067L5.25 22.6782L6.75 22.6782L6.75 0.919067L5.25 0.919067Z" fill="#35122F"/>
</svg>
