<svg width="12" height="7" viewBox="0 0 12 7" fill="none" xmlns="http://www.w3.org/2000/svg">
<path d="M5.64453 1.36682C5.64453 1.78103 5.98032 2.11682 6.39453 2.11682C6.80874 2.11682 7.14453 1.78103 7.14453 1.36682L5.64453 1.36682ZM6.92486 0.504774C6.63197 0.211881 6.15709 0.211881 5.8642 0.504774L1.09123 5.27774C0.798337 5.57064 0.798337 6.04551 1.09123 6.3384C1.38412 6.6313 1.859 6.6313 2.15189 6.3384L6.39453 2.09576L10.6372 6.33841C10.9301 6.6313 11.4049 6.6313 11.6978 6.33841C11.9907 6.04551 11.9907 5.57064 11.6978 5.27775L6.92486 0.504774ZM7.14453 1.36682L7.14453 1.0351L5.64453 1.0351L5.64453 1.36682L7.14453 1.36682Z" fill="#35122F"/>
</svg>
