<svg width="1440" height="838" viewBox="0 0 1440 838" fill="none" xmlns="http://www.w3.org/2000/svg">
<rect x="-1093.9" y="0.965942" width="2551.67" height="836.928" fill="#10002D"/>
<g style="mix-blend-mode:screen" clip-path="url(#clip0)">
<path d="M1059.47 469.722C1060.25 469.722 1060.89 469.085 1060.89 468.299C1060.89 467.513 1060.25 466.876 1059.47 466.876C1058.68 466.876 1058.04 467.513 1058.04 468.299C1058.04 469.085 1058.68 469.722 1059.47 469.722Z" fill="#909CFF"/>
<path d="M1020.7 648.118C1021.49 648.118 1022.12 647.481 1022.12 646.695C1022.12 645.91 1021.49 645.272 1020.7 645.272C1019.92 645.272 1019.28 645.91 1019.28 646.695C1019.28 647.481 1019.92 648.118 1020.7 648.118Z" fill="#909CFF"/>
<path d="M1250.44 278.164C1251.23 278.164 1251.86 277.527 1251.86 276.742C1251.86 275.956 1251.23 275.319 1250.44 275.319C1249.66 275.319 1249.02 275.956 1249.02 276.742C1249.02 277.527 1249.66 278.164 1250.44 278.164Z" fill="#909CFF"/>
<path d="M1425.95 604.72C1426.73 604.72 1427.37 604.083 1427.37 603.297C1427.37 602.511 1426.73 601.874 1425.95 601.874C1425.16 601.874 1424.52 602.511 1424.52 603.297C1424.52 604.083 1425.16 604.72 1425.95 604.72Z" fill="#E5E8FF"/>
<path d="M1427.55 623.217C1428.33 623.217 1428.97 622.58 1428.97 621.795C1428.97 621.009 1428.33 620.372 1427.55 620.372C1426.76 620.372 1426.12 621.009 1426.12 621.795C1426.12 622.58 1426.76 623.217 1427.55 623.217Z" fill="#E5E8FF"/>
<path d="M1323.88 609.344C1324.67 609.344 1325.3 608.707 1325.3 607.921C1325.3 607.135 1324.67 606.498 1323.88 606.498C1323.09 606.498 1322.46 607.135 1322.46 607.921C1322.46 608.707 1323.09 609.344 1323.88 609.344Z" fill="#E5E8FF"/>
<path d="M617.768 519.524C618.554 519.524 619.191 518.887 619.191 518.101C619.191 517.315 618.554 516.678 617.768 516.678C616.983 516.678 616.346 517.315 616.346 518.101C616.346 518.887 616.983 519.524 617.768 519.524Z" fill="#909CFF"/>
<path d="M1272.67 636.201C1273.45 636.201 1274.09 635.564 1274.09 634.779C1274.09 633.993 1273.45 633.356 1272.67 633.356C1271.88 633.356 1271.25 633.993 1271.25 634.779C1271.25 635.564 1271.88 636.201 1272.67 636.201Z" fill="#909CFF"/>
<path d="M1250.44 313.203C1251.23 313.203 1251.86 312.566 1251.86 311.78C1251.86 310.995 1251.23 310.358 1250.44 310.358C1249.66 310.358 1249.02 310.995 1249.02 311.78C1249.02 312.566 1249.66 313.203 1250.44 313.203Z" fill="#909CFF"/>
<path d="M1236.04 299.152C1236.82 299.152 1237.46 298.515 1237.46 297.729C1237.46 296.943 1236.82 296.306 1236.04 296.306C1235.25 296.306 1234.62 296.943 1234.62 297.729C1234.62 298.515 1235.25 299.152 1236.04 299.152Z" fill="#909CFF"/>
<path d="M967.89 692.406C968.676 692.406 969.313 691.769 969.313 690.983C969.313 690.197 968.676 689.56 967.89 689.56C967.105 689.56 966.468 690.197 966.468 690.983C966.468 691.769 967.105 692.406 967.89 692.406Z" fill="#909CFF"/>
<path d="M1118.5 602.941C1119.29 602.941 1119.92 602.304 1119.92 601.518C1119.92 600.732 1119.29 600.095 1118.5 600.095C1117.72 600.095 1117.08 600.732 1117.08 601.518C1117.08 602.304 1117.72 602.941 1118.5 602.941Z" fill="#909CFF"/>
<path d="M1002.39 653.098C1003.17 653.098 1003.81 652.461 1003.81 651.675C1003.81 650.89 1003.17 650.253 1002.39 650.253C1001.6 650.253 1000.96 650.89 1000.96 651.675C1000.96 652.461 1001.6 653.098 1002.39 653.098Z" fill="#909CFF"/>
<path d="M153.843 628.198C154.629 628.198 155.266 627.561 155.266 626.775C155.266 625.989 154.629 625.352 153.843 625.352C153.058 625.352 152.421 625.989 152.421 626.775C152.421 627.561 153.058 628.198 153.843 628.198Z" fill="#909CFF"/>
<path d="M1286.72 794.499C1287.5 794.499 1288.14 793.862 1288.14 793.076C1288.14 792.29 1287.5 791.653 1286.72 791.653C1285.93 791.653 1285.29 792.29 1285.29 793.076C1285.29 793.862 1285.93 794.499 1286.72 794.499Z" fill="#909CFF"/>
<path d="M1295.96 668.395C1296.75 668.395 1297.39 667.757 1297.39 666.972C1297.39 666.186 1296.75 665.549 1295.96 665.549C1295.18 665.549 1294.54 666.186 1294.54 666.972C1294.54 667.757 1295.18 668.395 1295.96 668.395Z" fill="#909CFF"/>
<path d="M842.529 762.306C843.315 762.306 843.951 761.669 843.951 760.883C843.951 760.097 843.315 759.46 842.529 759.46C841.743 759.46 841.106 760.097 841.106 760.883C841.106 761.669 841.743 762.306 842.529 762.306Z" fill="#909CFF"/>
<path d="M484.405 778.491C485.191 778.491 485.828 777.854 485.828 777.068C485.828 776.283 485.191 775.646 484.405 775.646C483.619 775.646 482.982 776.283 482.982 777.068C482.982 777.854 483.619 778.491 484.405 778.491Z" fill="#909CFF"/>
<path d="M351.931 699.876C352.717 699.876 353.354 699.239 353.354 698.453C353.354 697.667 352.717 697.03 351.931 697.03C351.146 697.03 350.509 697.667 350.509 698.453C350.509 699.239 351.146 699.876 351.931 699.876Z" fill="#909CFF"/>
<path d="M169.669 594.048C170.454 594.048 171.091 593.411 171.091 592.625C171.091 591.839 170.454 591.202 169.669 591.202C168.883 591.202 168.246 591.839 168.246 592.625C168.246 593.411 168.883 594.048 169.669 594.048Z" fill="#909CFF"/>
<path d="M825.992 404.269C826.778 404.269 827.414 403.632 827.414 402.846C827.414 402.06 826.778 401.423 825.992 401.423C825.206 401.423 824.569 402.06 824.569 402.846C824.569 403.632 825.206 404.269 825.992 404.269Z" fill="#909CFF"/>
<path d="M374.514 693.829C375.3 693.829 375.937 693.192 375.937 692.406C375.937 691.62 375.3 690.983 374.514 690.983C373.729 690.983 373.092 691.62 373.092 692.406C373.092 693.192 373.729 693.829 374.514 693.829Z" fill="#909CFF"/>
<path d="M1191.23 567.547C1192.01 567.547 1192.65 566.909 1192.65 566.124C1192.65 565.338 1192.01 564.701 1191.23 564.701C1190.44 564.701 1189.81 565.338 1189.81 566.124C1189.81 566.909 1190.44 567.547 1191.23 567.547Z" fill="#909CFF"/>
<path d="M1228.57 330.1C1229.35 330.1 1229.99 329.463 1229.99 328.677C1229.99 327.892 1229.35 327.254 1228.57 327.254C1227.78 327.254 1227.15 327.892 1227.15 328.677C1227.15 329.463 1227.78 330.1 1228.57 330.1Z" fill="#909CFF"/>
<path d="M1397.14 591.38C1397.93 591.38 1398.56 590.743 1398.56 589.957C1398.56 589.171 1397.93 588.534 1397.14 588.534C1396.35 588.534 1395.72 589.171 1395.72 589.957C1395.72 590.743 1396.35 591.38 1397.14 591.38Z" fill="#909CFF"/>
<path d="M376.648 702.188C377.434 702.188 378.071 701.551 378.071 700.765C378.071 699.98 377.434 699.343 376.648 699.343C375.862 699.343 375.226 699.98 375.226 700.765C375.226 701.551 375.862 702.188 376.648 702.188Z" fill="#909CFF"/>
<path d="M242.218 705.212C243.004 705.212 243.641 704.575 243.641 703.789C243.641 703.003 243.004 702.366 242.218 702.366C241.433 702.366 240.796 703.003 240.796 703.789C240.796 704.575 241.433 705.212 242.218 705.212Z" fill="#909CFF"/>
<path d="M1287.07 760.883C1287.86 760.883 1288.49 760.246 1288.49 759.46C1288.49 758.674 1287.86 758.037 1287.07 758.037C1286.29 758.037 1285.65 758.674 1285.65 759.46C1285.65 760.246 1286.29 760.883 1287.07 760.883Z" fill="#909CFF"/>
<path d="M342.33 700.943C343.115 700.943 343.752 700.306 343.752 699.52C343.752 698.735 343.115 698.098 342.33 698.098C341.544 698.098 340.907 698.735 340.907 699.52C340.907 700.306 341.544 700.943 342.33 700.943Z" fill="#909CFF"/>
<path d="M132.327 711.615C133.112 711.615 133.749 710.978 133.749 710.192C133.749 709.406 133.112 708.769 132.327 708.769C131.541 708.769 130.904 709.406 130.904 710.192C130.904 710.978 131.541 711.615 132.327 711.615Z" fill="#909CFF"/>
<path d="M60.1335 369.052C60.9191 369.052 61.556 368.415 61.556 367.629C61.556 366.843 60.9191 366.206 60.1335 366.206C59.3478 366.206 58.7109 366.843 58.7109 367.629C58.7109 368.415 59.3478 369.052 60.1335 369.052Z" fill="#909CFF"/>
<path d="M929.836 455.315C930.622 455.315 931.259 454.678 931.259 453.893C931.259 453.107 930.622 452.47 929.836 452.47C929.051 452.47 928.414 453.107 928.414 453.893C928.414 454.678 929.051 455.315 929.836 455.315Z" fill="#909CFF"/>
<path d="M1240.13 646.34C1240.91 646.34 1241.55 645.703 1241.55 644.917C1241.55 644.131 1240.91 643.494 1240.13 643.494C1239.34 643.494 1238.71 644.131 1238.71 644.917C1238.71 645.703 1239.34 646.34 1240.13 646.34Z" fill="#909CFF"/>
<path d="M491.873 418.676C494.132 418.676 495.963 416.844 495.963 414.585C495.963 412.326 494.132 410.494 491.873 410.494C489.614 410.494 487.783 412.326 487.783 414.585C487.783 416.844 489.614 418.676 491.873 418.676Z" fill="url(#paint0_radial)"/>
<path d="M491.874 416.008C492.463 416.008 492.94 415.53 492.94 414.941C492.94 414.351 492.463 413.873 491.874 413.873C491.284 413.873 490.807 414.351 490.807 414.941C490.807 415.53 491.284 416.008 491.874 416.008Z" fill="#7EA0FF"/>
<path d="M684.448 330.634C686.707 330.634 688.538 328.802 688.538 326.543C688.538 324.284 686.707 322.452 684.448 322.452C682.189 322.452 680.358 324.284 680.358 326.543C680.358 328.802 682.189 330.634 684.448 330.634Z" fill="url(#paint1_radial)"/>
<path d="M684.449 327.966C685.038 327.966 685.516 327.488 685.516 326.899C685.516 326.309 685.038 325.832 684.449 325.832C683.86 325.832 683.382 326.309 683.382 326.899C683.382 327.488 683.86 327.966 684.449 327.966Z" fill="#7EA0FF"/>
<path d="M439.417 547.27C441.676 547.27 443.507 545.439 443.507 543.179C443.507 540.92 441.676 539.089 439.417 539.089C437.158 539.089 435.327 540.92 435.327 543.179C435.327 545.439 437.158 547.27 439.417 547.27Z" fill="url(#paint2_radial)"/>
<path d="M515.522 554.207C517.781 554.207 519.612 552.375 519.612 550.116C519.612 547.857 517.781 546.025 515.522 546.025C513.264 546.025 511.433 547.857 511.433 550.116C511.433 552.375 513.264 554.207 515.522 554.207Z" fill="url(#paint3_radial)"/>
<path d="M439.416 544.602C440.006 544.602 440.483 544.124 440.483 543.535C440.483 542.946 440.006 542.468 439.416 542.468C438.827 542.468 438.35 542.946 438.35 543.535C438.35 544.124 438.827 544.602 439.416 544.602Z" fill="#7EA0FF"/>
<path d="M445.818 541.756C446.407 541.756 446.885 541.279 446.885 540.689C446.885 540.1 446.407 539.622 445.818 539.622C445.229 539.622 444.751 540.1 444.751 540.689C444.751 541.279 445.229 541.756 445.818 541.756Z" fill="#7EA0FF"/>
<path d="M380.559 556.341C381.148 556.341 381.626 555.863 381.626 555.274C381.626 554.685 381.148 554.207 380.559 554.207C379.97 554.207 379.492 554.685 379.492 555.274C379.492 555.863 379.97 556.341 380.559 556.341Z" fill="#7EA0FF"/>
<path d="M496.852 548.337C497.441 548.337 497.919 547.86 497.919 547.27C497.919 546.681 497.441 546.203 496.852 546.203C496.263 546.203 495.785 546.681 495.785 547.27C495.785 547.86 496.263 548.337 496.852 548.337Z" fill="#7EA0FF"/>
<path d="M1114.41 373.677C1116.67 373.677 1118.5 371.845 1118.5 369.586C1118.5 367.326 1116.67 365.495 1114.41 365.495C1112.15 365.495 1110.32 367.326 1110.32 369.586C1110.32 371.845 1112.15 373.677 1114.41 373.677Z" fill="url(#paint4_radial)"/>
<path d="M1114.41 371.009C1115 371.009 1115.48 370.531 1115.48 369.941C1115.48 369.352 1115 368.874 1114.41 368.874C1113.82 368.874 1113.34 369.352 1113.34 369.941C1113.34 370.531 1113.82 371.009 1114.41 371.009Z" fill="#7EA0FF"/>
<path d="M853.553 643.494C855.811 643.494 857.643 641.662 857.643 639.403C857.643 637.144 855.811 635.312 853.553 635.312C851.294 635.312 849.463 637.144 849.463 639.403C849.463 641.662 851.294 643.494 853.553 643.494Z" fill="url(#paint5_radial)"/>
<path d="M853.553 640.826C854.142 640.826 854.62 640.348 854.62 639.759C854.62 639.169 854.142 638.691 853.553 638.691C852.964 638.691 852.486 639.169 852.486 639.759C852.486 640.348 852.964 640.826 853.553 640.826Z" fill="#7EA0FF"/>
<path d="M767.134 399.289C769.392 399.289 771.224 397.457 771.224 395.198C771.224 392.939 769.392 391.107 767.134 391.107C764.875 391.107 763.044 392.939 763.044 395.198C763.044 397.457 764.875 399.289 767.134 399.289Z" fill="url(#paint6_radial)"/>
<path d="M767.134 396.621C767.724 396.621 768.201 396.143 768.201 395.554C768.201 394.964 767.724 394.486 767.134 394.486C766.545 394.486 766.067 394.964 766.067 395.554C766.067 396.143 766.545 396.621 767.134 396.621Z" fill="#7EA0FF"/>
<path d="M903.875 555.274C906.134 555.274 907.965 553.443 907.965 551.183C907.965 548.924 906.134 547.092 903.875 547.092C901.616 547.092 899.785 548.924 899.785 551.183C899.785 553.443 901.616 555.274 903.875 555.274Z" fill="url(#paint7_radial)"/>
<path d="M903.875 552.606C904.465 552.606 904.942 552.128 904.942 551.539C904.942 550.95 904.465 550.472 903.875 550.472C903.286 550.472 902.809 550.95 902.809 551.539C902.809 552.128 903.286 552.606 903.875 552.606Z" fill="#7EA0FF"/>
<path d="M838.972 534.82C840.347 534.82 841.461 533.705 841.461 532.33C841.461 530.955 840.347 529.84 838.972 529.84C837.597 529.84 836.482 530.955 836.482 532.33C836.482 533.705 837.597 534.82 838.972 534.82Z" fill="url(#paint8_radial)"/>
<path d="M838.972 533.219C839.365 533.219 839.683 532.901 839.683 532.508C839.683 532.115 839.365 531.796 838.972 531.796C838.579 531.796 838.261 532.115 838.261 532.508C838.261 532.901 838.579 533.219 838.972 533.219Z" fill="#7EA0FF"/>
<path d="M1100.18 482.173C1101.56 482.173 1102.67 481.058 1102.67 479.683C1102.67 478.307 1101.56 477.192 1100.18 477.192C1098.81 477.192 1097.7 478.307 1097.7 479.683C1097.7 481.058 1098.81 482.173 1100.18 482.173Z" fill="url(#paint9_radial)"/>
<path d="M1100.18 480.572C1100.58 480.572 1100.9 480.253 1100.9 479.86C1100.9 479.467 1100.58 479.149 1100.18 479.149C1099.79 479.149 1099.47 479.467 1099.47 479.86C1099.47 480.253 1099.79 480.572 1100.18 480.572Z" fill="#7EA0FF"/>
<path d="M1081.34 581.242C1082.71 581.242 1083.83 580.127 1083.83 578.752C1083.83 577.377 1082.71 576.262 1081.34 576.262C1079.96 576.262 1078.85 577.377 1078.85 578.752C1078.85 580.127 1079.96 581.242 1081.34 581.242Z" fill="url(#paint10_radial)"/>
<path d="M1081.34 579.641C1081.73 579.641 1082.05 579.323 1082.05 578.93C1082.05 578.537 1081.73 578.218 1081.34 578.218C1080.94 578.218 1080.62 578.537 1080.62 578.93C1080.62 579.323 1080.94 579.641 1081.34 579.641Z" fill="#7EA0FF"/>
<path d="M827.413 507.073C828.788 507.073 829.903 505.959 829.903 504.583C829.903 503.208 828.788 502.093 827.413 502.093C826.038 502.093 824.924 503.208 824.924 504.583C824.924 505.959 826.038 507.073 827.413 507.073Z" fill="url(#paint11_radial)"/>
<path d="M827.413 505.473C827.806 505.473 828.125 505.154 828.125 504.761C828.125 504.368 827.806 504.05 827.413 504.05C827.021 504.05 826.702 504.368 826.702 504.761C826.702 505.154 827.021 505.473 827.413 505.473Z" fill="#7EA0FF"/>
<path d="M938.371 436.64C939.746 436.64 940.861 435.525 940.861 434.15C940.861 432.775 939.746 431.66 938.371 431.66C936.996 431.66 935.882 432.775 935.882 434.15C935.882 435.525 936.996 436.64 938.371 436.64Z" fill="url(#paint12_radial)"/>
<path d="M938.371 435.039C938.764 435.039 939.083 434.721 939.083 434.328C939.083 433.935 938.764 433.616 938.371 433.616C937.979 433.616 937.66 433.935 937.66 434.328C937.66 434.721 937.979 435.039 938.371 435.039Z" fill="#7EA0FF"/>
<path d="M846.796 526.816C848.171 526.816 849.286 525.701 849.286 524.326C849.286 522.951 848.171 521.836 846.796 521.836C845.421 521.836 844.307 522.951 844.307 524.326C844.307 525.701 845.421 526.816 846.796 526.816Z" fill="url(#paint13_radial)"/>
<path d="M846.796 525.215C847.189 525.215 847.508 524.897 847.508 524.504C847.508 524.111 847.189 523.792 846.796 523.792C846.403 523.792 846.085 524.111 846.085 524.504C846.085 524.897 846.403 525.215 846.796 525.215Z" fill="#7EA0FF"/>
<path d="M884.849 556.697C886.224 556.697 887.338 555.582 887.338 554.207C887.338 552.832 886.224 551.717 884.849 551.717C883.474 551.717 882.359 552.832 882.359 554.207C882.359 555.582 883.474 556.697 884.849 556.697Z" fill="url(#paint14_radial)"/>
<path d="M884.849 555.096C885.242 555.096 885.56 554.778 885.56 554.385C885.56 553.992 885.242 553.673 884.849 553.673C884.456 553.673 884.138 553.992 884.138 554.385C884.138 554.778 884.456 555.096 884.849 555.096Z" fill="#7EA0FF"/>
<path d="M841.106 517.034C842.481 517.034 843.595 515.919 843.595 514.544C843.595 513.168 842.481 512.053 841.106 512.053C839.731 512.053 838.616 513.168 838.616 514.544C838.616 515.919 839.731 517.034 841.106 517.034Z" fill="url(#paint15_radial)"/>
<path d="M841.106 515.611C841.499 515.611 841.817 515.292 841.817 514.899C841.817 514.506 841.499 514.188 841.106 514.188C840.713 514.188 840.395 514.506 840.395 514.899C840.395 515.292 840.713 515.611 841.106 515.611Z" fill="#7EA0FF"/>
<path d="M1056.8 308.045C1059.06 308.045 1060.89 306.214 1060.89 303.955C1060.89 301.695 1059.06 299.864 1056.8 299.864C1054.54 299.864 1052.71 301.695 1052.71 303.955C1052.71 306.214 1054.54 308.045 1056.8 308.045Z" fill="url(#paint16_radial)"/>
<path d="M1056.8 305.377C1057.39 305.377 1057.87 304.9 1057.87 304.31C1057.87 303.721 1057.39 303.243 1056.8 303.243C1056.21 303.243 1055.73 303.721 1055.73 304.31C1055.73 304.9 1056.21 305.377 1056.8 305.377Z" fill="#7EA0FF"/>
<path d="M973.401 461.363C974.776 461.363 975.891 460.248 975.891 458.873C975.891 457.497 974.776 456.383 973.401 456.383C972.027 456.383 970.912 457.497 970.912 458.873C970.912 460.248 972.027 461.363 973.401 461.363Z" fill="url(#paint17_radial)"/>
<path d="M973.402 459.762C973.795 459.762 974.113 459.443 974.113 459.05C974.113 458.658 973.795 458.339 973.402 458.339C973.009 458.339 972.69 458.658 972.69 459.05C972.69 459.443 973.009 459.762 973.402 459.762Z" fill="#7EA0FF"/>
<path d="M981.402 429.703C982.777 429.703 983.892 428.588 983.892 427.213C983.892 425.838 982.777 424.723 981.402 424.723C980.028 424.723 978.913 425.838 978.913 427.213C978.913 428.588 980.028 429.703 981.402 429.703Z" fill="url(#paint18_radial)"/>
<path d="M981.403 428.102C981.796 428.102 982.114 427.784 982.114 427.391C982.114 426.998 981.796 426.68 981.403 426.68C981.01 426.68 980.691 426.998 980.691 427.391C980.691 427.784 981.01 428.102 981.403 428.102Z" fill="#7EA0FF"/>
<path d="M976.246 415.296C977.621 415.296 978.736 414.181 978.736 412.806C978.736 411.431 977.621 410.316 976.246 410.316C974.871 410.316 973.757 411.431 973.757 412.806C973.757 414.181 974.871 415.296 976.246 415.296Z" fill="url(#paint19_radial)"/>
<path d="M976.247 413.696C976.639 413.696 976.958 413.377 976.958 412.984C976.958 412.591 976.639 412.273 976.247 412.273C975.854 412.273 975.535 412.591 975.535 412.984C975.535 413.377 975.854 413.696 976.247 413.696Z" fill="#7EA0FF"/>
<path d="M792.027 541.934C793.402 541.934 794.517 540.82 794.517 539.444C794.517 538.069 793.402 536.954 792.027 536.954C790.653 536.954 789.538 538.069 789.538 539.444C789.538 540.82 790.653 541.934 792.027 541.934Z" fill="url(#paint20_radial)"/>
<path d="M792.028 540.511C792.421 540.511 792.739 540.193 792.739 539.8C792.739 539.407 792.421 539.089 792.028 539.089C791.635 539.089 791.316 539.407 791.316 539.8C791.316 540.193 791.635 540.511 792.028 540.511Z" fill="#7EA0FF"/>
<path d="M496.851 434.15C500.681 434.15 503.786 431.044 503.786 427.213C503.786 423.382 500.681 420.276 496.851 420.276C493.021 420.276 489.916 423.382 489.916 427.213C489.916 431.044 493.021 434.15 496.851 434.15Z" fill="url(#paint21_radial)"/>
<path d="M496.851 429.703C497.931 429.703 498.807 428.827 498.807 427.747C498.807 426.666 497.931 425.79 496.851 425.79C495.77 425.79 494.895 426.666 494.895 427.747C494.895 428.827 495.77 429.703 496.851 429.703Z" fill="#7EA0FF"/>
<path d="M680.003 671.952C683.833 671.952 686.938 668.846 686.938 665.015C686.938 661.184 683.833 658.078 680.003 658.078C676.173 658.078 673.068 661.184 673.068 665.015C673.068 668.846 676.173 671.952 680.003 671.952Z" fill="url(#paint22_radial)"/>
<path d="M680.003 667.505C681.083 667.505 681.959 666.629 681.959 665.549C681.959 664.468 681.083 663.592 680.003 663.592C678.923 663.592 678.047 664.468 678.047 665.549C678.047 666.629 678.923 667.505 680.003 667.505Z" fill="#7EA0FF"/>
<path d="M413.1 759.46C416.93 759.46 420.035 756.354 420.035 752.523C420.035 748.692 416.93 745.587 413.1 745.587C409.27 745.587 406.165 748.692 406.165 752.523C406.165 756.354 409.27 759.46 413.1 759.46Z" fill="url(#paint23_radial)"/>
<path d="M413.1 755.013C414.18 755.013 415.056 754.138 415.056 753.057C415.056 751.976 414.18 751.101 413.1 751.101C412.019 751.101 411.144 751.976 411.144 753.057C411.144 754.138 412.019 755.013 413.1 755.013Z" fill="#7EA0FF"/>
<path d="M1199.05 666.438C1202.88 666.438 1205.99 663.332 1205.99 659.501C1205.99 655.67 1202.88 652.565 1199.05 652.565C1195.22 652.565 1192.12 655.67 1192.12 659.501C1192.12 663.332 1195.22 666.438 1199.05 666.438Z" fill="url(#paint24_radial)"/>
<path d="M1199.05 661.991C1200.13 661.991 1201.01 661.116 1201.01 660.035C1201.01 658.954 1200.13 658.078 1199.05 658.078C1197.97 658.078 1197.09 658.954 1197.09 660.035C1197.09 661.116 1197.97 661.991 1199.05 661.991Z" fill="#7EA0FF"/>
<path d="M532.77 659.679C535.029 659.679 536.86 657.848 536.86 655.588C536.86 653.329 535.029 651.498 532.77 651.498C530.512 651.498 528.681 653.329 528.681 655.588C528.681 657.848 530.512 659.679 532.77 659.679Z" fill="url(#paint25_radial)"/>
<path d="M534.154 655.797C534.251 655.216 533.858 654.666 533.276 654.569C532.695 654.473 532.146 654.866 532.049 655.447C531.952 656.028 532.345 656.578 532.927 656.675C533.508 656.771 534.057 656.378 534.154 655.797Z" fill="#7EA0FF"/>
<path d="M550.196 614.502C551.571 614.502 552.686 613.387 552.686 612.012C552.686 610.637 551.571 609.522 550.196 609.522C548.822 609.522 547.707 610.637 547.707 612.012C547.707 613.387 548.822 614.502 550.196 614.502Z" fill="url(#paint26_radial)"/>
<path d="M551.181 612.217C551.246 611.829 550.984 611.463 550.596 611.398C550.209 611.334 549.842 611.596 549.778 611.984C549.713 612.371 549.975 612.738 550.363 612.802C550.75 612.867 551.117 612.605 551.181 612.217Z" fill="#7EA0FF"/>
<path d="M520.857 621.439C522.232 621.439 523.346 620.324 523.346 618.949C523.346 617.574 522.232 616.459 520.857 616.459C519.482 616.459 518.367 617.574 518.367 618.949C518.367 620.324 519.482 621.439 520.857 621.439Z" fill="url(#paint27_radial)"/>
<path d="M521.78 619.044C521.844 618.656 521.582 618.29 521.195 618.225C520.807 618.161 520.441 618.423 520.376 618.81C520.312 619.198 520.574 619.564 520.961 619.629C521.349 619.693 521.715 619.431 521.78 619.044Z" fill="#7EA0FF"/>
<path d="M503.786 637.98C505.161 637.98 506.276 636.865 506.276 635.49C506.276 634.115 505.161 633 503.786 633C502.411 633 501.297 634.115 501.297 635.49C501.297 636.865 502.411 637.98 503.786 637.98Z" fill="url(#paint28_radial)"/>
<path d="M504.654 635.646C504.718 635.259 504.456 634.892 504.069 634.828C503.681 634.763 503.315 635.025 503.25 635.413C503.186 635.801 503.448 636.167 503.835 636.231C504.223 636.296 504.589 636.034 504.654 635.646Z" fill="#7EA0FF"/>
<path d="M533.126 609.522C534.501 609.522 535.615 608.407 535.615 607.032C535.615 605.657 534.501 604.542 533.126 604.542C531.751 604.542 530.637 605.657 530.637 607.032C530.637 608.407 531.751 609.522 533.126 609.522Z" fill="url(#paint29_radial)"/>
<path d="M534.008 607.032C534.073 606.644 533.811 606.278 533.423 606.213C533.036 606.149 532.669 606.411 532.605 606.799C532.541 607.186 532.802 607.553 533.19 607.617C533.577 607.682 533.944 607.42 534.008 607.032Z" fill="#7EA0FF"/>
<path d="M532.593 449.802C533.968 449.802 535.082 448.687 535.082 447.312C535.082 445.936 533.968 444.822 532.593 444.822C531.218 444.822 530.104 445.936 530.104 447.312C530.104 448.687 531.218 449.802 532.593 449.802Z" fill="url(#paint30_radial)"/>
<path d="M533.527 447.504C533.591 447.116 533.329 446.749 532.942 446.685C532.554 446.621 532.188 446.883 532.123 447.27C532.059 447.658 532.321 448.024 532.708 448.089C533.096 448.153 533.462 447.891 533.527 447.504Z" fill="#7EA0FF"/>
<path d="M549.486 661.991C550.86 661.991 551.975 660.877 551.975 659.501C551.975 658.126 550.86 657.011 549.486 657.011C548.111 657.011 546.996 658.126 546.996 659.501C546.996 660.877 548.111 661.991 549.486 661.991Z" fill="url(#paint31_radial)"/>
<path d="M550.422 659.707C550.487 659.319 550.225 658.953 549.837 658.889C549.45 658.824 549.083 659.086 549.019 659.474C548.955 659.861 549.216 660.228 549.604 660.292C549.992 660.357 550.358 660.095 550.422 659.707Z" fill="#7EA0FF"/>
<path d="M575.98 747.01C579.81 747.01 582.915 743.904 582.915 740.073C582.915 736.242 579.81 733.136 575.98 733.136C572.15 733.136 569.045 736.242 569.045 740.073C569.045 743.904 572.15 747.01 575.98 747.01Z" fill="url(#paint32_radial)"/>
<path d="M578.408 740.387C578.585 739.321 577.864 738.313 576.799 738.136C575.733 737.959 574.725 738.679 574.548 739.745C574.371 740.811 575.091 741.819 576.157 741.996C577.223 742.173 578.23 741.453 578.408 740.387Z" fill="#7EA0FF"/>
<path d="M464.489 765.33C468.319 765.33 471.423 762.224 471.423 758.393C471.423 754.562 468.319 751.456 464.489 751.456C460.659 751.456 457.554 754.562 457.554 758.393C457.554 762.224 460.659 765.33 464.489 765.33Z" fill="url(#paint33_radial)"/>
<path d="M467.039 758.918C467.216 757.852 466.496 756.844 465.431 756.667C464.365 756.49 463.357 757.21 463.18 758.276C463.003 759.342 463.723 760.35 464.789 760.527C465.855 760.704 466.862 759.984 467.039 758.918Z" fill="#7EA0FF"/>
<path d="M1395.18 249.351C1399.01 249.351 1402.12 246.245 1402.12 242.414C1402.12 238.583 1399.01 235.477 1395.18 235.477C1391.35 235.477 1388.25 238.583 1388.25 242.414C1388.25 246.245 1391.35 249.351 1395.18 249.351Z" fill="url(#paint34_radial)"/>
<path d="M1395.18 244.904C1396.26 244.904 1397.14 244.028 1397.14 242.948C1397.14 241.867 1396.26 240.991 1395.18 240.991C1394.1 240.991 1393.23 241.867 1393.23 242.948C1393.23 244.028 1394.1 244.904 1395.18 244.904Z" fill="#7EA0FF"/>
<path d="M626.836 336.325C630.666 336.325 633.771 333.22 633.771 329.389C633.771 325.558 630.666 322.452 626.836 322.452C623.006 322.452 619.901 325.558 619.901 329.389C619.901 333.22 623.006 336.325 626.836 336.325Z" fill="url(#paint35_radial)"/>
<path d="M626.836 331.879C627.916 331.879 628.792 331.003 628.792 329.922C628.792 328.842 627.916 327.966 626.836 327.966C625.756 327.966 624.88 328.842 624.88 329.922C624.88 331.003 625.756 331.879 626.836 331.879Z" fill="#7EA0FF"/>
<path d="M629.954 681.472C630.195 681.162 630.139 680.715 629.829 680.474C629.519 680.233 629.072 680.289 628.831 680.599C628.59 680.909 628.646 681.356 628.956 681.597C629.266 681.838 629.713 681.782 629.954 681.472Z" fill="#FFBFED"/>
<path d="M755.119 708.223C755.36 707.913 755.304 707.466 754.994 707.225C754.684 706.983 754.237 707.039 753.996 707.35C753.755 707.66 753.811 708.107 754.121 708.348C754.431 708.589 754.878 708.533 755.119 708.223Z" fill="#FFBFED"/>
<path d="M609.966 789.195C610.207 788.884 610.151 788.437 609.841 788.196C609.531 787.955 609.084 788.011 608.843 788.322C608.602 788.632 608.658 789.079 608.968 789.32C609.278 789.561 609.725 789.505 609.966 789.195Z" fill="#FFBFED"/>
<path d="M488.647 704.924C489.37 703.993 489.202 702.652 488.271 701.929C487.341 701.205 486 701.374 485.277 702.304C484.554 703.235 484.722 704.576 485.653 705.299C486.583 706.023 487.924 705.854 488.647 704.924Z" fill="#FFBFED"/>
<path d="M589.789 347.379C590.512 346.449 590.344 345.108 589.414 344.384C588.483 343.661 587.143 343.829 586.42 344.76C585.697 345.691 585.865 347.032 586.795 347.755C587.726 348.478 589.066 348.31 589.789 347.379Z" fill="#FFBFED"/>
<path d="M557.043 708.34C557.404 707.875 557.32 707.205 556.855 706.843C556.39 706.481 555.719 706.565 555.358 707.031C554.996 707.496 555.08 708.167 555.546 708.528C556.011 708.89 556.681 708.806 557.043 708.34Z" fill="#FFBFED"/>
<path d="M371.085 654.178C371.446 653.713 371.362 653.042 370.897 652.681C370.432 652.319 369.761 652.403 369.4 652.869C369.038 653.334 369.122 654.004 369.588 654.366C370.053 654.728 370.723 654.644 371.085 654.178Z" fill="#FFBFED"/>
<path d="M580.295 723.574C580.476 723.341 580.434 723.006 580.201 722.825C579.968 722.644 579.633 722.686 579.452 722.919C579.272 723.151 579.314 723.487 579.546 723.668C579.779 723.848 580.114 723.806 580.295 723.574Z" fill="#FFBFED"/>
<path d="M528.776 802.741C528.957 802.508 528.915 802.173 528.682 801.992C528.45 801.811 528.115 801.854 527.934 802.086C527.753 802.319 527.795 802.654 528.028 802.835C528.26 803.016 528.595 802.974 528.776 802.741Z" fill="#FFBFED"/>
<path d="M405.28 801.541C405.461 801.308 405.419 800.973 405.186 800.792C404.954 800.611 404.618 800.653 404.438 800.886C404.257 801.119 404.299 801.454 404.532 801.635C404.764 801.815 405.099 801.773 405.28 801.541Z" fill="#FFBFED"/>
<path d="M400.709 764.171C400.83 764.016 400.802 763.792 400.647 763.671C400.492 763.551 400.268 763.579 400.148 763.734C400.027 763.889 400.055 764.113 400.21 764.233C400.366 764.354 400.589 764.326 400.709 764.171Z" fill="#FFBFED"/>
<path d="M599.663 790.584C599.904 790.273 599.848 789.826 599.538 789.585C599.228 789.344 598.781 789.4 598.54 789.71C598.299 790.021 598.355 790.468 598.665 790.709C598.975 790.95 599.422 790.894 599.663 790.584Z" fill="#FFBFED"/>
<path d="M393.835 823.946C394.076 823.635 394.02 823.189 393.71 822.947C393.4 822.706 392.953 822.762 392.712 823.073C392.471 823.383 392.527 823.83 392.837 824.071C393.147 824.312 393.594 824.256 393.835 823.946Z" fill="#FFBFED"/>
<path d="M30.0823 759.104C31.5554 759.104 32.7495 757.91 32.7495 756.436C32.7495 754.963 31.5554 753.768 30.0823 753.768C28.6092 753.768 27.415 754.963 27.415 756.436C27.415 757.91 28.6092 759.104 30.0823 759.104Z" fill="url(#paint36_radial)"/>
<path d="M30.4434 757.065C30.6845 756.755 30.6284 756.308 30.3183 756.067C30.0081 755.826 29.5613 755.882 29.3202 756.192C29.0792 756.503 29.1352 756.95 29.4454 757.191C29.7556 757.432 30.2024 757.376 30.4434 757.065Z" fill="#FFBFED"/>
<path d="M333.082 743.986C334.555 743.986 335.75 742.792 335.75 741.318C335.75 739.845 334.555 738.65 333.082 738.65C331.609 738.65 330.415 739.845 330.415 741.318C330.415 742.792 331.609 743.986 333.082 743.986Z" fill="url(#paint37_radial)"/>
<path d="M333.546 741.92C333.787 741.61 333.731 741.163 333.421 740.922C333.111 740.681 332.664 740.737 332.423 741.047C332.182 741.358 332.238 741.805 332.548 742.046C332.858 742.287 333.305 742.231 333.546 741.92Z" fill="#FFBFED"/>
<path d="M187.806 825.091C189.279 825.091 190.473 823.897 190.473 822.423C190.473 820.95 189.279 819.755 187.806 819.755C186.333 819.755 185.139 820.95 185.139 822.423C185.139 823.897 186.333 825.091 187.806 825.091Z" fill="url(#paint38_radial)"/>
<path d="M188.281 823.044C188.522 822.734 188.466 822.287 188.156 822.046C187.846 821.805 187.399 821.861 187.158 822.171C186.917 822.482 186.973 822.929 187.283 823.17C187.593 823.411 188.04 823.355 188.281 823.044Z" fill="#FFBFED"/>
<path d="M65.6452 744.52C69.868 744.52 73.2913 741.095 73.2913 736.872C73.2913 732.648 69.868 729.223 65.6452 729.223C61.4223 729.223 57.999 732.648 57.999 736.872C57.999 741.095 61.4223 744.52 65.6452 744.52Z" fill="url(#paint39_radial)"/>
<path d="M66.9202 738.575C67.6433 737.644 67.4752 736.303 66.5447 735.58C65.6142 734.857 64.2736 735.025 63.5505 735.956C62.8274 736.886 62.9956 738.227 63.9261 738.951C64.8566 739.674 66.1971 739.506 66.9202 738.575Z" fill="#FFBFED"/>
<path d="M134.816 744.875C136.78 744.875 138.372 743.283 138.372 741.318C138.372 739.353 136.78 737.761 134.816 737.761C132.852 737.761 131.26 739.353 131.26 741.318C131.26 743.283 132.852 744.875 134.816 744.875Z" fill="url(#paint40_radial)"/>
<path d="M135.465 742.127C135.827 741.662 135.743 740.991 135.278 740.629C134.812 740.268 134.142 740.352 133.781 740.817C133.419 741.283 133.503 741.953 133.968 742.315C134.434 742.676 135.104 742.592 135.465 742.127Z" fill="#FFBFED"/>
<path d="M158.466 758.571C159.448 758.571 160.244 757.774 160.244 756.792C160.244 755.81 159.448 755.013 158.466 755.013C157.484 755.013 156.688 755.81 156.688 756.792C156.688 757.774 157.484 758.571 158.466 758.571Z" fill="url(#paint41_radial)"/>
<path d="M158.71 757.364C158.891 757.131 158.849 756.796 158.616 756.615C158.383 756.435 158.048 756.477 157.867 756.709C157.687 756.942 157.729 757.277 157.961 757.458C158.194 757.639 158.529 757.597 158.71 757.364Z" fill="#FFBFED"/>
<path d="M106.722 837.897C107.704 837.897 108.5 837.101 108.5 836.119C108.5 835.136 107.704 834.34 106.722 834.34C105.739 834.34 104.943 835.136 104.943 836.119C104.943 837.101 105.739 837.897 106.722 837.897Z" fill="url(#paint42_radial)"/>
<path d="M107.084 836.37C107.265 836.137 107.223 835.802 106.99 835.621C106.757 835.44 106.422 835.483 106.241 835.715C106.061 835.948 106.103 836.283 106.335 836.464C106.568 836.645 106.903 836.603 107.084 836.37Z" fill="#FFBFED"/>
<path d="M177.493 826.514C179.064 826.514 180.338 825.24 180.338 823.668C180.338 822.097 179.064 820.823 177.493 820.823C175.921 820.823 174.647 822.097 174.647 823.668C174.647 825.24 175.921 826.514 177.493 826.514Z" fill="url(#paint43_radial)"/>
<path d="M177.845 824.337C178.086 824.027 178.03 823.58 177.72 823.339C177.409 823.098 176.963 823.154 176.722 823.464C176.481 823.774 176.537 824.221 176.847 824.462C177.157 824.703 177.604 824.647 177.845 824.337Z" fill="#FFBFED"/>
<path d="M798.074 760.172C799.548 760.172 800.742 758.977 800.742 757.504C800.742 756.03 799.548 754.836 798.074 754.836C796.601 754.836 795.407 756.03 795.407 757.504C795.407 758.977 796.601 760.172 798.074 760.172Z" fill="url(#paint44_radial)"/>
<path d="M798.549 757.944C798.903 757.773 799.051 757.348 798.88 756.994C798.709 756.64 798.284 756.492 797.931 756.663C797.577 756.834 797.429 757.259 797.599 757.613C797.77 757.967 798.195 758.115 798.549 757.944Z" fill="#FFBFED"/>
<path d="M456.665 209.332C458.138 209.332 459.333 208.137 459.333 206.664C459.333 205.19 458.138 203.996 456.665 203.996C455.192 203.996 453.998 205.19 453.998 206.664C453.998 208.137 455.192 209.332 456.665 209.332Z" fill="url(#paint45_radial)"/>
<path d="M457.184 207.323C457.538 207.152 457.686 206.727 457.515 206.373C457.344 206.019 456.919 205.871 456.565 206.042C456.212 206.213 456.063 206.638 456.234 206.992C456.405 207.346 456.83 207.494 457.184 207.323Z" fill="#FFBFED"/>
<path d="M760.555 670.529C762.028 670.529 763.222 669.334 763.222 667.861C763.222 666.387 762.028 665.193 760.555 665.193C759.082 665.193 757.888 666.387 757.888 667.861C757.888 669.334 759.082 670.529 760.555 670.529Z" fill="url(#paint46_radial)"/>
<path d="M761.05 668.316C761.404 668.146 761.552 667.72 761.381 667.366C761.21 667.013 760.785 666.864 760.431 667.035C760.078 667.206 759.93 667.631 760.1 667.985C760.271 668.339 760.696 668.487 761.05 668.316Z" fill="#FFBFED"/>
<path d="M790.428 766.752C791.901 766.752 793.095 765.558 793.095 764.085C793.095 762.611 791.901 761.417 790.428 761.417C788.955 761.417 787.761 762.611 787.761 764.085C787.761 765.558 788.955 766.752 790.428 766.752Z" fill="url(#paint47_radial)"/>
<path d="M790.889 764.57C791.243 764.4 791.391 763.974 791.22 763.62C791.049 763.267 790.624 763.118 790.27 763.289C789.917 763.46 789.768 763.885 789.939 764.239C790.11 764.593 790.535 764.741 790.889 764.57Z" fill="#FFBFED"/>
<path d="M787.584 661.991C791.807 661.991 795.23 658.567 795.23 654.343C795.23 650.119 791.807 646.695 787.584 646.695C783.361 646.695 779.938 650.119 779.938 654.343C779.938 658.567 783.361 661.991 787.584 661.991Z" fill="url(#paint48_radial)"/>
<path d="M789.039 656.132C790.1 655.62 790.545 654.344 790.032 653.282C789.52 652.221 788.244 651.776 787.183 652.288C786.122 652.801 785.677 654.077 786.189 655.138C786.702 656.2 787.977 656.645 789.039 656.132Z" fill="#FFBFED"/>
<path d="M834.349 807.483C838.572 807.483 841.995 804.059 841.995 799.835C841.995 795.611 838.572 792.187 834.349 792.187C830.126 792.187 826.703 795.611 826.703 799.835C826.703 804.059 830.126 807.483 834.349 807.483Z" fill="url(#paint49_radial)"/>
<path d="M835.796 801.363C836.857 800.851 837.302 799.574 836.789 798.513C836.277 797.452 835.001 797.007 833.94 797.519C832.879 798.032 832.434 799.308 832.947 800.369C833.459 801.431 834.735 801.876 835.796 801.363Z" fill="#FFBFED"/>
<path d="M590.207 254.331C594.43 254.331 597.853 250.907 597.853 246.683C597.853 242.459 594.43 239.035 590.207 239.035C585.984 239.035 582.561 242.459 582.561 246.683C582.561 250.907 585.984 254.331 590.207 254.331Z" fill="url(#paint50_radial)"/>
<path d="M591.691 248.413C592.752 247.901 593.197 246.625 592.685 245.563C592.172 244.502 590.897 244.057 589.836 244.569C588.774 245.082 588.329 246.358 588.842 247.419C589.354 248.481 590.63 248.926 591.691 248.413Z" fill="#FFBFED"/>
<path d="M724.814 743.63C726.778 743.63 728.37 742.038 728.37 740.073C728.37 738.109 726.778 736.516 724.814 736.516C722.85 736.516 721.258 738.109 721.258 740.073C721.258 742.038 722.85 743.63 724.814 743.63Z" fill="url(#paint51_radial)"/>
<path d="M725.612 740.828C726.143 740.572 726.365 739.934 726.109 739.403C725.853 738.872 725.215 738.65 724.684 738.906C724.154 739.162 723.931 739.8 724.188 740.331C724.444 740.862 725.082 741.084 725.612 740.828Z" fill="#FFBFED"/>
<path d="M809.633 726.378C811.597 726.378 813.189 724.785 813.189 722.82C813.189 720.856 811.597 719.263 809.633 719.263C807.668 719.263 806.076 720.856 806.076 722.82C806.076 724.785 807.668 726.378 809.633 726.378Z" fill="url(#paint52_radial)"/>
<path d="M810.279 723.822C810.81 723.565 811.032 722.927 810.776 722.397C810.52 721.866 809.882 721.643 809.351 721.9C808.821 722.156 808.598 722.794 808.855 723.325C809.111 723.855 809.749 724.078 810.279 723.822Z" fill="#FFBFED"/>
<path d="M451.509 271.761C453.474 271.761 455.066 270.169 455.066 268.204C455.066 266.24 453.474 264.647 451.509 264.647C449.545 264.647 447.953 266.24 447.953 268.204C447.953 270.169 449.545 271.761 451.509 271.761Z" fill="url(#paint53_radial)"/>
<path d="M452.176 269.168C452.706 268.912 452.929 268.274 452.672 267.743C452.416 267.212 451.778 266.99 451.248 267.246C450.717 267.502 450.495 268.14 450.751 268.671C451.007 269.202 451.645 269.424 452.176 269.168Z" fill="#FFBFED"/>
<path d="M567.624 224.984C569.588 224.984 571.18 223.391 571.18 221.426C571.18 219.462 569.588 217.869 567.624 217.869C565.66 217.869 564.067 219.462 564.067 221.426C564.067 223.391 565.66 224.984 567.624 224.984Z" fill="url(#paint54_radial)"/>
<path d="M568.44 222.148C568.97 221.891 569.193 221.253 568.936 220.722C568.68 220.192 568.042 219.969 567.512 220.226C566.981 220.482 566.759 221.12 567.015 221.651C567.271 222.181 567.909 222.404 568.44 222.148Z" fill="#FFBFED"/>
<path d="M672.003 689.738C672.985 689.738 673.781 688.942 673.781 687.959C673.781 686.977 672.985 686.181 672.003 686.181C671.021 686.181 670.225 686.977 670.225 687.959C670.225 688.942 671.021 689.738 672.003 689.738Z" fill="url(#paint55_radial)"/>
<path d="M672.358 688.27C672.624 688.142 672.735 687.823 672.607 687.558C672.479 687.292 672.16 687.181 671.894 687.309C671.629 687.437 671.518 687.756 671.646 688.022C671.774 688.287 672.093 688.398 672.358 688.27Z" fill="#FFBFED"/>
<path d="M704.365 695.963C705.347 695.963 706.143 695.167 706.143 694.185C706.143 693.202 705.347 692.406 704.365 692.406C703.383 692.406 702.587 693.202 702.587 694.185C702.587 695.167 703.383 695.963 704.365 695.963Z" fill="url(#paint56_radial)"/>
<path d="M704.606 694.625C704.872 694.496 704.983 694.177 704.855 693.912C704.727 693.647 704.408 693.535 704.142 693.664C703.877 693.792 703.766 694.111 703.894 694.376C704.022 694.641 704.341 694.753 704.606 694.625Z" fill="#FFBFED"/>
<path d="M771.758 628.553C772.74 628.553 773.536 627.757 773.536 626.775C773.536 625.792 772.74 624.996 771.758 624.996C770.776 624.996 769.979 625.792 769.979 626.775C769.979 627.757 770.776 628.553 771.758 628.553Z" fill="url(#paint57_radial)"/>
<path d="M771.949 627.042C772.215 626.914 772.326 626.595 772.198 626.329C772.07 626.064 771.751 625.953 771.485 626.081C771.22 626.209 771.109 626.528 771.237 626.793C771.365 627.059 771.684 627.17 771.949 627.042Z" fill="#FFBFED"/>
<path d="M744.552 812.997C745.338 812.997 745.975 812.36 745.975 811.574C745.975 810.788 745.338 810.151 744.552 810.151C743.767 810.151 743.13 810.788 743.13 811.574C743.13 812.36 743.767 812.997 744.552 812.997Z" fill="url(#paint58_radial)"/>
<path d="M744.891 811.869C745.068 811.784 745.142 811.571 745.057 811.394C744.971 811.217 744.759 811.143 744.582 811.229C744.405 811.314 744.331 811.527 744.416 811.704C744.502 811.881 744.714 811.955 744.891 811.869Z" fill="#FFBFED"/>
<path d="M677.16 686.181C678.731 686.181 680.005 684.907 680.005 683.335C680.005 681.763 678.731 680.489 677.16 680.489C675.588 680.489 674.314 681.763 674.314 683.335C674.314 684.907 675.588 686.181 677.16 686.181Z" fill="url(#paint59_radial)"/>
<path d="M677.636 684.001C677.99 683.83 678.138 683.405 677.967 683.051C677.796 682.697 677.371 682.549 677.017 682.72C676.664 682.891 676.515 683.316 676.686 683.67C676.857 684.024 677.282 684.172 677.636 684.001Z" fill="#FFBFED"/>
<path d="M893.741 759.104C895.312 759.104 896.586 757.83 896.586 756.259C896.586 754.687 895.312 753.413 893.741 753.413C892.169 753.413 890.896 754.687 890.896 756.259C890.896 757.83 892.169 759.104 893.741 759.104Z" fill="url(#paint60_radial)"/>
<path d="M894.265 756.922C894.619 756.751 894.767 756.326 894.596 755.972C894.425 755.618 894 755.47 893.646 755.641C893.293 755.812 893.144 756.237 893.315 756.591C893.486 756.945 893.911 757.093 894.265 756.922Z" fill="#FFBFED"/>
<path d="M1347.71 528.773C1360.67 528.773 1371.18 518.261 1371.18 505.295C1371.18 492.328 1360.67 481.817 1347.71 481.817C1334.74 481.817 1324.24 492.328 1324.24 505.295C1324.24 518.261 1334.74 528.773 1347.71 528.773Z" fill="url(#paint61_radial)"/>
<g style="mix-blend-mode:screen">
<path d="M1347.71 516.144C1353.7 516.144 1358.55 511.287 1358.55 505.295C1358.55 499.303 1353.7 494.445 1347.71 494.445C1341.72 494.445 1336.86 499.303 1336.86 505.295C1336.86 511.287 1341.72 516.144 1347.71 516.144Z" fill="url(#paint62_radial)"/>
</g>
<path d="M1347.71 507.429C1348.89 507.429 1349.84 506.473 1349.84 505.295C1349.84 504.116 1348.89 503.16 1347.71 503.16C1346.53 503.16 1345.57 504.116 1345.57 505.295C1345.57 506.473 1346.53 507.429 1347.71 507.429Z" fill="white"/>
<path d="M1378.29 432.549C1391.25 432.549 1401.76 422.038 1401.76 409.071C1401.76 396.105 1391.25 385.593 1378.29 385.593C1365.33 385.593 1354.82 396.105 1354.82 409.071C1354.82 422.038 1365.33 432.549 1378.29 432.549Z" fill="url(#paint63_radial)"/>
<g style="mix-blend-mode:screen">
<path d="M1378.29 419.921C1384.28 419.921 1389.14 415.063 1389.14 409.071C1389.14 403.079 1384.28 398.222 1378.29 398.222C1372.3 398.222 1367.44 403.079 1367.44 409.071C1367.44 415.063 1372.3 419.921 1378.29 419.921Z" fill="url(#paint64_radial)"/>
</g>
<path d="M1378.29 411.206C1379.47 411.206 1380.42 410.25 1380.42 409.071C1380.42 407.892 1379.47 406.937 1378.29 406.937C1377.11 406.937 1376.16 407.892 1376.16 409.071C1376.16 410.25 1377.11 411.206 1378.29 411.206Z" fill="white"/>
<path d="M992.428 816.732C1000.97 816.732 1007.9 809.804 1007.9 801.258C1007.9 792.712 1000.97 785.784 992.428 785.784C983.884 785.784 976.958 792.712 976.958 801.258C976.958 809.804 983.884 816.732 992.428 816.732Z" fill="url(#paint65_radial)"/>
<g style="mix-blend-mode:screen">
<path d="M992.428 808.372C996.356 808.372 999.541 805.187 999.541 801.258C999.541 797.329 996.356 794.143 992.428 794.143C988.5 794.143 985.315 797.329 985.315 801.258C985.315 805.187 988.5 808.372 992.428 808.372Z" fill="url(#paint66_radial)"/>
</g>
<path d="M992.428 802.681C993.214 802.681 993.851 802.044 993.851 801.258C993.851 800.472 993.214 799.835 992.428 799.835C991.643 799.835 991.006 800.472 991.006 801.258C991.006 802.044 991.643 802.681 992.428 802.681Z" fill="white"/>
</g>
<g style="mix-blend-mode:screen" clip-path="url(#clip1)">
<path d="M17.4567 286.791C18.2423 286.791 18.8792 286.154 18.8792 285.368C18.8792 284.582 18.2423 283.945 17.4567 283.945C16.671 283.945 16.0342 284.582 16.0342 285.368C16.0342 286.154 16.671 286.791 17.4567 286.791Z" fill="#909CFF"/>
<path d="M208.432 95.233C209.218 95.233 209.855 94.5959 209.855 93.8101C209.855 93.0243 209.218 92.3872 208.432 92.3872C207.647 92.3872 207.01 93.0243 207.01 93.8101C207.01 94.5959 207.647 95.233 208.432 95.233Z" fill="#909CFF"/>
<path d="M383.937 421.788C384.723 421.788 385.36 421.151 385.36 420.365C385.36 419.58 384.723 418.943 383.937 418.943C383.152 418.943 382.515 419.58 382.515 420.365C382.515 421.151 383.152 421.788 383.937 421.788Z" fill="#E5E8FF"/>
<path d="M385.538 440.286C386.323 440.286 386.96 439.649 386.96 438.863C386.96 438.077 386.323 437.44 385.538 437.44C384.752 437.44 384.115 438.077 384.115 438.863C384.115 439.649 384.752 440.286 385.538 440.286Z" fill="#E5E8FF"/>
<path d="M281.872 426.413C282.657 426.413 283.294 425.776 283.294 424.99C283.294 424.204 282.657 423.567 281.872 423.567C281.086 423.567 280.449 424.204 280.449 424.99C280.449 425.776 281.086 426.413 281.872 426.413Z" fill="#E5E8FF"/>
<path d="M230.66 453.27C231.446 453.27 232.082 452.633 232.082 451.847C232.082 451.061 231.446 450.424 230.66 450.424C229.874 450.424 229.237 451.061 229.237 451.847C229.237 452.633 229.874 453.27 230.66 453.27Z" fill="#909CFF"/>
<path d="M208.432 130.272C209.218 130.272 209.855 129.635 209.855 128.849C209.855 128.063 209.218 127.426 208.432 127.426C207.647 127.426 207.01 128.063 207.01 128.849C207.01 129.635 207.647 130.272 208.432 130.272Z" fill="#909CFF"/>
<path d="M194.029 116.221C194.815 116.221 195.452 115.584 195.452 114.798C195.452 114.012 194.815 113.375 194.029 113.375C193.243 113.375 192.606 114.012 192.606 114.798C192.606 115.584 193.243 116.221 194.029 116.221Z" fill="#909CFF"/>
<path d="M76.4919 420.01C77.2776 420.01 77.9146 419.373 77.9146 418.587C77.9146 417.801 77.2776 417.164 76.4919 417.164C75.7062 417.164 75.0693 417.801 75.0693 418.587C75.0693 419.373 75.7062 420.01 76.4919 420.01Z" fill="#909CFF"/>
<path d="M244.707 611.568C245.492 611.568 246.129 610.93 246.129 610.145C246.129 609.359 245.492 608.722 244.707 608.722C243.921 608.722 243.284 609.359 243.284 610.145C243.284 610.93 243.921 611.568 244.707 611.568Z" fill="#909CFF"/>
<path d="M253.954 485.463C254.739 485.463 255.376 484.826 255.376 484.04C255.376 483.254 254.739 482.617 253.954 482.617C253.168 482.617 252.531 483.254 252.531 484.04C252.531 484.826 253.168 485.463 253.954 485.463Z" fill="#909CFF"/>
<path d="M149.219 384.615C150.005 384.615 150.642 383.978 150.642 383.192C150.642 382.406 150.005 381.769 149.219 381.769C148.434 381.769 147.797 382.406 147.797 383.192C147.797 383.978 148.434 384.615 149.219 384.615Z" fill="#909CFF"/>
<path d="M186.56 147.169C187.346 147.169 187.983 146.532 187.983 145.746C187.983 144.96 187.346 144.323 186.56 144.323C185.775 144.323 185.138 144.96 185.138 145.746C185.138 146.532 185.775 147.169 186.56 147.169Z" fill="#909CFF"/>
<path d="M355.132 408.449C355.917 408.449 356.554 407.812 356.554 407.026C356.554 406.24 355.917 405.603 355.132 405.603C354.346 405.603 353.709 406.24 353.709 407.026C353.709 407.812 354.346 408.449 355.132 408.449Z" fill="#909CFF"/>
<path d="M245.063 577.951C245.849 577.951 246.485 577.314 246.485 576.529C246.485 575.743 245.849 575.106 245.063 575.106C244.277 575.106 243.641 575.743 243.641 576.529C243.641 577.314 244.277 577.951 245.063 577.951Z" fill="#909CFF"/>
<path d="M198.119 463.408C198.904 463.408 199.541 462.771 199.541 461.985C199.541 461.199 198.904 460.562 198.119 460.562C197.333 460.562 196.696 461.199 196.696 461.985C196.696 462.771 197.333 463.408 198.119 463.408Z" fill="#909CFF"/>
<path d="M72.4014 190.745C74.6602 190.745 76.4912 188.914 76.4912 186.654C76.4912 184.395 74.6602 182.563 72.4014 182.563C70.1427 182.563 68.3115 184.395 68.3115 186.654C68.3115 188.914 70.1427 190.745 72.4014 190.745Z" fill="url(#paint67_radial)"/>
<path d="M72.4019 188.077C72.9911 188.077 73.4688 187.599 73.4688 187.01C73.4688 186.421 72.9911 185.943 72.4019 185.943C71.8127 185.943 71.335 186.421 71.335 187.01C71.335 187.599 71.8127 188.077 72.4019 188.077Z" fill="#7EA0FF"/>
<path d="M58.1761 299.241C59.551 299.241 60.6655 298.126 60.6655 296.751C60.6655 295.376 59.551 294.261 58.1761 294.261C56.8012 294.261 55.6865 295.376 55.6865 296.751C55.6865 298.126 56.8012 299.241 58.1761 299.241Z" fill="url(#paint68_radial)"/>
<path d="M58.1761 297.64C58.569 297.64 58.8873 297.322 58.8873 296.929C58.8873 296.536 58.569 296.217 58.1761 296.217C57.7833 296.217 57.4648 296.536 57.4648 296.929C57.4648 297.322 57.7833 297.64 58.1761 297.64Z" fill="#7EA0FF"/>
<path d="M39.3272 398.31C40.7021 398.31 41.8167 397.196 41.8167 395.82C41.8167 394.445 40.7021 393.33 39.3272 393.33C37.9524 393.33 36.8379 394.445 36.8379 395.82C36.8379 397.196 37.9524 398.31 39.3272 398.31Z" fill="url(#paint69_radial)"/>
<path d="M39.3274 396.71C39.7202 396.71 40.0387 396.391 40.0387 395.998C40.0387 395.605 39.7202 395.287 39.3274 395.287C38.9346 395.287 38.6162 395.605 38.6162 395.998C38.6162 396.391 38.9346 396.71 39.3274 396.71Z" fill="#7EA0FF"/>
<path d="M14.789 125.114C17.0477 125.114 18.8788 123.282 18.8788 121.023C18.8788 118.764 17.0477 116.932 14.789 116.932C12.5303 116.932 10.6992 118.764 10.6992 121.023C10.6992 123.282 12.5303 125.114 14.789 125.114Z" fill="url(#paint70_radial)"/>
<path d="M14.7895 122.446C15.3787 122.446 15.8563 121.968 15.8563 121.379C15.8563 120.789 15.3787 120.312 14.7895 120.312C14.2003 120.312 13.7227 120.789 13.7227 121.379C13.7227 121.968 14.2003 122.446 14.7895 122.446Z" fill="#7EA0FF"/>
<path d="M157.042 483.507C160.872 483.507 163.977 480.401 163.977 476.57C163.977 472.739 160.872 469.633 157.042 469.633C153.212 469.633 150.107 472.739 150.107 476.57C150.107 480.401 153.212 483.507 157.042 483.507Z" fill="url(#paint71_radial)"/>
<path d="M157.042 479.06C158.122 479.06 158.998 478.184 158.998 477.104C158.998 476.023 158.122 475.147 157.042 475.147C155.962 475.147 155.086 476.023 155.086 477.104C155.086 478.184 155.962 479.06 157.042 479.06Z" fill="#7EA0FF"/>
<path d="M353.175 66.4193C357.005 66.4193 360.11 63.3137 360.11 59.4827C360.11 55.6517 357.005 52.546 353.175 52.546C349.345 52.546 346.24 55.6517 346.24 59.4827C346.24 63.3137 349.345 66.4193 353.175 66.4193Z" fill="url(#paint72_radial)"/>
<path d="M353.175 61.9727C354.255 61.9727 355.131 61.0968 355.131 60.0162C355.131 58.9357 354.255 58.0598 353.175 58.0598C352.094 58.0598 351.219 58.9357 351.219 60.0162C351.219 61.0968 352.094 61.9727 353.175 61.9727Z" fill="#7EA0FF"/>
<path d="M409.544 31.0247C411.508 31.0247 413.1 29.432 413.1 27.4674C413.1 25.5028 411.508 23.9102 409.544 23.9102C407.58 23.9102 405.987 25.5028 405.987 27.4674C405.987 29.432 407.58 31.0247 409.544 31.0247Z" fill="url(#paint73_radial)"/>
<path d="M410.2 28.2265C410.731 27.9702 410.953 27.3321 410.697 26.8014C410.441 26.2706 409.803 26.0482 409.272 26.3045C408.742 26.5608 408.519 27.1989 408.776 27.7296C409.032 28.2603 409.67 28.4828 410.2 28.2265Z" fill="#FFBFED"/>
<path d="M305.698 345.841C318.662 345.841 329.17 335.33 329.17 322.363C329.17 309.397 318.662 298.885 305.698 298.885C292.735 298.885 282.227 309.397 282.227 322.363C282.227 335.33 292.735 345.841 305.698 345.841Z" fill="url(#paint74_radial)"/>
<g style="mix-blend-mode:screen">
<path d="M305.698 333.213C311.689 333.213 316.545 328.355 316.545 322.363C316.545 316.371 311.689 311.514 305.698 311.514C299.708 311.514 294.852 316.371 294.852 322.363C294.852 328.355 299.708 333.213 305.698 333.213Z" fill="url(#paint75_radial)"/>
</g>
<path d="M305.698 324.498C306.877 324.498 307.832 323.542 307.832 322.363C307.832 321.184 306.877 320.229 305.698 320.229C304.52 320.229 303.564 321.184 303.564 322.363C303.564 323.542 304.52 324.498 305.698 324.498Z" fill="white"/>
<path d="M336.282 249.618C349.246 249.618 359.754 239.106 359.754 226.14C359.754 213.173 349.246 202.662 336.282 202.662C323.319 202.662 312.811 213.173 312.811 226.14C312.811 239.106 323.319 249.618 336.282 249.618Z" fill="url(#paint76_radial)"/>
<g style="mix-blend-mode:screen">
<path d="M336.282 236.989C342.273 236.989 347.129 232.132 347.129 226.14C347.129 220.148 342.273 215.29 336.282 215.29C330.292 215.29 325.436 220.148 325.436 226.14C325.436 232.132 330.292 236.989 336.282 236.989Z" fill="url(#paint77_radial)"/>
</g>
<path d="M336.282 228.274C337.461 228.274 338.416 227.318 338.416 226.14C338.416 224.961 337.461 224.005 336.282 224.005C335.104 224.005 334.148 224.961 334.148 226.14C334.148 227.318 335.104 228.274 336.282 228.274Z" fill="white"/>
</g>
<defs>
<radialGradient id="paint0_radial" cx="0" cy="0" r="1" gradientUnits="userSpaceOnUse" gradientTransform="translate(491.821 414.548) rotate(180) scale(4.0199 4.02094)">
<stop stop-color="#2E00A7"/>
<stop offset="0.0871337" stop-color="#280091"/>
<stop offset="0.3119" stop-color="#1A005E"/>
<stop offset="0.5232" stop-color="#0F0035"/>
<stop offset="0.7147" stop-color="#070018"/>
<stop offset="0.8799" stop-color="#020006"/>
<stop offset="1"/>
</radialGradient>
<radialGradient id="paint1_radial" cx="0" cy="0" r="1" gradientUnits="userSpaceOnUse" gradientTransform="translate(684.405 326.606) rotate(180) scale(4.01972 4.02074)">
<stop stop-color="#2E00A7"/>
<stop offset="0.0871337" stop-color="#280091"/>
<stop offset="0.3119" stop-color="#1A005E"/>
<stop offset="0.5232" stop-color="#0F0035"/>
<stop offset="0.7147" stop-color="#070018"/>
<stop offset="0.8799" stop-color="#020006"/>
<stop offset="1"/>
</radialGradient>
<radialGradient id="paint2_radial" cx="0" cy="0" r="1" gradientUnits="userSpaceOnUse" gradientTransform="translate(439.417 543.181) rotate(180) scale(4.01974 4.02074)">
<stop stop-color="#2E00A7"/>
<stop offset="0.0871337" stop-color="#280091"/>
<stop offset="0.3119" stop-color="#1A005E"/>
<stop offset="0.5232" stop-color="#0F0035"/>
<stop offset="0.7147" stop-color="#070018"/>
<stop offset="0.8799" stop-color="#020006"/>
<stop offset="1"/>
</radialGradient>
<radialGradient id="paint3_radial" cx="0" cy="0" r="1" gradientUnits="userSpaceOnUse" gradientTransform="translate(515.57 550.134) rotate(180) scale(4.01978 4.02076)">
<stop stop-color="#2E00A7"/>
<stop offset="0.0871337" stop-color="#280091"/>
<stop offset="0.3119" stop-color="#1A005E"/>
<stop offset="0.5232" stop-color="#0F0035"/>
<stop offset="0.7147" stop-color="#070018"/>
<stop offset="0.8799" stop-color="#020006"/>
<stop offset="1"/>
</radialGradient>
<radialGradient id="paint4_radial" cx="0" cy="0" r="1" gradientUnits="userSpaceOnUse" gradientTransform="translate(1114.39 369.573) rotate(180) scale(4.01978 4.02076)">
<stop stop-color="#2E00A7"/>
<stop offset="0.0871337" stop-color="#280091"/>
<stop offset="0.3119" stop-color="#1A005E"/>
<stop offset="0.5232" stop-color="#0F0035"/>
<stop offset="0.7147" stop-color="#070018"/>
<stop offset="0.8799" stop-color="#020006"/>
<stop offset="1"/>
</radialGradient>
<radialGradient id="paint5_radial" cx="0" cy="0" r="1" gradientUnits="userSpaceOnUse" gradientTransform="translate(853.511 639.428) rotate(180) scale(4.01975 4.02076)">
<stop stop-color="#2E00A7"/>
<stop offset="0.0871337" stop-color="#280091"/>
<stop offset="0.3119" stop-color="#1A005E"/>
<stop offset="0.5232" stop-color="#0F0035"/>
<stop offset="0.7147" stop-color="#070018"/>
<stop offset="0.8799" stop-color="#020006"/>
<stop offset="1"/>
</radialGradient>
<radialGradient id="paint6_radial" cx="0" cy="0" r="1" gradientUnits="userSpaceOnUse" gradientTransform="translate(767.12 395.252) rotate(180) scale(4.01972 4.02076)">
<stop stop-color="#2E00A7"/>
<stop offset="0.0871337" stop-color="#280091"/>
<stop offset="0.3119" stop-color="#1A005E"/>
<stop offset="0.5232" stop-color="#0F0035"/>
<stop offset="0.7147" stop-color="#070018"/>
<stop offset="0.8799" stop-color="#020006"/>
<stop offset="1"/>
</radialGradient>
<radialGradient id="paint7_radial" cx="0" cy="0" r="1" gradientUnits="userSpaceOnUse" gradientTransform="translate(903.887 551.19) rotate(180) scale(4.01969 4.02077)">
<stop stop-color="#2E00A7"/>
<stop offset="0.0871337" stop-color="#280091"/>
<stop offset="0.3119" stop-color="#1A005E"/>
<stop offset="0.5232" stop-color="#0F0035"/>
<stop offset="0.7147" stop-color="#070018"/>
<stop offset="0.8799" stop-color="#020006"/>
<stop offset="1"/>
</radialGradient>
<radialGradient id="paint8_radial" cx="0" cy="0" r="1" gradientUnits="userSpaceOnUse" gradientTransform="translate(838.953 532.375) rotate(180) scale(2.47468 2.47532)">
<stop stop-color="#2E00A7"/>
<stop offset="0.0871337" stop-color="#280091"/>
<stop offset="0.3119" stop-color="#1A005E"/>
<stop offset="0.5232" stop-color="#0F0035"/>
<stop offset="0.7147" stop-color="#070018"/>
<stop offset="0.8799" stop-color="#020006"/>
<stop offset="1"/>
</radialGradient>
<radialGradient id="paint9_radial" cx="0" cy="0" r="1" gradientUnits="userSpaceOnUse" gradientTransform="translate(1100.27 479.692) rotate(180) scale(2.47474 2.47532)">
<stop stop-color="#2E00A7"/>
<stop offset="0.0871337" stop-color="#280091"/>
<stop offset="0.3119" stop-color="#1A005E"/>
<stop offset="0.5232" stop-color="#0F0035"/>
<stop offset="0.7147" stop-color="#070018"/>
<stop offset="0.8799" stop-color="#020006"/>
<stop offset="1"/>
</radialGradient>
<radialGradient id="paint10_radial" cx="0" cy="0" r="1" gradientUnits="userSpaceOnUse" gradientTransform="translate(1081.37 578.805) rotate(180) scale(2.47462 2.4753)">
<stop stop-color="#2E00A7"/>
<stop offset="0.0871337" stop-color="#280091"/>
<stop offset="0.3119" stop-color="#1A005E"/>
<stop offset="0.5232" stop-color="#0F0035"/>
<stop offset="0.7147" stop-color="#070018"/>
<stop offset="0.8799" stop-color="#020006"/>
<stop offset="1"/>
</radialGradient>
<radialGradient id="paint11_radial" cx="0" cy="0" r="1" gradientUnits="userSpaceOnUse" gradientTransform="translate(827.413 504.536) rotate(180) scale(2.47468 2.47532)">
<stop stop-color="#2E00A7"/>
<stop offset="0.0871337" stop-color="#280091"/>
<stop offset="0.3119" stop-color="#1A005E"/>
<stop offset="0.5232" stop-color="#0F0035"/>
<stop offset="0.7147" stop-color="#070018"/>
<stop offset="0.8799" stop-color="#020006"/>
<stop offset="1"/>
</radialGradient>
<radialGradient id="paint12_radial" cx="0" cy="0" r="1" gradientUnits="userSpaceOnUse" gradientTransform="translate(938.445 434.101) rotate(180) scale(2.47471 2.4753)">
<stop stop-color="#2E00A7"/>
<stop offset="0.0871337" stop-color="#280091"/>
<stop offset="0.3119" stop-color="#1A005E"/>
<stop offset="0.5232" stop-color="#0F0035"/>
<stop offset="0.7147" stop-color="#070018"/>
<stop offset="0.8799" stop-color="#020006"/>
<stop offset="1"/>
</radialGradient>
<radialGradient id="paint13_radial" cx="0" cy="0" r="1" gradientUnits="userSpaceOnUse" gradientTransform="translate(846.749 524.334) rotate(180) scale(2.47468 2.4753)">
<stop stop-color="#2E00A7"/>
<stop offset="0.0871337" stop-color="#280091"/>
<stop offset="0.3119" stop-color="#1A005E"/>
<stop offset="0.5232" stop-color="#0F0035"/>
<stop offset="0.7147" stop-color="#070018"/>
<stop offset="0.8799" stop-color="#020006"/>
<stop offset="1"/>
</radialGradient>
<radialGradient id="paint14_radial" cx="0" cy="0" r="1" gradientUnits="userSpaceOnUse" gradientTransform="translate(884.842 554.235) rotate(180) scale(2.47465 2.4753)">
<stop stop-color="#2E00A7"/>
<stop offset="0.0871337" stop-color="#280091"/>
<stop offset="0.3119" stop-color="#1A005E"/>
<stop offset="0.5232" stop-color="#0F0035"/>
<stop offset="0.7147" stop-color="#070018"/>
<stop offset="0.8799" stop-color="#020006"/>
<stop offset="1"/>
</radialGradient>
<radialGradient id="paint15_radial" cx="0" cy="0" r="1" gradientUnits="userSpaceOnUse" gradientTransform="translate(841.184 514.627) rotate(180) scale(2.47468 2.47532)">
<stop stop-color="#2E00A7"/>
<stop offset="0.0871337" stop-color="#280091"/>
<stop offset="0.3119" stop-color="#1A005E"/>
<stop offset="0.5232" stop-color="#0F0035"/>
<stop offset="0.7147" stop-color="#070018"/>
<stop offset="0.8799" stop-color="#020006"/>
<stop offset="1"/>
</radialGradient>
<radialGradient id="paint16_radial" cx="0" cy="0" r="1" gradientUnits="userSpaceOnUse" gradientTransform="translate(1056.84 303.946) rotate(180) scale(4.01972 4.02076)">
<stop stop-color="#2E00A7"/>
<stop offset="0.0871337" stop-color="#280091"/>
<stop offset="0.3119" stop-color="#1A005E"/>
<stop offset="0.5232" stop-color="#0F0035"/>
<stop offset="0.7147" stop-color="#070018"/>
<stop offset="0.8799" stop-color="#020006"/>
<stop offset="1"/>
</radialGradient>
<radialGradient id="paint17_radial" cx="0" cy="0" r="1" gradientUnits="userSpaceOnUse" gradientTransform="translate(973.373 458.79) rotate(180) scale(2.47468 2.47532)">
<stop stop-color="#2E00A7"/>
<stop offset="0.0871337" stop-color="#280091"/>
<stop offset="0.3119" stop-color="#1A005E"/>
<stop offset="0.5232" stop-color="#0F0035"/>
<stop offset="0.7147" stop-color="#070018"/>
<stop offset="0.8799" stop-color="#020006"/>
<stop offset="1"/>
</radialGradient>
<radialGradient id="paint18_radial" cx="0" cy="0" r="1" gradientUnits="userSpaceOnUse" gradientTransform="translate(981.378 427.205) rotate(180) scale(2.47468 2.47532)">
<stop stop-color="#2E00A7"/>
<stop offset="0.0871337" stop-color="#280091"/>
<stop offset="0.3119" stop-color="#1A005E"/>
<stop offset="0.5232" stop-color="#0F0035"/>
<stop offset="0.7147" stop-color="#070018"/>
<stop offset="0.8799" stop-color="#020006"/>
<stop offset="1"/>
</radialGradient>
<radialGradient id="paint19_radial" cx="0" cy="0" r="1" gradientUnits="userSpaceOnUse" gradientTransform="translate(976.288 412.74) rotate(180) scale(2.47474 2.47532)">
<stop stop-color="#2E00A7"/>
<stop offset="0.0871337" stop-color="#280091"/>
<stop offset="0.3119" stop-color="#1A005E"/>
<stop offset="0.5232" stop-color="#0F0035"/>
<stop offset="0.7147" stop-color="#070018"/>
<stop offset="0.8799" stop-color="#020006"/>
<stop offset="1"/>
</radialGradient>
<radialGradient id="paint20_radial" cx="0" cy="0" r="1" gradientUnits="userSpaceOnUse" gradientTransform="translate(792.073 539.531) rotate(180) scale(2.47465 2.47532)">
<stop stop-color="#2E00A7"/>
<stop offset="0.0871337" stop-color="#280091"/>
<stop offset="0.3119" stop-color="#1A005E"/>
<stop offset="0.5232" stop-color="#0F0035"/>
<stop offset="0.7147" stop-color="#070018"/>
<stop offset="0.8799" stop-color="#020006"/>
<stop offset="1"/>
</radialGradient>
<radialGradient id="paint21_radial" cx="0" cy="0" r="1" gradientUnits="userSpaceOnUse" gradientTransform="translate(496.901 427.205) rotate(180) scale(6.89398 6.89574)">
<stop stop-color="#2E00A7"/>
<stop offset="0.0871337" stop-color="#280091"/>
<stop offset="0.3119" stop-color="#1A005E"/>
<stop offset="0.5232" stop-color="#0F0035"/>
<stop offset="0.7147" stop-color="#070018"/>
<stop offset="0.8799" stop-color="#020006"/>
<stop offset="1"/>
</radialGradient>
<radialGradient id="paint22_radial" cx="0" cy="0" r="1" gradientUnits="userSpaceOnUse" gradientTransform="translate(680.011 665.082) rotate(180) scale(6.89398 6.89572)">
<stop stop-color="#2E00A7"/>
<stop offset="0.0871337" stop-color="#280091"/>
<stop offset="0.3119" stop-color="#1A005E"/>
<stop offset="0.5232" stop-color="#0F0035"/>
<stop offset="0.7147" stop-color="#070018"/>
<stop offset="0.8799" stop-color="#020006"/>
<stop offset="1"/>
</radialGradient>
<radialGradient id="paint23_radial" cx="0" cy="0" r="1" gradientUnits="userSpaceOnUse" gradientTransform="translate(413.016 752.544) rotate(180) scale(6.89396 6.89574)">
<stop stop-color="#2E00A7"/>
<stop offset="0.0871337" stop-color="#280091"/>
<stop offset="0.3119" stop-color="#1A005E"/>
<stop offset="0.5232" stop-color="#0F0035"/>
<stop offset="0.7147" stop-color="#070018"/>
<stop offset="0.8799" stop-color="#020006"/>
<stop offset="1"/>
</radialGradient>
<radialGradient id="paint24_radial" cx="0" cy="0" r="1" gradientUnits="userSpaceOnUse" gradientTransform="translate(1198.97 659.504) rotate(180) scale(6.8941 6.89571)">
<stop stop-color="#2E00A7"/>
<stop offset="0.0871337" stop-color="#280091"/>
<stop offset="0.3119" stop-color="#1A005E"/>
<stop offset="0.5232" stop-color="#0F0035"/>
<stop offset="0.7147" stop-color="#070018"/>
<stop offset="0.8799" stop-color="#020006"/>
<stop offset="1"/>
</radialGradient>
<radialGradient id="paint25_radial" cx="0" cy="0" r="1" gradientUnits="userSpaceOnUse" gradientTransform="translate(532.821 655.592) rotate(99.4364) scale(4.02089 4.01991)">
<stop stop-color="#2E00A7"/>
<stop offset="0.0871337" stop-color="#280091"/>
<stop offset="0.3119" stop-color="#1A005E"/>
<stop offset="0.5232" stop-color="#0F0035"/>
<stop offset="0.7147" stop-color="#070018"/>
<stop offset="0.8799" stop-color="#020006"/>
<stop offset="1"/>
</radialGradient>
<radialGradient id="paint26_radial" cx="0" cy="0" r="1" gradientUnits="userSpaceOnUse" gradientTransform="translate(550.19 612.074) rotate(99.4364) scale(2.47522 2.47462)">
<stop stop-color="#2E00A7"/>
<stop offset="0.0871337" stop-color="#280091"/>
<stop offset="0.3119" stop-color="#1A005E"/>
<stop offset="0.5232" stop-color="#0F0035"/>
<stop offset="0.7147" stop-color="#070018"/>
<stop offset="0.8799" stop-color="#020006"/>
<stop offset="1"/>
</radialGradient>
<radialGradient id="paint27_radial" cx="0" cy="0" r="1" gradientUnits="userSpaceOnUse" gradientTransform="translate(520.841 618.894) rotate(99.4364) scale(2.47538 2.4748)">
<stop stop-color="#2E00A7"/>
<stop offset="0.0871337" stop-color="#280091"/>
<stop offset="0.3119" stop-color="#1A005E"/>
<stop offset="0.5232" stop-color="#0F0035"/>
<stop offset="0.7147" stop-color="#070018"/>
<stop offset="0.8799" stop-color="#020006"/>
<stop offset="1"/>
</radialGradient>
<radialGradient id="paint28_radial" cx="0" cy="0" r="1" gradientUnits="userSpaceOnUse" gradientTransform="translate(503.796 635.507) rotate(99.4362) scale(2.47522 2.47456)">
<stop stop-color="#2E00A7"/>
<stop offset="0.0871337" stop-color="#280091"/>
<stop offset="0.3119" stop-color="#1A005E"/>
<stop offset="0.5232" stop-color="#0F0035"/>
<stop offset="0.7147" stop-color="#070018"/>
<stop offset="0.8799" stop-color="#020006"/>
<stop offset="1"/>
</radialGradient>
<radialGradient id="paint29_radial" cx="0" cy="0" r="1" gradientUnits="userSpaceOnUse" gradientTransform="translate(533.052 606.962) rotate(99.4362) scale(2.47538 2.47474)">
<stop stop-color="#2E00A7"/>
<stop offset="0.0871337" stop-color="#280091"/>
<stop offset="0.3119" stop-color="#1A005E"/>
<stop offset="0.5232" stop-color="#0F0035"/>
<stop offset="0.7147" stop-color="#070018"/>
<stop offset="0.8799" stop-color="#020006"/>
<stop offset="1"/>
</radialGradient>
<radialGradient id="paint30_radial" cx="0" cy="0" r="1" gradientUnits="userSpaceOnUse" gradientTransform="translate(532.556 447.392) rotate(99.4364) scale(2.47522 2.47462)">
<stop stop-color="#2E00A7"/>
<stop offset="0.0871337" stop-color="#280091"/>
<stop offset="0.3119" stop-color="#1A005E"/>
<stop offset="0.5232" stop-color="#0F0035"/>
<stop offset="0.7147" stop-color="#070018"/>
<stop offset="0.8799" stop-color="#020006"/>
<stop offset="1"/>
</radialGradient>
<radialGradient id="paint31_radial" cx="0" cy="0" r="1" gradientUnits="userSpaceOnUse" gradientTransform="translate(549.559 659.504) rotate(99.4364) scale(2.4754 2.4748)">
<stop stop-color="#2E00A7"/>
<stop offset="0.0871337" stop-color="#280091"/>
<stop offset="0.3119" stop-color="#1A005E"/>
<stop offset="0.5232" stop-color="#0F0035"/>
<stop offset="0.7147" stop-color="#070018"/>
<stop offset="0.8799" stop-color="#020006"/>
<stop offset="1"/>
</radialGradient>
<radialGradient id="paint32_radial" cx="0" cy="0" r="1" gradientUnits="userSpaceOnUse" gradientTransform="translate(575.962 740.028) rotate(99.4364) scale(6.8956 6.89391)">
<stop stop-color="#2E00A7"/>
<stop offset="0.0871337" stop-color="#280091"/>
<stop offset="0.3119" stop-color="#1A005E"/>
<stop offset="0.5232" stop-color="#0F0035"/>
<stop offset="0.7147" stop-color="#070018"/>
<stop offset="0.8799" stop-color="#020006"/>
<stop offset="1"/>
</radialGradient>
<radialGradient id="paint33_radial" cx="0" cy="0" r="1" gradientUnits="userSpaceOnUse" gradientTransform="translate(464.549 758.467) rotate(99.4364) scale(6.8956 6.89391)">
<stop stop-color="#2E00A7"/>
<stop offset="0.0871337" stop-color="#280091"/>
<stop offset="0.3119" stop-color="#1A005E"/>
<stop offset="0.5232" stop-color="#0F0035"/>
<stop offset="0.7147" stop-color="#070018"/>
<stop offset="0.8799" stop-color="#020006"/>
<stop offset="1"/>
</radialGradient>
<radialGradient id="paint34_radial" cx="0" cy="0" r="1" gradientUnits="userSpaceOnUse" gradientTransform="translate(1395.23 242.334) rotate(180) scale(6.89404 6.89573)">
<stop stop-color="#2E00A7"/>
<stop offset="0.0871337" stop-color="#280091"/>
<stop offset="0.3119" stop-color="#1A005E"/>
<stop offset="0.5232" stop-color="#0F0035"/>
<stop offset="0.7147" stop-color="#070018"/>
<stop offset="0.8799" stop-color="#020006"/>
<stop offset="1"/>
</radialGradient>
<radialGradient id="paint35_radial" cx="0" cy="0" r="1" gradientUnits="userSpaceOnUse" gradientTransform="translate(626.773 329.319) rotate(180) scale(6.89398 6.89572)">
<stop stop-color="#2E00A7"/>
<stop offset="0.0871337" stop-color="#280091"/>
<stop offset="0.3119" stop-color="#1A005E"/>
<stop offset="0.5232" stop-color="#0F0035"/>
<stop offset="0.7147" stop-color="#070018"/>
<stop offset="0.8799" stop-color="#020006"/>
<stop offset="1"/>
</radialGradient>
<radialGradient id="paint36_radial" cx="0" cy="0" r="1" gradientUnits="userSpaceOnUse" gradientTransform="translate(30.0421 756.471) rotate(37.8577) scale(2.70908 2.70924)">
<stop stop-color="#A93995"/>
<stop offset="0.0940503" stop-color="#913180"/>
<stop offset="0.3172" stop-color="#5E2053"/>
<stop offset="0.5268" stop-color="#35122F"/>
<stop offset="0.7169" stop-color="#180815"/>
<stop offset="0.8808" stop-color="#060206"/>
<stop offset="1"/>
</radialGradient>
<radialGradient id="paint37_radial" cx="0" cy="0" r="1" gradientUnits="userSpaceOnUse" gradientTransform="translate(333.087 741.261) rotate(37.858) scale(2.70909 2.70926)">
<stop stop-color="#A93995"/>
<stop offset="0.0940503" stop-color="#913180"/>
<stop offset="0.3172" stop-color="#5E2053"/>
<stop offset="0.5268" stop-color="#35122F"/>
<stop offset="0.7169" stop-color="#180815"/>
<stop offset="0.8808" stop-color="#060206"/>
<stop offset="1"/>
</radialGradient>
<radialGradient id="paint38_radial" cx="0" cy="0" r="1" gradientUnits="userSpaceOnUse" gradientTransform="translate(187.834 822.354) rotate(37.8582) scale(2.7091 2.70928)">
<stop stop-color="#A93995"/>
<stop offset="0.0940503" stop-color="#913180"/>
<stop offset="0.3172" stop-color="#5E2053"/>
<stop offset="0.5268" stop-color="#35122F"/>
<stop offset="0.7169" stop-color="#180815"/>
<stop offset="0.8808" stop-color="#060206"/>
<stop offset="1"/>
</radialGradient>
<radialGradient id="paint39_radial" cx="0" cy="0" r="1" gradientUnits="userSpaceOnUse" gradientTransform="translate(65.6558 736.816) rotate(37.858) scale(7.5808 7.58128)">
<stop stop-color="#A93995"/>
<stop offset="0.0940503" stop-color="#913180"/>
<stop offset="0.3172" stop-color="#5E2053"/>
<stop offset="0.5268" stop-color="#35122F"/>
<stop offset="0.7169" stop-color="#180815"/>
<stop offset="0.8808" stop-color="#060206"/>
<stop offset="1"/>
</radialGradient>
<radialGradient id="paint40_radial" cx="0" cy="0" r="1" gradientUnits="userSpaceOnUse" gradientTransform="translate(134.774 741.261) rotate(37.8579) scale(3.62084 3.62107)">
<stop stop-color="#A93995"/>
<stop offset="0.0940503" stop-color="#913180"/>
<stop offset="0.3172" stop-color="#5E2053"/>
<stop offset="0.5268" stop-color="#35122F"/>
<stop offset="0.7169" stop-color="#180815"/>
<stop offset="0.8808" stop-color="#060206"/>
<stop offset="1"/>
</radialGradient>
<radialGradient id="paint41_radial" cx="0" cy="0" r="1" gradientUnits="userSpaceOnUse" gradientTransform="translate(158.424 756.862) rotate(37.8581) scale(1.81032 1.81044)">
<stop stop-color="#A93995"/>
<stop offset="0.0940503" stop-color="#913180"/>
<stop offset="0.3172" stop-color="#5E2053"/>
<stop offset="0.5268" stop-color="#35122F"/>
<stop offset="0.7169" stop-color="#180815"/>
<stop offset="0.8808" stop-color="#060206"/>
<stop offset="1"/>
</radialGradient>
<radialGradient id="paint42_radial" cx="0" cy="0" r="1" gradientUnits="userSpaceOnUse" gradientTransform="translate(106.721 836.061) rotate(37.8579) scale(1.81033 1.81044)">
<stop stop-color="#A93995"/>
<stop offset="0.0940503" stop-color="#913180"/>
<stop offset="0.3172" stop-color="#5E2053"/>
<stop offset="0.5268" stop-color="#35122F"/>
<stop offset="0.7169" stop-color="#180815"/>
<stop offset="0.8808" stop-color="#060206"/>
<stop offset="1"/>
</radialGradient>
<radialGradient id="paint43_radial" cx="0" cy="0" r="1" gradientUnits="userSpaceOnUse" gradientTransform="translate(177.521 823.749) rotate(37.8577) scale(2.82771 2.82789)">
<stop stop-color="#A93995"/>
<stop offset="0.0940503" stop-color="#913180"/>
<stop offset="0.3172" stop-color="#5E2053"/>
<stop offset="0.5268" stop-color="#35122F"/>
<stop offset="0.7169" stop-color="#180815"/>
<stop offset="0.8808" stop-color="#060206"/>
<stop offset="1"/>
</radialGradient>
<radialGradient id="paint44_radial" cx="0" cy="0" r="1" gradientUnits="userSpaceOnUse" gradientTransform="translate(797.993 757.474) rotate(-115.767) scale(2.70936 2.70891)">
<stop stop-color="#A93995"/>
<stop offset="0.0940503" stop-color="#913180"/>
<stop offset="0.3172" stop-color="#5E2053"/>
<stop offset="0.5268" stop-color="#35122F"/>
<stop offset="0.7169" stop-color="#180815"/>
<stop offset="0.8808" stop-color="#060206"/>
<stop offset="1"/>
</radialGradient>
<radialGradient id="paint45_radial" cx="0" cy="0" r="1" gradientUnits="userSpaceOnUse" gradientTransform="translate(456.715 206.716) rotate(-115.768) scale(2.70936 2.70894)">
<stop stop-color="#A93995"/>
<stop offset="0.0940503" stop-color="#913180"/>
<stop offset="0.3172" stop-color="#5E2053"/>
<stop offset="0.5268" stop-color="#35122F"/>
<stop offset="0.7169" stop-color="#180815"/>
<stop offset="0.8808" stop-color="#060206"/>
<stop offset="1"/>
</radialGradient>
<radialGradient id="paint46_radial" cx="0" cy="0" r="1" gradientUnits="userSpaceOnUse" gradientTransform="translate(760.519 667.792) rotate(-115.767) scale(2.70934 2.70891)">
<stop stop-color="#A93995"/>
<stop offset="0.0940503" stop-color="#913180"/>
<stop offset="0.3172" stop-color="#5E2053"/>
<stop offset="0.5268" stop-color="#35122F"/>
<stop offset="0.7169" stop-color="#180815"/>
<stop offset="0.8808" stop-color="#060206"/>
<stop offset="1"/>
</radialGradient>
<radialGradient id="paint47_radial" cx="0" cy="0" r="1" gradientUnits="userSpaceOnUse" gradientTransform="translate(790.348 764.072) rotate(-115.768) scale(2.70936 2.70894)">
<stop stop-color="#A93995"/>
<stop offset="0.0940503" stop-color="#913180"/>
<stop offset="0.3172" stop-color="#5E2053"/>
<stop offset="0.5268" stop-color="#35122F"/>
<stop offset="0.7169" stop-color="#180815"/>
<stop offset="0.8808" stop-color="#060206"/>
<stop offset="1"/>
</radialGradient>
<radialGradient id="paint48_radial" cx="0" cy="0" r="1" gradientUnits="userSpaceOnUse" gradientTransform="translate(787.64 654.39) rotate(-115.768) scale(7.58154 7.58035)">
<stop stop-color="#A93995"/>
<stop offset="0.0940503" stop-color="#913180"/>
<stop offset="0.3172" stop-color="#5E2053"/>
<stop offset="0.5268" stop-color="#35122F"/>
<stop offset="0.7169" stop-color="#180815"/>
<stop offset="0.8808" stop-color="#060206"/>
<stop offset="1"/>
</radialGradient>
<radialGradient id="paint49_radial" cx="0" cy="0" r="1" gradientUnits="userSpaceOnUse" gradientTransform="translate(834.3 799.813) rotate(-115.768) scale(7.58154 7.58035)">
<stop stop-color="#A93995"/>
<stop offset="0.0940503" stop-color="#913180"/>
<stop offset="0.3172" stop-color="#5E2053"/>
<stop offset="0.5268" stop-color="#35122F"/>
<stop offset="0.7169" stop-color="#180815"/>
<stop offset="0.8808" stop-color="#060206"/>
<stop offset="1"/>
</radialGradient>
<radialGradient id="paint50_radial" cx="0" cy="0" r="1" gradientUnits="userSpaceOnUse" gradientTransform="translate(590.148 246.673) rotate(-115.767) scale(7.58154 7.58033)">
<stop stop-color="#A93995"/>
<stop offset="0.0940503" stop-color="#913180"/>
<stop offset="0.3172" stop-color="#5E2053"/>
<stop offset="0.5268" stop-color="#35122F"/>
<stop offset="0.7169" stop-color="#180815"/>
<stop offset="0.8808" stop-color="#060206"/>
<stop offset="1"/>
</radialGradient>
<radialGradient id="paint51_radial" cx="0" cy="0" r="1" gradientUnits="userSpaceOnUse" gradientTransform="translate(724.843 739.994) rotate(-115.767) scale(3.62118 3.62056)">
<stop stop-color="#A93995"/>
<stop offset="0.0940503" stop-color="#913180"/>
<stop offset="0.3172" stop-color="#5E2053"/>
<stop offset="0.5268" stop-color="#35122F"/>
<stop offset="0.7169" stop-color="#180815"/>
<stop offset="0.8808" stop-color="#060206"/>
<stop offset="1"/>
</radialGradient>
<radialGradient id="paint52_radial" cx="0" cy="0" r="1" gradientUnits="userSpaceOnUse" gradientTransform="translate(809.629 722.887) rotate(-115.767) scale(3.62119 3.62062)">
<stop stop-color="#A93995"/>
<stop offset="0.0940503" stop-color="#913180"/>
<stop offset="0.3172" stop-color="#5E2053"/>
<stop offset="0.5268" stop-color="#35122F"/>
<stop offset="0.7169" stop-color="#180815"/>
<stop offset="0.8808" stop-color="#060206"/>
<stop offset="1"/>
</radialGradient>
<radialGradient id="paint53_radial" cx="0" cy="0" r="1" gradientUnits="userSpaceOnUse" gradientTransform="translate(451.431 268.249) rotate(-115.767) scale(3.62119 3.62061)">
<stop stop-color="#A93995"/>
<stop offset="0.0940503" stop-color="#913180"/>
<stop offset="0.3172" stop-color="#5E2053"/>
<stop offset="0.5268" stop-color="#35122F"/>
<stop offset="0.7169" stop-color="#180815"/>
<stop offset="0.8808" stop-color="#060206"/>
<stop offset="1"/>
</radialGradient>
<radialGradient id="paint54_radial" cx="0" cy="0" r="1" gradientUnits="userSpaceOnUse" gradientTransform="translate(567.641 221.366) rotate(-115.767) scale(3.62119 3.62061)">
<stop stop-color="#A93995"/>
<stop offset="0.0940503" stop-color="#913180"/>
<stop offset="0.3172" stop-color="#5E2053"/>
<stop offset="0.5268" stop-color="#35122F"/>
<stop offset="0.7169" stop-color="#180815"/>
<stop offset="0.8808" stop-color="#060206"/>
<stop offset="1"/>
</radialGradient>
<radialGradient id="paint55_radial" cx="0" cy="0" r="1" gradientUnits="userSpaceOnUse" gradientTransform="translate(672.037 687.91) rotate(-115.767) scale(1.8105 1.81019)">
<stop stop-color="#A93995"/>
<stop offset="0.0940503" stop-color="#913180"/>
<stop offset="0.3172" stop-color="#5E2053"/>
<stop offset="0.5268" stop-color="#35122F"/>
<stop offset="0.7169" stop-color="#180815"/>
<stop offset="0.8808" stop-color="#060206"/>
<stop offset="1"/>
</radialGradient>
<radialGradient id="paint56_radial" cx="0" cy="0" r="1" gradientUnits="userSpaceOnUse" gradientTransform="translate(704.292 694.206) rotate(-115.768) scale(1.81053 1.81025)">
<stop stop-color="#A93995"/>
<stop offset="0.0940503" stop-color="#913180"/>
<stop offset="0.3172" stop-color="#5E2053"/>
<stop offset="0.5268" stop-color="#35122F"/>
<stop offset="0.7169" stop-color="#180815"/>
<stop offset="0.8808" stop-color="#060206"/>
<stop offset="1"/>
</radialGradient>
<radialGradient id="paint57_radial" cx="0" cy="0" r="1" gradientUnits="userSpaceOnUse" gradientTransform="translate(771.674 626.714) rotate(-115.768) scale(1.81069 1.81042)">
<stop stop-color="#A93995"/>
<stop offset="0.0940503" stop-color="#913180"/>
<stop offset="0.3172" stop-color="#5E2053"/>
<stop offset="0.5268" stop-color="#35122F"/>
<stop offset="0.7169" stop-color="#180815"/>
<stop offset="0.8808" stop-color="#060206"/>
<stop offset="1"/>
</radialGradient>
<radialGradient id="paint58_radial" cx="0" cy="0" r="1" gradientUnits="userSpaceOnUse" gradientTransform="translate(744.558 811.628) rotate(-115.767) scale(1.34988 1.34965)">
<stop stop-color="#A93995"/>
<stop offset="0.0940503" stop-color="#913180"/>
<stop offset="0.3172" stop-color="#5E2053"/>
<stop offset="0.5268" stop-color="#35122F"/>
<stop offset="0.7169" stop-color="#180815"/>
<stop offset="0.8808" stop-color="#060206"/>
<stop offset="1"/>
</radialGradient>
<radialGradient id="paint59_radial" cx="0" cy="0" r="1" gradientUnits="userSpaceOnUse" gradientTransform="translate(677.184 683.413) rotate(-115.768) scale(2.82816 2.82775)">
<stop stop-color="#A93995"/>
<stop offset="0.0940503" stop-color="#913180"/>
<stop offset="0.3172" stop-color="#5E2053"/>
<stop offset="0.5268" stop-color="#35122F"/>
<stop offset="0.7169" stop-color="#180815"/>
<stop offset="0.8808" stop-color="#060206"/>
<stop offset="1"/>
</radialGradient>
<radialGradient id="paint60_radial" cx="0" cy="0" r="1" gradientUnits="userSpaceOnUse" gradientTransform="translate(893.732 756.315) rotate(-115.768) scale(2.82796 2.82755)">
<stop stop-color="#A93995"/>
<stop offset="0.0940503" stop-color="#913180"/>
<stop offset="0.3172" stop-color="#5E2053"/>
<stop offset="0.5268" stop-color="#35122F"/>
<stop offset="0.7169" stop-color="#180815"/>
<stop offset="0.8808" stop-color="#060206"/>
<stop offset="1"/>
</radialGradient>
<radialGradient id="paint61_radial" cx="0" cy="0" r="1" gradientUnits="userSpaceOnUse" gradientTransform="translate(1347.67 505.234) scale(23.533 23.539)">
<stop stop-color="#2E00A7"/>
<stop offset="0.0871337" stop-color="#280091"/>
<stop offset="0.3119" stop-color="#1A005E"/>
<stop offset="0.5232" stop-color="#0F0035"/>
<stop offset="0.7147" stop-color="#070018"/>
<stop offset="0.8799" stop-color="#020006"/>
<stop offset="1"/>
</radialGradient>
<radialGradient id="paint62_radial" cx="0" cy="0" r="1" gradientUnits="userSpaceOnUse" gradientTransform="translate(1347.67 505.234) scale(10.858 10.8608)">
<stop stop-color="#8647A7"/>
<stop offset="0.0871337" stop-color="#743E91"/>
<stop offset="0.3119" stop-color="#4B285E"/>
<stop offset="0.5232" stop-color="#2B1735"/>
<stop offset="0.7147" stop-color="#130A18"/>
<stop offset="0.8799" stop-color="#050306"/>
<stop offset="1"/>
</radialGradient>
<radialGradient id="paint63_radial" cx="0" cy="0" r="1" gradientUnits="userSpaceOnUse" gradientTransform="translate(1378.35 409.107) scale(23.5329 23.5388)">
<stop stop-color="#2E00A7"/>
<stop offset="0.0871337" stop-color="#280091"/>
<stop offset="0.3119" stop-color="#1A005E"/>
<stop offset="0.5232" stop-color="#0F0035"/>
<stop offset="0.7147" stop-color="#070018"/>
<stop offset="0.8799" stop-color="#020006"/>
<stop offset="1"/>
</radialGradient>
<radialGradient id="paint64_radial" cx="0" cy="0" r="1" gradientUnits="userSpaceOnUse" gradientTransform="translate(1378.35 409.107) scale(10.8581 10.8608)">
<stop stop-color="#8647A7"/>
<stop offset="0.0871337" stop-color="#743E91"/>
<stop offset="0.3119" stop-color="#4B285E"/>
<stop offset="0.5232" stop-color="#2B1735"/>
<stop offset="0.7147" stop-color="#130A18"/>
<stop offset="0.8799" stop-color="#050306"/>
<stop offset="1"/>
</radialGradient>
<radialGradient id="paint65_radial" cx="0" cy="0" r="1" gradientUnits="userSpaceOnUse" gradientTransform="translate(992.365 801.21) scale(15.5202 15.5242)">
<stop stop-color="#2E00A7"/>
<stop offset="0.0871337" stop-color="#280091"/>
<stop offset="0.3119" stop-color="#1A005E"/>
<stop offset="0.5232" stop-color="#0F0035"/>
<stop offset="0.7147" stop-color="#070018"/>
<stop offset="0.8799" stop-color="#020006"/>
<stop offset="1"/>
</radialGradient>
<radialGradient id="paint66_radial" cx="0" cy="0" r="1" gradientUnits="userSpaceOnUse" gradientTransform="translate(992.365 801.21) scale(7.16104 7.16288)">
<stop stop-color="#8647A7"/>
<stop offset="0.0871337" stop-color="#743E91"/>
<stop offset="0.3119" stop-color="#4B285E"/>
<stop offset="0.5232" stop-color="#2B1735"/>
<stop offset="0.7147" stop-color="#130A18"/>
<stop offset="0.8799" stop-color="#050306"/>
<stop offset="1"/>
</radialGradient>
<radialGradient id="paint67_radial" cx="0" cy="0" r="1" gradientUnits="userSpaceOnUse" gradientTransform="translate(72.3854 186.641) rotate(180) scale(4.01978 4.02076)">
<stop stop-color="#2E00A7"/>
<stop offset="0.0871337" stop-color="#280091"/>
<stop offset="0.3119" stop-color="#1A005E"/>
<stop offset="0.5232" stop-color="#0F0035"/>
<stop offset="0.7147" stop-color="#070018"/>
<stop offset="0.8799" stop-color="#020006"/>
<stop offset="1"/>
</radialGradient>
<radialGradient id="paint68_radial" cx="0" cy="0" r="1" gradientUnits="userSpaceOnUse" gradientTransform="translate(58.2639 296.761) rotate(180) scale(2.47474 2.47532)">
<stop stop-color="#2E00A7"/>
<stop offset="0.0871337" stop-color="#280091"/>
<stop offset="0.3119" stop-color="#1A005E"/>
<stop offset="0.5232" stop-color="#0F0035"/>
<stop offset="0.7147" stop-color="#070018"/>
<stop offset="0.8799" stop-color="#020006"/>
<stop offset="1"/>
</radialGradient>
<radialGradient id="paint69_radial" cx="0" cy="0" r="1" gradientUnits="userSpaceOnUse" gradientTransform="translate(39.3618 395.874) rotate(180) scale(2.47462 2.4753)">
<stop stop-color="#2E00A7"/>
<stop offset="0.0871337" stop-color="#280091"/>
<stop offset="0.3119" stop-color="#1A005E"/>
<stop offset="0.5232" stop-color="#0F0035"/>
<stop offset="0.7147" stop-color="#070018"/>
<stop offset="0.8799" stop-color="#020006"/>
<stop offset="1"/>
</radialGradient>
<radialGradient id="paint70_radial" cx="0" cy="0" r="1" gradientUnits="userSpaceOnUse" gradientTransform="translate(14.8308 121.015) rotate(180) scale(4.01972 4.02076)">
<stop stop-color="#2E00A7"/>
<stop offset="0.0871337" stop-color="#280091"/>
<stop offset="0.3119" stop-color="#1A005E"/>
<stop offset="0.5232" stop-color="#0F0035"/>
<stop offset="0.7147" stop-color="#070018"/>
<stop offset="0.8799" stop-color="#020006"/>
<stop offset="1"/>
</radialGradient>
<radialGradient id="paint71_radial" cx="0" cy="0" r="1" gradientUnits="userSpaceOnUse" gradientTransform="translate(156.957 476.572) rotate(180) scale(6.8941 6.89571)">
<stop stop-color="#2E00A7"/>
<stop offset="0.0871337" stop-color="#280091"/>
<stop offset="0.3119" stop-color="#1A005E"/>
<stop offset="0.5232" stop-color="#0F0035"/>
<stop offset="0.7147" stop-color="#070018"/>
<stop offset="0.8799" stop-color="#020006"/>
<stop offset="1"/>
</radialGradient>
<radialGradient id="paint72_radial" cx="0" cy="0" r="1" gradientUnits="userSpaceOnUse" gradientTransform="translate(353.225 59.4023) rotate(180) scale(6.89404 6.89573)">
<stop stop-color="#2E00A7"/>
<stop offset="0.0871337" stop-color="#280091"/>
<stop offset="0.3119" stop-color="#1A005E"/>
<stop offset="0.5232" stop-color="#0F0035"/>
<stop offset="0.7147" stop-color="#070018"/>
<stop offset="0.8799" stop-color="#020006"/>
<stop offset="1"/>
</radialGradient>
<radialGradient id="paint73_radial" cx="0" cy="0" r="1" gradientUnits="userSpaceOnUse" gradientTransform="translate(409.55 27.407) rotate(-115.767) scale(3.62119 3.62061)">
<stop stop-color="#A93995"/>
<stop offset="0.0940503" stop-color="#913180"/>
<stop offset="0.3172" stop-color="#5E2053"/>
<stop offset="0.5268" stop-color="#35122F"/>
<stop offset="0.7169" stop-color="#180815"/>
<stop offset="0.8808" stop-color="#060206"/>
<stop offset="1"/>
</radialGradient>
<radialGradient id="paint74_radial" cx="0" cy="0" r="1" gradientUnits="userSpaceOnUse" gradientTransform="translate(305.657 322.303) scale(23.533 23.539)">
<stop stop-color="#2E00A7"/>
<stop offset="0.0871337" stop-color="#280091"/>
<stop offset="0.3119" stop-color="#1A005E"/>
<stop offset="0.5232" stop-color="#0F0035"/>
<stop offset="0.7147" stop-color="#070018"/>
<stop offset="0.8799" stop-color="#020006"/>
<stop offset="1"/>
</radialGradient>
<radialGradient id="paint75_radial" cx="0" cy="0" r="1" gradientUnits="userSpaceOnUse" gradientTransform="translate(305.657 322.303) scale(10.858 10.8608)">
<stop stop-color="#8647A7"/>
<stop offset="0.0871337" stop-color="#743E91"/>
<stop offset="0.3119" stop-color="#4B285E"/>
<stop offset="0.5232" stop-color="#2B1735"/>
<stop offset="0.7147" stop-color="#130A18"/>
<stop offset="0.8799" stop-color="#050306"/>
<stop offset="1"/>
</radialGradient>
<radialGradient id="paint76_radial" cx="0" cy="0" r="1" gradientUnits="userSpaceOnUse" gradientTransform="translate(336.345 226.175) scale(23.5329 23.5388)">
<stop stop-color="#2E00A7"/>
<stop offset="0.0871337" stop-color="#280091"/>
<stop offset="0.3119" stop-color="#1A005E"/>
<stop offset="0.5232" stop-color="#0F0035"/>
<stop offset="0.7147" stop-color="#070018"/>
<stop offset="0.8799" stop-color="#020006"/>
<stop offset="1"/>
</radialGradient>
<radialGradient id="paint77_radial" cx="0" cy="0" r="1" gradientUnits="userSpaceOnUse" gradientTransform="translate(336.345 226.176) scale(10.8581 10.8608)">
<stop stop-color="#8647A7"/>
<stop offset="0.0871337" stop-color="#743E91"/>
<stop offset="0.3119" stop-color="#4B285E"/>
<stop offset="0.5232" stop-color="#2B1735"/>
<stop offset="0.7147" stop-color="#130A18"/>
<stop offset="0.8799" stop-color="#050306"/>
<stop offset="1"/>
</radialGradient>
<clipPath id="clip0">
<rect width="1507" height="654" fill="white" transform="translate(-51.8916 183.897)"/>
</clipPath>
<clipPath id="clip1">
<rect width="1507" height="654" fill="white" transform="translate(-1093.9 0.965942)"/>
</clipPath>
</defs>
</svg>
