<svg width="206" height="199" viewBox="0 0 206 199" fill="none" xmlns="http://www.w3.org/2000/svg">
<g clip-path="url(#clip0)">
<g opacity="0.71">
<path opacity="0.71" d="M198.294 101.935C197.929 112.672 195.925 123.591 191.916 134.328C190.458 138.332 188.636 142.153 186.632 145.975C186.267 146.521 186.085 147.067 185.721 147.613C179.343 158.896 170.961 168.723 161.303 176.549C158.387 178.914 155.107 181.28 151.827 183.282C144.903 187.65 137.432 191.107 129.596 193.655C129.049 193.837 128.503 194.019 127.956 194.201C107.729 200.389 85.3161 200.207 64.1783 192.017C45.5917 184.738 30.285 172.727 19.3517 157.986C13.3383 149.797 8.41832 140.697 5.13832 131.052C2.5872 123.409 0.947205 115.583 0.218316 107.576C0.218316 107.03 0.0360938 106.302 0.0360938 105.756C-0.875017 92.1073 1.12943 78.0945 6.23165 64.4456C6.77832 63.1717 7.14276 61.8978 7.68943 60.8059C10.4228 54.4364 13.7028 48.4309 17.7116 42.7893C19.5339 40.0595 21.5383 37.5117 23.725 35.1459C24.0894 34.782 24.4539 34.236 24.8183 33.872C31.0139 26.9566 38.1205 20.9511 45.7739 16.0375C46.3205 15.6735 46.8672 15.3095 47.4139 14.9456C48.8716 14.0356 50.5116 13.1257 51.9694 12.2158C52.5161 12.0338 52.8805 11.6698 53.4272 11.4878C77.4805 -0.887151 106.636 -3.43494 133.969 6.93822C150.187 13.1257 163.854 22.9529 174.241 35.3279C174.787 35.8739 175.334 36.6018 175.881 37.3298C178.614 40.6055 180.983 44.0632 183.352 47.7029C183.716 48.4309 184.263 49.1588 184.627 49.7048C188.818 56.8022 192.098 64.4456 194.285 72.2709C194.467 72.8169 194.649 73.3628 194.649 73.9088C196.472 80.6423 197.565 87.7397 197.929 94.8371C198.294 97.0209 198.294 99.3867 198.294 101.935Z" fill="url(#paint0_radial)"/>
<g style="mix-blend-mode:multiply" opacity="0.3">
<path d="M196.107 120.133C196.107 120.133 150.552 123.591 141.258 107.03C131.783 90.4694 122.307 86.2837 107.547 88.1036C92.7872 89.9235 74.0184 101.752 55.9784 97.0209C37.9384 92.1073 3.68058 73.3628 3.68058 73.3628C0.582799 82.4621 0.0361328 99.3867 0.0361328 99.3867C0.0361328 99.3867 8.05391 127.958 30.6495 129.596C53.245 131.416 104.267 139.241 137.614 149.069C171.143 158.896 180.254 155.984 180.254 155.984C193.192 138.15 196.107 120.133 196.107 120.133ZM33.2006 121.043C30.8317 115.219 45.9561 114.491 48.8717 118.677C51.7872 122.863 38.1206 133.418 33.2006 121.043ZM96.9784 94.2911C111.009 88.4676 135.792 98.8407 133.423 108.122C131.054 117.403 86.045 98.6587 96.9784 94.2911ZM125.223 141.607C124.858 133.418 134.881 138.696 137.249 143.063C139.618 147.249 125.587 148.159 125.223 141.607ZM168.956 141.425C169.138 137.058 175.516 136.876 175.516 141.607C175.334 146.339 168.956 143.609 168.956 141.425Z" fill="#974D8B"/>
</g>
<g style="mix-blend-mode:soft-light" opacity="0.51">
<path d="M198.294 101.934C198.294 101.934 165.676 81.5521 139.801 76.2746C113.925 70.997 85.4987 87.1937 52.3343 81.5521C35.2054 78.6404 19.3521 68.9951 7.87207 60.4418C10.6054 54.0723 13.8854 48.0668 17.8943 42.4253C23.9076 48.4308 40.6721 64.0815 56.161 69.9051C75.6587 77.0025 93.5165 69.3591 126.317 71.179C154.379 72.8168 188.819 89.7415 198.112 94.4731C198.294 97.0209 198.294 99.3867 198.294 101.934Z" fill="#5FCCCC"/>
</g>
<g style="mix-blend-mode:soft-light" opacity="0.51">
<path d="M39.9425 151.434C36.1159 153.982 27.0048 151.252 27.7336 149.433C29.1914 145.975 43.7692 148.887 39.9425 151.434ZM47.0492 146.157C48.507 144.155 56.8892 145.611 56.3425 146.885C55.7959 148.159 45.7736 147.977 47.0492 146.157ZM141.076 172.545C143.809 169.451 158.751 175.456 158.023 178.914C157.111 182.372 138.343 175.638 141.076 172.545ZM72.0136 148.705C34.6581 141.243 14.067 134.328 5.32031 130.87C8.60031 140.515 13.3381 149.615 19.3514 157.986C35.2048 158.168 50.6936 144.155 93.3336 157.44C119.027 165.447 139.436 176.002 151.827 183.1C155.107 181.098 158.205 178.914 161.303 176.366C145.631 169.815 110.463 156.348 72.0136 148.705Z" fill="#5FCCCC"/>
</g>
<path opacity="0.1" d="M53.0629 50.6147C52.334 54.2544 66.7295 60.8058 69.4629 56.8022C72.1962 52.6165 54.5206 42.9713 53.0629 50.6147Z" fill="#190024"/>
<path opacity="0.1" d="M57.9821 62.2617C58.5288 65.1735 61.991 65.1735 62.3554 63.8996C62.7199 62.6257 57.4354 59.5319 57.9821 62.2617Z" fill="#190024"/>
<path opacity="0.1" d="M141.076 98.2949C145.085 94.2912 146.907 96.475 147.818 98.6588C148.729 100.661 139.801 99.5688 141.076 98.2949Z" fill="#190024"/>
<path opacity="0.1" d="M142.533 64.9915C146.542 60.9879 148.365 63.1717 149.276 65.3555C150.369 67.3574 141.44 66.2654 142.533 64.9915Z" fill="#190024"/>
<path opacity="0.1" d="M87.8672 171.999C91.8761 167.995 93.6983 170.179 94.6094 172.363C95.5205 174.547 86.5916 173.273 87.8672 171.999Z" fill="#190024"/>
<path opacity="0.1" d="M160.21 111.58C160.757 113.582 164.219 113.946 164.037 111.762C163.855 109.396 159.299 108.122 160.21 111.58Z" fill="#190024"/>
<path opacity="0.1" d="M85.6809 26.9565C86.2276 28.9584 89.6898 29.3223 89.5075 27.1385C89.3253 24.5907 84.7698 23.3168 85.6809 26.9565Z" fill="#190024"/>
<g style="mix-blend-mode:soft-light" opacity="0.51">
<path d="M154.925 161.262C156.565 161.626 162.032 165.447 161.85 168.723C161.667 171.999 147.818 169.087 148.183 166.175C148.73 163.264 152.738 160.716 154.925 161.262Z" fill="#5FCCCC"/>
</g>
<g style="mix-blend-mode:soft-light" opacity="0.51">
<path d="M158.387 64.8095C160.027 65.1735 165.494 68.9952 165.311 72.2709C165.129 75.5467 151.28 72.6349 151.645 69.7231C152.191 66.6294 156.2 64.2636 158.387 64.8095Z" fill="#5FCCCC"/>
</g>
<g style="mix-blend-mode:soft-light" opacity="0.51">
<path d="M119.757 24.7727C120.121 26.4106 119.574 32.962 116.659 34.4179C113.561 35.8738 109.37 22.4069 112.285 21.315C115.201 20.4051 119.21 22.5889 119.757 24.7727Z" fill="#5FCCCC"/>
</g>
<g opacity="0.71">
<path opacity="0.71" d="M141.624 49.3408C141.988 47.885 142.171 46.2471 141.806 44.6092C141.806 44.4272 141.624 44.0633 141.624 43.8813C141.259 43.5173 140.713 43.3353 140.348 43.3353C139.073 43.3353 138.162 44.4272 137.797 45.5191C137.433 46.6111 137.797 48.0669 138.526 48.9769C138.891 49.5228 139.619 49.8868 140.166 49.8868C140.895 49.8868 141.624 49.5228 141.624 48.7949C141.442 48.6129 141.26 48.6129 141.077 48.9769L141.624 49.3408Z" fill="#E9E9A8"/>
<path opacity="0.71" d="M164.765 58.2581C164.947 57.3482 164.583 56.4383 163.854 55.7103C162.943 56.0743 162.214 56.6203 162.031 57.5302C161.849 58.4401 162.396 59.532 163.125 59.714C164.036 59.896 164.947 58.8041 164.4 58.0761L164.765 58.2581Z" fill="#E9E9A8"/>
<path opacity="0.71" d="M162.031 50.0689C162.031 49.7049 161.849 49.5229 161.667 49.1589C161.667 49.1589 161.667 49.1589 161.485 49.1589C161.12 49.3409 161.12 49.8869 160.938 49.8869H160.756V50.0689C161.12 50.6148 161.849 50.4328 162.031 50.0689Z" fill="#E9E9A8"/>
<path opacity="0.71" d="M155.654 42.4253C155.472 41.8794 155.29 41.3334 154.925 40.7875C154.925 40.7875 154.925 40.6055 154.743 40.6055H154.561C154.014 40.9694 154.014 41.8794 153.285 41.8794C153.103 41.8794 153.103 41.8794 152.921 41.8794C152.739 42.0613 152.921 42.2433 152.921 42.4253C153.65 43.1533 154.925 42.9713 155.29 42.0613C155.472 42.2433 155.654 42.4253 155.654 42.4253Z" fill="#E9E9A8"/>
<path opacity="0.71" d="M171.325 38.6037C171.143 38.0577 170.961 37.5118 170.596 36.9658C170.596 36.9658 170.596 36.7838 170.414 36.7838H170.232C169.685 37.1478 169.685 38.0577 168.956 38.0577C168.774 38.0577 168.774 38.0577 168.592 38.0577C168.41 38.2397 168.592 38.4217 168.592 38.6037C169.321 39.3316 170.596 39.1496 170.961 38.2397C171.325 38.4217 171.325 38.6037 171.325 38.6037Z" fill="#E9E9A8"/>
<path opacity="0.71" d="M163.854 44.9733C163.854 44.6093 163.854 44.0633 163.489 43.8813C163.307 44.0633 163.125 44.0633 163.125 44.2453C163.125 44.4273 162.943 44.6093 163.125 44.7913C163.307 44.9733 163.672 44.7913 163.854 44.9733C163.854 44.7913 163.854 44.9733 163.854 44.9733Z" fill="#E9E9A8"/>
<path opacity="0.71" d="M161.121 43.6993C161.121 43.5173 161.121 43.5173 160.939 43.3353C160.756 43.3353 160.756 43.3353 160.574 43.3353C160.21 43.3353 160.028 43.3353 159.663 43.1533C160.028 43.5173 160.392 43.8813 160.574 44.4272C160.574 44.4272 160.574 44.4272 160.574 44.6092C160.574 44.7912 160.392 44.7912 160.392 44.9732C160.392 45.1552 160.574 45.3371 160.756 45.5191C162.214 46.2471 161.303 44.4272 161.121 43.6993Z" fill="#E9E9A8"/>
<path opacity="0.71" d="M146.178 38.2397C146.178 38.0577 146.178 38.0577 145.996 37.8757C145.814 37.8757 145.814 37.8757 145.632 37.8757C145.267 37.8757 145.085 37.8757 144.721 37.6937C145.085 38.0577 145.45 38.4217 145.632 38.9676C145.632 38.9676 145.632 38.9676 145.632 39.1496C145.632 39.3316 145.45 39.3316 145.45 39.5136C145.45 39.6956 145.632 39.8776 145.814 40.0595C147.272 40.6055 146.361 38.7856 146.178 38.2397Z" fill="#E9E9A8"/>
<path opacity="0.71" d="M165.312 34.6001C165.312 34.4181 165.13 34.4181 165.13 34.2361C164.948 34.4181 164.765 34.782 164.948 34.964C165.13 35.328 165.494 35.328 165.676 35.146C165.859 34.964 165.859 34.6001 166.041 34.782L165.312 34.6001Z" fill="#E9E9A8"/>
<path opacity="0.71" d="M142.351 34.236C142.351 34.6 141.805 34.964 141.44 34.782C141.076 34.6 141.076 33.8721 141.44 33.6901C141.805 33.5081 142.351 33.6901 142.351 34.236Z" fill="#E9E9A8"/>
<path opacity="0.71" d="M147.818 38.7856C148.001 38.9676 148.365 39.3316 148.183 39.6955C148.001 40.0595 147.636 39.8775 147.272 39.8775C147.089 39.8775 146.907 39.6955 146.907 39.6955C146.907 39.3316 147.454 39.3316 147.454 38.9676C147.818 38.6036 147.818 38.7856 147.818 38.7856Z" fill="#E9E9A8"/>
<path opacity="0.71" d="M169.686 62.8077C169.503 62.2618 169.321 61.7158 168.957 61.5338C168.41 61.3518 167.863 61.5338 167.863 62.0798C167.863 62.2618 167.863 62.4437 168.046 62.4437L168.228 62.6257C168.41 62.8077 168.774 62.9897 169.139 62.9897C169.503 62.9897 169.868 62.6257 169.686 62.2618V62.8077Z" fill="#E9E9A8"/>
<path opacity="0.71" d="M180.255 68.4493C180.072 68.4493 179.89 68.4493 179.89 68.6313C179.708 68.8133 179.708 68.9953 179.708 68.9953C179.526 69.3593 179.161 69.3593 178.979 69.7232C178.615 70.2692 178.797 70.8152 178.979 71.5431C178.979 71.7251 179.161 71.9071 179.161 71.9071C179.343 71.9071 179.343 71.9071 179.526 71.9071C180.255 71.7251 180.619 72.271 181.348 72.271C181.895 72.271 182.441 71.5431 182.623 71.1791C182.988 69.5413 181.53 68.2674 180.255 68.4493Z" fill="#E9E9A8"/>
<path opacity="0.71" d="M164.218 50.0688C164.4 50.0688 164.4 50.2508 164.4 50.4328C164.036 50.4328 163.854 50.2508 163.671 49.8868C163.489 49.7048 163.489 49.5228 163.489 49.3409C163.489 49.1589 163.671 49.1589 163.854 49.1589C164.036 48.9769 164.218 48.6129 164.4 48.6129C164.583 48.6129 164.583 48.7949 164.583 48.9769C164.583 49.1589 164.583 49.3409 164.4 49.3409C164.218 49.7048 164.218 49.8868 164.036 50.2508L164.218 50.0688Z" fill="#E9E9A8"/>
<path opacity="0.71" d="M160.574 53.5264C160.574 53.3444 160.21 53.1625 160.027 53.5264C159.845 53.7084 159.845 54.0724 160.027 54.2544C160.392 54.2544 160.756 54.0724 160.574 53.5264Z" fill="#E9E9A8"/>
<path opacity="0.71" d="M159.846 49.7049C159.846 49.5229 159.846 49.5229 159.663 49.3409C159.663 49.1589 159.481 49.1589 159.299 49.1589C159.117 49.1589 159.117 49.5229 158.935 49.7049C158.752 49.8869 158.57 49.8869 158.388 50.0689C158.206 50.2508 158.388 50.4328 158.752 50.6148C158.935 50.6148 159.117 50.6148 159.299 50.4328C159.481 50.2509 159.663 50.2508 159.663 50.0689C159.846 49.8869 159.663 49.7049 159.663 49.5229L159.846 49.7049Z" fill="#E9E9A8"/>
<path opacity="0.71" d="M159.299 48.0669C159.299 48.2489 159.117 48.2489 158.935 48.2489C158.753 48.2489 158.753 48.0669 158.57 48.0669V47.885C158.57 47.703 158.753 47.521 158.935 47.521C159.117 47.521 159.299 47.703 159.299 47.885C159.299 48.067 159.117 48.2489 158.935 48.2489L159.299 48.0669Z" fill="#E9E9A8"/>
<path opacity="0.71" d="M141.623 51.5247C141.623 51.7067 141.441 51.7067 141.259 51.7067C141.077 51.7067 141.077 51.5247 140.895 51.5247V51.3427C140.895 51.1607 141.077 50.9788 141.259 50.9788C141.441 50.9788 141.623 51.1607 141.623 51.3427C141.623 51.5247 141.441 51.7067 141.259 51.7067L141.623 51.5247Z" fill="#E9E9A8"/>
<path opacity="0.71" d="M160.757 47.5209C160.94 47.5209 161.122 47.157 160.94 46.975C160.757 46.975 160.757 46.975 160.575 47.157C160.575 47.3389 160.393 47.3389 160.575 47.5209C160.757 47.5209 160.94 47.5209 160.757 47.5209Z" fill="#E9E9A8"/>
<path opacity="0.71" d="M142.899 28.2305C143.081 28.2305 143.263 27.8666 143.081 27.6846C142.899 27.6846 142.899 27.6846 142.717 27.8666C142.535 28.0485 142.535 28.0485 142.717 28.2305H142.899Z" fill="#E9E9A8"/>
<path opacity="0.71" d="M137.25 40.6055C137.432 40.2415 137.432 40.0595 137.25 39.6956C137.068 39.8775 136.885 39.8775 136.521 40.0595C136.339 40.0595 136.339 40.2415 136.157 40.2415C135.974 40.4235 136.157 40.7875 136.339 40.7875C136.885 40.9695 137.068 40.7875 137.25 40.6055Z" fill="#E9E9A8"/>
<path opacity="0.71" d="M144.539 43.1533C144.721 43.5173 145.086 43.8813 145.268 44.2452C145.086 44.4272 144.903 44.2452 144.721 44.0632C144.539 43.8813 144.357 43.6993 144.357 43.5173C144.175 43.5173 144.357 43.1533 144.539 43.1533Z" fill="#E9E9A8"/>
<path opacity="0.71" d="M177.52 54.8004C177.703 54.6185 177.52 54.0725 177.338 54.0725C176.974 54.0725 176.609 54.2545 176.609 54.6185C176.609 54.8004 176.609 54.9824 176.609 54.9824C176.792 55.1644 176.974 55.3464 177.156 55.1644C177.338 54.9824 177.52 54.9824 177.52 54.8004Z" fill="#E9E9A8"/>
<path opacity="0.71" d="M146.544 37.3298C146.726 37.1479 146.908 36.7839 146.726 36.4199C146.544 36.4199 146.18 36.6019 146.18 36.7839C145.997 36.9659 145.815 37.3299 145.997 37.6938C146.18 37.6938 146.544 37.6938 146.544 37.3298Z" fill="#E9E9A8"/>
<path opacity="0.71" d="M145.632 40.4235C145.632 40.6055 145.45 40.7875 145.268 40.9694C145.086 40.7875 145.086 40.6055 144.903 40.4235C144.903 40.0595 145.45 40.0595 145.632 40.4235Z" fill="#E9E9A8"/>
<path opacity="0.71" d="M171.872 58.2581C171.69 58.6221 171.508 58.804 171.143 59.168C171.143 59.168 170.961 59.35 170.961 59.532C170.961 59.714 170.961 59.714 170.961 59.8959C171.143 60.2599 171.325 60.6239 171.69 60.6239C172.054 60.6239 172.236 60.0779 172.419 59.714C172.783 58.986 174.605 57.7121 173.876 56.8022C173.512 55.7103 172.236 57.7121 171.872 58.2581Z" fill="#E9E9A8"/>
<path opacity="0.71" d="M175.698 53.1625L175.88 53.3445C175.698 53.5264 175.516 53.5264 175.334 53.5264C175.152 53.5264 174.787 53.3445 174.787 53.1625C174.787 52.9805 174.969 52.6165 175.152 52.7985C175.334 52.7985 175.516 52.9805 175.698 53.1625Z" fill="#E9E9A8"/>
<path opacity="0.71" d="M158.023 51.5246C158.023 51.7066 157.841 51.8886 157.659 51.8886C157.477 51.8886 157.294 51.8886 157.112 51.7066C157.112 51.5246 156.93 51.3427 157.112 51.3427H157.294C157.477 51.5246 157.841 51.5246 158.023 51.5246Z" fill="#E9E9A8"/>
<path opacity="0.71" d="M154.561 52.6165C154.378 52.6165 154.196 52.7985 154.014 52.9805C153.832 53.1624 153.65 53.3444 153.467 53.3444C153.467 53.3444 153.285 53.3444 153.285 53.1624C153.285 52.9805 153.467 52.9805 153.467 52.7985C153.467 52.6165 153.65 52.6165 153.65 52.4345C153.832 52.0705 154.014 51.8886 154.378 52.0705C154.561 52.0705 154.561 52.2525 154.561 52.4345C154.561 52.6165 154.378 52.7985 154.196 52.7985L154.561 52.6165Z" fill="#E9E9A8"/>
<path opacity="0.71" d="M153.832 50.4327C153.832 50.4327 153.832 50.2507 153.65 50.2507C153.467 50.2507 153.285 50.4327 153.285 50.4327C153.285 50.6147 153.285 50.7967 153.467 50.7967C153.65 50.7967 154.014 50.6147 153.832 50.4327Z" fill="#E9E9A8"/>
<path opacity="0.71" d="M147.637 49.8868C147.637 49.8868 147.637 49.7048 147.454 49.7048C147.272 49.7048 147.09 49.8868 147.09 49.8868C147.09 50.0688 147.09 50.2508 147.272 50.2508C147.637 50.2508 147.819 50.0688 147.637 49.8868Z" fill="#E9E9A8"/>
<path opacity="0.71" d="M162.579 46.6111C162.579 46.7931 162.761 46.7931 162.943 46.7931C163.125 46.7931 163.307 46.6111 163.307 46.6111C163.49 46.6111 163.672 46.6111 163.854 46.6111C164.036 46.6111 164.036 46.7931 164.036 46.7931V46.9751C163.854 47.339 163.672 47.521 163.307 47.703C162.943 47.885 162.579 47.885 162.396 47.703C162.214 47.521 162.032 47.339 162.214 47.157C162.396 46.9751 162.396 46.6111 162.579 46.6111Z" fill="#E9E9A8"/>
<path opacity="0.71" d="M139.437 18.5853C139.437 18.7673 139.619 18.7673 139.801 18.7673C139.983 18.7673 140.166 18.5853 140.166 18.5853C140.348 18.5853 140.53 18.5853 140.712 18.5853C140.894 18.5853 140.894 18.7673 140.894 18.7673V18.9493C140.712 19.3133 140.53 19.4953 140.166 19.6772C139.801 19.8592 139.437 19.8592 139.254 19.6772C139.072 19.4953 139.072 19.3133 139.072 18.9493C139.072 18.7673 139.254 18.5853 139.437 18.5853Z" fill="#E9E9A8"/>
<path opacity="0.71" d="M164.219 42.4254C164.219 42.2434 164.219 42.0614 164.037 41.8795C163.855 41.6975 163.672 41.8795 163.49 42.0614C163.49 42.0614 163.308 42.2434 163.49 42.2434H163.672C163.855 42.4254 164.037 42.4254 164.219 42.4254Z" fill="#E9E9A8"/>
<path opacity="0.71" d="M139.254 27.3206C139.801 27.1386 140.347 26.7746 140.529 26.4107C140.529 26.4107 140.712 26.2287 140.529 26.2287C140.529 26.0467 140.165 26.0467 139.983 26.0467C139.618 26.0467 139.254 25.6827 138.889 25.6827C138.525 25.6827 138.343 25.8647 138.161 26.0467C137.796 26.2287 137.432 26.7746 137.614 27.1386C137.796 27.3206 137.978 27.3206 138.161 27.3206C138.707 27.3206 139.072 27.3206 139.618 27.3206H139.254Z" fill="#E9E9A8"/>
<path opacity="0.71" d="M154.925 33.5082C155.29 33.5082 155.472 33.1442 155.472 32.7803C155.472 32.5983 155.472 32.2343 155.29 32.2343C155.108 32.0523 154.743 32.2343 154.561 32.4163C154.379 32.5983 154.196 32.5983 154.014 32.7803C153.832 32.7803 153.832 32.9623 153.832 32.9623C153.832 33.1442 153.832 33.1442 154.014 33.1442C154.379 33.5082 154.743 33.8722 155.108 34.0542L154.925 33.5082Z" fill="#E9E9A8"/>
<path opacity="0.71" d="M151.281 43.8812C154.197 44.6092 154.743 41.1514 152.557 39.8775C150.006 38.6036 148.73 43.1533 151.281 43.8812Z" fill="#E9E9A8"/>
<path opacity="0.71" d="M164.401 54.2544C164.219 54.6184 163.49 54.6184 163.308 54.2544C163.49 54.0724 163.672 53.7085 164.037 53.5265C164.401 53.3445 164.765 53.5265 164.765 53.8904C164.583 54.0724 164.583 54.2544 164.401 54.4364V54.2544Z" fill="#E9E9A8"/>
<path opacity="0.71" d="M156.201 59.7141C156.019 59.5321 156.019 59.5321 155.837 59.3501C155.472 59.7141 154.926 60.078 154.379 60.26C154.015 60.26 153.832 60.442 153.65 60.624C153.468 60.806 153.104 60.988 153.104 61.3519C153.104 61.8979 153.832 62.0799 154.379 62.0799C155.108 62.0799 155.655 61.7159 156.201 61.1699C156.566 60.624 156.566 59.8961 156.201 59.3501C156.019 59.5321 155.837 59.5321 155.655 59.7141H156.201Z" fill="#E9E9A8"/>
<path opacity="0.71" d="M153.104 56.0744C153.286 55.8924 153.104 55.7104 152.921 55.8924C152.739 55.8924 152.557 56.0744 152.193 56.2564C151.646 56.6203 151.281 56.9843 150.735 57.3483C150.37 57.5303 150.188 57.7122 150.006 58.0762C150.006 58.2582 150.188 58.2582 150.37 58.2582C150.553 58.2582 150.917 58.0762 151.099 57.8942C152.01 57.3483 152.921 56.6203 153.104 56.0744C153.104 55.8924 152.921 56.0744 152.739 56.0744H153.104Z" fill="#E9E9A8"/>
<path opacity="0.71" d="M151.464 53.3445C151.464 53.5265 151.281 53.5265 151.281 53.5265C151.099 53.5265 151.099 53.5265 151.099 53.3445L150.917 53.1626C150.917 52.9806 150.917 52.7986 151.099 52.7986C151.281 52.7986 151.464 52.7986 151.464 52.7986L151.646 52.9806C151.646 52.9806 151.646 53.1626 151.464 53.3445Z" fill="#E9E9A8"/>
<path opacity="0.71" d="M157.113 38.9676C157.477 38.6037 157.659 38.2397 158.024 37.8757C158.024 37.6937 157.842 37.6937 157.659 37.6937C156.93 37.6937 156.384 38.2397 156.384 38.7856C156.384 38.9676 156.384 38.9676 156.566 38.9676C156.748 38.9676 156.748 38.9676 156.93 38.9676C156.93 39.1496 157.113 38.9676 157.113 38.9676Z" fill="#E9E9A8"/>
<path opacity="0.71" d="M159.117 45.8832C159.117 45.8832 159.117 45.7012 158.935 45.7012C158.753 45.7012 158.57 45.7012 158.57 45.8832C158.57 46.0651 158.57 46.2471 158.753 46.2471H158.935C159.117 46.0651 159.117 46.0651 159.299 45.8832H159.117Z" fill="#E9E9A8"/>
<path opacity="0.71" d="M138.343 35.5099C138.343 35.3279 138.343 34.9639 138.161 34.7819C137.979 34.6 137.797 34.418 137.614 34.418C137.432 34.418 137.432 34.418 137.25 34.6C137.068 34.7819 137.068 35.3279 137.25 35.5099C137.797 35.6919 138.161 35.6919 138.343 35.5099Z" fill="#E9E9A8"/>
<path opacity="0.71" d="M146.361 26.7747C146.543 26.9566 146.361 27.5026 146.179 27.5026C145.997 27.5026 145.814 27.3206 145.814 27.1386C145.814 27.1386 145.997 26.9566 146.361 26.7747Z" fill="#E9E9A8"/>
<path opacity="0.71" d="M149.094 31.8703C149.276 31.6883 148.912 31.5063 148.73 31.6883C148.548 31.8703 148.73 32.0523 148.912 32.2343C148.912 32.2343 149.094 32.0523 149.094 31.8703Z" fill="#E9E9A8"/>
<path opacity="0.71" d="M165.859 60.442C165.677 60.26 165.677 60.26 165.494 60.078C165.312 60.078 165.312 60.26 165.13 60.26C165.312 60.442 165.494 60.624 165.859 60.442Z" fill="#E9E9A8"/>
<path opacity="0.71" d="M205.037 57.3481C204.854 57.1661 204.854 57.1661 204.672 56.9841C204.49 56.9841 204.49 57.1661 204.308 57.1661C204.49 57.3481 204.854 57.5301 205.037 57.3481Z" fill="#E9E9A8"/>
<path opacity="0.71" d="M184.992 54.0725C185.357 54.4365 185.539 54.9824 185.539 55.5284V55.7104C185.539 55.7104 185.357 55.7104 185.175 55.7104C184.628 55.5284 183.899 55.3464 183.717 54.8004C183.717 54.2545 184.263 53.8905 184.81 54.0725C184.81 54.2545 184.992 54.4365 184.992 54.6184V54.0725Z" fill="#E9E9A8"/>
<path opacity="0.71" d="M176.064 102.299C176.246 101.389 175.881 100.479 175.152 99.7507C174.241 100.115 173.512 100.661 173.33 101.571C173.148 102.481 173.695 103.572 174.424 103.754C175.335 103.936 176.246 102.844 175.699 102.117L176.064 102.299Z" fill="#E9E9A8"/>
<path opacity="0.71" d="M173.329 94.1093C173.329 93.7453 173.147 93.5633 172.965 93.1993C172.965 93.1993 172.965 93.1993 172.783 93.1993C172.418 93.3813 172.418 93.9273 172.236 93.9273H172.054V94.1093C172.236 94.4732 172.965 94.4732 173.329 94.1093Z" fill="#E9E9A8"/>
<path opacity="0.71" d="M182.623 82.6441C182.441 82.0981 182.258 81.5522 181.894 81.0062C181.894 81.0062 181.894 80.8242 181.712 80.8242H181.53C180.983 81.1882 180.983 82.0981 180.254 82.0981C180.072 82.0981 180.072 82.0981 179.89 82.0981C179.707 82.2801 179.89 82.4621 179.89 82.6441C180.618 83.372 181.894 83.19 182.258 82.2801C182.441 82.4621 182.441 82.6441 182.623 82.6441Z" fill="#E9E9A8"/>
<path opacity="0.71" d="M175.153 89.0135C175.153 88.6496 175.153 88.1036 174.788 87.9216C174.606 88.1036 174.424 88.1036 174.424 88.2856C174.424 88.4676 174.242 88.6496 174.424 88.8316C174.424 88.8316 174.788 88.8316 175.153 89.0135C174.97 88.8316 174.97 89.0135 175.153 89.0135Z" fill="#E9E9A8"/>
<path opacity="0.71" d="M172.236 87.7397C172.236 87.5577 172.236 87.5577 172.054 87.3757C171.872 87.3757 171.872 87.3757 171.689 87.3757C171.325 87.3757 171.143 87.3757 170.778 87.1937C171.143 87.5577 171.507 87.9217 171.689 88.4676C171.689 88.4676 171.689 88.4676 171.689 88.6496C171.689 88.8316 171.507 88.8316 171.507 89.0136C171.507 89.1956 171.689 89.3775 171.872 89.5595C173.329 90.1055 172.418 88.2856 172.236 87.7397Z" fill="#E9E9A8"/>
<path opacity="0.71" d="M176.61 78.6406C176.61 78.4586 176.428 78.4586 176.428 78.2766C176.245 78.4586 176.063 78.8226 176.245 79.0045C176.428 79.3685 176.792 79.3685 176.974 79.1865C177.157 79.0046 177.157 78.6406 177.339 78.8226L176.61 78.6406Z" fill="#E9E9A8"/>
<path opacity="0.71" d="M180.983 106.848C180.801 106.302 180.619 105.756 180.254 105.574C179.708 105.392 179.161 105.574 179.161 106.12C179.161 106.302 179.161 106.484 179.343 106.484L179.526 106.666C179.708 106.848 180.072 107.03 180.437 107.03C180.801 107.03 181.166 106.666 180.983 106.302V106.848Z" fill="#E9E9A8"/>
<path opacity="0.71" d="M175.334 94.1092C175.517 94.1092 175.517 94.2912 175.517 94.4732C175.152 94.4732 174.97 94.2912 174.788 93.9272C174.605 93.7452 174.605 93.5633 174.605 93.3813C174.605 93.1993 174.788 93.1993 174.97 93.1993C175.152 93.0173 175.334 92.6533 175.517 92.6533C175.699 92.6533 175.699 92.8353 175.699 93.0173C175.699 93.1993 175.699 93.3813 175.517 93.3813C175.334 93.7452 175.334 93.9272 175.152 94.2912L175.334 94.1092Z" fill="#E9E9A8"/>
<path opacity="0.71" d="M172.054 91.5615C172.236 91.5615 172.419 91.1975 172.236 91.0155C172.054 91.0155 172.054 91.0155 171.872 91.1975C171.69 91.3795 171.69 91.3795 171.872 91.5615H172.054Z" fill="#E9E9A8"/>
<path opacity="0.71" d="M188.818 98.8407C189.001 98.6588 188.818 98.1128 188.636 98.1128C188.272 98.1128 187.907 98.2948 187.907 98.6587C187.907 98.8407 187.907 99.0227 187.907 99.0227C188.089 99.2047 188.272 99.3867 188.454 99.2047C188.454 99.0227 188.636 98.8407 188.818 98.8407Z" fill="#E9E9A8"/>
<path opacity="0.71" d="M182.987 102.299C182.805 102.663 182.623 102.845 182.258 103.209C182.258 103.209 182.076 103.391 182.076 103.573C182.076 103.754 182.076 103.754 182.076 103.936C182.258 104.3 182.441 104.664 182.805 104.664C183.17 104.664 183.352 104.118 183.534 103.754C183.898 103.027 185.721 101.753 184.992 100.843C184.627 99.7508 183.534 101.753 182.987 102.299Z" fill="#E9E9A8"/>
<path opacity="0.71" d="M186.814 97.0209L186.997 97.2029C186.814 97.3848 186.632 97.3848 186.45 97.3848C186.268 97.3848 185.903 97.2029 185.903 97.0209C185.903 96.8389 186.086 96.4749 186.268 96.6569C186.45 96.8389 186.632 96.8389 186.814 97.0209Z" fill="#E9E9A8"/>
<path opacity="0.71" d="M173.695 90.6515C173.695 90.8335 173.877 90.8335 174.059 90.8335C174.241 90.8335 174.423 90.6515 174.423 90.6515C174.606 90.6515 174.788 90.6515 174.97 90.6515C175.152 90.6515 175.152 90.8335 175.152 90.8335V91.0155C174.97 91.3794 174.788 91.5614 174.423 91.7434C174.059 91.9254 173.695 91.9254 173.512 91.7434C173.33 91.5614 173.33 91.3794 173.33 91.0155C173.33 90.8335 173.512 90.6515 173.695 90.6515Z" fill="#E9E9A8"/>
<path opacity="0.71" d="M175.517 86.2839C175.517 86.1019 175.517 85.9199 175.335 85.7379C175.152 85.7379 174.97 85.7379 174.788 85.9199C174.788 85.9199 174.606 86.1019 174.788 86.1019H174.97C174.97 86.2839 175.335 86.4659 175.517 86.2839Z" fill="#E9E9A8"/>
<path opacity="0.71" d="M175.516 98.2948C175.334 98.6588 174.605 98.6588 174.423 98.2948C174.605 98.1128 174.787 97.7489 175.152 97.5669C175.516 97.3849 175.881 97.5669 175.881 97.9309C175.698 98.1128 175.698 98.2948 175.516 98.4768V98.2948Z" fill="#E9E9A8"/>
<path opacity="0.71" d="M176.974 104.3C176.974 104.3 176.792 104.118 176.792 103.936C176.61 103.936 176.61 104.118 176.428 104.118C176.428 104.482 176.792 104.482 176.974 104.3Z" fill="#E9E9A8"/>
<path opacity="0.71" d="M196.29 98.1129C196.655 98.4769 196.837 99.0228 196.837 99.5688V99.7508C196.837 99.7508 196.655 99.7508 196.472 99.7508C195.926 99.5688 195.197 99.3868 195.015 98.8408C195.015 98.2949 195.561 97.9309 196.108 98.1129C196.108 98.2949 196.29 98.4769 196.29 98.6588V98.1129Z" fill="#E9E9A8"/>
<path opacity="0.71" d="M165.313 82.6441C165.677 83.0081 165.859 83.5541 165.859 84.1V84.282C165.859 84.282 165.677 84.282 165.495 84.282C164.948 84.1 164.219 83.918 164.037 83.3721C164.037 82.8261 164.584 82.4622 165.13 82.6441C165.13 82.8261 165.313 83.0081 165.313 83.1901V82.6441Z" fill="#E9E9A8"/>
</g>
<g opacity="0.51">
<g style="mix-blend-mode:soft-light" opacity="0.51">
<path d="M49.6005 17.3113C48.3249 16.7654 47.2316 16.2194 45.9561 15.6735C46.5027 15.3095 47.0494 14.9455 47.5961 14.5815C48.5072 14.9455 49.4183 15.3095 50.3294 15.6735L52.3338 16.5834C80.0316 28.5944 109.369 36.6018 139.254 40.2415C142.534 40.6054 145.814 40.9694 149.094 41.3334C157.112 42.2433 165.312 42.9712 173.329 44.6091C176.974 45.3371 180.436 46.247 183.534 47.1569C183.898 47.8848 184.445 48.6128 184.809 49.1587C181.165 47.8849 177.156 46.9749 172.965 46.065C164.947 44.4271 156.929 43.6992 148.912 42.7893C145.632 42.4253 142.352 42.0613 139.072 41.6974C108.823 38.0576 79.4849 30.0503 51.6049 17.8573L49.6005 17.3113Z" fill="#5FCCCC"/>
</g>
<g style="mix-blend-mode:soft-light" opacity="0.51">
<path d="M194.832 73.5448C186.996 72.9989 179.343 70.2691 172.054 67.7213C170.596 67.1753 169.138 66.6294 167.681 66.0834C147.818 59.168 128.685 56.0742 110.463 56.6202C106.454 56.8022 102.445 57.1661 98.6183 57.3481C92.605 57.8941 86.4095 58.2581 80.2139 58.0761C61.9917 57.7121 43.9517 51.1606 29.5561 39.8775C27.3694 38.2397 25.5472 36.4198 23.9072 34.782C24.2717 34.418 24.6361 33.872 25.0006 33.5081C26.6406 35.1459 28.4628 36.7838 30.6494 38.6036C44.8628 49.7048 62.5383 56.0742 80.3961 56.6202C86.4094 56.8022 92.605 56.2562 98.6183 55.8923C102.445 55.5283 106.636 55.3463 110.463 55.1643C128.867 54.6184 148.183 57.7121 168.227 64.6275C169.685 65.1735 171.143 65.7195 172.601 66.2654C179.707 68.8132 186.996 71.361 194.285 72.0889C194.649 72.4529 194.832 72.9989 194.832 73.5448Z" fill="#5FCCCC"/>
</g>
</g>
<g opacity="0.51">
<g style="mix-blend-mode:soft-light" opacity="0.51">
<path d="M186.632 145.793C186.268 146.339 186.085 146.885 185.721 147.431C184.628 147.431 183.534 147.613 182.623 147.613C174.97 147.977 164.583 146.703 159.117 139.242C158.023 137.786 157.112 135.966 156.383 134.328C154.925 131.234 153.65 128.504 150.917 127.049C148.73 125.775 146.179 125.775 144.357 125.957C139.983 126.503 136.157 128.504 132.148 130.688C128.868 132.508 125.588 134.146 121.943 135.056C116.477 136.33 110.645 135.602 105.543 135.056H104.997C93.3343 133.6 81.4899 132.144 69.8277 130.688C67.641 130.506 65.2721 130.142 63.2677 128.868C61.2632 127.776 59.6232 125.229 60.3521 122.499C60.7165 121.043 61.6276 120.133 62.5388 119.041C63.0854 118.495 63.6321 117.767 63.9965 117.221C65.4543 114.856 64.361 111.58 62.721 109.76C61.081 107.94 58.3476 106.848 55.0676 106.12C47.7788 104.846 40.1254 106.484 32.8365 108.122C26.4588 109.578 19.8988 111.034 13.1565 110.67C8.7832 110.306 4.40986 109.214 0.400972 107.394C0.400972 106.848 0.21875 106.12 0.21875 105.574C4.22764 107.576 8.7832 108.85 13.1565 109.214C19.5343 109.578 26.0943 108.122 32.2899 106.848C39.761 105.21 47.4143 103.572 55.0676 104.846C58.8943 105.392 61.8099 106.848 63.6321 108.85C65.8188 111.034 67.0943 115.038 65.2721 118.131C64.7254 118.859 64.1788 119.587 63.4499 120.315C62.5388 121.225 61.8099 121.953 61.6276 123.045C61.081 124.865 62.3565 126.685 63.8143 127.594C65.4543 128.686 67.641 128.868 69.6454 129.232C81.3077 130.688 93.1521 132.144 104.814 133.6H105.361C110.645 134.328 116.112 134.874 121.214 133.6C124.677 132.69 127.957 131.052 131.054 129.232C135.063 127.049 139.254 124.865 143.81 124.319C146.725 123.955 149.277 124.501 151.281 125.593C154.379 127.412 155.837 130.506 157.477 133.6C158.205 135.238 159.117 136.876 160.028 138.332C164.948 145.247 174.788 146.339 182.077 145.975C183.899 145.975 185.174 145.975 186.632 145.793Z" fill="#5FCCCC"/>
</g>
</g>
<g opacity="0.51">
<g style="mix-blend-mode:soft-light" opacity="0.51">
<path d="M129.596 193.291C129.049 193.473 128.502 193.655 127.956 193.837C126.316 191.835 125.222 189.652 123.947 187.468C123.582 186.922 123.4 186.376 123.036 185.83C116.84 175.275 109.187 167.449 100.44 163.264C90.4179 158.532 78.9379 158.168 68.0045 158.532C55.0668 158.896 40.489 160.534 29.5556 168.723L28.6445 167.449C39.9423 158.896 54.8845 157.258 68.0045 156.894C79.1201 156.53 90.9645 156.894 101.169 161.808C110.098 165.993 118.298 174.001 124.493 184.92C124.858 185.466 125.04 186.012 125.405 186.558C126.68 189.106 127.956 191.471 129.596 193.291Z" fill="#5FCCCC"/>
</g>
</g>
<g opacity="0.51">
<g style="mix-blend-mode:soft-light" opacity="0.51">
<path d="M176.245 36.9658C175.334 36.7839 174.422 36.6019 173.511 36.4199C162.031 34.0541 150.369 32.9622 138.889 33.1441C137.431 33.1441 136.156 33.1441 134.698 32.5982C131.782 31.5063 130.689 28.5945 129.778 25.8647C129.414 24.5908 128.867 23.3169 128.32 22.407C125.769 17.8574 120.302 16.2195 115.929 16.4015C111.738 16.4015 107.547 17.8574 103.356 18.9493L101.351 19.4952C90.0536 22.953 81.1247 23.8629 72.9247 22.771C64.5425 21.4971 57.0714 17.6754 52.1514 12.0338C52.698 11.8519 53.0625 11.4879 53.6091 11.3059C58.1647 16.4015 65.2714 20.0412 73.1069 21.3151C81.1247 22.407 89.8714 21.4971 100.987 18.2213L102.991 17.6754C107.182 16.0375 111.556 14.7636 115.929 14.7636C120.667 14.7636 126.68 16.4015 129.596 21.4971C130.325 22.589 130.689 24.0449 131.236 25.3188C132.147 27.8666 133.058 30.4144 135.245 31.1423C136.338 31.5063 137.431 31.5063 138.707 31.5063C150.551 31.3243 162.214 32.4162 173.876 34.782C174.058 34.782 174.422 34.964 174.605 34.964C175.151 35.6919 175.698 36.2379 176.245 36.9658Z" fill="#5FCCCC"/>
</g>
</g>
</g>
</g>
<defs>
<radialGradient id="paint0_radial" cx="0" cy="0" r="1" gradientUnits="userSpaceOnUse" gradientTransform="translate(81.6443 191.202) scale(193.687 193.435)">
<stop offset="0.5928" stop-color="#1622A0"/>
<stop offset="1" stop-color="#5757E8"/>
</radialGradient>
<clipPath id="clip0">
<rect width="205" height="198" fill="white" transform="translate(0.0361328 0.204834)"/>
</clipPath>
</defs>
</svg>
