<svg width="1185" height="513" viewBox="0 0 1185 513" fill="none" xmlns="http://www.w3.org/2000/svg">
<g clip-path="url(#clip0)">
<path fill-rule="evenodd" clip-rule="evenodd" d="M852.358 188.05L816.714 235.76L767.526 244.662L747.565 265.668L735.09 270.297L724.397 282.047L705.862 292.372L688.04 362.158L664.871 373.908L657.03 376.756L550.455 414.497L436.751 419.838L413.226 413.785L366.176 369.279L333.74 384.945L297.383 378.18H276.354L267.443 350.052L244.987 342.931L116.669 278.486L113.461 254.987L94.2136 238.965L78.5303 188.05H852.358Z" fill="url(#paint0_linear)"/>
<path opacity="0.5" fill-rule="evenodd" clip-rule="evenodd" d="M94.2148 238.965L122.373 243.237L228.949 208.345L251.048 188.406H306.296L235.364 226.859L113.463 254.987L94.2148 238.965Z" fill="url(#paint1_linear)"/>
<path opacity="0.5" fill-rule="evenodd" clip-rule="evenodd" d="M116.67 278.486L146.967 288.099H284.552L265.305 321.212L267.443 350.052L244.988 342.931L116.67 278.486Z" fill="url(#paint2_linear)"/>
<path opacity="0.5" fill-rule="evenodd" clip-rule="evenodd" d="M276.354 378.18L306.294 364.294L369.384 350.052L486.652 297.357L424.988 342.931L455.642 369.279L550.455 414.497L436.751 419.838L413.226 413.785L366.176 369.279L333.74 384.945L297.383 378.18H276.354Z" fill="url(#paint3_linear)"/>
<path opacity="0.7" fill-rule="evenodd" clip-rule="evenodd" d="M816.713 235.76L767.524 244.662L747.564 265.668L735.088 270.297L724.395 282.047L705.86 292.372L688.038 362.158L657.028 376.756H644.909L620.315 320.5L596.077 221.518L544.037 260.328L528.354 278.486L503.047 291.66L523.72 274.926L537.621 257.479L564.711 188.05H649.187L688.038 236.116L718.692 243.949L816.713 235.76Z" fill="url(#paint4_linear)"/>
<path opacity="0.5" fill-rule="evenodd" clip-rule="evenodd" d="M276.354 378.18L306.294 364.294L369.384 350.052L366.176 369.279L333.74 384.945L297.383 378.18H276.354Z" fill="url(#paint5_linear)"/>
<path opacity="0.5" fill-rule="evenodd" clip-rule="evenodd" d="M146.967 293.085V288.1H244.631H284.552L265.304 321.212L267.443 350.053L244.987 342.932L146.967 293.085Z" fill="url(#paint6_linear)"/>
<path opacity="0.5" fill-rule="evenodd" clip-rule="evenodd" d="M122.372 243.237L193.66 236.473L235.363 226.859L306.294 188.406H251.046L228.947 208.345L122.372 243.237Z" fill="url(#paint7_linear)"/>
<path opacity="0.5" fill-rule="evenodd" clip-rule="evenodd" d="M455.643 369.279L413.227 413.785L436.752 419.838L550.455 414.497L455.643 369.279Z" fill="url(#paint8_linear)"/>
<path opacity="0.5" fill-rule="evenodd" clip-rule="evenodd" d="M564.711 188.05H649.187L610.692 209.413L596.078 221.518L544.038 260.328L537.622 257.479L564.711 188.05Z" fill="url(#paint9_linear)"/>
<path opacity="0.5" fill-rule="evenodd" clip-rule="evenodd" d="M705.861 292.372L643.485 288.1L603.563 252.139L668.792 276.35L724.396 282.047L705.861 292.372Z" fill="url(#paint10_linear)"/>
<path opacity="0.5" fill-rule="evenodd" clip-rule="evenodd" d="M735.089 270.297L702.297 266.737L747.565 265.669L735.089 270.297Z" fill="url(#paint11_linear)"/>
<path opacity="0.5" fill-rule="evenodd" clip-rule="evenodd" d="M767.524 244.661L737.94 252.138L718.692 243.949L816.713 235.76L767.524 244.661Z" fill="url(#paint12_linear)"/>
<path opacity="0.5" fill-rule="evenodd" clip-rule="evenodd" d="M369.383 350.052L424.987 342.931L486.651 297.357L369.383 350.052Z" fill="url(#paint13_linear)"/>
<path opacity="0.2" fill-rule="evenodd" clip-rule="evenodd" d="M276.354 378.18L267.443 350.052L265.305 321.212L284.552 288.1L306.295 188.406L378.296 188.05L315.919 283.115L311.998 319.076L306.295 364.294L276.354 378.18Z" fill="#95552F"/>
<path opacity="0.5" fill-rule="evenodd" clip-rule="evenodd" d="M378.295 188.05L369.385 304.122V350.052L306.295 364.294L315.919 283.115L378.295 188.05Z" fill="url(#paint14_linear)"/>
<path opacity="0.3" fill-rule="evenodd" clip-rule="evenodd" d="M113.461 254.987L235.363 226.859L200.788 279.554L146.966 288.099L116.669 278.486L113.461 254.987Z" fill="#C57539"/>
<path fill-rule="evenodd" clip-rule="evenodd" d="M374.018 376.756L378.296 350.052L393.266 346.848L424.989 342.931L378.296 346.136L369.385 336.522L369.741 300.205L365.107 350.052L361.543 351.833L366.177 369.279L374.018 376.756Z" fill="#290E18"/>
<path fill-rule="evenodd" clip-rule="evenodd" d="M637.426 188.05L612.119 203.36L584.673 226.859L555.089 252.139L616.396 206.208L653.109 193.034L690.892 188.406L637.426 188.05Z" fill="#290E18"/>
<path opacity="0.2" fill-rule="evenodd" clip-rule="evenodd" d="M116.67 278.486L215.76 257.479L288.117 272.077L328.751 263.532L372.236 270.297L542.97 243.237L559.366 248.578L555.089 252.139L542.257 246.442L371.523 276.35L327.325 265.668L287.047 276.35L210.77 263.532L131.64 283.115L116.67 278.486Z" fill="#D9772F"/>
<path fill-rule="evenodd" clip-rule="evenodd" d="M324.472 270.297L313.779 304.122L310.215 287.032L324.472 270.297Z" fill="#77342D"/>
<path opacity="0.5" fill-rule="evenodd" clip-rule="evenodd" d="M620.316 320.5L587.523 401.323L644.91 376.756L620.316 320.5Z" fill="url(#paint15_linear)"/>
<path opacity="0.3" fill-rule="evenodd" clip-rule="evenodd" d="M265.305 321.212L311.998 319.076L369.741 323.704L481.663 299.493L611.05 283.115L702.298 306.614L697.664 323.704L617.109 308.394L457.069 319.076L445.306 315.515L366.89 330.113L311.998 325.129L266.374 336.522L265.305 321.212Z" fill="url(#paint16_linear)"/>
<path opacity="0.2" fill-rule="evenodd" clip-rule="evenodd" d="M673.069 369.279L634.93 353.969L603.919 360.734L471.324 376.756L428.195 417.702L436.75 419.839L478.097 380.317L602.494 364.295L636.712 358.598L664.87 373.908L673.069 369.279Z" fill="#D9772F"/>
<path fill-rule="evenodd" clip-rule="evenodd" d="M78.5303 188.05H852.714C852.714 188.05 678.416 204.428 450.295 204.428C222.175 204.428 78.5303 188.05 78.5303 188.05Z" fill="#FC8395"/>
<path opacity="0.3" fill-rule="evenodd" clip-rule="evenodd" d="M265.305 321.212L310.216 287.032L368.672 203.36H303.087L287.047 276.35L265.305 321.212Z" fill="#C57539"/>
<g style="mix-blend-mode:screen" opacity="0.6">
<path fill-rule="evenodd" clip-rule="evenodd" d="M852.358 188.05L816.714 235.76L767.526 244.662L747.565 265.668L735.09 270.297L724.397 282.047L705.862 292.372L688.04 362.158L664.871 373.908L657.03 376.756L550.455 414.497L436.751 419.838L413.226 413.785L366.176 369.279L333.74 384.945L297.383 378.18H276.354L267.443 350.052L244.987 342.931L116.669 278.486L113.461 254.987L94.2136 238.965L78.5303 188.05H852.358Z" fill="url(#paint17_linear)"/>
</g>
<path fill-rule="evenodd" clip-rule="evenodd" d="M649.189 263.176C649.189 263.176 643.13 294.153 644.912 304.122C646.694 314.092 673.071 353.969 673.071 353.969L715.13 350.053L700.873 226.859C700.517 226.859 660.595 251.427 649.189 263.176Z" fill="url(#paint18_linear)"/>
<path opacity="0.8" fill-rule="evenodd" clip-rule="evenodd" d="M646.694 278.487C646.694 278.487 632.436 323.705 637.07 358.598C637.783 363.583 644.911 376.756 644.911 376.756L653.11 378.181L688.041 362.514L690.536 352.545L714.773 350.409C714.773 350.409 685.545 343.644 672.714 304.478H644.555L646.694 278.487Z" fill="url(#paint19_linear)"/>
<path fill-rule="evenodd" clip-rule="evenodd" d="M704.437 226.859C698.378 226.859 683.764 240.389 679.843 252.139C675.922 263.889 671.645 288.1 673.071 304.122C674.496 320.145 695.526 348.985 699.447 350.053C703.368 351.121 731.526 349.341 738.299 343.644C748.279 335.099 755.408 274.214 752.2 254.987C748.992 235.761 708.714 226.859 704.437 226.859Z" fill="url(#paint20_linear)"/>
<path opacity="0.8" fill-rule="evenodd" clip-rule="evenodd" d="M743.646 272.078C743.646 290.236 739.726 314.804 736.874 323.349C732.24 336.523 713.349 343.644 705.151 339.015C696.953 334.387 680.557 300.918 682.695 282.759C683.052 280.623 683.408 278.487 683.765 275.994C686.616 259.26 693.389 239.677 704.795 235.049C711.211 232.556 733.31 241.814 740.439 251.427C742.934 255.344 743.646 263.177 743.646 272.078Z" fill="url(#paint21_linear)"/>
<path opacity="0.8" fill-rule="evenodd" clip-rule="evenodd" d="M743.644 272.078C743.644 272.078 708.001 265.313 690.891 287.744L683.406 276.35C686.258 259.616 693.03 240.033 704.436 235.404C710.852 232.912 732.951 242.169 740.08 251.783C742.931 255.343 743.644 263.176 743.644 272.078Z" fill="url(#paint22_linear)"/>
<path fill-rule="evenodd" clip-rule="evenodd" d="M685.902 265.669C685.902 265.669 709.784 284.183 696.595 328.69C696.595 328.69 684.833 306.971 682.338 294.153C679.843 281.691 685.902 265.669 685.902 265.669Z" fill="white"/>
<path fill-rule="evenodd" clip-rule="evenodd" d="M429.623 339.371L376.513 361.09C376.513 361.09 366.89 376.756 364.395 390.286C361.543 403.816 387.207 437.641 397.187 443.693C406.811 449.746 436.395 444.406 442.811 439.421C449.227 434.436 486.653 394.915 486.653 394.915C486.653 394.915 478.811 361.802 472.752 354.325C460.989 339.371 429.623 339.371 429.623 339.371Z" fill="url(#paint23_linear)"/>
<path fill-rule="evenodd" clip-rule="evenodd" d="M376.514 360.734C381.148 355.393 426.772 366.787 434.97 373.552C443.168 380.317 443.881 440.133 441.386 440.845C438.891 441.557 414.653 450.102 400.752 445.474C386.851 440.845 364.395 405.596 364.395 394.202C364.039 382.097 372.237 366.075 376.514 360.734Z" fill="url(#paint24_linear)"/>
<path opacity="0.8" fill-rule="evenodd" clip-rule="evenodd" d="M430.336 431.588C427.128 439.421 410.731 442.982 403.603 439.777C398.256 437.285 382.573 416.99 375.088 404.528C372.949 400.612 371.167 397.407 371.167 395.983C370.81 389.574 375.444 370.703 379.721 368.923C387.563 365.719 417.147 371.772 424.989 377.824C426.771 379.249 428.197 382.097 429.266 385.658C433.187 399.543 432.831 425.535 430.336 431.588Z" fill="url(#paint25_linear)"/>
<path opacity="0.8" fill-rule="evenodd" clip-rule="evenodd" d="M429.266 386.013L425.345 394.558C408.949 384.589 375.088 404.884 375.088 404.884C372.949 400.967 371.167 397.763 371.167 396.339C370.81 389.93 375.444 371.059 379.721 369.279C387.563 366.074 417.147 372.127 424.989 378.18C426.771 379.248 428.197 382.097 429.266 386.013Z" fill="url(#paint26_linear)"/>
<path fill-rule="evenodd" clip-rule="evenodd" d="M413.227 372.839C413.227 372.839 417.147 398.831 431.761 407.376C431.761 407.376 430.336 385.301 426.415 379.96C423.207 374.976 413.227 372.839 413.227 372.839Z" fill="white"/>
<path opacity="0.8" fill-rule="evenodd" clip-rule="evenodd" d="M434.969 373.552L475.246 358.598C475.246 358.598 470.969 345.78 448.157 341.507C448.157 341.507 469.187 342.219 486.652 357.53C504.118 372.84 534.059 415.21 534.059 415.21L463.484 418.77L442.81 439.065C442.81 439.065 446.018 401.68 434.969 373.552Z" fill="url(#paint27_linear)"/>
<path fill-rule="evenodd" clip-rule="evenodd" d="M158.372 188.05C158.372 188.05 128.431 144.256 126.649 140.695C124.511 137.135 113.461 33.1681 113.461 33.1681C113.461 33.1681 131.996 2.90383 135.917 0.0554253C139.837 -2.79298 208.986 66.2807 211.838 70.5533C214.689 74.8259 234.294 188.05 234.294 188.05H158.372Z" fill="url(#paint28_radial)"/>
<path fill-rule="evenodd" clip-rule="evenodd" d="M113.461 33.1674C113.461 33.1674 142.332 89.7794 148.748 94.052C155.164 98.3246 179.046 107.226 188.313 105.446C197.224 103.309 205.066 99.3927 206.848 93.3399C208.63 87.287 211.838 70.5527 211.838 70.5527C211.838 70.5527 141.263 -2.08154 135.917 0.0547619C130.57 2.19106 113.461 33.1674 113.461 33.1674Z" fill="#ABFFED"/>
<g style="mix-blend-mode:screen" opacity="0.5">
<path fill-rule="evenodd" clip-rule="evenodd" d="M113.461 33.1674C113.461 33.1674 142.332 89.7794 148.748 94.052C155.164 98.3246 179.046 107.226 188.313 105.446C197.224 103.309 205.066 99.3927 206.848 93.3399C208.63 87.287 211.838 70.5527 211.838 70.5527C211.838 70.5527 141.263 -2.08154 135.917 0.0547619C130.57 2.19106 113.461 33.1674 113.461 33.1674Z" fill="url(#paint29_radial)"/>
</g>
<path fill-rule="evenodd" clip-rule="evenodd" d="M211.481 136.067C211.481 136.067 226.808 162.414 231.798 164.551C236.789 166.687 262.096 170.248 268.512 170.604C274.927 170.96 313.423 164.551 313.423 164.551C313.423 164.551 254.61 119.688 244.274 117.196C238.571 115.772 211.481 136.067 211.481 136.067Z" fill="#ABFFED"/>
<path fill-rule="evenodd" clip-rule="evenodd" d="M148.748 94.0523L126.649 140.695C126.649 140.695 115.243 65.9243 113.461 33.1677L148.748 94.0523Z" fill="#ABFFED"/>
<g style="mix-blend-mode:screen" opacity="0.5">
<path fill-rule="evenodd" clip-rule="evenodd" d="M200.431 188.406L184.391 105.802L148.748 94.0527L126.292 140.695L158.371 188.05L200.431 188.406Z" fill="url(#paint30_radial)"/>
</g>
<g style="mix-blend-mode:multiply" opacity="0.5">
<path fill-rule="evenodd" clip-rule="evenodd" d="M206.849 93.3402L234.294 182.353L211.839 70.553C211.839 70.553 208.631 89.7797 206.849 93.3402Z" fill="url(#paint31_linear)"/>
</g>
<path fill-rule="evenodd" clip-rule="evenodd" d="M167.64 102.598L194.016 103.666L185.818 113.991L167.64 102.598Z" fill="#ABFFED"/>
<path fill-rule="evenodd" clip-rule="evenodd" d="M128.432 59.1597L200.432 66.9928L203.64 62.3641L211.838 70.5533L200.432 68.417L131.996 61.296L130.214 62.3641L128.432 59.1597Z" fill="#ABFFED"/>
<path fill-rule="evenodd" clip-rule="evenodd" d="M321.978 188.406C321.978 188.406 315.206 169.535 313.424 164.55C311.285 159.566 247.839 117.552 244.275 117.196C240.71 116.84 214.69 132.862 211.482 136.066C208.274 139.271 200.433 188.406 200.433 188.406H321.978Z" fill="url(#paint32_radial)"/>
<g style="mix-blend-mode:screen" opacity="0.5">
<path fill-rule="evenodd" clip-rule="evenodd" d="M211.481 136.067C211.481 136.067 226.808 162.414 231.798 164.551C236.789 166.687 262.096 170.248 268.512 170.604C274.927 170.96 313.423 164.551 313.423 164.551C313.423 164.551 254.61 119.688 244.274 117.196C238.571 115.772 211.481 136.067 211.481 136.067Z" fill="url(#paint33_radial)"/>
</g>
<path fill-rule="evenodd" clip-rule="evenodd" d="M231.799 164.551L226.096 188.406H200.433L211.482 136.067C211.482 136.067 227.165 160.99 231.799 164.551Z" fill="#ABFFED"/>
<g style="mix-blend-mode:multiply" opacity="0.5">
<path fill-rule="evenodd" clip-rule="evenodd" d="M268.512 170.603L284.551 188.05H321.977L313.423 164.194C313.066 164.55 279.918 169.891 268.512 170.603Z" fill="url(#paint34_linear)"/>
</g>
<path fill-rule="evenodd" clip-rule="evenodd" d="M258.888 169.535H278.492L271.007 173.452L258.888 169.535Z" fill="#ABFFED"/>
<path fill-rule="evenodd" clip-rule="evenodd" d="M543.324 188.405C543.324 188.405 570.77 169.89 581.463 164.549C592.156 159.209 635.998 162.057 635.998 162.057C635.998 162.057 699.444 79.0974 713.702 70.5522C727.959 62.007 786.772 62.7191 791.405 64.8554C796.039 66.6357 791.405 188.405 791.405 188.405H543.324Z" fill="url(#paint35_linear)"/>
<path opacity="0.8" fill-rule="evenodd" clip-rule="evenodd" d="M791.406 64.8564C791.406 64.8564 756.832 110.431 755.05 114.347C753.267 118.264 740.792 188.406 740.792 188.406H787.485C787.485 188.05 797.466 110.431 791.406 64.8564Z" fill="url(#paint36_linear)"/>
<path opacity="0.8" fill-rule="evenodd" clip-rule="evenodd" d="M622.811 161.346L613.9 173.451L585.741 184.133V188.049H618.534L635.999 162.058L622.811 161.346Z" fill="url(#paint37_linear)"/>
<path fill-rule="evenodd" clip-rule="evenodd" d="M838.456 188.05C838.456 188.05 822.416 145.68 818.495 142.475C814.575 139.271 785.347 138.915 778.931 142.475C772.158 146.036 736.515 188.05 736.515 188.05H838.456Z" fill="url(#paint38_linear)"/>
<path opacity="0.8" fill-rule="evenodd" clip-rule="evenodd" d="M818.495 142.831C818.495 142.831 821.346 149.596 820.99 152.445C820.633 155.649 804.237 173.096 804.237 173.096V188.406H838.455C838.455 188.05 822.772 148.528 818.495 142.831Z" fill="url(#paint39_linear)"/>
<path fill-rule="evenodd" clip-rule="evenodd" d="M755.048 114.347C745.781 121.824 731.167 129.301 718.691 130.726C705.859 132.15 674.136 127.521 672.711 122.536C671.285 117.552 703.721 77.3181 713.701 70.5532C723.681 63.7882 773.226 61.6519 791.405 64.8564L755.048 114.347Z" fill="#ABA7B5"/>
<path fill-rule="evenodd" clip-rule="evenodd" d="M585.742 163.126C577.187 164.55 558.652 179.148 558.296 180.929C557.939 182.709 582.89 185.201 585.742 184.133C588.593 183.065 611.762 176.656 614.257 173.452C616.752 170.247 623.168 161.346 623.168 161.346C623.168 161.346 600.712 160.634 585.742 163.126Z" fill="#ABA7B5"/>
<path fill-rule="evenodd" clip-rule="evenodd" d="M752.909 169.179C752.909 169.179 790.692 178.792 800.672 172.383C810.652 165.975 820.989 153.869 820.989 150.308C820.632 146.748 819.563 144.255 817.068 142.831C814.573 141.407 789.622 139.627 780.355 142.831C770.731 146.036 752.909 169.179 752.909 169.179Z" fill="#ABA7B5"/>
<path opacity="0.2" fill-rule="evenodd" clip-rule="evenodd" d="M672.711 117.196C672.711 117.196 689.107 89.0676 714.771 81.9466C740.434 74.8256 762.89 72.6893 765.385 74.1135C767.524 75.1817 761.108 106.87 747.207 113.279C733.306 120.044 700.513 120.044 696.592 113.635C692.671 107.226 707.285 92.2721 715.484 87.9995C723.682 83.7269 743.642 84.795 746.137 87.2874C748.632 89.7797 744.712 102.241 740.791 104.022C736.513 105.802 716.553 105.446 716.196 101.173C715.84 96.9007 719.404 92.9842 719.404 92.9842L726.533 92.6281C726.533 92.6281 722.256 95.1205 721.899 98.681C721.543 102.241 735.444 104.378 740.078 102.241C744.712 100.105 745.424 89.4237 741.504 88.3555C737.583 86.9313 723.325 86.9313 715.84 90.1358C708.355 93.3402 699.8 109.719 701.226 112.567C702.652 115.415 734.731 118.62 747.92 109.006C761.464 99.3931 759.326 79.0982 756.118 78.0301C753.266 76.6059 723.682 77.674 704.434 88.3555C685.186 99.037 673.067 120.756 673.067 120.756L672.711 117.196Z" fill="url(#paint40_linear)"/>
<path fill-rule="evenodd" clip-rule="evenodd" d="M726.89 128.945L751.484 131.081L761.821 104.378C761.464 104.378 740.434 122.536 726.89 128.945Z" fill="#8B6F8B"/>
<path fill-rule="evenodd" clip-rule="evenodd" d="M786.771 174.52L804.237 179.861L812.079 164.194C812.079 164.194 803.168 171.671 786.771 174.52Z" fill="#8B6F8B"/>
<path opacity="0.2" fill-rule="evenodd" clip-rule="evenodd" d="M726.891 128.946L690.891 188.406L740.792 188.05L744.356 179.861L751.485 131.082L726.891 128.946Z" fill="url(#paint41_linear)"/>
<g style="mix-blend-mode:screen" opacity="0.5">
<path d="M413.226 482.859C462.833 482.859 503.048 442.688 503.048 393.135C503.048 343.581 462.833 303.41 413.226 303.41C363.618 303.41 323.403 343.581 323.403 393.135C323.403 442.688 363.618 482.859 413.226 482.859Z" fill="url(#paint42_radial)"/>
</g>
<g style="mix-blend-mode:screen" opacity="0.5">
<path d="M696.238 374.976C743.483 374.976 781.783 336.718 781.783 289.524C781.783 242.33 743.483 204.072 696.238 204.072C648.992 204.072 610.692 242.33 610.692 289.524C610.692 336.718 648.992 374.976 696.238 374.976Z" fill="url(#paint43_radial)"/>
</g>
<g style="mix-blend-mode:screen" opacity="0.5">
<path fill-rule="evenodd" clip-rule="evenodd" d="M425.344 394.559C425.344 394.559 385.423 413.786 307.007 401.324C228.59 388.862 77.8168 376.4 11.5193 390.998C-54.7783 405.597 176.907 508.139 378.294 512.056C579.326 515.972 538.692 461.14 701.94 435.149C865.189 409.157 1028.08 447.61 1068.72 430.164C1108.99 412.718 1023.45 381.741 917.942 375.332C917.942 375.332 991.368 383.165 1009.19 401.324C1027.01 419.839 802.812 387.438 679.841 404.884C556.87 422.331 516.949 495.321 393.265 497.814C269.581 500.306 377.225 436.929 393.265 430.164C409.304 423.399 432.116 407.733 432.116 407.733L425.344 394.559Z" fill="url(#paint44_linear)"/>
</g>
<g style="mix-blend-mode:screen" opacity="0.5">
<path fill-rule="evenodd" clip-rule="evenodd" d="M691.246 279.199C691.246 279.199 757.9 209.413 838.455 212.618C919.01 215.822 884.079 290.236 1024.16 300.562C1163.88 310.531 1286.85 371.06 1300.4 401.324C1313.94 431.588 1200.95 434.793 1200.95 434.793C1200.95 434.793 1278.3 409.869 1217.71 374.976C1157.11 340.083 1124.68 324.773 981.031 303.766C837.386 283.115 696.593 314.092 696.593 314.092L691.246 279.199Z" fill="url(#paint45_linear)"/>
</g>
</g>
<defs>
<linearGradient id="paint0_linear" x1="465.377" y1="419.801" x2="465.377" y2="188.226" gradientUnits="userSpaceOnUse">
<stop stop-color="#65337C"/>
<stop offset="0.2838" stop-color="#752E32"/>
<stop offset="1" stop-color="#4A2232"/>
</linearGradient>
<linearGradient id="paint1_linear" x1="94.1147" y1="221.679" x2="306.461" y2="221.679" gradientUnits="userSpaceOnUse">
<stop stop-color="#C77CBD"/>
<stop offset="1" stop-color="#974577"/>
</linearGradient>
<linearGradient id="paint2_linear" x1="116.719" y1="314.257" x2="284.541" y2="314.257" gradientUnits="userSpaceOnUse">
<stop stop-color="#C77CBD"/>
<stop offset="1" stop-color="#974577"/>
</linearGradient>
<linearGradient id="paint3_linear" x1="276.32" y1="358.561" x2="550.316" y2="358.561" gradientUnits="userSpaceOnUse">
<stop stop-color="#C77CBD"/>
<stop offset="1" stop-color="#974577"/>
</linearGradient>
<linearGradient id="paint4_linear" x1="503.05" y1="282.46" x2="816.776" y2="282.46" gradientUnits="userSpaceOnUse">
<stop stop-color="#C77CBD"/>
<stop offset="1" stop-color="#974577"/>
</linearGradient>
<linearGradient id="paint5_linear" x1="276.32" y1="367.456" x2="369.479" y2="367.456" gradientUnits="userSpaceOnUse">
<stop stop-color="#C77CBD"/>
<stop offset="1" stop-color="#974577"/>
</linearGradient>
<linearGradient id="paint6_linear" x1="146.858" y1="318.994" x2="284.541" y2="318.994" gradientUnits="userSpaceOnUse">
<stop stop-color="#C77CBD"/>
<stop offset="1" stop-color="#974577"/>
</linearGradient>
<linearGradient id="paint7_linear" x1="122.198" y1="215.749" x2="306.46" y2="215.749" gradientUnits="userSpaceOnUse">
<stop stop-color="#C77CBD"/>
<stop offset="1" stop-color="#974577"/>
</linearGradient>
<linearGradient id="paint8_linear" x1="413.319" y1="394.538" x2="550.317" y2="394.538" gradientUnits="userSpaceOnUse">
<stop stop-color="#C77CBD"/>
<stop offset="1" stop-color="#974577"/>
</linearGradient>
<linearGradient id="paint9_linear" x1="537.52" y1="224.299" x2="649.173" y2="224.299" gradientUnits="userSpaceOnUse">
<stop stop-color="#C77CBD"/>
<stop offset="1" stop-color="#974577"/>
</linearGradient>
<linearGradient id="paint10_linear" x1="603.608" y1="272.251" x2="724.303" y2="272.251" gradientUnits="userSpaceOnUse">
<stop stop-color="#C77CBD"/>
<stop offset="1" stop-color="#974577"/>
</linearGradient>
<linearGradient id="paint11_linear" x1="702.155" y1="268.118" x2="747.593" y2="268.118" gradientUnits="userSpaceOnUse">
<stop stop-color="#C77CBD"/>
<stop offset="1" stop-color="#974577"/>
</linearGradient>
<linearGradient id="paint12_linear" x1="718.603" y1="243.951" x2="816.776" y2="243.951" gradientUnits="userSpaceOnUse">
<stop stop-color="#C77CBD"/>
<stop offset="1" stop-color="#974577"/>
</linearGradient>
<linearGradient id="paint13_linear" x1="369.478" y1="323.665" x2="486.611" y2="323.665" gradientUnits="userSpaceOnUse">
<stop stop-color="#C77CBD"/>
<stop offset="1" stop-color="#974577"/>
</linearGradient>
<linearGradient id="paint14_linear" x1="306.461" y1="276.302" x2="378.384" y2="276.302" gradientUnits="userSpaceOnUse">
<stop stop-color="#C77CBD"/>
<stop offset="1" stop-color="#974577"/>
</linearGradient>
<linearGradient id="paint15_linear" x1="587.372" y1="360.863" x2="644.844" y2="360.863" gradientUnits="userSpaceOnUse">
<stop stop-color="#C77CBD"/>
<stop offset="1" stop-color="#974577"/>
</linearGradient>
<linearGradient id="paint16_linear" x1="265.361" y1="309.768" x2="702.156" y2="309.768" gradientUnits="userSpaceOnUse">
<stop stop-color="#C77CBD"/>
<stop offset="1" stop-color="#974577"/>
</linearGradient>
<linearGradient id="paint17_linear" x1="465.377" y1="419.801" x2="465.377" y2="188.226" gradientUnits="userSpaceOnUse">
<stop stop-color="#3D56FF"/>
<stop offset="1"/>
</linearGradient>
<linearGradient id="paint18_linear" x1="679.737" y1="353.882" x2="679.737" y2="226.845" gradientUnits="userSpaceOnUse">
<stop stop-color="#610A83"/>
<stop offset="1" stop-color="#FFBFED"/>
</linearGradient>
<linearGradient id="paint19_linear" x1="635.941" y1="328.284" x2="714.943" y2="328.284" gradientUnits="userSpaceOnUse">
<stop stop-color="#C77CBD"/>
<stop offset="1" stop-color="#974577"/>
</linearGradient>
<linearGradient id="paint20_linear" x1="712.744" y1="350.317" x2="712.744" y2="226.845" gradientUnits="userSpaceOnUse">
<stop stop-color="#470760"/>
<stop offset="1" stop-color="#A210DA"/>
</linearGradient>
<linearGradient id="paint21_linear" x1="713.025" y1="340.661" x2="713.025" y2="235.339" gradientUnits="userSpaceOnUse">
<stop stop-color="#C77CBD"/>
<stop offset="1" stop-color="#974577"/>
</linearGradient>
<linearGradient id="paint22_linear" x1="683.478" y1="261.664" x2="743.703" y2="261.664" gradientUnits="userSpaceOnUse">
<stop stop-color="#C77CBD"/>
<stop offset="1" stop-color="#974577"/>
</linearGradient>
<linearGradient id="paint23_linear" x1="425.375" y1="446.139" x2="425.375" y2="339.288" gradientUnits="userSpaceOnUse">
<stop stop-color="#610A83"/>
<stop offset="1" stop-color="#FFBFED"/>
</linearGradient>
<linearGradient id="paint24_linear" x1="403.392" y1="447.027" x2="403.392" y2="359.45" gradientUnits="userSpaceOnUse">
<stop stop-color="#800DAD"/>
<stop offset="1" stop-color="#BD13FF"/>
</linearGradient>
<linearGradient id="paint25_linear" x1="401.665" y1="441.104" x2="401.665" y2="368.343" gradientUnits="userSpaceOnUse">
<stop stop-color="#C77CBD"/>
<stop offset="1" stop-color="#974577"/>
</linearGradient>
<linearGradient id="paint26_linear" x1="371.187" y1="386.531" x2="429.156" y2="386.531" gradientUnits="userSpaceOnUse">
<stop stop-color="#C77CBD"/>
<stop offset="1" stop-color="#974577"/>
</linearGradient>
<linearGradient id="paint27_linear" x1="434.896" y1="390.192" x2="533.931" y2="390.192" gradientUnits="userSpaceOnUse">
<stop stop-color="#C77CBD"/>
<stop offset="1" stop-color="#974577"/>
</linearGradient>
<radialGradient id="paint28_radial" cx="0" cy="0" r="1" gradientUnits="userSpaceOnUse" gradientTransform="translate(164.943 154.246) scale(107.334 107.217)">
<stop stop-color="#55DBD6"/>
<stop offset="1" stop-color="#0072CD"/>
</radialGradient>
<radialGradient id="paint29_radial" cx="0" cy="0" r="1" gradientUnits="userSpaceOnUse" gradientTransform="translate(162.538 52.8897) scale(51.0862 51.0305)">
<stop/>
<stop offset="1" stop-color="white"/>
</radialGradient>
<radialGradient id="paint30_radial" cx="0" cy="0" r="1" gradientUnits="userSpaceOnUse" gradientTransform="translate(160.594 141.762) scale(34.4088 50.4536)">
<stop offset="0.5838"/>
<stop offset="1" stop-color="white"/>
</radialGradient>
<linearGradient id="paint31_linear" x1="206.771" y1="126.464" x2="234.195" y2="126.464" gradientUnits="userSpaceOnUse">
<stop stop-color="#C77CBD"/>
<stop offset="1" stop-color="#974577"/>
</linearGradient>
<radialGradient id="paint32_radial" cx="0" cy="0" r="1" gradientUnits="userSpaceOnUse" gradientTransform="translate(252.227 175.388) scale(98.5231 98.4158)">
<stop stop-color="#55DBD6"/>
<stop offset="1" stop-color="#0072CD"/>
</radialGradient>
<radialGradient id="paint33_radial" cx="0" cy="0" r="1" gradientUnits="userSpaceOnUse" gradientTransform="translate(262.306 143.84) scale(40.6935 40.6492)">
<stop/>
<stop offset="1" stop-color="white"/>
</radialGradient>
<linearGradient id="paint34_linear" x1="268.4" y1="176.366" x2="321.872" y2="176.366" gradientUnits="userSpaceOnUse">
<stop stop-color="#C77CBD"/>
<stop offset="1" stop-color="#974577"/>
</linearGradient>
<linearGradient id="paint35_linear" x1="668.513" y1="188.231" x2="668.513" y2="63.5509" gradientUnits="userSpaceOnUse">
<stop stop-color="#633D4C"/>
<stop offset="1" stop-color="#685C5B"/>
</linearGradient>
<linearGradient id="paint36_linear" x1="767.072" y1="188.185" x2="767.072" y2="64.8422" gradientUnits="userSpaceOnUse">
<stop stop-color="#C77CBD"/>
<stop offset="1" stop-color="#974577"/>
</linearGradient>
<linearGradient id="paint37_linear" x1="610.766" y1="188.185" x2="610.766" y2="161.513" gradientUnits="userSpaceOnUse">
<stop stop-color="#C77CBD"/>
<stop offset="1" stop-color="#974577"/>
</linearGradient>
<linearGradient id="paint38_linear" x1="787.321" y1="188.232" x2="787.321" y2="140.114" gradientUnits="userSpaceOnUse">
<stop stop-color="#633D4C"/>
<stop offset="1" stop-color="#685C5B"/>
</linearGradient>
<linearGradient id="paint39_linear" x1="821.285" y1="188.232" x2="821.285" y2="142.683" gradientUnits="userSpaceOnUse">
<stop stop-color="#C77CBD"/>
<stop offset="1" stop-color="#974577"/>
</linearGradient>
<linearGradient id="paint40_linear" x1="719.146" y1="121.001" x2="719.146" y2="73.5065" gradientUnits="userSpaceOnUse">
<stop stop-color="#C77CBD"/>
<stop offset="1" stop-color="#974577"/>
</linearGradient>
<linearGradient id="paint41_linear" x1="721.078" y1="188.232" x2="721.078" y2="129.096" gradientUnits="userSpaceOnUse">
<stop stop-color="#C77CBD"/>
<stop offset="1" stop-color="#974577"/>
</linearGradient>
<radialGradient id="paint42_radial" cx="0" cy="0" r="1" gradientUnits="userSpaceOnUse" gradientTransform="translate(413.318 393.083) scale(89.7334 89.6356)">
<stop stop-color="#FF0095"/>
<stop offset="1"/>
</radialGradient>
<radialGradient id="paint43_radial" cx="0" cy="0" r="1" gradientUnits="userSpaceOnUse" gradientTransform="translate(696.264 289.682) scale(85.4971 85.404)">
<stop stop-color="#FF0095"/>
<stop offset="1"/>
</radialGradient>
<linearGradient id="paint44_linear" x1="0.11324" y1="443.535" x2="1078.96" y2="443.535" gradientUnits="userSpaceOnUse">
<stop stop-color="#8459D6"/>
<stop offset="1"/>
</linearGradient>
<linearGradient id="paint45_linear" x1="691.092" y1="323.682" x2="1301.21" y2="323.682" gradientUnits="userSpaceOnUse">
<stop stop-color="#8459D6"/>
<stop offset="1"/>
</linearGradient>
<clipPath id="clip0">
<rect width="1301" height="512" fill="white" transform="translate(0.113281 0.0556641)"/>
</clipPath>
</defs>
</svg>
