<svg width="162" height="162" viewBox="0 0 162 162" fill="none" xmlns="http://www.w3.org/2000/svg">
<g clip-path="url(#clip0)">
<path d="M161.272 80.6131C161.272 82.4761 161.272 84.3392 161.117 86.2023C160.651 93.0335 159.254 99.7095 157.236 106.075C157.236 106.075 157.236 106.23 157.081 106.23C156.149 109.025 155.062 111.819 153.82 114.459C151.491 119.582 148.386 124.55 144.971 129.053C143.108 131.537 140.934 134.021 138.76 136.35C131.619 143.802 123.08 149.857 113.454 154.049C107.709 156.688 101.499 158.551 95.1336 159.638C90.4759 160.414 85.663 160.88 80.8501 160.88C62.9957 160.88 46.5386 154.98 33.1866 145.199C23.095 138.058 14.8665 128.587 9.12203 117.409C8.03524 115.39 7.1037 113.372 6.32743 111.198C2.44604 101.883 0.272461 91.4809 0.272461 80.6131C0.272461 79.8368 0.272461 79.2158 0.272461 78.4395C0.272461 77.8185 0.272461 77.3527 0.272461 76.7317C0.272461 76.4212 0.272461 76.1107 0.272461 75.8001C0.272461 74.5581 0.427716 73.3161 0.582972 72.074C0.582972 71.2977 0.738228 70.6767 0.893483 69.9004C1.04874 69.2794 1.04874 68.5031 1.20399 67.8821C1.35925 67.2611 1.35925 66.4848 1.51451 65.8638C1.82502 64.9323 1.98027 63.8455 2.29078 62.7587C2.44604 61.9824 2.60129 61.3614 2.75655 60.7404C3.37757 58.2563 4.15385 55.9274 4.93013 53.5986C5.08538 53.2881 5.24064 52.9776 5.24064 52.6671C5.39589 52.2013 5.55115 51.8908 5.70641 51.425C6.01692 50.804 6.17217 50.183 6.48268 49.562C6.79319 48.9409 6.94845 48.3199 7.25896 47.6989C8.81152 44.128 10.8298 40.5571 12.8482 37.2968C13.1587 36.9863 13.3139 36.5205 13.6244 36.21C13.9349 35.7442 14.2455 35.2784 14.556 34.8127C16.2638 32.4838 17.9716 30.155 19.9899 27.9814C26.6659 20.2187 34.8944 13.8532 44.0545 9.19551C51.041 5.62464 58.6485 2.98529 66.7218 1.58799C71.2242 0.811714 75.8819 0.345947 80.6948 0.345947C93.2705 0.345947 105.07 3.14055 115.627 8.26398C117.18 9.04026 118.732 9.81654 120.285 10.7481C120.44 10.9033 120.596 10.9033 120.751 11.0586C120.751 11.0586 120.906 11.0586 120.906 11.2138C124.787 13.3874 128.514 16.0268 131.929 18.8214C137.053 23.1685 141.71 27.9814 145.747 33.4154C147.765 36.21 149.628 39.1598 151.336 42.2649C153.51 46.1463 155.373 50.3382 156.77 54.6854C156.925 54.9959 156.925 55.1512 157.081 55.4617C157.236 55.7722 157.236 55.9274 157.391 56.2379C158.944 61.2061 160.186 66.4848 160.807 71.9188C160.962 73.3161 161.117 74.8686 161.117 76.4212C161.117 77.6632 161.272 79.0605 161.272 80.6131Z" fill="url(#paint0_radial)"/>
<path d="M157.857 76.7317C157.857 78.2842 157.857 79.8368 157.702 81.5446C157.236 87.4443 156.15 93.0335 154.442 98.4674V98.6227C153.665 100.952 152.734 103.436 151.647 105.609C149.629 109.956 147.145 114.148 144.195 118.03C142.487 120.203 140.779 122.222 138.916 124.24C132.861 130.605 125.564 135.729 117.491 139.3C112.523 141.473 107.399 143.181 101.965 144.113C98.084 144.889 93.8921 145.199 89.8554 145.199C74.6404 145.199 60.6674 140.231 49.3337 131.847C40.9499 125.637 33.9634 117.409 28.9952 108.093C28.0637 106.385 27.2874 104.678 26.6664 102.815C23.406 94.7413 21.543 86.047 21.543 76.8869C21.543 76.2659 21.543 75.6449 21.543 75.0238C21.543 74.5581 21.543 74.0923 21.543 73.6265C21.543 73.316 21.543 73.1608 21.543 72.8503C21.543 71.7635 21.6982 70.6767 21.8535 69.7451C21.8535 69.1241 22.0087 68.5031 22.0087 67.8821C22.164 67.2611 22.164 66.7953 22.3192 66.1743C22.4745 65.5532 22.4745 65.0875 22.6298 64.4665C22.785 63.5349 22.9403 62.6034 23.2508 61.6719C23.406 61.0508 23.5613 60.4298 23.7165 59.9641C24.1823 57.9457 24.8033 55.9274 25.5796 54.0643C25.7349 53.7538 25.7349 53.4433 25.8901 53.2881C26.0454 52.9776 26.2006 52.5118 26.3559 52.2013C26.5111 51.7355 26.8217 51.1145 26.9769 50.6487C27.1322 50.183 27.4427 49.5619 27.5979 49.0962C28.9952 45.9911 30.5478 43.0412 32.4109 40.2466C32.5661 39.9361 32.8766 39.6256 33.0319 39.3151C33.3424 38.8493 33.6529 38.5388 33.8082 38.073C35.2055 36.0547 36.758 34.0364 38.3106 32.1733C44.055 25.6526 50.8863 20.2186 58.649 16.182C64.5488 13.0769 71.0695 10.9033 77.9007 9.66125C81.7821 9.04023 85.6635 8.57446 89.7001 8.57446C100.258 8.57446 110.349 11.0586 119.354 15.2505C120.751 15.8715 121.993 16.4925 123.235 17.2688C123.391 17.2688 123.546 17.424 123.701 17.424C123.701 17.424 123.856 17.424 123.856 17.5793C127.117 19.4424 130.222 21.6159 133.172 24.1C137.519 27.6709 141.556 31.8628 144.816 36.5205C146.524 38.8493 148.231 41.4886 149.629 43.9727C151.492 47.3884 153.044 50.804 154.286 54.5301C154.286 54.6854 154.442 54.9959 154.442 55.1511C154.442 55.3064 154.597 55.6169 154.597 55.7722C155.994 59.9641 156.926 64.4665 157.392 69.1241C157.547 70.3662 157.702 71.6082 157.702 72.8503C157.857 74.0923 157.857 75.3344 157.857 76.7317Z" fill="url(#paint1_radial)"/>
<path d="M152.889 76.7317C152.889 78.2843 152.889 79.6816 152.733 81.0789C152.423 86.5128 151.336 91.7915 149.628 96.7597V96.9149C148.852 99.0885 148.076 101.262 146.989 103.436C145.126 107.472 142.797 111.354 140.158 114.925C138.605 116.943 137.053 118.806 135.19 120.669C129.6 126.569 122.769 131.226 115.317 134.642C110.814 136.66 105.846 138.213 100.878 139.144C97.152 139.61 93.4258 139.921 89.5445 139.921C75.5715 139.921 62.53 135.263 51.9726 127.656C44.0546 121.911 37.6891 114.304 33.1867 105.609C32.4104 104.057 31.6341 102.504 31.0131 100.796C27.908 93.3441 26.2002 85.2708 26.2002 76.7317C26.2002 76.1107 26.2002 75.6449 26.2002 75.0239C26.2002 74.5581 26.2002 74.0924 26.2002 73.6266C26.2002 73.4713 26.2002 73.1608 26.2002 73.0056C26.2002 72.0741 26.3554 70.9873 26.5107 70.0557C26.5107 69.4347 26.666 68.9689 26.666 68.3479C26.8212 67.8821 26.8212 67.2611 26.8212 66.7954C26.9765 66.3296 26.9765 65.7086 27.1317 65.2428C27.287 64.3113 27.4422 63.535 27.5975 62.6035C27.7528 61.9824 27.908 61.5167 28.0633 60.8956C28.529 59.0326 29.15 57.1695 29.7711 55.3064C29.9263 54.9959 29.9263 54.8407 30.0816 54.5302C30.2368 54.2197 30.3921 53.9091 30.5473 53.5986C30.7026 53.1329 31.0131 52.6671 31.1684 52.2013C31.3236 51.7356 31.6341 51.2698 31.7894 50.804C33.0314 48.0094 34.584 45.2148 36.2918 42.5755C36.4471 42.265 36.6023 41.9545 36.9128 41.644C37.2233 41.1782 37.3786 40.8677 37.6891 40.5572C38.9311 38.6941 40.4837 36.831 41.881 35.1232C47.1597 29.0683 53.5252 23.9448 60.8222 20.374C66.4114 17.5794 72.3111 15.561 78.6766 14.319C82.2474 13.698 85.9736 13.3875 89.6997 13.3875C99.4808 13.3875 108.796 15.561 117.18 19.5977C118.422 20.2187 119.664 20.8397 120.906 21.4607C121.061 21.4607 121.217 21.616 121.217 21.616C121.217 21.616 121.372 21.616 121.372 21.7712C124.477 23.4791 127.272 25.4974 130.066 27.8262C134.103 31.2418 137.829 35.1232 140.934 39.3151C142.487 41.4887 144.039 43.8175 145.436 46.3016C147.144 49.4067 148.542 52.6671 149.784 56.0827C149.784 56.238 149.939 56.5485 149.939 56.7038C149.939 56.859 150.094 57.1695 150.094 57.3248C151.336 61.2062 152.268 65.3981 152.733 69.59C152.889 70.6767 152.889 71.9188 153.044 73.1608C152.889 74.2476 152.889 75.4897 152.889 76.7317Z" fill="url(#paint2_radial)"/>
<path opacity="0.2" d="M152.889 76.7316C152.889 78.2842 152.889 79.6815 152.733 81.0788C152.578 81.6998 152.268 82.4761 151.647 82.9419C150.87 83.7181 149.473 84.1839 148.386 84.4944C146.678 84.9602 144.815 85.1154 143.108 85.2707C140.934 85.5812 138.916 86.047 136.742 86.668C132.861 88.0653 128.979 89.6179 125.253 91.3257C121.372 93.1887 117.335 95.0518 113.143 96.2938C110.97 97.0701 108.641 97.5359 106.467 98.1569C105.381 98.4674 104.294 98.7779 103.362 98.9332C101.965 99.2437 100.568 99.7095 99.015 100.02C97.152 100.486 95.2889 101.107 93.4258 101.417C91.2523 101.883 89.2339 102.659 87.0604 102.97C85.3526 103.28 83.6447 103.436 81.9369 103.28C81.1607 103.28 80.5396 103.125 79.7634 103.125C78.8318 103.125 77.745 103.125 76.8135 102.97C75.4162 102.815 74.0189 102.97 72.4663 103.125C70.7585 103.28 69.206 103.436 67.6534 103.28C66.1009 103.125 64.5483 102.659 62.9958 102.194C61.4432 101.728 59.7354 101.417 58.0276 101.417C57.4066 101.417 56.7855 101.573 56.1645 101.573C55.5435 101.573 54.7672 101.728 54.1462 101.728C53.2147 101.883 52.1279 101.883 51.1963 101.728C49.6438 101.573 48.0912 101.107 46.6939 100.486C45.1414 99.8647 43.4336 99.2437 41.7257 98.9332C40.1732 98.6227 38.6206 98.1569 37.0681 98.4674C36.7576 98.4674 36.6023 98.4674 36.2918 98.4674C35.9813 98.4674 35.6708 98.6227 35.3603 98.6227C34.8945 98.6227 34.584 98.6227 34.1182 98.9332C33.963 99.0884 33.8077 99.2437 33.6525 99.399C33.4972 99.5542 33.342 99.7095 33.1867 99.8647C32.8762 100.02 32.5657 100.02 32.2552 100.175C31.7894 100.33 31.4789 100.33 31.0131 100.33C27.908 92.8782 26.2002 84.8049 26.2002 76.2659C26.2002 75.6449 26.2002 75.1791 26.2002 74.5581C26.2002 74.0923 26.2002 73.6265 26.2002 73.1608C26.2002 73.0055 26.2002 72.695 26.2002 72.5397C26.2002 71.6082 26.3554 70.5214 26.5107 69.5899C26.5107 68.9689 26.666 68.5031 26.666 67.8821C26.8212 67.4163 26.8212 66.7953 26.8212 66.3295C26.9765 65.8638 26.9765 65.2427 27.1317 64.777C27.287 63.8454 27.4422 63.0692 27.5975 62.1376C27.7528 61.5166 27.908 61.0508 28.0633 60.4298C28.529 58.5667 29.15 56.7037 29.7711 54.8406C29.9263 54.5301 29.9263 54.3748 30.0816 54.0643C30.2368 53.7538 30.3921 53.4433 30.5473 53.1328C30.7026 52.667 31.0131 52.2013 31.1684 51.7355C31.3236 51.2697 31.6341 50.804 31.7894 50.3382C33.0314 47.5436 34.584 44.749 36.2918 42.1097C36.4471 41.7992 36.6023 41.4886 36.9128 41.1781C37.2233 40.7124 37.3786 40.4019 37.6891 40.0913C38.9311 38.2283 40.4837 36.3652 41.881 34.6574C41.26 35.8994 40.639 37.2967 40.9495 38.694C41.1047 39.1598 41.1047 39.4703 41.26 39.7808V39.9361C41.7257 39.1598 42.3468 38.3835 42.8125 37.6073C43.5888 36.6757 44.2098 35.5889 44.9861 34.6574C45.6071 33.8811 46.3834 33.1048 47.0044 32.3286C47.3149 32.0181 47.7807 31.2418 48.2465 31.397C48.4017 31.8628 47.936 32.4838 47.7807 32.7943C47.4702 33.4154 47.1597 33.8811 46.8492 34.3469C46.8492 34.5021 46.6939 34.9679 47.0044 34.9679L47.3149 34.8126C47.6255 34.5021 47.936 34.3469 48.2465 34.0364C48.7122 33.7259 49.3333 33.4154 49.799 32.9496C50.4201 32.4838 51.1963 32.0181 51.8174 31.397C53.6804 30.155 55.5435 28.7577 57.4066 27.5156C59.4249 26.2736 61.5985 25.1868 63.772 24.2553C64.8588 23.7895 66.1009 23.1685 67.1877 22.7027C68.1192 22.3922 69.0507 22.0817 69.827 21.9264C70.6033 21.7712 71.3796 21.7712 72.1558 21.6159C72.7769 21.6159 73.3979 21.4607 74.1742 21.4607C74.7952 21.4607 75.2609 21.3054 75.882 21.3054C76.1925 21.3054 76.503 21.4607 76.8135 21.4607C76.9688 21.4607 77.2793 21.4607 77.2793 21.6159C77.5898 22.0817 76.1925 22.0817 76.0372 22.0817C75.2609 22.5475 74.6399 23.3237 74.0189 23.9448C73.3979 24.4105 72.7769 24.8763 72.3111 25.4973C71.8453 25.9631 71.069 26.5841 70.7585 27.2051C70.6033 27.5156 70.448 27.8262 70.6033 28.1367C70.7585 28.4472 71.2243 28.4472 71.5348 28.2919C72.4664 28.1367 73.2426 27.8262 74.1742 27.5156C75.2609 27.2051 76.3477 26.8946 77.4345 26.4289C78.3661 26.1183 79.2976 25.8078 80.2291 25.6526C81.1607 25.4973 82.0922 25.3421 83.179 25.1868C83.8 25.1868 84.2658 25.0316 84.8868 25.0316C85.3526 25.0316 85.8183 24.8763 86.2841 24.8763C87.2156 24.8763 86.4393 25.8078 86.1288 26.1183C84.7315 26.8946 83.3342 27.8262 81.6264 28.1367C79.7634 28.4472 77.9003 28.7577 76.1925 29.3787C74.9504 29.8445 73.7084 30.155 72.4663 30.6208C71.8453 30.9313 71.069 31.2418 70.448 31.397C69.5165 31.8628 68.585 32.3286 67.6534 32.7943C66.2561 33.4154 64.8588 34.3469 63.6168 35.2784C62.3747 36.0547 61.2879 36.9862 60.0459 37.9178C58.9591 38.694 58.0276 39.6256 57.096 40.5571C56.3198 41.3334 55.5435 42.4202 55.0777 43.507C54.612 44.5937 53.9909 45.991 53.9909 47.2331C53.9909 48.1646 54.4567 49.4067 55.3882 49.8724C56.3198 50.4935 57.4066 51.1145 58.6486 51.1145C59.4249 51.1145 60.2012 51.1145 60.9774 50.9592C62.0642 50.804 63.151 50.3382 64.3931 50.1829C65.6351 50.1829 66.8771 50.0277 68.2744 50.1829C69.827 50.3382 71.069 50.6487 72.4663 51.2697C73.7084 51.8908 74.9504 52.8223 76.1925 53.5986C77.9003 54.6854 79.2976 56.0827 80.8501 57.48C81.6264 58.2562 82.4027 59.0325 83.179 59.8088C83.8 60.4298 84.5763 60.8956 85.1973 61.3613C86.7499 62.4481 88.7682 63.2244 90.6312 63.6902C92.1838 64.0007 93.8916 64.3112 95.2889 63.8454C96.3757 63.5349 97.4625 62.9139 98.5493 62.6034C99.1703 62.4481 99.9466 62.4481 100.723 62.6034C101.81 62.7586 102.896 62.9139 103.983 62.9139C104.604 62.9139 105.07 62.7586 105.691 62.7586C106.312 62.7586 106.778 62.9139 107.399 62.9139C107.865 63.0692 108.33 63.2244 107.865 63.6902C107.244 64.1559 106.157 64.0007 105.536 64.0007C104.294 64.0007 103.207 64.0007 101.965 64.1559C101.499 64.1559 100.257 64.4665 100.257 64.9322C100.102 65.7085 101.965 65.5532 102.275 65.5532C103.362 65.398 104.449 65.2427 105.536 65.2427C106.933 65.0875 108.175 65.5532 109.572 65.5532C110.97 65.7085 112.212 66.019 113.454 66.1743C114.075 66.1743 114.541 66.019 115.162 66.019C116.093 65.8638 116.869 65.5532 117.801 65.2427C119.198 64.777 120.751 64.3112 122.303 64.0007C123.701 63.6902 124.943 63.6902 126.34 64.0007C126.961 64.1559 127.582 64.1559 128.358 64.3112C128.979 64.4665 129.6 64.3112 130.377 64.4665C132.24 64.6217 134.103 64.0007 135.811 63.3797C137.829 62.6034 139.692 61.3613 141.71 60.7403C142.952 60.2746 144.35 60.1193 145.747 59.964C146.057 59.964 146.368 59.8088 146.679 59.8088C146.834 59.8088 146.989 59.964 147.144 59.964C147.61 60.1193 147.61 59.8088 147.765 59.4983C147.921 59.1878 148.076 58.8773 148.231 58.5667C148.386 58.2562 148.386 57.9457 148.542 57.6352C148.697 57.1694 148.697 56.8589 148.852 56.5484C149.007 56.3932 149.473 55.3064 149.784 55.3064C149.939 55.3064 149.939 55.6169 149.939 55.9274V56.0827C149.939 56.2379 150.094 56.3932 150.094 56.5484C151.336 60.4298 152.268 64.6217 152.733 68.8136C152.268 68.6584 151.802 68.5031 151.336 68.3478C150.56 68.1926 149.939 68.0373 149.163 67.8821C148.542 67.7268 147.765 67.5716 147.144 67.5716C145.747 67.4163 144.194 67.7268 142.952 68.3478C142.331 68.6584 141.71 68.8136 141.089 69.1241C140.468 69.4346 139.847 69.7451 139.381 70.0557C138.76 70.3662 138.139 70.5214 137.518 70.8319C136.587 71.1424 135.655 71.6082 134.569 72.074C133.016 72.5397 131.619 73.4713 129.911 73.7818C128.514 74.0923 126.961 74.4028 125.564 74.5581C124.322 74.7133 122.924 74.2476 121.682 74.4028C121.217 74.4028 120.751 74.7133 120.13 74.7133C119.664 74.7133 119.354 75.0238 118.888 75.0238C118.267 75.0238 117.49 75.0238 116.869 75.1791C115.783 75.3343 114.541 75.3343 113.454 75.4896C112.678 75.4896 111.746 75.6449 110.97 75.6449C110.193 75.8001 109.417 75.8001 108.641 75.9554C107.865 76.1106 107.088 76.2659 106.312 76.5764C106.157 76.7316 105.536 76.8869 105.691 77.1974C105.691 77.3527 106.002 77.5079 106.157 77.6632C106.778 77.8184 107.244 77.8184 107.865 77.8184C108.33 77.8184 108.796 77.8184 109.417 77.6632C110.038 77.6632 110.814 77.6632 111.435 77.6632C113.609 77.3527 115.783 77.6632 117.956 78.1289C119.198 78.4395 120.596 78.5947 121.993 78.2842C123.856 77.9737 125.564 77.5079 127.427 77.1974C130.687 76.7316 133.948 76.1106 137.053 75.4896C138.605 75.1791 140.003 74.7133 141.555 74.4028C142.176 74.2476 142.952 74.0923 143.573 73.937C144.505 73.7818 145.436 73.7818 146.368 73.6265C147.765 73.4713 149.163 73.0055 150.56 72.695C151.491 72.5397 152.268 72.5397 153.199 72.3845C152.889 74.2476 152.889 75.4896 152.889 76.7316Z" fill="#470024"/>
<path opacity="0.2" d="M140.002 114.925C130.532 127.345 116.714 136.195 100.723 138.989C100.723 138.989 100.723 138.989 100.723 138.834C99.7911 137.902 98.8596 137.126 97.9281 136.35C96.8413 135.418 95.9097 134.487 94.6677 133.71C92.6494 132.313 90.4758 131.071 88.3022 129.829C85.9734 128.587 83.7998 127.19 81.1604 126.413C79.7631 125.948 78.3659 125.482 76.9686 125.171C75.2607 124.861 73.3977 124.706 71.6899 124.55C66.2559 123.929 60.3562 124.395 55.0775 126.258C53.9907 126.724 52.9039 127.034 51.8172 127.5C51.6619 127.5 51.6619 127.655 51.6619 127.655C43.7439 121.911 37.3784 114.304 32.876 105.609C33.497 105.454 34.118 105.143 34.5838 105.143C35.0496 105.143 35.5153 105.143 35.9811 105.143C36.7574 105.143 37.6889 105.609 38.4652 105.764C40.6388 106.541 42.6571 107.162 44.9859 106.851C45.6069 106.851 46.0727 106.696 46.6937 106.541C47.1595 106.385 47.6253 106.075 48.2463 106.075C48.8673 105.92 49.7988 106.075 50.5751 106.075C51.1961 106.075 51.8172 106.23 52.2829 106.385C52.9039 106.541 53.3697 106.541 53.9907 106.696C54.6117 106.851 55.0775 107.007 55.6985 107.007C56.3196 107.007 56.9406 107.006 57.5616 106.851C58.8037 106.696 60.0457 106.385 61.1325 105.92C62.064 105.609 62.9956 105.609 63.9271 105.454C66.4112 105.143 68.5848 106.075 70.9136 106.696C72.1556 107.162 73.5529 107.162 74.9502 107.317C76.3475 107.472 77.7448 107.472 79.1421 107.472C81.3157 107.472 83.334 107.162 85.5076 107.007C86.2839 106.851 87.2154 106.851 87.9917 106.541C89.5443 106.23 91.0968 106.075 92.6494 105.764C96.5308 104.988 100.257 104.057 103.983 102.97C105.691 102.504 107.243 101.728 108.796 101.262C109.417 101.107 110.193 100.952 110.814 100.796C111.435 100.641 112.212 100.486 112.833 100.796C113.298 100.952 113.454 101.417 113.298 101.883C113.143 102.349 112.367 102.659 112.056 102.97C111.435 103.28 110.814 103.436 110.193 103.591C108.951 104.057 107.864 104.522 106.622 104.833C105.846 105.143 105.07 105.143 104.449 105.299C103.517 105.454 102.741 105.764 101.965 106.075C101.188 106.385 100.567 106.851 99.9464 107.162C99.0148 107.472 97.928 107.783 96.8413 108.249C94.2019 109.18 91.8731 110.733 89.0785 111.354C88.1469 111.509 87.3707 111.819 86.4391 112.13C85.9734 112.285 85.5076 112.44 85.5076 113.061C85.5076 113.838 86.7496 114.148 87.2154 114.304C88.1469 114.459 88.9232 114.925 89.8548 115.08C90.4758 115.235 90.9415 115.546 91.5626 115.856C92.3388 116.322 93.1151 116.632 94.0467 116.788C96.065 117.253 98.0833 117.564 100.102 117.564C102.896 117.409 105.691 116.943 108.485 117.098C109.727 117.253 110.814 117.409 112.056 117.719C113.143 118.03 114.385 118.185 115.472 118.34C118.422 118.806 121.527 118.651 124.632 118.495C126.806 118.34 128.979 118.03 130.997 117.564C132.395 117.253 133.947 117.098 135.345 116.632C135.966 116.322 136.587 116.167 137.363 115.856C137.829 115.701 138.139 115.546 138.45 115.39C139.226 115.235 139.692 114.925 140.002 114.925Z" fill="#470024"/>
<path opacity="0.2" d="M149.628 96.7596C148.852 99.0885 147.92 101.262 146.989 103.436C146.989 103.436 146.834 103.436 146.834 103.591C146.057 104.057 145.436 104.522 144.815 105.143C144.35 105.609 143.729 105.92 143.263 106.23C142.797 106.385 142.487 106.696 142.176 106.851C141.71 107.006 141.4 107.317 140.934 107.472C140.313 107.938 139.692 108.404 139.071 108.87C138.916 109.025 138.605 109.335 138.45 109.491C138.295 109.646 138.139 109.801 137.984 109.956C137.674 110.267 137.363 110.577 136.897 110.888C136.121 111.509 135.345 111.975 134.413 112.44C133.792 112.751 133.326 112.906 132.705 113.061C132.084 113.217 131.463 113.372 130.687 113.527C130.066 113.682 129.445 113.993 128.824 114.148C128.203 114.304 127.427 114.459 126.65 114.614C125.564 114.769 124.322 114.769 123.235 114.925C122.614 115.08 121.993 115.235 121.527 115.39C120.906 115.546 120.44 115.701 119.819 115.856C118.732 116.011 117.801 116.011 116.714 115.856C116.404 115.856 116.093 115.856 115.627 115.856C115.472 115.856 115.162 115.856 115.006 115.856C114.851 115.856 114.696 115.856 114.541 115.856C113.609 115.701 112.522 115.856 111.591 115.856C110.659 116.011 109.572 116.011 108.641 116.011C108.175 116.011 107.709 116.011 107.244 116.011C106.623 116.011 106.157 116.011 105.536 116.011C104.294 116.167 103.052 116.011 101.965 115.856C101.965 115.08 102.275 114.925 102.431 114.614C102.586 114.459 102.586 114.304 102.741 114.304C102.896 114.148 103.207 114.148 103.362 113.993C103.517 113.993 103.673 113.838 103.828 113.838C104.138 113.682 104.449 113.682 104.915 113.682C105.225 113.682 105.691 113.527 106.001 113.527C106.467 113.527 106.933 113.527 107.244 113.527C107.554 113.527 108.02 113.527 108.33 113.527C108.951 113.527 109.728 113.682 110.349 113.838C110.97 113.993 111.591 114.304 112.367 114.459C114.385 114.925 116.559 115.701 118.732 115.235C119.043 115.235 119.198 115.08 119.509 115.08C119.974 114.925 120.44 114.769 120.906 114.614C122.148 114.304 123.39 114.148 124.632 113.682C125.253 113.527 125.719 113.217 126.185 113.061C126.65 112.751 127.116 112.44 127.582 112.285C128.048 112.13 128.514 111.819 129.135 111.509C129.6 111.354 130.066 111.043 130.532 110.888C131.774 110.422 132.861 109.801 133.947 109.18C135.034 108.559 135.966 107.938 136.897 107.162C137.984 106.385 139.071 105.299 140.313 104.522C141.089 103.901 142.021 103.436 142.952 102.97C143.418 102.659 144.194 102.504 144.66 101.883C145.126 101.262 145.436 100.641 145.902 100.02C146.368 99.399 146.834 98.778 147.455 98.3122C147.765 98.1569 148.076 97.8464 148.386 97.6912C148.852 97.2254 149.318 97.0702 149.628 96.7596Z" fill="#470024"/>
<path opacity="0.2" d="M128.979 25.1868C128.979 25.3421 128.979 25.3421 129.135 25.4973C128.979 25.6526 128.979 25.4973 128.979 25.1868Z" fill="#470024"/>
<path opacity="0.2" d="M145.125 46.3016C143.728 47.5436 142.02 48.6304 140.468 49.4067C138.139 50.3382 135.499 50.183 133.015 50.3382C132.55 50.3382 132.239 50.6487 131.773 50.6487C131.308 50.6487 130.842 50.4935 130.376 50.6487C129.289 50.804 128.358 50.9592 127.116 50.9592C125.563 50.9592 124.321 51.2698 122.768 51.2698C121.371 51.2698 119.198 51.7355 117.8 51.2698C117.956 50.6487 119.819 50.3382 120.44 50.0277C121.682 49.5619 122.924 49.2514 124.321 49.2514C125.097 49.2514 125.718 48.9409 126.495 48.9409C127.116 48.9409 127.892 49.0962 128.513 48.9409C129.289 48.7857 131.152 48.3199 130.997 47.2331C130.997 47.0779 130.376 46.3016 130.221 46.1463C129.91 45.8358 129.444 45.6806 128.979 45.5253C128.202 45.37 127.581 45.37 128.358 44.5938C128.823 43.9727 129.444 43.0412 128.202 42.7307C127.271 42.5754 126.339 42.886 125.408 43.1965C124.942 43.3517 124.476 43.1965 124.011 43.1965C123.545 43.3517 123.079 43.6622 122.613 43.6622C121.992 43.8175 121.526 43.6622 120.905 43.8175C120.284 43.9727 119.819 43.9727 119.198 44.128C116.869 44.128 114.54 45.6806 112.211 45.0595C111.28 44.9043 110.348 44.5938 109.417 44.4385C108.019 44.128 106.467 44.5938 105.069 44.749C103.362 44.9043 101.654 45.2148 99.9459 45.37C99.0144 45.5253 97.6171 45.9911 96.6855 45.6806C97.1513 45.2148 98.0828 45.2148 98.5486 45.0595C99.9459 44.749 101.498 44.4385 103.051 44.128C104.604 43.8175 106.311 43.6622 107.864 43.507C108.951 43.3517 110.038 43.507 110.969 43.3517C113.764 42.886 116.714 42.4202 119.508 41.3334C122.147 40.2466 124.166 37.9178 126.029 36.0547C127.116 34.9679 128.358 34.0364 128.823 32.6391C129.134 31.8628 129.444 31.0865 129.6 30.3103C129.755 29.534 129.755 28.7577 129.444 27.8262C135.965 32.9496 141.244 39.1598 145.125 46.3016Z" fill="#470024"/>
<path opacity="0.2" d="M34.2734 50.6487C34.8944 49.2514 35.5154 47.5436 36.447 46.3016C36.6022 45.9911 37.068 45.8358 37.3785 45.5253C37.8443 45.0595 38.4653 43.9727 39.0863 43.9727C40.0178 43.9727 38.9311 45.37 40.0178 45.2148C41.1046 45.2148 42.0362 43.9727 42.8124 43.3517C43.1229 43.1965 44.0545 42.7307 44.365 42.8859C44.8308 43.0412 44.6755 43.1965 44.8308 43.6622C45.2965 43.6622 45.607 43.3517 45.9175 43.0412C46.6938 42.2649 47.3148 41.6439 48.2464 41.0229C48.7121 40.7124 50.5752 39.4703 51.1962 40.0914C51.8173 40.7124 50.1094 42.5754 49.7989 42.8859C48.7121 44.128 48.0911 45.8358 47.6254 47.3884C47.0043 49.8724 49.0227 52.667 51.041 53.7538C51.662 54.0643 51.9725 54.3749 52.5935 54.6854C53.3698 55.1511 53.9908 55.3064 54.9224 55.4616C56.7854 55.9274 58.4932 56.7037 60.5116 56.8589C62.3746 57.0142 64.5482 56.8589 66.4113 56.5484C67.4981 56.3932 68.8954 56.0827 69.8269 56.5484C70.6032 56.8589 71.069 57.6352 71.5347 58.4115C72.0005 59.0325 73.0873 59.6535 73.7083 60.1193C74.6398 60.7403 75.7266 61.2061 76.8134 61.8271C77.4344 62.1376 78.0554 62.6034 78.6765 63.0692C79.2975 63.3797 79.9185 63.6902 80.3843 64.156C81.1606 64.9322 81.9368 65.8638 81.9368 66.9506C81.9368 67.7268 81.3158 67.7268 81.0053 68.1926C81.7816 68.8136 83.0236 68.9689 83.7999 69.5899C84.1104 69.7452 84.7314 70.0557 84.7314 70.5214C84.5762 71.1425 82.7131 70.9872 82.4026 70.9872C78.6765 70.9872 75.1056 70.8319 71.3795 70.9872C70.1374 70.9872 68.7401 71.1425 67.4981 71.453C67.0323 71.6082 66.5665 71.6082 66.256 72.074C66.877 72.5398 67.6533 72.695 68.4296 72.8503C70.2927 73.1608 72.1557 73.6265 74.0188 73.7818C75.8819 74.0923 77.4344 74.8686 79.1422 75.3344C79.9185 75.4896 80.5395 75.8001 81.3158 75.9554C82.2473 76.1106 83.1789 76.1106 84.1104 76.2659C87.9918 76.5764 91.7179 75.6449 95.5993 75.8001C96.9966 75.8001 98.3939 75.8001 99.9465 75.6449C101.344 75.4896 102.431 75.1791 103.673 74.7133C104.449 74.4028 105.225 74.4028 105.846 74.0923C106.622 73.9371 107.243 73.4713 108.02 73.316C109.417 73.0055 110.814 72.695 112.212 72.695C113.454 72.695 114.541 73.0055 115.783 73.0055C117.801 72.8503 119.509 72.074 121.372 71.7635C124.943 71.2977 128.203 70.3662 131.463 68.9689C132.705 68.5031 134.103 68.1926 135.5 68.0373C135.811 68.0373 136.276 67.8821 136.587 67.7268C136.897 67.7268 137.208 67.7268 137.518 67.7268C138.295 67.5716 138.916 67.1058 139.537 66.7953C140.468 66.3295 141.244 65.398 142.176 65.0875C143.263 64.6217 144.35 64.4665 145.281 64.156C145.747 64.0007 146.057 63.8454 146.523 63.6902C146.834 63.5349 147.144 63.6902 147.455 63.3797C146.834 64.0007 145.747 64.156 144.815 64.4665C144.039 64.777 142.952 65.2427 142.331 65.8638C141.865 66.3295 141.555 66.64 140.934 67.1058C139.692 67.8821 138.76 68.6584 137.363 69.1241C135.189 69.7452 133.171 70.5214 131.153 71.1425C128.979 71.7635 126.806 72.074 124.632 72.5398C120.13 73.4713 115.317 74.4028 110.659 74.8686C108.796 75.0238 106.933 75.3344 105.07 75.8001C104.294 75.9554 103.828 76.4211 103.052 76.5764C102.12 76.7317 101.344 77.0422 100.412 77.3527C98.7044 77.9737 96.8414 78.4395 95.1336 79.0605C94.202 79.371 92.6495 79.371 92.339 80.4578C92.96 80.9236 93.8915 80.7683 94.5125 80.7683C95.1336 80.7683 95.7546 80.9236 96.2203 80.7683C96.8414 80.613 97.6176 80.3025 98.2387 79.992C98.8597 79.6815 99.4807 79.5263 100.102 79.2157C100.878 78.9052 101.033 78.75 101.81 78.75C102.275 78.75 102.586 78.75 103.052 78.75C103.362 78.5947 103.673 78.4395 103.983 78.5947C103.828 78.9052 103.052 79.2157 102.741 79.371C102.275 79.6815 101.81 79.6815 101.344 79.992C100.878 80.4578 100.723 80.613 101.344 81.0788C102.12 81.5446 103.207 81.2341 104.138 81.2341C106.933 81.0788 109.572 79.992 112.212 80.613C113.764 80.9236 115.317 81.3893 116.869 81.5446C118.732 81.8551 120.751 81.8551 122.614 81.6998C124.477 81.5446 126.34 80.9236 128.203 80.7683C129.29 80.613 130.221 80.4578 131.308 80.1473C132.55 79.8368 133.947 79.6815 135.345 79.371C137.053 79.0605 138.605 78.5947 140.313 78.4395C141.555 78.2842 142.797 78.129 144.194 77.9737C144.66 77.9737 144.971 77.8184 145.436 77.9737C145.902 77.9737 145.747 78.129 146.057 78.129C146.523 78.2842 146.834 78.2842 147.299 78.4395C147.765 78.5947 148.541 78.5947 148.541 79.0605C145.747 81.0788 141.71 81.2341 138.605 82.1656C136.432 82.7866 134.258 83.5629 132.084 84.1839C129.6 84.9602 126.961 85.7365 124.322 86.5128C121.838 87.289 119.509 88.2206 117.18 88.9968C115.162 89.6179 113.298 90.3941 111.28 91.0152C110.193 91.3257 109.262 91.7914 108.33 92.102C107.399 92.4125 106.312 92.723 105.38 93.0335C104.604 93.344 103.673 93.4993 102.896 93.8098C101.81 94.1203 100.723 94.586 99.636 94.8966C98.5492 95.2071 97.3071 95.3623 96.2203 95.8281C95.2888 96.1386 94.5125 96.6044 93.581 96.7596C92.1837 97.0701 90.7864 97.5359 89.2338 97.8464C88.1471 98.1569 87.2155 98.6227 86.1287 98.7779C84.8867 98.9332 83.7999 99.0885 82.5579 99.0885C81.4711 99.0885 80.3843 99.399 79.2975 99.399C78.366 99.399 77.4344 99.399 76.5029 99.399C74.9503 99.5542 73.3978 99.5542 71.8452 99.5542C71.2242 99.5542 70.6032 99.5542 70.1374 99.5542C69.5164 99.5542 68.7401 99.7095 68.1191 99.5542C68.2743 99.399 69.2059 99.2437 69.5164 99.0885C70.1374 98.9332 70.9137 99.0885 71.5347 99.0885C72.311 99.0885 72.932 99.0885 73.7083 99.0885C74.4846 98.9332 75.4161 98.9332 76.1924 98.7779C77.2792 98.6227 78.5212 98.4674 79.7633 98.1569C80.3843 98.0017 81.0053 97.5359 81.6263 97.2254C82.2473 97.0701 82.7131 97.0701 83.3341 96.9149C84.2657 96.7596 85.0419 96.6044 85.9735 96.4491C86.4392 96.4491 87.0603 96.4491 87.526 96.2939C88.3023 96.1386 89.0786 95.8281 89.8549 95.5176C91.2522 95.0518 92.4942 94.586 93.7363 93.965C94.3573 93.6545 95.1336 93.344 95.5993 92.723C96.5309 91.4809 94.3573 91.6362 93.581 91.7914C91.7179 92.2572 89.8549 93.0335 87.8365 93.1887C86.905 93.1887 86.1287 93.344 85.3525 93.4993C84.2657 93.4993 83.3341 93.8098 82.2473 93.8098C81.1606 93.8098 80.229 93.965 79.2975 94.1203C77.9002 94.1203 76.5029 94.2755 75.1056 94.4308C73.553 94.586 72.0005 94.8966 70.4479 95.0518C69.2059 95.2071 68.1191 95.2071 66.877 95.3623C65.1692 95.6728 63.4614 96.1386 61.7536 96.4491C60.8221 96.6044 59.8905 96.9149 58.959 97.0701C57.8722 97.2254 56.9407 97.0701 55.8539 96.9149C54.1461 96.6044 52.4383 96.4491 50.7305 96.1386C48.4016 95.5176 46.2281 94.2755 44.365 92.5677C42.6572 91.0152 40.6389 89.9284 38.31 89.6179C36.447 89.3074 34.7392 89.7731 33.0313 90.2389C31.634 90.7047 30.392 90.8599 28.9947 90.8599C27.2869 90.7047 28.2184 89.3074 28.2184 88.2206C28.2184 85.426 28.2184 82.4761 28.5289 79.6815C28.6842 78.75 29.4605 70.0557 31.013 70.8319C31.1683 71.6082 31.1683 72.2292 31.3235 72.8503C31.3235 73.4713 31.7893 73.7818 31.9446 74.2476C32.4103 74.2476 32.7208 72.5398 32.8761 72.2292C33.1866 70.8319 33.4971 69.5899 33.8076 68.1926C34.1181 66.4848 34.2734 64.777 34.1181 63.0692C34.1181 62.4481 33.9629 61.6719 33.6524 61.2061C33.3419 60.7403 33.1866 60.8956 32.5656 60.8956C31.634 60.8956 31.3235 59.9641 31.3235 59.1878C31.3235 57.7905 31.634 56.5484 32.0998 55.3064C32.5656 54.2196 33.1866 53.1328 33.4971 51.8908C33.4971 51.5803 33.9629 50.3382 34.2734 50.6487Z" fill="#470024"/>
<path opacity="0.2" d="M135.19 120.669C129.601 126.569 122.769 131.226 115.317 134.642C114.075 134.331 112.833 133.866 111.746 133.71C110.97 133.71 109.573 133.71 108.952 133.089C108.331 132.468 109.883 132.313 110.349 132.313C110.97 132.158 112.057 132.313 112.212 131.537C112.678 129.984 107.089 129.363 106.157 129.208C104.604 128.742 102.741 128.898 101.034 128.742C100.102 128.742 99.0152 128.587 98.0837 128.277C97.1522 127.966 96.2206 127.811 95.2891 127.5C93.426 126.879 91.563 126.569 89.5446 126.258C89.2341 126.258 87.0605 126.103 87.0605 125.792C87.9921 125.482 89.2341 125.171 90.1657 125.016C90.6314 125.016 90.7867 125.171 91.0972 125.171C91.563 125.327 92.0287 125.327 92.4945 125.482C96.9969 126.569 101.499 126.724 106.002 126.569C106.623 126.569 107.089 126.258 107.71 126.258C108.175 126.258 108.641 126.258 109.107 126.258C110.659 126.258 112.057 126.103 113.609 125.637C114.851 125.327 116.249 125.171 117.491 124.706C117.956 124.55 119.198 124.395 119.198 123.929C118.577 123.774 117.646 123.929 116.87 123.929C115.783 123.929 114.541 123.929 113.454 123.774C112.057 123.619 110.815 123.619 109.417 123.464C108.486 123.308 107.71 123.464 106.933 122.843C107.244 122.377 108.331 122.222 108.952 122.066C110.194 121.911 111.436 121.756 112.522 121.601C115.628 121.135 118.577 120.979 121.683 120.824C123.39 120.669 125.098 120.514 126.651 120.514C127.893 120.514 129.135 120.824 130.532 120.824C131.464 120.824 132.55 120.824 133.482 120.824C134.258 120.669 134.724 120.669 135.19 120.669Z" fill="#470024"/>
<g opacity="0.5">
<path opacity="0.5" d="M58.6489 59.3431C58.4937 60.2746 58.0279 61.5167 58.4937 62.6034C58.8042 63.0692 59.1147 63.2245 59.7357 63.535C61.133 64.3112 62.6856 64.777 64.2381 64.4665C65.4802 64.3113 66.8775 64.0007 67.809 63.535C68.5853 63.0692 69.0511 62.1377 69.2063 61.3614C69.3616 60.5851 69.3616 59.4983 68.5853 59.0326C68.43 58.8773 68.1195 58.722 67.9643 58.5668C67.6537 58.4115 67.188 58.4115 66.8775 58.4115C66.1012 58.2563 65.1697 58.2563 64.3934 58.2563C63.7724 58.2563 63.1513 58.2563 62.6856 58.2563C62.2198 58.2563 61.5988 58.4115 61.133 58.5668C60.0462 58.8773 59.1147 58.722 58.6489 59.3431Z" fill="#B83138"/>
<path opacity="0.5" d="M69.8271 62.7587C70.2929 62.293 70.6034 61.9824 71.2244 61.6719C71.535 61.9824 72.0007 61.9824 72.156 62.293C72.3112 62.6035 72.3112 62.914 72.0007 63.2245C71.6902 63.535 71.3797 63.6903 70.9139 63.535C70.4482 63.535 69.9824 63.3797 69.8271 62.7587Z" fill="#B83138"/>
<path opacity="0.5" d="M65.6344 65.2428C66.4107 64.9323 66.8765 64.6218 67.4975 64.4665C67.808 64.3112 68.1185 64.156 68.429 64.156C68.7395 64.156 69.05 64.0007 69.3605 64.0007C69.8263 64.0007 69.9816 64.0007 70.2921 64.3112C70.4473 64.4665 70.7578 64.777 70.9131 65.0875C71.0684 65.398 71.2236 65.7085 71.2236 66.0191C71.0684 66.4848 70.7579 66.9506 70.4473 67.2611C69.9816 67.8821 69.05 68.1926 68.429 68.5031C67.808 68.8137 66.566 69.2794 65.7897 69.1242C65.3239 69.1242 64.8581 68.8137 64.5476 68.8137C63.9266 68.6584 63.1503 68.6584 62.5293 68.5031C61.9083 68.3479 60.9768 68.0374 61.2873 67.1058C61.5978 66.1743 62.8398 65.5533 63.6161 65.398C63.9266 65.398 64.2371 65.398 64.7029 65.398C65.0134 65.2428 65.1686 65.398 65.6344 65.2428Z" fill="#B83138"/>
<path opacity="0.5" d="M73.2421 63.8455C72.9316 64.3112 72.6211 64.777 72.6211 65.2428C72.7763 65.2428 72.9316 65.398 73.0869 65.398C73.2421 65.398 73.2421 65.398 73.3974 65.2428C73.7079 65.0875 73.8631 65.0875 74.0184 64.777C74.0184 64.6217 74.0184 64.3112 74.0184 64.156C73.7079 64.156 73.2421 64.0007 73.2421 63.8455Z" fill="#B83138"/>
<path opacity="0.5" d="M80.2287 77.508C78.0552 77.3527 75.8816 76.887 73.708 76.887C71.2239 76.887 68.7398 77.8185 66.8768 79.3711C66.1005 79.9921 65.1689 80.7684 65.1689 81.8551C65.1689 82.6314 65.6347 83.2524 66.2557 83.7182C67.3425 84.4945 68.4293 84.805 69.6714 85.1155C70.9134 85.426 72.0002 85.7365 73.2422 85.8918C74.329 86.047 75.4158 86.047 76.6579 85.8918C77.7447 85.7365 78.9867 85.426 80.0735 84.9603C80.8498 84.6497 81.9366 84.3392 82.5576 83.563C82.8681 83.0972 83.0233 82.4762 83.0233 81.8551C83.0233 80.6131 83.1786 79.3711 82.2471 78.4395C81.626 77.8185 81.005 77.508 80.2287 77.508Z" fill="#B83138"/>
<path opacity="0.5" d="M85.8184 77.6633C85.9736 78.2843 86.2841 78.75 86.5946 79.2158C86.9052 78.9053 87.5262 79.0605 87.9919 79.0605C88.3025 79.0605 88.613 79.0605 88.9235 78.9053C89.3892 78.75 90.1655 78.75 90.1655 78.129C90.1655 77.3527 89.234 77.1975 88.613 77.1975C87.6814 77.1975 86.7499 77.0422 86.1289 77.6633H85.8184Z" fill="#B83138"/>
<path opacity="0.5" d="M66.4111 86.5128C67.1873 86.6681 68.1189 86.6681 68.8952 86.8233C69.6714 86.8233 70.603 86.9786 71.3792 87.1338C71.845 87.2891 72.3108 87.2891 72.466 87.9101C72.6213 88.2206 72.7765 88.3759 72.6213 88.5311C72.466 88.9969 72.0003 89.1522 71.5345 89.3074C70.9135 89.6179 70.2925 89.9284 69.5162 90.0837C68.1189 90.3942 66.7216 90.86 65.169 90.86C64.548 90.86 63.6165 90.5495 63.306 89.9284C62.9954 89.3074 62.8402 88.6864 63.1507 87.9101C63.4612 87.1338 64.2375 86.6681 65.169 86.6681C65.4795 86.6681 65.79 86.6681 66.1006 86.8233C66.4111 86.6681 66.8768 86.6681 66.4111 86.5128Z" fill="#B83138"/>
<path opacity="0.5" d="M30.7024 83.5629C30.5472 84.805 30.3919 86.047 30.3919 87.4443C30.3919 87.9101 30.5472 88.5311 31.0129 88.8416C31.4787 89.1521 32.4103 89.1521 33.0313 88.9969C33.8075 88.8416 34.5838 88.2206 35.2048 87.7548C35.6706 87.4443 35.9811 86.9786 36.2916 86.5128C36.9127 85.7365 37.0679 84.805 37.3784 83.8735C37.5337 82.7867 37.5337 81.6999 37.5337 80.6131C37.3784 79.6816 37.0679 78.5948 36.6021 77.6632C36.1364 76.7317 35.5154 76.2659 34.5838 76.2659C33.8075 76.4212 33.0313 76.8869 32.4103 77.1975C31.9445 77.508 31.634 77.9737 31.3235 78.4395C31.013 78.9053 31.013 79.371 30.8577 79.8368C30.7024 80.3026 30.7024 80.6131 30.5472 81.0788C30.2367 82.0104 30.3919 83.0972 30.7024 83.5629Z" fill="#B83138"/>
<path opacity="0.5" d="M34.2735 73.6266C34.1182 73.0056 33.8077 72.2293 34.1182 71.6083C34.1182 71.453 34.2735 71.2978 34.2735 71.2978C34.4287 71.1425 34.584 70.832 34.7392 70.832C35.3603 70.6767 35.826 71.2978 35.9813 71.9188C36.1365 72.3845 36.1365 73.1608 35.826 73.6266C35.6708 73.9371 34.8945 74.2476 34.584 73.9371L34.2735 73.6266Z" fill="#B83138"/>
<path opacity="0.5" d="M35.6708 68.6584C35.5156 66.9506 34.8946 65.0875 35.9814 63.535C36.2919 63.0692 36.9129 62.2929 37.6892 62.2929C38.1549 62.2929 38.4654 62.9139 38.776 63.0692C39.2417 63.535 39.397 64.156 39.7075 64.777C39.8627 65.2428 40.1733 65.8638 40.1733 66.3295C40.1733 66.9506 40.018 67.7268 39.8627 68.1926C39.5522 68.9689 38.9312 69.7452 38.1549 69.9004C37.5339 70.0557 37.0681 69.9004 36.6024 69.5899C35.9814 69.5899 35.5156 69.1241 35.6708 68.6584Z" fill="#B83138"/>
<path opacity="0.5" d="M34.4287 60.5851C34.5839 61.2061 34.7392 61.6719 35.0497 62.1377C35.205 61.9824 35.3602 61.9824 35.6707 61.9824C35.826 61.8271 36.1365 61.6719 36.2918 61.5166C36.447 61.2061 36.6023 60.8956 36.447 60.5851C36.2918 60.2746 35.826 59.9641 35.5155 59.6536C35.0497 59.1878 34.5839 59.8088 34.2734 60.1193L34.4287 60.5851Z" fill="#B83138"/>
<path opacity="0.5" d="M92.8046 85.7365C93.4256 85.426 94.2019 84.9603 94.9782 84.805C95.4439 84.6497 95.9097 84.4945 96.2202 84.3392C97.307 84.0287 98.3938 83.8735 99.6358 83.8735C100.257 83.8735 100.878 83.8735 101.499 83.7182C101.965 83.563 102.43 83.563 102.896 83.563C104.293 83.4077 105.536 82.9419 106.933 82.7867C107.554 82.6314 108.33 82.4762 108.951 82.4762C109.417 82.4762 109.727 82.3209 110.193 82.3209C110.969 82.3209 111.746 82.1656 112.522 82.1656C115.472 82.1656 118.266 83.2524 121.061 84.184C121.682 84.3392 122.303 84.4945 123.079 84.6497C123.856 84.805 124.942 85.1155 125.874 84.9603C126.806 84.6497 126.495 83.7182 125.874 83.4077C125.098 82.9419 124.321 82.7867 123.39 82.7867C122.924 82.7867 122.303 82.7867 121.837 82.7867C121.061 82.9419 119.974 83.0972 119.819 84.0287C119.819 84.3392 119.819 84.6497 119.819 84.9603C119.819 85.1155 119.819 85.426 119.819 85.5813C119.664 86.2023 118.887 86.9786 118.422 87.2891C118.111 87.4443 117.801 87.5996 117.49 87.7549C117.18 88.0654 116.714 88.2206 116.403 88.3759C115.782 88.6864 115.161 88.9969 114.54 89.3074C114.075 89.4627 113.764 89.6179 113.298 89.7732C112.056 90.2389 110.969 90.7047 109.727 91.0152C108.796 91.3257 107.864 91.6362 106.933 91.9468C106.312 92.102 105.846 92.4125 105.38 92.5678C105.07 92.723 104.915 92.723 104.604 92.723C104.138 92.8783 103.828 93.0335 103.362 93.0335C101.809 93.3441 100.412 94.1203 98.7043 94.1203C98.0833 94.1203 97.6175 94.1203 97.307 93.4993C96.9965 92.8783 96.686 92.2573 96.3755 91.6362C96.0649 91.0152 95.7544 90.2389 95.1334 89.9284C94.3571 89.4627 93.5809 89.4627 92.8046 88.9969C92.0283 88.5311 91.873 87.9101 91.873 87.1338C91.873 86.8233 91.873 86.5128 92.0283 86.3576C92.1836 86.047 92.4941 85.8918 92.8046 85.7365Z" fill="#B83138"/>
<path opacity="0.5" d="M125.719 82.0104C126.185 81.8551 126.806 81.8551 127.271 81.5446C127.427 81.5446 127.427 81.5446 127.582 81.3893C127.737 81.3893 128.048 81.3893 128.203 81.3893C128.513 81.3893 128.979 81.2341 129.134 81.5446C129.445 81.8551 129.134 82.3209 128.824 82.4761C128.669 82.6314 128.358 82.6314 128.048 82.7866C127.892 82.7866 127.892 82.7866 127.737 82.7866C127.582 82.7866 127.427 82.9419 127.427 82.9419C127.271 82.9419 127.116 82.7866 126.961 82.7866C126.806 82.7866 126.65 82.7866 126.495 82.6314C126.185 82.4761 126.34 82.0104 126.029 81.8551H125.719V82.0104Z" fill="#B83138"/>
<path opacity="0.5" d="M76.1921 112.751C74.4843 113.062 72.9318 112.906 71.5345 113.993C71.0687 114.304 70.4477 114.925 70.1372 115.39C69.2056 116.632 71.3792 116.788 72.1555 116.943C73.8633 117.098 75.4159 117.564 76.9684 118.185C78.3657 118.806 79.763 119.116 81.1603 118.651C82.0919 118.34 82.8681 118.185 83.3339 117.098C83.6444 116.167 83.3339 115.235 82.5576 114.614C81.6261 113.838 80.6946 113.062 79.6078 112.751C78.3657 112.285 77.2789 112.285 76.0369 112.596L76.1921 112.751Z" fill="#B83138"/>
<path opacity="0.5" d="M73.5526 110.577C73.5526 110.577 72.7763 111.043 72.6211 111.198C72.6211 111.354 72.6211 111.509 72.6211 111.509C72.9316 111.819 73.5526 111.819 74.0184 111.819C74.3289 111.819 74.6394 111.819 74.9499 111.664C75.1052 111.664 75.2604 111.664 75.571 111.664C75.8815 111.509 76.192 111.509 76.5025 111.198C76.6577 111.043 76.6577 110.733 76.6577 110.422C76.6577 110.112 76.5025 109.801 76.192 109.801C75.4157 109.646 74.3289 109.956 73.5526 110.577Z" fill="#B83138"/>
<path opacity="0.5" d="M65.6351 117.253C65.9456 117.253 66.5666 117.098 67.0324 117.253C67.3429 117.253 67.4981 117.409 67.8087 117.409C68.4297 117.564 69.206 117.719 69.827 117.874C70.2927 118.03 70.6033 118.03 70.9138 118.495C71.069 118.806 71.2243 118.961 71.2243 119.272C71.069 120.669 69.3612 120.98 68.2744 121.135C67.3429 121.29 66.4114 121.135 65.4798 121.135C64.5483 120.98 63.4615 120.824 62.53 120.669C61.7537 120.514 61.1327 120.359 60.3564 120.203C59.8906 120.048 59.4249 120.048 59.1143 119.582C58.6486 118.806 58.9591 118.03 59.7354 117.719C60.8222 117.098 62.2195 117.098 63.3062 117.253C63.772 117.253 64.2378 117.409 64.5483 117.409C64.8588 117.098 65.3246 117.409 65.6351 117.253Z" fill="#B83138"/>
</g>
<path opacity="0.2" d="M94.8237 46.1463C94.2026 46.4568 93.4264 46.9226 92.6501 46.7673C92.1843 46.7673 91.8738 46.6121 91.408 46.6121C90.787 46.4568 90.166 46.4568 89.7002 46.3016C89.0792 46.1463 88.4582 46.1463 87.8372 46.1463C86.7504 46.1463 85.6636 46.3016 84.4215 46.3016C83.49 46.3016 82.4032 46.3016 81.4717 46.1463C80.5402 45.9911 79.7639 45.6806 78.8323 45.5253C78.5218 45.37 78.2113 45.2148 77.9008 45.2148C77.435 45.0595 76.9693 45.2148 76.5035 45.0595C75.572 44.9043 74.7957 44.9043 74.0194 44.5938C73.7089 44.4385 73.3984 44.4385 73.2431 44.128C73.2431 43.9727 73.0879 43.6622 73.0879 43.507C73.2431 43.1965 74.0194 43.3517 74.1747 43.3517C74.951 43.6622 75.572 43.8175 76.3483 44.2833C77.5903 45.0595 79.1429 44.5938 80.5402 44.749C81.1612 44.9043 81.6269 44.749 82.248 44.749C82.7137 44.749 82.869 45.0595 83.3348 45.2148C83.6453 45.37 84.2663 45.37 84.7321 45.2148C85.8188 45.0595 86.7504 44.749 87.6819 44.2833C88.7687 43.8175 89.8555 43.1965 91.0975 43.1965C92.0291 43.1965 93.1158 43.1965 94.0474 43.507C94.6684 43.6622 95.1342 43.9727 95.2894 44.5938C95.4447 45.5253 94.9789 45.6806 94.8237 46.1463Z" fill="#470024"/>
<path opacity="0.2" d="M90.7868 26.4289C91.2525 26.4289 91.7183 26.4289 92.1841 26.5841C91.8736 26.5841 91.4078 26.7394 91.0973 26.7394C90.7868 26.7394 90.6315 26.8947 90.321 26.8947C90.1657 26.8947 89.079 27.0499 89.3895 26.5841C89.7 26.2736 90.4763 26.4289 90.7868 26.4289Z" fill="#470024"/>
<path opacity="0.2" d="M121.216 21.7712C120.44 22.858 119.974 23.7895 119.198 24.5658C118.422 25.3421 117.646 25.8078 116.714 26.4289C115.627 27.0499 114.385 27.5157 113.143 27.8262C111.901 28.1367 110.504 28.4472 109.262 28.4472C108.33 28.4472 107.243 28.2919 106.312 28.2919C105.07 28.1367 103.828 27.9814 102.586 27.8262C101.654 27.6709 100.723 27.5157 99.7911 27.5157C98.8596 27.3604 97.9281 27.0499 96.9965 27.0499C96.3755 27.0499 95.5992 26.8946 94.9782 26.8946C94.5124 26.8946 94.2019 26.7394 93.7362 26.7394C93.4257 26.7394 93.1151 26.7394 92.9599 26.7394C92.8046 26.7394 92.4941 26.7394 92.3389 26.5841C92.6494 26.5841 92.9599 26.5841 93.1151 26.4289C93.8914 26.2736 94.6677 26.4289 95.444 26.2736C96.2203 26.2736 96.8413 26.2736 97.6176 26.1184C98.8596 25.9631 100.102 25.8078 101.344 25.8078C102.586 25.8078 103.673 25.9631 104.915 25.8078C105.225 25.8078 105.691 25.6526 105.846 25.3421C106.001 25.0316 106.157 24.7211 105.846 24.4105C105.536 24.1 103.983 23.7895 104.138 23.1685C104.138 23.0132 104.604 23.0132 104.759 22.858C105.536 22.7027 106.157 22.7027 106.933 22.5475C107.399 22.3922 107.709 22.237 108.175 22.237C108.485 22.0817 108.951 22.0817 109.262 21.9265C109.727 21.7712 110.349 21.7712 110.814 21.6159C112.056 21.6159 113.298 22.0817 114.385 21.6159C115.006 21.4607 115.317 21.1502 115.782 20.6844C115.938 20.5292 116.093 20.3739 116.248 20.0634C116.403 19.7529 116.559 19.4424 116.869 19.2871C118.111 19.9081 119.353 20.5292 120.595 21.1502C120.44 21.1502 120.44 21.3054 120.906 21.3054C121.061 21.7712 121.216 21.7712 121.216 21.7712Z" fill="#470024"/>
<path opacity="0.2" d="M120.596 25.0316C119.664 25.9631 118.888 26.7394 117.646 27.5157C116.714 28.1367 115.628 28.6025 114.541 28.913C113.765 29.2235 112.988 29.534 112.057 29.6893C111.591 29.6893 111.28 29.8445 110.815 29.9998C110.659 29.9998 110.349 30.155 110.194 30.155C109.883 30.4655 110.038 30.6208 110.349 30.7761C111.125 31.0866 111.901 30.7761 112.523 30.7761C113.92 30.6208 115.472 30.4655 116.87 30.155C117.801 29.8445 118.733 29.534 119.509 29.0682C120.441 28.4472 121.683 27.8262 122.148 26.7394C122.459 25.9631 122.614 25.3421 121.993 24.8763C121.683 24.5658 121.372 24.4106 120.906 24.4106C121.062 24.4106 120.285 24.4106 120.596 25.0316Z" fill="#470024"/>
<path d="M140.624 39.3151C139.227 39.1598 137.985 38.6941 136.587 38.2283C136.277 38.073 134.258 36.831 135.656 36.831C135.656 36.5205 134.879 35.8995 134.724 35.589C134.414 35.2784 134.103 34.8127 133.793 34.5022C133.327 34.0364 133.016 34.0364 132.395 33.7259C131.774 33.4154 131.153 32.9496 130.532 32.6391C128.98 32.0181 127.738 31.2418 126.03 31.5523C124.943 31.7076 123.701 32.7944 122.769 33.2601C121.372 34.0364 119.82 34.5022 118.267 34.8127C115.628 35.589 112.833 36.21 110.194 36.6757C108.641 36.9863 106.933 36.9863 105.381 37.2968C104.76 37.452 104.139 37.6073 103.363 37.6073C102.431 37.6073 101.499 37.452 100.568 37.6073C98.7049 37.9178 96.9971 37.7625 95.134 37.7625C94.6682 37.7625 92.3394 38.073 92.1841 37.2968C92.9604 36.831 94.0472 36.831 94.9787 36.831C96.376 36.6757 97.6181 36.6757 99.0154 36.5205C102.742 36.3652 106.312 35.1232 109.883 34.3469C111.591 34.0364 113.299 33.5706 115.007 33.1049C115.783 32.9496 116.715 32.7944 117.491 32.4838C118.267 32.1733 119.043 31.7076 119.975 31.3971C121.217 30.9313 122.148 30.4655 123.235 29.6892C123.546 29.3787 123.856 29.2235 124.012 28.913C124.477 27.8262 122.925 27.2052 122.148 26.8946C121.527 26.5841 120.751 26.1184 120.13 25.8079C119.043 25.4973 117.801 25.1868 116.715 24.7211C115.317 24.1 113.92 23.9448 112.523 23.479C111.436 23.1685 110.349 22.858 109.417 22.5475C108.641 22.3922 107.865 22.0817 107.089 21.9265C106.778 21.9265 106.157 21.9265 106.157 21.4607C106.468 21.3054 106.623 21.4607 106.933 21.3054C106.778 20.8397 103.828 20.5292 103.363 20.5292C102.276 20.5292 101.189 20.2187 100.102 20.2187C99.0154 20.2187 97.9286 20.3739 96.6865 20.5292C94.513 20.6844 92.4946 20.5292 90.3211 20.5292C89.5448 20.5292 88.6133 20.5292 87.837 20.5292C87.3712 20.5292 87.0607 20.3739 86.5949 20.2187C86.5949 19.7529 88.6133 19.2871 89.079 19.1319C88.7685 18.3556 85.9739 18.3556 85.3529 18.3556C84.1108 18.3556 82.8688 18.3556 81.4715 18.5108C80.2295 18.6661 78.9874 18.5108 77.9006 18.6661C76.9691 18.6661 76.0376 19.1319 75.106 18.8214C74.9508 18.8214 74.1745 18.6661 74.1745 18.5108C73.864 18.0451 74.6403 17.4241 74.9508 17.2688C76.0376 16.182 77.9006 15.8715 79.2979 15.2505C79.1427 14.7847 78.9874 14.4742 78.9874 14.0084C82.5583 13.3874 86.2844 13.0769 90.0106 13.0769C99.7917 13.0769 109.107 15.2505 117.491 19.2871C118.733 19.9081 119.975 20.5292 121.217 21.1502C121.372 21.1502 121.527 21.3054 121.527 21.3054C121.527 21.3054 121.683 21.3054 121.683 21.4607C124.788 23.1685 127.582 25.1868 130.377 27.5157C133.948 31.2418 137.519 34.9679 140.624 39.3151Z" fill="#F9AEA4"/>
<path d="M152.889 76.7317C152.889 78.2842 152.889 79.6815 152.734 81.0788C152.423 86.5128 151.336 91.7915 149.628 96.7596V96.9149C149.784 96.2939 149.784 95.6728 149.784 95.0518C149.784 94.5861 149.939 94.4308 150.094 93.965C150.094 93.6545 150.094 93.0335 150.094 92.723V87.289C150.094 86.2022 150.405 85.2707 150.405 84.1839C150.405 83.5629 150.405 83.0971 150.405 82.4761C150.405 81.8551 150.56 81.3893 150.715 80.9236C150.871 79.371 150.249 77.8185 150.249 76.2659C150.249 75.4896 150.249 74.8686 150.249 74.0923C150.249 73.7818 150.094 73.6266 150.094 73.1608C149.939 72.695 150.094 72.3845 150.094 71.9187C150.094 71.453 149.939 71.1425 149.784 70.832C149.784 70.5214 149.784 70.0557 149.784 69.7452C149.784 69.1241 149.784 68.5031 149.628 67.8821C149.473 67.5716 149.628 67.2611 149.473 66.7953C149.473 66.4848 149.318 66.1743 149.163 65.8638C149.007 65.2428 148.697 64.6217 148.542 64.0007C148.076 62.7587 147.61 61.5166 147.61 60.1193C147.61 58.722 146.989 57.6352 146.679 56.2379C146.213 54.8406 145.437 53.9091 144.66 52.8223C144.195 52.2013 144.505 51.7355 144.35 50.9592C144.195 50.6487 143.884 50.0277 143.574 49.8725C143.108 49.5619 142.176 49.4067 141.71 49.2514C141.089 49.2514 140.468 49.7172 139.847 49.4067C140.003 48.9409 141.089 48.4752 141.555 48.4752C142.021 48.3199 142.952 48.4752 143.108 47.6989C143.263 47.0779 142.487 46.7673 142.176 46.3016C142.021 46.1463 141.866 45.8358 141.71 45.5253C141.4 45.2148 141.089 45.2148 140.934 44.9043C140.624 44.5938 140.468 44.4385 140.158 44.128C139.847 43.9727 139.847 43.6622 139.537 43.507C139.071 43.0412 138.605 42.5754 138.14 42.1097C136.898 41.3334 135.966 40.8676 134.569 40.7124C133.948 40.5571 133.482 40.5571 133.016 40.2466C132.55 39.9361 132.395 39.4703 132.085 39.1598C131.619 38.5388 131.619 38.3835 132.24 37.9178C132.706 37.452 132.861 36.9862 132.706 36.3652C132.55 35.4337 131.929 34.0364 131.153 33.4154C130.222 32.6391 129.445 32.3286 128.358 32.1733C127.893 32.0181 127.272 32.1733 126.806 32.0181C126.495 31.8628 126.185 31.8628 125.874 31.8628C125.098 31.8628 124.477 31.5523 123.701 31.5523H121.217C120.596 31.5523 119.664 31.7076 119.198 31.5523C119.354 31.0865 120.285 30.776 120.751 30.6208C121.527 30.3103 122.459 29.8445 123.08 29.3787C123.701 28.913 124.011 28.6024 124.477 27.9814C124.788 27.6709 125.098 27.3604 125.409 27.0499C124.632 26.4289 123.856 25.9631 122.925 25.4973C121.993 25.0316 120.906 24.7211 119.819 24.2553C118.888 23.9448 117.956 23.7895 117.025 23.6343C115.783 23.3238 115.006 22.7027 114.075 21.7712C113.299 20.9949 112.678 20.5292 111.591 20.0634C110.815 19.7529 109.883 19.5976 108.952 19.4424C108.486 19.2871 108.175 19.2871 107.709 19.2871C107.244 19.2871 106.778 19.4424 106.312 19.2871C105.691 19.1319 105.225 18.9766 104.604 18.9766C104.139 18.9766 103.518 18.9766 103.052 18.9766C102.586 18.8213 102.12 18.8213 101.499 18.6661C100.102 18.3556 99.1704 16.803 98.2389 15.8715C97.6179 15.2505 97.1521 15.2505 96.3758 15.0952C95.4443 14.94 94.3575 14.6294 93.2707 14.6294C92.0287 14.6294 90.9419 14.6294 89.6998 14.6294C88.9236 14.6294 88.4578 14.6294 87.6815 14.7847C87.0605 14.94 86.4395 14.7847 85.9737 14.7847C84.8869 14.94 83.9554 15.2505 82.8686 15.2505C82.4028 15.2505 82.0923 15.0952 81.6265 14.94C81.316 14.94 80.695 15.0952 80.3845 14.94C79.7635 14.6294 81.1608 13.3874 79.6082 13.6979C77.9004 13.8532 76.1926 14.4742 74.4848 14.7847C72.777 15.0952 70.9139 15.7162 69.2061 16.182C68.1193 16.4925 67.0325 16.9583 66.101 17.424C64.3932 18.2003 62.9959 18.8213 61.1328 19.4424C66.722 16.6478 72.6217 14.6294 78.9872 13.3874C82.5581 12.7664 86.2842 12.4559 90.0103 12.4559C99.7914 12.4559 109.107 14.6294 117.491 18.6661C118.733 19.2871 119.975 19.9081 121.217 20.5292C121.372 20.5292 121.527 20.6844 121.527 20.6844C121.527 20.6844 121.682 20.6844 121.682 20.8397C124.788 22.5475 127.582 24.5658 130.377 26.8946C134.413 30.3103 138.14 34.1916 141.245 38.3835C142.797 40.5571 144.35 42.886 145.747 45.37C147.455 48.4752 148.852 51.7355 150.094 55.1511C150.094 55.3064 150.249 55.6169 150.249 55.7722C150.249 55.9274 150.405 56.2379 150.405 56.3932C151.647 60.2746 152.578 64.4665 153.044 68.6584C153.199 69.7452 153.199 70.9872 153.355 72.2293C152.889 74.2476 152.889 75.4896 152.889 76.7317Z" fill="url(#paint3_radial)"/>
<path d="M152.733 73.1608C152.733 71.9188 152.578 70.832 152.423 69.59C151.957 65.3981 151.025 61.2062 149.783 57.3248C149.783 57.1695 149.628 56.859 149.628 56.7038C149.473 56.5485 149.473 56.238 149.473 56.0827C148.231 52.6671 146.833 49.4067 145.126 46.3016C143.728 43.8175 142.331 41.4887 140.623 39.3151C137.518 35.1232 133.792 31.2418 129.755 27.8262C127.116 25.6526 124.166 23.6343 121.061 21.7712C121.061 21.7712 120.906 21.7713 120.906 21.616C120.751 21.616 120.595 21.4607 120.595 21.4607C119.353 20.8397 118.111 20.2187 116.869 19.5977C108.641 15.561 99.3252 13.3875 89.3889 13.3875C85.6628 13.3875 81.9366 13.698 78.3657 14.319C72.0003 15.4058 66.1006 17.4241 60.5114 20.374C53.3696 24.1001 46.8489 29.0683 41.5702 35.1232C41.1044 35.589 40.7939 36.0548 40.3281 36.5205C45.6068 30.6208 51.817 25.8079 58.8035 22.237C64.3927 19.4424 70.2925 17.4241 76.6579 16.1821C80.2288 15.561 83.9549 15.2505 87.6811 15.2505C97.4622 15.2505 106.778 17.4241 115.161 21.4607C116.403 22.0818 117.645 22.7028 118.887 23.3238C119.043 23.3238 119.198 23.4791 119.198 23.4791C119.198 23.4791 119.353 23.4791 119.353 23.6343C122.458 25.3421 125.253 27.3604 128.048 29.6893C132.084 33.1049 135.81 36.9863 138.915 41.1782C140.468 43.3518 142.021 45.6806 143.418 48.1647C145.126 51.2698 146.523 54.5302 147.765 57.9458C147.765 58.101 147.92 58.4116 147.92 58.5668C147.92 58.7221 148.075 59.0326 148.075 59.1878C149.318 63.0692 150.249 67.2611 150.715 71.453C150.87 72.5398 150.87 73.7819 151.025 75.0239C151.025 76.2659 151.181 77.3527 151.181 78.5948C151.181 80.1473 151.181 81.5446 151.025 82.9419C150.715 88.3759 149.628 93.6546 147.92 98.6227V98.778C147.144 100.952 146.368 103.125 145.281 105.299C143.418 109.335 141.089 113.217 138.45 116.788C137.984 117.409 137.518 117.874 137.052 118.495C138.139 117.253 139.071 116.167 140.002 114.769C142.642 111.198 144.97 107.317 146.833 103.28C147.765 101.107 148.697 98.9333 149.473 96.7597V96.6044C151.181 91.6362 152.112 86.3576 152.578 80.9236C152.733 79.5263 152.733 77.9738 152.733 76.5765C152.888 75.4897 152.888 74.2476 152.733 73.1608Z" fill="url(#paint4_radial)"/>
<path d="M111.436 61.8272C112.212 61.9824 113.143 61.9824 113.92 61.9824C113.92 61.6719 114.385 61.6719 114.23 61.3614C113.764 61.0509 113.609 60.8956 112.988 61.0509C112.678 61.0509 111.901 61.2062 111.746 61.5167L111.436 61.8272Z" fill="#F9AEA4"/>
<path d="M93.8916 32.6391C94.6679 32.7943 95.5994 32.7943 96.3757 32.7943C96.3757 32.4838 96.8414 32.4838 96.6862 32.1733C96.2204 31.8628 96.0652 31.7075 95.4441 31.8628C95.1336 31.8628 94.3574 32.018 94.2021 32.3286L93.8916 32.6391Z" fill="#F9AEA4"/>
<path d="M84.1104 121.135C84.8866 121.29 85.8182 121.29 86.5944 121.29C86.5944 120.98 87.0602 120.98 86.905 120.669C86.4392 120.359 86.2839 120.203 85.6629 120.359C85.3524 120.359 84.5761 120.514 84.4209 120.824L84.1104 121.135Z" fill="#F9AEA4"/>
<path d="M40.4834 73.1608C41.2597 73.316 42.1912 73.316 42.9675 73.316C42.9675 73.0055 43.4333 73.0055 43.278 72.695C42.8122 72.3845 42.657 72.2293 42.036 72.3845C41.7254 72.3845 40.9492 72.5398 40.7939 72.8503L40.4834 73.1608Z" fill="#F9AEA4"/>
<path d="M127.116 98.6227C127.582 98.0017 128.048 97.3807 128.513 96.9149C128.669 97.3807 129.135 97.3807 129.29 97.6912C129.6 98.0017 129.445 98.778 129.29 99.2437C128.669 100.641 127.116 101.417 125.719 101.728C125.253 101.883 124.787 102.038 124.322 101.728C124.011 101.417 123.856 100.952 124.166 100.641C124.477 100.331 125.098 100.02 125.408 99.7095C125.719 99.5543 126.185 99.399 126.185 99.0885L127.116 98.6227Z" fill="#F97F7C"/>
<path d="M133.482 98.1569C132.861 98.6227 132.395 99.2437 131.774 99.7095C131.93 100.02 132.706 99.399 133.016 99.399C133.172 99.2437 133.482 99.399 133.637 99.0885C133.793 98.9332 133.948 98.4674 133.637 98.4674L133.482 98.1569Z" fill="#F9AEA4"/>
<path d="M122.614 75.8001C121.993 76.2659 121.527 76.8869 120.906 77.3527C121.062 77.6632 121.838 77.0422 122.148 77.0422C122.304 76.8869 122.614 77.0422 122.769 76.7316C122.925 76.5764 123.08 76.1106 122.769 76.1106L122.614 75.8001Z" fill="#F9AEA4"/>
<path d="M70.448 18.8214C69.827 19.2871 69.3613 19.9081 68.7402 20.3739C68.8955 20.6844 69.6718 20.0634 69.9823 20.0634C70.1375 19.9081 70.448 20.0634 70.6033 19.7529C70.7586 19.5976 70.9138 19.1319 70.6033 19.1319L70.448 18.8214Z" fill="#F9AEA4"/>
<path d="M44.3647 81.0789C44.2094 81.8551 44.2094 82.6314 44.5199 83.2525C44.5199 83.563 44.5199 83.563 44.8304 83.563C44.9857 83.7182 45.2962 83.8735 45.6067 84.0287C45.9172 84.184 46.383 84.6497 46.6935 84.4945C46.8488 84.4945 47.4698 84.0287 47.4698 83.7182C47.625 83.4077 47.625 82.7867 47.625 82.4762C47.4698 81.8552 47.1593 80.7684 46.383 80.4579C46.0725 80.3026 45.762 80.3026 45.6067 80.1473C45.141 80.1473 45.141 80.1473 44.8304 80.4579L44.3647 81.0789Z" fill="#F97F7C"/>
<path d="M70.6035 42.5754C70.4482 42.7307 70.293 42.7307 70.293 42.8859C70.293 42.8859 70.293 42.8859 70.293 43.0412V43.1965C70.293 43.1965 70.293 43.3517 70.4482 43.507C70.4482 43.507 70.6035 43.507 70.7587 43.507C70.914 43.507 70.914 43.3517 70.914 43.3517C70.914 43.1965 71.0692 43.0412 71.0692 42.8859C71.0692 42.8859 71.0692 42.7307 70.914 42.7307C70.7587 42.5754 70.7587 42.5754 70.6035 42.5754Z" fill="#F97F7C"/>
<path d="M70.603 45.3701C70.4477 46.1463 70.4477 46.9226 70.7582 47.5436C70.7582 47.8542 70.7582 47.8542 71.0687 47.8542C71.224 48.0094 71.5345 48.1647 71.845 48.3199C72.1555 48.4752 72.6213 48.9409 72.9318 48.7857C73.0871 48.7857 73.7081 48.3199 73.7081 48.0094C73.8633 47.6989 74.0186 47.0779 73.8633 46.7674C73.7081 46.1463 73.3976 45.0596 72.6213 44.749C72.3108 44.5938 72.0003 44.5938 71.845 44.4385C71.3792 44.4385 71.3792 44.4385 71.0687 44.749L70.603 45.3701Z" fill="#F97F7C"/>
<path d="M49.333 36.9863C50.1093 37.1415 51.1961 37.4521 51.9723 37.1415C52.2829 36.9863 52.7486 36.6758 52.9039 36.3653C53.3697 36.0548 53.9907 35.7442 54.3012 35.4337C54.6117 34.968 54.6117 34.3469 53.9907 34.1917C52.9039 33.7259 49.7988 34.0364 49.7988 35.8995L49.333 36.9863Z" fill="#F9AEA4"/>
<path d="M111.746 56.5484C112.522 56.7037 113.609 57.0142 114.385 56.7037C114.696 56.5484 115.162 56.2379 115.317 55.9274C115.783 55.6169 116.404 55.3064 116.714 54.9959C117.025 54.5301 117.025 53.9091 116.404 53.7538C115.162 53.2881 112.057 53.5986 112.057 55.4616L111.746 56.5484Z" fill="#F97F7C"/>
<path d="M45.4512 77.508C45.6064 77.6632 45.9169 78.9053 46.3827 78.4395C46.6932 78.129 46.6932 77.508 46.3827 77.1975C46.2275 77.0422 45.9169 76.5764 45.7617 76.7317C45.6064 76.7317 45.6064 76.8869 45.6064 77.0422C45.6064 77.3527 45.6064 77.508 45.6064 77.8185L45.4512 77.508Z" fill="#CF6854"/>
<path d="M47.1602 80.1473C47.1602 79.8368 47.1602 79.6815 47.3154 79.371C47.4707 79.371 47.4707 79.371 47.6259 79.5263C47.7812 79.5263 47.7812 79.6815 47.7812 79.8368C47.9364 79.992 48.0917 80.3026 47.9364 80.4578C47.9364 80.6131 47.6259 80.6131 47.6259 80.7683C47.4707 80.7683 47.1602 80.6131 47.1602 80.4578V80.1473Z" fill="#CF6854"/>
<path d="M50.2646 116.632C50.7304 117.253 51.1962 118.03 51.8172 118.651C52.283 118.961 52.5935 119.427 53.0592 119.893C53.6803 120.514 54.4565 121.135 55.2328 121.445C55.6986 121.601 55.6986 121.445 55.5433 120.979C55.2328 120.358 54.7671 120.203 54.146 119.737C53.3698 119.272 52.5935 118.806 52.1277 118.03C51.5067 117.564 51.0409 116.632 50.2646 116.632Z" fill="#F9AEA4"/>
<path d="M50.5753 115.546C50.7305 115.856 49.9543 114.148 50.1095 113.838L50.2648 113.682C50.42 113.527 50.7305 113.682 50.7305 113.838C50.8858 114.303 50.7305 114.925 50.5753 115.546Z" fill="#F9AEA4"/>
<path d="M130.222 94.8966C130.377 94.7413 130.687 94.4308 130.843 94.2756H130.998C131.153 94.2756 131.153 94.4308 131.308 94.5861C131.464 94.8966 131.308 95.0519 130.998 95.2071C130.843 95.5176 130.066 95.6729 130.222 94.8966Z" fill="#F9AEA4"/>
<path d="M51.0405 63.0692C51.1957 62.9139 51.5062 62.6034 51.6615 62.4482H51.8167C51.972 62.4482 51.972 62.6034 52.1273 62.7587C52.2825 63.0692 52.1273 63.2245 51.8167 63.3797C51.6615 63.6902 50.73 63.6902 51.0405 63.0692Z" fill="#F9AEA4"/>
<path d="M51.8175 82.6314C52.2833 82.1656 52.5938 81.8551 53.2148 81.5446C53.3701 81.6999 53.5254 81.5446 53.6806 81.6999C53.9911 81.8551 54.1464 82.1656 54.1464 82.3209C54.3016 82.7867 53.9911 83.2524 53.6806 83.5629C53.2148 84.0287 51.507 84.0287 51.6623 82.9419L51.8175 82.6314Z" fill="#CF6854"/>
<path d="M67.0324 43.507C67.4982 43.0412 67.8087 42.7307 68.4297 42.4202C68.5849 42.5754 68.7402 42.4202 68.8955 42.5754C69.206 42.7307 69.3612 43.0412 69.3612 43.1964C69.5165 43.6622 69.206 44.128 68.8955 44.4385C68.4297 44.9043 66.7219 44.9043 66.8771 43.8175L67.0324 43.507Z" fill="#D57A68"/>
<path d="M116.248 130.295C116.559 129.984 117.18 129.208 117.645 128.898C117.956 128.742 118.266 128.587 118.577 128.432C118.732 128.276 119.043 128.276 119.353 128.276C119.819 128.432 119.664 129.053 119.508 129.363C119.198 129.829 118.577 130.295 117.956 130.605C117.645 130.761 116.714 130.916 116.714 130.45H116.248V130.295Z" fill="#F9AEA4"/>
</g>
<defs>
<radialGradient id="paint0_radial" cx="0" cy="0" r="1" gradientUnits="userSpaceOnUse" gradientTransform="translate(80.7448 80.6631) scale(80.4724)">
<stop stop-color="#FF6654"/>
<stop offset="1" stop-color="#FF6654" stop-opacity="0"/>
</radialGradient>
<radialGradient id="paint1_radial" cx="0" cy="0" r="1" gradientUnits="userSpaceOnUse" gradientTransform="translate(89.5713 76.6831) scale(68.2738)">
<stop stop-color="#FFAC56"/>
<stop offset="1" stop-color="#FFAC56" stop-opacity="0"/>
</radialGradient>
<radialGradient id="paint2_radial" cx="0" cy="0" r="1" gradientUnits="userSpaceOnUse" gradientTransform="translate(103.546 42.0767) scale(73.4907)">
<stop offset="0.2814" stop-color="#E95059"/>
<stop offset="0.4122" stop-color="#E44D59"/>
<stop offset="0.5635" stop-color="#D6465A"/>
<stop offset="0.7251" stop-color="#BF395C"/>
<stop offset="0.8927" stop-color="#9F275E"/>
<stop offset="1" stop-color="#861960"/>
</radialGradient>
<radialGradient id="paint3_radial" cx="0" cy="0" r="1" gradientUnits="userSpaceOnUse" gradientTransform="translate(137.598 28.8454) scale(51.0041)">
<stop stop-color="#FF953D"/>
<stop offset="0.2112" stop-color="#FA873F"/>
<stop offset="0.6089" stop-color="#EB6244"/>
<stop offset="1" stop-color="#DB384A"/>
</radialGradient>
<radialGradient id="paint4_radial" cx="0" cy="0" r="1" gradientUnits="userSpaceOnUse" gradientTransform="translate(134.803 27.3058) scale(61.8965)">
<stop stop-color="#FFCC7A"/>
<stop offset="0.1441" stop-color="#FCBE75"/>
<stop offset="0.4171" stop-color="#F39969"/>
<stop offset="0.787" stop-color="#E45D56"/>
<stop offset="1" stop-color="#DB384A"/>
</radialGradient>
<clipPath id="clip0">
<rect width="161" height="161" fill="white" transform="translate(0.272461 0.190674)"/>
</clipPath>
</defs>
</svg>
