<svg width="72" height="73" viewBox="0 0 72 73" fill="none" xmlns="http://www.w3.org/2000/svg">
<g style="mix-blend-mode:screen">
<circle cx="35.78" cy="36.4948" r="34.78" fill="url(#paint0_linear)"/>
<circle cx="35.78" cy="36.4948" r="34.78" stroke="url(#paint1_linear)" stroke-width="2"/>
</g>
<path d="M38.7173 36.495C38.7173 43.6862 32.9272 49.5159 25.7851 49.5159C18.6431 49.5159 12.8525 43.6849 12.8525 36.495C12.8525 29.305 18.6426 23.4736 25.7851 23.4736C32.9276 23.4736 38.7173 29.3037 38.7173 36.495ZM52.9043 36.495C52.9043 43.264 50.0092 48.7535 46.438 48.7535C42.8667 48.7535 39.9717 43.264 39.9717 36.495C39.9717 29.7259 42.8663 24.2364 46.4375 24.2364C50.0088 24.2364 52.9038 29.7242 52.9038 36.495H52.9043ZM58.7071 36.495C58.7071 42.5584 57.6891 47.4767 56.4329 47.4767C55.1767 47.4767 54.1591 42.5597 54.1591 36.495C54.1591 30.4303 55.1772 25.5132 56.4329 25.5132C57.6886 25.5132 58.7071 30.4298 58.7071 36.495" fill="#FCFDFE"/>
<defs>
<linearGradient id="paint0_linear" x1="35.7719" y1="95.0758" x2="35.7719" y2="-20.8941" gradientUnits="userSpaceOnUse">
<stop stop-color="#BD13FF"/>
<stop offset="0.1828" stop-color="#A93995"/>
<stop offset="0.5233" stop-color="#A93995" stop-opacity="0.5"/>
<stop offset="1" stop-color="#A93995" stop-opacity="0"/>
</linearGradient>
<linearGradient id="paint1_linear" x1="0" y1="43.8182" x2="71.5442" y2="43.8182" gradientUnits="userSpaceOnUse">
<stop stop-color="#A0ACB6"/>
<stop offset="0.1064" stop-color="#717785"/>
<stop offset="0.2648" stop-color="#E4E7EA"/>
<stop offset="0.3977" stop-color="#94A4AD"/>
<stop offset="0.5455" stop-color="#636877"/>
<stop offset="0.7145" stop-color="#A8B5BC"/>
<stop offset="0.805" stop-color="#D1D7DC"/>
<stop offset="0.8871" stop-color="#6C7278"/>
<stop offset="0.9441" stop-color="#8F99A3"/>
<stop offset="1" stop-color="#A3A9AE"/>
</linearGradient>
</defs>
</svg>
