<svg width="177" height="179" viewBox="0 0 177 179" fill="none" xmlns="http://www.w3.org/2000/svg">
<path opacity="0.1" d="M88.6266 174.224C135.226 174.224 173.003 136.002 173.003 88.8525C173.003 41.7032 135.226 3.48108 88.6266 3.48108C42.0267 3.48108 4.25 41.7032 4.25 88.8525C4.25 136.002 42.0267 174.224 88.6266 174.224Z" fill="#9CE8E6"/>
<path d="M89.7913 151.833C123.761 151.833 151.298 124.256 151.298 90.2383C151.298 56.2206 123.761 28.6439 89.7913 28.6439C55.8219 28.6439 28.2842 56.2206 28.2842 90.2383C28.2842 124.256 55.8219 151.833 89.7913 151.833Z" fill="#079191"/>
<path d="M87.0962 43.304C77.8465 44.2157 72.1291 47.899 64.8094 53.3327C58.6551 57.8912 53.5204 64.3825 47.0747 67.9928C42.6683 70.4727 36.1862 74.2653 30.2504 74.8853C29.1943 78.9332 28.5388 83.127 28.3203 87.4302C41.1024 81.7777 57.7447 74.5571 65.3193 63.1426C70.1991 55.7761 76.3898 52.2022 85.0205 50.3059C92.4858 48.6648 99.2957 50.5612 106.797 50.3059C115.501 49.9777 122.639 47.4979 130.432 44.2522C127.555 41.6995 124.459 39.4384 121.145 37.4692C117.613 39.9125 110.221 42.21 108.545 42.4653C101.626 43.5958 94.0882 42.6112 87.0962 43.304Z" fill="#0BD6D6"/>
<path d="M110.949 96.4743C95.1444 103.695 78.9756 108.983 62.6975 114.818C54.6495 117.699 46.4194 121.601 38.0801 123.862C39.5003 126.086 41.1026 128.201 42.7778 130.207C48.131 126.852 54.5038 124.081 60.294 122.221C73.2582 118.063 85.6762 113.067 98.604 108.582C110.366 104.497 122.056 99.72 133.6 94.9427C138.662 92.8275 143.724 90.7853 148.822 88.7431C149.587 88.4514 150.424 88.0502 151.262 87.6126C151.116 84.0752 150.643 80.6472 149.915 77.2922C139.135 86.4821 123.039 90.9677 110.949 96.4743Z" fill="#0BD6D6"/>
<path d="M122.275 125.795C112.442 130.9 101.772 134.255 91.758 138.485C87.2059 140.418 83.1637 142.898 79.1943 145.925C78.1018 146.764 75.9533 148.551 74.6787 150.228C76.9729 150.812 79.3036 151.249 81.6706 151.577C83.3458 150.155 84.9117 148.514 86.4048 147.602C90.5562 145.05 95.4724 143.737 99.8424 141.293C110.512 135.422 121.801 131.192 132.653 125.466C136.077 123.643 140.119 120.835 143.979 119.704C145.69 116.532 147.111 113.213 148.276 109.712C147.438 110.004 146.674 110.259 146.091 110.551C137.606 114.562 130.651 121.455 122.275 125.795Z" fill="#0BD6D6"/>
<path d="M126.498 103.768C120.562 106.941 114.59 108.217 108.472 110.66C101.152 113.578 94.0513 117.079 86.3675 118.866C76.6443 121.127 68.2686 125.94 59.0188 129.587C56.0327 130.791 51.8812 133.343 47.6934 135.459C51.9541 139.434 56.761 142.825 62.005 145.487C65.0275 143.445 70.3079 141.658 72.9299 140.236C80.3588 136.224 88.1155 132.906 95.4716 128.785C106.506 122.658 117.321 116.422 128.865 111.39C134.255 109.056 139.572 106.43 145.143 104.607C146.09 104.278 148.02 103.622 149.95 103.148C150.752 99.3188 151.188 95.3438 151.261 91.2958C149.805 92.0981 148.384 92.8275 147.328 93.411C140.555 97.2036 133.345 100.121 126.498 103.768Z" fill="#0BD6D6"/>
<path d="M136.55 129.259C131.451 131.885 126.317 134.474 121.255 137.245C112.988 141.767 105.232 146.618 97.4385 151.614C113.935 149.572 128.392 140.965 138.188 128.493C137.606 128.748 137.059 129.004 136.55 129.259Z" fill="#0BD6D6"/>
<path d="M94.9259 93.2287C107.599 90.2748 118.487 84.4034 130.031 78.4591C132.945 76.964 141.138 72.0408 147.875 70.1809C145.472 63.2885 141.867 56.9431 137.351 51.4364C133.418 52.6763 129.23 53.6245 125.916 55.1926C115.683 60.0793 113.316 69.9256 107.854 79.2979C103.629 86.5186 96.7831 92.5722 87.934 91.2959C80.068 90.1289 73.6588 85.9351 65.3194 86.7374C54.868 87.7585 44.4893 93.5569 35.3124 98.2977C33.7465 99.1 31.6344 100.413 29.3037 101.799C30.1413 106.284 31.4523 110.624 33.2003 114.708C39.7188 111.134 47.4026 109.749 54.5038 107.706C68.1963 103.695 81.0149 96.4378 94.9259 93.2287Z" fill="#0BD6D6"/>
<path d="M33.965 64.8931C42.6685 63.4708 48.6772 62.4497 54.4674 55.302C66.6668 40.2407 84.6201 38.8549 102.792 38.782C105.596 38.782 110.767 36.0104 115.246 34.4423C107.49 30.9049 98.8588 28.9357 89.7912 28.9357C64.9189 28.9357 43.5061 43.7052 33.8193 64.966C33.8558 64.8931 33.8922 64.8931 33.965 64.8931Z" fill="#0BD6D6"/>
<path d="M133.163 46.6956C132.143 45.8933 115.028 53.1869 113.899 53.4786C104.431 55.922 95.2537 52.3846 85.8218 55.1561C78.8663 57.1983 74.7877 61.9756 70.2721 67.4458C68.8883 69.0869 67.9779 71.1291 66.5576 72.8066C63.8992 75.9064 59.7478 78.0945 56.361 80.2826C54.2125 81.6683 51.8818 82.2154 49.5876 83.2C46.7471 84.4034 43.9795 86.008 41.1755 87.2844C37.7159 88.889 33.1274 90.9312 30.287 92.7911L28.976 93.3745C26.9003 97.1672 33.4552 93.8851 34.839 93.1922C38.8448 91.2229 42.8506 89.0713 47.0749 87.5397C51.1899 86.0445 55.0136 84.4399 58.9102 82.4342C61.8235 80.939 64.8461 79.4803 67.7958 78.058C69.6166 77.1828 71.6559 76.1617 73.7316 76.4534C77.5553 77.0004 79.6311 80.8296 83.6004 81.0484C87.4242 81.2672 89.682 79.7355 91.8669 76.7816C93.797 74.1559 95.0716 71.5667 92.8866 68.941C90.556 66.133 88.4802 64.9295 84.7658 65.9871C81.9253 66.7894 78.2108 70.6185 81.4883 73.1348C82.253 73.7183 84.7658 74.5571 85.4941 73.4995C86.2953 72.3325 83.8918 71.0197 86.4045 70.3997C87.934 70.0351 89.4635 71.3114 89.3542 72.8066C89.245 74.3018 87.7155 75.2135 86.5866 75.9793C83.9282 77.7298 80.5051 77.3287 78.3929 74.8124C73.149 68.5763 79.1212 62.1945 85.312 60.0064C92.4132 57.5266 100.534 59.7146 107.854 58.183C111.022 57.5266 114.19 56.3596 117.249 55.3385C118.305 54.9009 134.984 48.1543 133.163 46.6956Z" fill="#10FCF5"/>
<path d="M106.433 67.2635C105.705 64.2367 102.937 62.8873 100.133 62.4862C98.5673 62.2674 91.0656 62.1945 94.4523 65.0025C96.8922 67.0447 100.461 64.6378 101.044 69.0869C101.444 72.1137 100.789 75.177 99.15 77.6933C95.3627 83.4553 88.1887 83.5647 82.1436 82.106C75.8072 80.5743 68.7424 79.9179 62.7701 82.653C56.1059 85.7163 49.2961 89.0349 42.1221 90.4571C40.6654 90.7489 34.2562 91.0406 33.6735 92.4264C32.5082 95.2709 66.8852 82.8718 66.8852 82.8718C70.5996 81.8142 75.2973 82.4706 79.1939 83.6376C83.0904 84.8411 87.9338 86.555 92.0488 86.3362C100.425 85.9351 108.509 75.797 106.433 67.2635Z" fill="#10FCF5"/>
<path d="M147.474 74.083C145.69 73.3536 141.101 76.2346 139.718 77.3286C136.222 80.1002 132.179 82.2883 127.991 84.0023C111.349 90.7853 95.763 101.434 77.919 105.008C72.3838 106.102 67.067 108.108 61.641 109.566C57.708 110.624 53.8843 111.973 50.0242 113.286C45.4357 114.854 40.8472 116.495 36.2588 118.027L36.623 119.303C36.9143 119.668 37.3149 119.34 37.9704 119.157C40.8837 118.319 43.5785 117.079 46.5646 116.349C50.9346 115.292 55.3409 113.833 59.6016 112.301C66.8849 109.676 74.4595 107.743 81.8156 106.102C88.589 104.57 94.1607 100.996 100.534 98.5165C103.993 97.1672 107.234 95.3803 110.621 93.7757C115.209 91.6241 120.235 90.1289 124.714 87.722C130.395 84.6587 136.112 81.7413 141.939 78.8238C143.068 78.2403 150.315 75.25 147.474 74.083Z" fill="#10FCF5"/>
<path d="M121.473 108.837C107.417 113.505 93.5055 118.793 79.7402 124.372C73.1488 127.034 66.3025 129.077 60.0025 132.359C58.4366 133.161 56.6886 133.818 55.7054 135.386C54.8314 136.735 55.2684 138.048 55.1956 139.105L57.5626 142.242C58.473 144.648 62.7338 142.059 63.9355 141.075C67.832 137.975 72.2384 134.693 76.754 132.541C80.3228 130.827 84.3286 130.171 87.861 128.274C92.231 125.94 96.346 123.023 100.643 120.58C106.178 117.443 112.187 115.255 117.977 112.666C119.543 111.973 147.984 100.012 147.839 98.1519C145.654 98.8083 123.731 108.108 121.473 108.837Z" fill="#10FCF5"/>
<path opacity="0.3" d="M89.2086 152.161C123.331 152.161 150.971 124.482 150.971 90.3842C150.971 61.6475 131.379 37.5057 104.795 30.5768C104.431 32.8743 104.758 35.6458 106.106 38.8185C111.058 50.6706 121.437 60.2617 126.645 71.9679C137.606 96.5473 134.729 125.357 105.05 133.161C93.0323 136.334 78.2473 134.365 68.3785 126.962C57.0166 118.428 58.9467 105.19 61.0952 92.7181C63.2438 80.319 73.2219 60.6628 66.7398 48.2273C65.0282 44.9087 58.4368 37.7245 51.0079 41.8089C36.6235 53.114 27.4102 70.6915 27.4102 90.3842C27.4102 124.482 55.0865 152.161 89.2086 152.161Z" fill="#DAE54C"/>
<path opacity="0.3" d="M55.4865 60.371L52.5368 58.4747C49.7327 56.1408 46.6374 58.4747 44.598 60.7357C41.0657 64.6013 40.8836 69.8162 40.2281 74.63C39.3905 80.6837 33.309 94.1403 41.3206 97.7507C45.3628 99.5741 47.2564 95.7814 48.2397 92.4628C49.8784 87.0291 51.0073 81.0119 53.9934 76.1616C54.9403 74.63 56.5426 73.5724 57.3802 71.9678C58.0721 70.6185 58.0357 68.941 58.1085 67.4458C58.2177 64.3825 56.7247 62.9603 55.4865 60.371Z" fill="#DAE54C"/>
<g opacity="0.1">
<path opacity="0.1" d="M88.5531 178.746C65.0282 178.746 42.9235 169.483 26.3176 152.671C9.71178 135.86 0.571289 113.505 0.571289 89.7277C0.571289 65.9506 9.71178 43.6323 26.3176 26.8205C42.9599 10.0088 65.0646 0.745972 88.5531 0.745972C112.078 0.745972 134.183 10.0088 150.789 26.8205C167.394 43.6323 176.535 65.9871 176.535 89.7277C176.535 113.505 167.394 135.823 150.789 152.635C134.183 169.483 112.078 178.746 88.5531 178.746ZM88.5531 9.243C44.7079 9.243 9.01987 45.3463 9.01987 89.7642C9.01987 134.182 44.7079 170.285 88.5531 170.285C132.398 170.285 168.086 134.146 168.086 89.7277C168.086 45.3098 132.435 9.243 88.5531 9.243Z" fill="#9CE8E6"/>
</g>
</svg>
