<svg width="223" height="221" viewBox="0 0 223 221" fill="none" xmlns="http://www.w3.org/2000/svg">
<path d="M111.848 220.769C172.594 220.769 221.839 171.564 221.839 110.866C221.839 50.1688 172.594 0.963867 111.848 0.963867C51.1019 0.963867 1.85742 50.1688 1.85742 110.866C1.85742 171.564 51.1019 220.769 111.848 220.769Z" fill="#7D0D98"/>
<path d="M211.354 117.373C199.762 113.014 163.034 120.627 161.145 105.27C160.168 97.3318 168.504 87.9618 165.248 79.9583C161.731 71.2389 147.991 71.304 140.306 69.8725C133.013 68.506 117.123 64.2114 118.1 53.475C118.881 45.2111 130.277 45.6016 136.008 44.6906C149.488 42.5433 160.95 40.0056 173.518 34.2795C177.491 32.4575 180.747 29.9849 183.938 27.4472C176.579 21.0704 168.439 15.6696 159.582 11.375C158.084 14.3031 152.549 12.2209 149.814 15.9949C146.037 21.0704 152.614 24.6492 143.888 28.4232C139.199 30.4404 130.668 30.8959 126.175 27.8376C120.314 23.8683 121.356 19.834 112.89 19.5087C112.434 19.5087 105.727 20.1594 105.531 20.2245C102.275 21.9163 103.317 24.2588 101.168 26.1458C94.9164 31.4815 93.614 24.6492 86.3854 24.6492C78.5057 24.7143 77.7243 31.3513 74.7938 36.4268C71.0167 42.9988 64.6348 46.5776 56.8202 46.7728C49.9824 46.903 45.6192 43.4543 42.1027 37.9234C40.5397 35.4507 40.149 31.1561 38.8466 28.0979C16.5098 47.9441 2.31327 76.6397 1.85742 108.719C5.374 105.726 7.97887 102.212 8.17423 97.6572L10.3884 90.3043C14.491 74.8828 32.2042 61.2182 42.8841 77.1603C47.4426 83.9926 49.2661 92.1913 58.9041 93.1023C70.2353 94.2085 78.5708 84.1878 87.3623 79.0473C98.3027 72.6054 109.894 73.7116 118.881 82.561C124.938 88.5474 133.794 102.472 127.608 110.996C115.365 127.784 92.8325 98.2428 78.2452 108.589C59.0343 122.253 95.9583 131.819 102.666 137.545C123.244 155.244 94.9815 171.901 76.0311 172.227C70.2353 172.357 63.3323 169.949 57.6016 171.446C49.5265 173.593 40.67 181.532 33.1159 185.501C32.7902 185.696 32.3995 185.891 32.0739 186.022C45.2936 199.946 62.2253 210.423 81.1757 215.954C82.4781 203.916 99.2144 211.594 106.313 212.049C123.57 213.221 111.132 189.796 125.524 184.72C130.343 183.028 140.111 183.874 141.088 189.145C142.195 195.522 128.91 200.988 135.878 205.607C144.214 211.138 142.716 198.385 147.665 197.279C150.856 196.563 150.791 201.118 154.373 200.988C157.759 200.857 157.694 198.124 160.429 196.758C166.876 193.505 174.821 192.008 179.64 197.018C202.693 178.994 218.322 151.925 221.318 121.212C218.127 120.106 214.871 118.74 211.354 117.373Z" fill="#EB53C0"/>
<path opacity="0.3" d="M58.5125 97.2017C55.7123 95.64 53.2377 97.527 50.3723 97.4619C44.0555 97.2667 38.6504 94.6639 35.9804 88.8728C33.4407 83.2768 27.3192 80.9994 21.7839 85.359C16.8346 89.2632 18.0068 97.2017 16.6393 102.602C15.6624 106.442 10.7783 117.829 5.95929 116.332L6.2849 116.657C2.70321 119.195 4.20101 124.271 7.32685 126.353C11.3644 129.086 15.3368 125.572 17.03 121.863C20.1558 115.226 20.8722 106.507 25.9517 100.78C29.5334 96.8112 35.785 101.626 40.3436 102.602C45.1626 103.578 52.9121 104.555 57.2101 102.472C60.0755 101.171 62.0291 99.2188 58.5125 97.2017Z" fill="#EB53C0"/>
<path opacity="0.3" d="M180.031 77.876C179.705 71.0437 176.97 66.9443 171.695 62.845C169.285 60.9579 166.681 59.6566 163.88 58.5504C161.145 57.4442 157.759 57.5093 155.284 56.2079C152.158 54.5811 152.093 51.9133 155.284 50.2865C157.889 48.9852 161.406 49.8961 164.141 50.0263C166.485 50.1564 176.058 49.3756 171.695 45.6666C169.481 43.7796 161.927 44.6906 159.387 45.2111C151.898 46.7077 143.106 45.8618 135.683 48.0091C135.748 48.4646 135.487 48.3995 135.292 48.6598L131.189 50.0263C128.063 50.677 127.738 54.5811 129.561 56.8586C131.71 59.4613 136.008 59.5264 139.004 59.7867C146.363 60.3723 152.875 60.3072 159.778 63.2354C165.639 65.708 171.76 70.9136 172.802 77.6157C173.258 80.8041 169.285 93.4276 172.086 94.1434C177.751 95.5098 180.226 81.0644 180.031 77.876Z" fill="#EB53C0"/>
<path opacity="0.3" d="M88.2735 17.6217C87.2316 15.6696 81.8265 15.9299 79.938 15.9949C75.1189 16.1251 71.928 18.4676 67.8904 20.8101C64.5692 22.7621 58.1873 27.5773 54.1497 26.9266C53.6939 25.1697 59.6851 18.0121 53.759 20.8101L48.94 23.9334C42.4278 24.9094 45.6188 34.4096 49.982 36.2966C57.5361 39.6802 62.4853 35.1904 67.109 30.0499C69.5185 27.3821 72.1233 24.9094 75.1189 23.0224C78.5053 20.8101 80.1333 21.3306 83.715 21.5909C85.6035 21.656 89.9667 20.8751 88.2735 17.6217Z" fill="#EB53C0"/>
<path opacity="0.3" d="M208.879 96.8763C207.772 90.6947 199.372 85.6193 195.529 80.9994C191.817 76.5096 185.37 75.989 186.282 83.3419C186.868 83.6672 186.673 83.0816 186.933 83.0165L186.217 84.7083C185.891 88.157 183.807 91.7358 181.398 94.0783C179.444 95.9654 175.407 96.8763 173.909 98.8935C171.76 101.757 173.583 105.14 176.579 106.116C181.072 107.613 184.784 104.229 188.887 103.253C194.813 101.887 211.159 109.305 208.879 96.8763Z" fill="#EB53C0"/>
<path opacity="0.2" d="M137.114 82.6911C127.476 69.3519 107.94 62.1942 91.7246 62.3894C84.5612 62.4545 75.4442 65.1874 69.2576 68.8313C63.4618 72.28 59.9452 75.2732 54.4099 69.6122C45.8138 61.023 34.4826 52.3687 22.1095 59.6565C17.7463 62.2593 14.4251 66.2936 11.2342 70.0676C9.08514 72.5403 8.49905 73.191 8.3688 76.5095C8.30368 78.2664 9.47587 83.7322 10.7783 79.6329V77.9411C17.6161 68.0505 33.3755 57.4442 44.2509 68.571C46.2697 70.6533 46.7255 73.5814 48.3535 75.8588C50.177 78.5267 52.7167 80.1534 55.5169 81.4548C63.9176 85.424 71.602 82.8213 78.57 77.3554C90.6176 67.8553 110.089 69.7423 121.55 79.3075C131.905 87.9618 146.818 113.274 130.146 122.709C123.113 126.678 113.736 124.986 106.442 122.709C99.93 120.692 92.8968 113.599 85.7985 117.048C83.8449 117.959 80.9795 120.301 83.1286 122.514C85.6032 125.116 87.6871 121.082 89.5756 120.562C94.9807 118.935 104.098 125.442 109.177 127.003C114.778 128.76 121.485 130.517 127.411 130.192C132.621 129.867 140.11 124.205 141.933 119.26C145.971 108.394 143.887 92.0611 137.114 82.6911Z" fill="white"/>
<path opacity="0.2" d="M115.625 137.024C110.545 130.192 101.298 127.264 93.6786 124.986L92.3111 124.661C88.0782 126.548 95.2415 128.11 96.4137 128.435C100.061 129.476 102.926 131.754 105.661 134.291C111.327 139.497 113.345 145.939 113.606 153.487C113.931 163.117 109.894 171.901 100.582 175.48C94.0042 178.018 84.9523 178.994 77.7889 178.994C71.6675 178.994 65.0902 178.343 59.2292 179.71C54.8009 180.751 46.9212 182.182 45.1629 187.258C44.3163 189.796 45.749 191.813 48.5493 192.073C51.5449 192.333 52.4566 189.731 54.7358 188.364C60.0107 185.306 68.6719 185.696 74.5979 184.85C88.7945 182.768 107.484 184.655 116.992 171.121C124.611 160.189 123.114 147.11 115.625 137.024Z" fill="white"/>
<path opacity="0.2" d="M184.458 185.176C182.635 180.295 170.653 180.621 166.615 180.816C161.47 181.076 154.177 183.809 150.074 180.295C144.213 175.285 142.325 171.251 133.924 170.99C127.672 170.86 118.165 176.196 113.932 180.686C108.787 186.282 107.68 193.049 99.5397 195.717C91.2693 198.45 80.0683 193.505 72.6444 198.58C66.4579 202.81 71.1466 216.214 76.0959 210.553L76.8122 211.594C75.8354 202.029 88.5342 199.491 95.8278 200.922C99.4746 201.638 103.056 204.176 106.768 204.046C113.15 203.786 112.694 198.515 114.062 193.83C117.123 183.614 125.784 177.432 136.008 177.563C139.199 177.628 144.604 177.563 145.32 181.662C145.906 184.98 142.26 186.152 145.385 189.47C147.469 191.683 150.66 191.878 152.484 189.6C152.484 189.991 152.549 190.446 152.614 190.902C155.675 190.511 157.954 187.453 161.145 186.737C164.596 185.956 168.439 186.737 171.825 187.583C174.299 188.234 178.011 190.837 180.421 190.576C182.635 190.446 185.37 187.583 184.458 185.176Z" fill="white"/>
<path opacity="0.2" d="M198.59 123.295C186.998 122.318 170.197 127.003 161.535 117.373C156 111.257 158.67 97.0715 159.061 89.2632C159.256 84.9035 159.321 78.6568 155.284 75.9239C154.112 75.1431 150.465 73.9068 149.097 74.4924C146.427 75.5335 147.86 77.4856 149.814 77.6157L152.939 78.6568C157.954 83.6672 155.609 90.4344 153.721 96.551C151.376 104.034 150.009 113.274 153.525 120.692C157.237 128.435 168.503 130.387 176.318 130.582C183.156 130.712 189.733 127.524 196.571 129.281C201.781 130.582 207.186 136.048 212.07 131.038C218.061 124.661 202.432 123.555 198.59 123.295Z" fill="white"/>
<path opacity="0.2" d="M174.169 23.9334C173.713 22.632 172.411 21.5909 171.369 21.2005L171.043 22.5669C169.48 29.2691 156.912 31.7417 151.377 32.9781C141.022 35.2555 130.603 36.0363 120.118 38.0535C113.215 39.3549 102.34 44.5604 102.926 53.1496C103.121 55.8825 105.661 58.5504 108.527 58.225C112.499 57.7695 110.61 55.1668 111.197 52.1085C112.369 46.057 120.574 44.2351 125.654 43.5193C132.491 42.5433 139.004 42.283 145.646 39.8754C151.637 37.6631 157.693 36.4267 163.554 34.2794C167.462 32.7828 176.318 30.0499 174.169 23.9334Z" fill="white"/>
<g opacity="0.2">
<path opacity="0.2" d="M124.612 165.785C124.612 165.525 124.677 165.264 124.677 164.939L124.612 164.809C124.612 165.199 124.612 165.46 124.612 165.785Z" fill="white"/>
<path opacity="0.2" d="M192.013 170.795C186.868 166.11 174.495 165.525 167.983 166.175C162.318 166.761 156.652 169.234 151.507 165.59C145.125 161.035 141.088 153.877 132.492 157.261C129.236 158.562 125.328 161.36 124.742 165.004L125.719 166.24C125.003 166.566 124.482 166.891 124.352 167.867C126.891 169.169 130.343 165.85 132.948 165.199C135.813 164.484 139.525 164.549 142.325 165.46C144.735 166.24 148.121 168.258 149.814 170.275C151.768 172.617 151.442 175.415 154.959 175.871C160.624 176.521 165.443 171.836 171.5 172.747C177.556 173.723 180.486 178.343 185.24 181.467C192.208 185.956 197.614 175.936 192.013 170.795Z" fill="white"/>
</g>
<path opacity="0.2" d="M54.8008 60.2422C55.0613 60.112 55.1915 59.9168 55.2566 59.7867C55.1264 59.9168 54.9961 60.047 54.8008 60.2422Z" fill="white"/>
<path opacity="0.2" d="M55.2568 59.7216C55.3871 59.5915 55.4522 59.5264 55.5824 59.4613L55.4522 59.3312C55.3871 59.4613 55.322 59.5915 55.2568 59.7216Z" fill="white"/>
<path opacity="0.2" d="M114.387 25.5601C110.415 23.4779 110.48 27.1218 108.786 29.4643C105.4 34.0842 98.4321 34.1493 93.548 36.1014C87.2312 38.6391 83.2588 43.1289 80.1329 48.7249C77.3978 53.7352 71.5369 56.6634 66.1318 57.7696C62.0291 58.5504 58.6428 56.7284 55.582 59.5915L56.4937 61.1532C52.912 67.6601 71.9276 62.3895 73.6859 61.4785C80.9795 57.9648 83.9751 51.5229 88.8592 45.6666C92.7014 40.9816 98.0414 39.2247 103.642 37.7932C107.354 36.8172 115.689 35.9713 116.992 31.5465C117.643 29.2691 116.406 26.6013 114.387 25.5601Z" fill="white"/>
<path opacity="0.5" d="M111.717 220.964C172.997 220.964 222.685 171.706 222.685 110.866C222.685 59.6566 187.454 16.6456 139.72 4.34747C139.069 8.44685 139.655 13.3271 142.064 19.0532C150.986 40.2008 169.611 57.249 178.988 78.1363C198.655 121.928 193.51 173.268 140.176 187.193C118.555 192.854 91.9856 189.34 74.2724 176.131C54.0196 160.84 57.4059 137.219 61.3132 115.031C65.1554 92.9721 83.129 57.9647 71.4071 35.711C68.3464 29.8547 56.4942 16.971 43.1443 24.2587C17.356 44.4303 0.75 75.7287 0.75 110.866C0.75 171.641 50.4379 220.964 111.717 220.964Z" fill="#FF71F8"/>
<path opacity="0.2" d="M40.8 165.264C32.79 152.446 30.3805 137.35 29.0781 122.449C27.7105 107.027 29.534 91.0852 33.2459 76.2493C35.5903 66.8793 49.8519 46.5776 39.3022 44.3002C29.0781 42.1529 14.1001 63.1703 11.7557 75.6637C7.26232 99.5442 9.02061 121.928 16.0538 145.223C19.0494 155.114 22.3706 163.312 27.5152 172.162C29.9247 176.261 31.8783 179.775 36.2415 182.117C38.8464 183.484 44.4468 186.737 47.0517 186.802C58.7736 186.998 43.2095 169.038 40.8 165.264Z" fill="white"/>
</svg>
