<svg width="171" height="132" viewBox="0 0 171 132" fill="none" xmlns="http://www.w3.org/2000/svg">
<path d="M161.533 21.2372L157.622 19.115C157.622 19.115 150.46 18.0346 141.246 20.6585C132.031 23.2823 122.895 27.6425 122.895 27.6425L134.509 44.0802L145.93 50.6399L161.726 27.4496L161.533 21.2372Z" fill="#7D0D98"/>
<path d="M34.0033 54.5757C34.0033 54.5757 20.1044 63.4119 12.671 70.396C7.01857 75.7595 2.33398 85.3674 2.33398 85.3674L24.789 96.133L42.7917 85.6375L34.0033 54.5757Z" fill="#7D0D98"/>
<path d="M88.6699 131.015C124.784 131.015 154.06 101.836 154.06 65.8429C154.06 29.8493 124.784 0.670837 88.6699 0.670837C52.5557 0.670837 23.2793 29.8493 23.2793 65.8429C23.2793 101.836 52.5557 131.015 88.6699 131.015Z" fill="#ED6326"/>
<path d="M98.156 113.998C95.8718 103.85 92.4261 98.5253 84.7605 91.4641C78.9144 86.1006 73.9975 84.1327 74.0362 75.6437C74.0362 70.2803 76.1269 66.9233 77.6755 61.9842C79.7662 55.1931 75.4687 47.553 76.243 40.1059C76.6689 35.7457 79.0693 32.08 80.0759 27.8355C81.1599 23.3595 80.3082 19.115 79.2241 14.639C78.295 10.7804 76.9399 6.343 76.2043 1.867C71.9456 2.67731 67.803 3.91207 63.8928 5.53269C66.2157 7.84786 67.5707 11.5907 67.0674 15.1792C66.3706 19.9639 62.1893 24.2084 60.4858 28.723C58.55 33.8163 57.3498 39.1026 57.8531 44.5819C58.3564 50.2926 60.2922 55.7719 60.0599 61.6755C59.8276 67.3477 58.5887 72.4411 60.0599 78.0747C61.686 84.2485 64.5509 86.9109 68.3838 91.6956C71.5585 95.67 71.7133 100.493 73.9588 104.853C78.2175 112.995 87.4318 114.461 89.0966 124.957C89.3676 126.693 89.3289 128.893 89.3676 131.053C92.8133 131.015 96.1428 130.706 99.4337 130.166C100.053 124.841 99.2788 118.976 98.156 113.998Z" fill="#EF8A34"/>
<path d="M68.306 109.175C65.0539 103.001 62.3438 99.2585 56.5365 95.2841C53.4005 93.1233 50.8453 91.8113 48.6385 88.5315C44.496 82.4735 44.5734 75.2964 44.5734 68.0808C44.5734 60.0163 41.9407 52.9936 42.3666 44.8906C42.7538 37.6749 46.0446 32.4658 47.7481 25.6361C48.6772 21.9318 48.8321 17.4172 49.8387 13.3657C43.4119 18.0732 37.8756 23.9383 33.5782 30.6523C34.7784 36.2473 37.8369 41.3406 36.7916 47.3987C35.3204 56.2349 29.6679 63.219 33.191 72.4411C34.8945 76.8785 37.2174 79.7724 37.682 84.5957C38.0305 88.0299 38.0692 91.9657 39.8888 95.0911C41.5536 97.9851 44.5347 99.3742 46.8189 101.651C49.4128 104.275 50.4969 107.207 52.0455 110.487C54.7169 116.121 58.8594 120.404 62.2277 125.458C66.3702 127.272 70.7064 128.7 75.2361 129.626C74.6167 122.372 72.255 116.661 68.306 109.175Z" fill="#EF8A34"/>
<path d="M136.02 95.0912C133.271 88.5702 135.788 81.2774 132.729 74.4862C131.8 72.4797 130.793 70.1646 128.935 68.814C127.309 67.6179 125.799 68.4282 124.521 66.769C122.624 64.2609 123.205 58.0099 123.205 54.923C123.205 45.5466 124.715 36.3245 128.819 27.797C129.826 25.7133 131.142 21.5074 132.961 17.8031C129.477 14.6005 125.644 11.7837 121.502 9.39136C122.121 19.4623 117.901 29.6877 114.533 39.0255C110.777 49.4824 106.79 68.0423 116.081 76.8785C119.14 79.8111 122.392 80.8143 123.631 85.0588C124.792 88.9174 123.244 92.5831 123.205 96.4417C123.166 100.03 123.747 104.969 126.38 107.825C128.393 109.985 131.529 111.027 134.471 112.339C138.149 108.751 141.44 104.699 144.189 100.3C140.859 99.6058 137.685 99.1042 136.02 95.0912Z" fill="#EF8A34"/>
<path d="M103.886 4.6452C103.886 3.95065 103.886 3.17893 103.924 2.44579C99.9367 1.48113 95.8329 0.902342 91.5742 0.709412C91.5742 15.8738 91.4193 31.7713 88.5156 46.6269C87.238 53.1866 86.7734 59.5533 86.7734 66.2287C86.7734 73.0199 87.1606 75.0649 91.4967 79.9654C94.7101 83.5925 96.4523 87.7984 97.3041 92.5445C98.1945 97.4063 98.814 97.9079 101.563 101.844C103.034 103.966 103.576 106.59 104.389 109.098C111.977 108.866 101.214 83.4381 100.788 79.8496C100.053 73.7144 99.1624 71.3607 94.865 66.383C91.0709 61.9842 89.2899 60.6723 92.0387 55.1545C94.4391 50.3312 96.5297 46.3954 96.8782 41.0319C97.1492 36.556 95.0586 32.6973 95.5619 28.2213C96.5297 19.1922 103.808 13.9445 103.886 4.6452Z" fill="#EF8A34"/>
<path d="M142.097 28.2599C141.362 29.6105 140.704 30.8066 140.278 31.7713C135.709 41.8037 136.909 52.3763 139.929 62.8331C141.555 68.4667 145.891 81.0072 151.544 83.8626C153.17 78.1519 154.06 72.1324 154.06 65.8815C154.06 51.8361 149.647 38.8711 142.097 28.2599Z" fill="#EF8A34"/>
<path opacity="0.2" d="M134.161 111.876C159.984 86.718 160.487 45.4308 135.245 19.6938C113.99 -1.9916 81.2752 -5.77304 56.0713 8.6196C57.5038 10.6261 59.788 12.4396 63.1563 13.8673C75.7001 19.1536 90.6056 18.7292 103.227 23.7454C129.708 34.2022 148.834 58.0485 132.147 85.8305C125.372 97.0977 112.712 106.513 99.7812 108.172C84.8757 110.101 76.5131 98.7183 68.9249 87.7212C61.3754 76.8013 54.4066 54.6143 40.2754 49.984C36.52 48.7492 26.2216 48.1704 23.6277 56.7365C21.1112 75.8753 27.1121 95.9401 41.7079 110.796C66.9504 136.533 108.337 137.034 134.161 111.876Z" fill="#9CE8E6"/>
<path opacity="0.1" d="M70.1525 60.3408C78.5828 49.7329 79.2481 36.2637 71.6384 30.2565C64.0288 24.2493 51.0258 27.9789 42.5955 38.5868C34.1652 49.1947 33.4999 62.6639 41.1096 68.6711C48.7192 74.6783 61.7222 70.9487 70.1525 60.3408Z" fill="white"/>
<path d="M2.75991 84.0169C2.75991 84.0169 27.3443 98.7954 96.8 71.2063C152.047 49.2508 157.622 19.0764 157.622 19.0764C157.622 19.0764 164.01 19.3079 168.733 24.4013C174.425 30.5365 167.417 42.3439 167.417 42.3439C167.417 42.3439 152.512 72.0938 107.718 91.7727C51.5802 116.468 5.81844 111.645 1.52101 96.1329C-0.221187 89.8048 2.75991 84.0169 2.75991 84.0169Z" fill="#A812CC"/>
<path d="M7.36703 90.3065L4.73438 94.6282C4.73438 94.6282 15.1489 99.3743 27.4604 98.564C57.8521 96.5961 83.6754 88.4544 92.8897 84.943C103.536 80.8915 110.66 76.5699 110.66 76.5699L115.035 66.6146C115.035 66.6146 103.072 74.1775 89.8699 78.8078C75.1967 83.9784 49.8767 91.5027 27.9637 92.6989C15.0327 93.432 7.36703 90.3065 7.36703 90.3065Z" fill="#C318ED"/>
</svg>
