<svg width="225" height="148" viewBox="0 0 225 148" fill="none" xmlns="http://www.w3.org/2000/svg">
<g clip-path="url(#clip0)">
<g style="mix-blend-mode:screen" opacity="0.5">
<path fill-rule="evenodd" clip-rule="evenodd" d="M77.193 108.509C77.193 109.409 77.193 110.309 77.093 111.309C75.693 131.309 59.093 147.009 38.693 147.009C28.793 147.009 19.693 143.309 12.893 137.109C11.793 136.109 10.693 135.009 9.79297 133.909C8.29297 132.209 6.89297 130.309 5.69297 128.309C5.09297 127.309 4.49297 126.209 3.99297 125.109C3.89297 124.809 3.69297 124.509 3.59297 124.309C2.99297 123.009 2.49297 121.709 2.09297 120.409C1.79297 119.409 1.49297 118.409 1.29297 117.409C0.592969 114.509 0.292969 111.509 0.292969 108.509C0.292969 107.009 0.392969 105.609 0.492969 104.209C0.592969 103.109 0.792969 102.109 0.992969 101.109C1.19297 100.109 1.39297 99.1085 1.69297 98.1085C6.19297 81.9085 21.093 70.0085 38.693 70.0085C46.993 70.0085 54.593 72.6085 60.893 77.1085C62.393 78.2085 63.793 79.3085 65.093 80.6085C65.393 80.8085 65.593 81.1085 65.893 81.4085C69.093 84.6085 71.793 88.5085 73.693 92.7085C74.693 94.8085 75.393 97.0085 75.993 99.3085C76.393 101.009 76.693 102.809 76.893 104.609C76.993 105.109 76.993 105.709 76.993 106.209C77.093 106.909 77.193 107.709 77.193 108.509Z" fill="url(#paint0_radial)"/>
</g>
<g style="mix-blend-mode:screen" opacity="0.5">
<path fill-rule="evenodd" clip-rule="evenodd" d="M69.093 108.509C69.093 109.209 69.093 110.009 68.993 110.709C67.893 126.509 54.693 138.909 38.693 138.909C30.893 138.909 23.693 135.909 18.293 131.109C17.393 130.309 16.593 129.509 15.793 128.609C14.593 127.209 13.493 125.709 12.593 124.209C12.093 123.409 11.693 122.509 11.293 121.709C11.193 121.509 11.093 121.309 10.993 121.009C10.493 120.009 10.193 119.009 9.79297 117.909C9.59297 117.109 9.29297 116.309 9.09297 115.609C8.59297 113.309 8.29297 111.009 8.29297 108.609C8.29297 107.409 8.39297 106.309 8.49297 105.209C8.59297 104.409 8.69297 103.609 8.89297 102.709C8.99297 101.809 9.19297 101.009 9.39297 100.209C12.993 87.5086 24.793 78.1086 38.693 78.1086C45.193 78.1086 51.293 80.2086 56.293 83.7086C57.493 84.5086 58.593 85.4086 59.593 86.4086C59.793 86.6086 59.993 86.8086 60.193 87.0086C62.793 89.6086 64.893 92.6086 66.393 95.9086C67.193 97.6086 67.793 99.3086 68.193 101.109C68.493 102.509 68.793 103.909 68.893 105.309C68.893 105.709 68.993 106.109 68.993 106.609C69.093 107.309 69.093 107.909 69.093 108.509Z" fill="url(#paint1_radial)"/>
</g>
<path fill-rule="evenodd" clip-rule="evenodd" d="M18.093 88.0085C18.093 88.0085 17.393 94.2085 11.293 97.9085L14.693 100.209L21.493 93.2085L18.093 88.0085Z" fill="#FFF066"/>
<path fill-rule="evenodd" clip-rule="evenodd" d="M27.293 134.909C27.293 134.909 40.293 137.809 53.693 132.109C53.693 132.109 57.293 124.009 44.893 121.109C32.493 118.209 27.293 134.909 27.293 134.909Z" fill="#FFF066"/>
<path fill-rule="evenodd" clip-rule="evenodd" d="M57.2932 130.409C57.2932 130.409 55.8932 127.709 56.7932 126.609C57.6932 125.509 59.6932 126.609 59.6932 126.609L61.6932 125.409C61.6932 125.409 60.3932 124.109 57.7932 124.909C55.0932 125.809 57.2932 130.409 57.2932 130.409Z" fill="url(#paint2_radial)"/>
<path fill-rule="evenodd" clip-rule="evenodd" d="M24.7933 83.3086C24.7933 83.3086 38.0933 79.9086 46.0933 81.3086C54.0933 82.7086 51.8933 91.1086 51.8933 91.1086L35.4933 93.1086H28.8933C28.7933 93.2086 24.4933 86.7086 24.7933 83.3086Z" fill="#FFF066"/>
<path fill-rule="evenodd" clip-rule="evenodd" d="M66.7928 109.009C66.7928 110.709 66.5928 112.409 66.3928 114.009C65.6928 117.909 64.2928 121.509 62.1928 124.709C61.9928 125.009 61.8928 125.209 61.6928 125.509C60.3928 125.209 58.2928 124.909 57.2928 125.909C55.7928 127.409 57.2928 130.509 57.2928 130.509C56.5928 131.209 55.7928 131.809 54.9928 132.409C54.9928 132.409 52.3928 124.409 43.9928 123.909C35.5928 123.409 25.2928 135.009 25.2928 135.009C15.6928 130.209 9.09277 120.409 9.09277 109.009C9.09277 105.109 9.89277 101.409 11.2928 98.0086C11.2928 98.0086 13.6928 100.209 16.8928 96.5086C19.9928 92.8086 18.1928 88.1086 18.1928 88.1086C20.1928 86.2086 22.3928 84.6086 24.8928 83.4086C24.8928 83.4086 25.3928 85.9086 28.3928 87.0086C30.6928 87.9086 43.3928 84.9086 44.8928 84.0086C46.2928 83.2086 46.1928 81.4086 46.1928 81.3086C58.0928 84.8086 66.7928 95.9086 66.7928 109.009Z" fill="url(#paint3_radial)"/>
<path fill-rule="evenodd" clip-rule="evenodd" d="M25.293 134.909H27.293C27.293 134.909 35.093 126.509 42.893 125.909C50.693 125.309 53.693 132.109 53.693 132.109L54.993 132.309C54.993 132.309 52.493 123.209 44.193 123.109C35.893 123.009 25.293 134.909 25.293 134.909Z" fill="#FFAC31"/>
<path fill-rule="evenodd" clip-rule="evenodd" d="M46.093 81.3085C46.093 81.3085 39.193 79.2085 24.793 83.3085C24.793 83.3085 37.593 80.1085 41.193 82.0085C44.793 84.0085 33.093 85.5085 29.393 85.6085C25.693 85.7085 24.893 83.8085 24.893 83.8085C24.893 83.8085 25.593 86.5085 28.893 87.0085C35.493 88.0085 47.193 86.0085 46.093 81.3085Z" fill="url(#paint4_radial)"/>
<path fill-rule="evenodd" clip-rule="evenodd" d="M16.393 92.7085C16.393 92.7085 17.593 90.8085 17.793 90.6085C17.993 90.4085 18.293 92.9085 16.793 94.9085C15.393 97.0085 12.593 97.8085 12.493 97.6085C12.393 97.5085 13.093 96.5085 13.093 96.5085L11.293 98.0085C11.293 98.0085 13.493 100.309 16.893 96.9085C20.293 93.6085 18.193 88.0085 18.193 88.0085C18.193 88.0085 17.493 91.1085 16.393 92.7085Z" fill="url(#paint5_radial)"/>
<path fill-rule="evenodd" clip-rule="evenodd" d="M23.593 123.908C23.493 124.008 23.393 124.008 23.193 124.108C19.893 125.308 13.293 120.908 12.793 115.708C12.293 110.308 14.393 106.408 16.893 105.808C17.893 105.608 18.793 105.608 19.593 105.808C26.093 107.508 26.393 122.208 23.593 123.908Z" fill="#FFAC31"/>
<path fill-rule="evenodd" clip-rule="evenodd" d="M23.5931 123.909C23.4931 124.009 23.3931 124.009 23.1931 124.109C19.8931 123.209 15.7931 119.709 15.4931 115.709C14.9931 110.309 17.0931 106.409 19.5931 105.809C26.0931 107.509 26.3931 122.209 23.5931 123.909Z" fill="#FFF066"/>
<path fill-rule="evenodd" clip-rule="evenodd" d="M42.6931 114.209C42.1931 115.609 44.2931 117.709 46.0931 117.709C47.9931 117.709 49.3931 113.609 49.2931 113.009C49.1931 112.609 43.9931 110.809 42.6931 114.209Z" fill="#FFAC31"/>
<path fill-rule="evenodd" clip-rule="evenodd" d="M59.893 107.509C59.393 107.709 58.593 107.809 57.793 107.809C55.693 107.609 52.993 106.409 51.593 103.309C49.793 99.3086 49.893 94.7086 51.693 93.1086C51.793 93.0086 51.993 92.9086 52.193 92.8086C54.893 91.5086 62.693 94.5086 62.993 97.8086C63.293 101.009 61.693 106.709 59.893 107.509Z" fill="#FFAC31"/>
<path fill-rule="evenodd" clip-rule="evenodd" d="M57.793 107.809C55.693 107.609 52.993 106.409 51.593 103.309C49.793 99.3086 49.893 94.7086 51.693 93.1086C55.093 93.3086 58.793 95.0086 59.493 98.9086C60.093 101.909 59.393 106.309 57.793 107.809Z" fill="#FFF066"/>
<path fill-rule="evenodd" clip-rule="evenodd" d="M42.6934 114.208C42.6934 114.208 42.9934 116.308 45.3934 116.208C47.7934 116.108 48.4934 112.608 48.4934 112.608C48.4934 112.608 44.0934 110.908 42.6934 114.208Z" fill="#FFF066"/>
<g opacity="0.2">
<path opacity="0.2" fill-rule="evenodd" clip-rule="evenodd" d="M52.8934 113.409C52.9934 113.709 52.6934 114.009 52.6934 114.309C52.6934 114.609 52.6934 114.909 52.6934 115.209C52.6934 115.609 52.6934 115.609 52.9934 115.809C53.2934 116.009 53.3934 116.009 53.7934 116.009C54.2934 116.009 54.7934 116.409 55.3934 116.209C55.8934 116.009 56.0934 115.309 56.1934 114.909C56.2934 114.409 56.6934 114.009 56.6934 113.509C56.6934 112.909 56.4934 112.609 55.9934 112.309C55.4934 112.009 54.8934 111.809 54.2934 112.109C53.6934 112.309 53.2934 112.909 52.8934 113.409Z" fill="#772666"/>
<path opacity="0.2" fill-rule="evenodd" clip-rule="evenodd" d="M59.0934 112.509C58.9934 112.509 58.9934 112.509 58.8934 112.509C58.7934 112.309 58.7934 112.009 58.9934 111.809C59.1934 111.509 59.2934 111.709 59.4934 111.809C59.9934 112.009 60.1934 112.409 60.1934 112.909C60.1934 113.309 59.8934 113.909 59.3934 113.709C58.9934 113.609 58.6934 113.009 58.6934 112.609H59.0934V112.509Z" fill="#772666"/>
<path opacity="0.2" fill-rule="evenodd" clip-rule="evenodd" d="M66.3926 114.009C65.6926 117.909 64.2926 121.509 62.1926 124.709C61.9926 124.509 61.7926 124.209 61.5926 124.109C61.2926 123.709 60.9926 123.309 60.7926 122.909C60.5926 122.509 60.3926 122.109 60.2926 121.709C60.1926 121.509 60.0926 121.209 60.0926 121.009C60.0926 120.809 59.9926 120.509 59.9926 120.309C59.8926 120.109 59.9926 119.809 59.8926 119.609C59.8926 119.309 59.9926 119.209 59.9926 118.909C59.9926 118.409 60.0926 117.909 60.1926 117.509C60.4926 116.609 61.1926 115.909 61.9926 115.409C62.1926 115.309 62.3926 115.109 62.6926 115.009C62.8926 114.909 63.0926 114.809 63.2926 114.709C63.7926 114.609 64.2926 114.309 64.7926 114.309C64.8926 114.309 65.0926 114.309 65.1926 114.309C65.2926 114.309 65.3926 114.209 65.5926 114.209C65.7926 114.209 66.0926 114.209 66.2926 114.209H66.3926V114.009Z" fill="#772666"/>
<path opacity="0.2" fill-rule="evenodd" clip-rule="evenodd" d="M33.6928 111.908C32.6928 111.908 31.6928 112.808 31.2928 113.708C31.1928 114.008 30.9928 114.308 30.8928 114.608C30.7928 114.908 30.6928 115.308 30.6928 115.708C30.6928 115.908 30.6928 116.008 30.6928 116.208C30.6928 116.308 30.5928 116.508 30.5928 116.608C30.5928 116.908 30.5928 117.308 30.6928 117.608C30.6928 117.808 30.6928 117.908 30.6928 118.108C30.6928 118.308 30.7928 118.408 30.7928 118.608C30.7928 118.908 30.8928 119.208 30.9928 119.508C31.0928 119.708 31.1928 120.008 31.2928 120.208C31.3928 120.408 31.5928 120.608 31.7928 120.708C32.1928 121.008 32.8928 121.008 33.3928 121.008C33.8928 121.008 34.3928 121.008 34.8928 121.008C35.3928 121.008 35.8928 121.108 36.3928 121.008C36.8928 120.908 37.2928 120.708 37.6928 120.508C38.0928 120.308 38.3928 119.808 38.6928 119.508C38.9928 119.108 39.2928 118.708 39.5928 118.208C39.8928 117.808 39.9928 117.308 40.1928 116.808C40.3928 116.308 40.5928 115.908 40.5928 115.308C40.5928 114.708 40.5928 114.208 40.4928 113.608C40.2928 113.108 39.8928 112.708 39.4928 112.408C38.9928 112.008 38.5928 111.708 37.9928 111.408C37.7928 111.308 37.6928 111.308 37.5928 111.308C37.5928 111.308 37.5928 111.208 37.4928 111.208C37.3928 111.208 37.2928 111.208 37.2928 111.208C37.1928 111.208 37.0928 111.108 36.9928 111.108C36.8928 111.108 36.6928 111.108 36.5928 111.108C36.4928 111.108 36.3928 111.208 36.2928 111.208C36.1928 111.208 35.9928 111.208 35.8928 111.208C35.6928 111.208 35.6928 111.308 35.4928 111.308C35.2928 111.308 35.2928 111.408 35.1928 111.408C35.0928 111.408 34.8928 111.408 34.7928 111.408C34.6928 111.408 34.5928 111.508 34.4928 111.508C33.8928 111.608 33.6928 111.808 33.6928 111.908Z" fill="#772666"/>
<path opacity="0.2" fill-rule="evenodd" clip-rule="evenodd" d="M30.6926 108.509C30.4926 108.509 30.4926 108.309 30.4926 108.109C30.4926 107.909 30.3926 107.809 30.3926 107.709C30.4926 107.409 30.6926 107.309 30.9926 107.309C31.2926 107.309 31.3926 107.509 31.5926 107.709C31.7926 107.909 31.9926 108.309 32.0926 108.609C32.1926 109.209 31.8926 109.909 31.1926 109.809C30.8926 109.709 30.7926 109.509 30.6926 109.209C30.6926 109.109 30.5926 109.009 30.5926 108.809C30.5926 108.609 30.5926 108.409 30.5926 108.209V108.509H30.6926Z" fill="#772666"/>
<path opacity="0.2" fill-rule="evenodd" clip-rule="evenodd" d="M24.9926 127.508C24.7926 127.508 24.5926 127.408 24.3926 127.408C24.1926 127.408 23.9926 127.608 23.7926 127.708C23.2926 128.008 22.8926 128.408 23.0926 129.108C23.1926 129.508 23.5926 129.808 23.8926 130.108C24.1926 130.308 24.6926 130.608 25.0926 130.608C25.2926 130.608 25.5926 130.608 25.7926 130.608C25.9926 130.608 26.2926 130.408 26.4926 130.308C26.8926 130.108 27.2926 129.908 27.6926 129.508C27.9926 129.208 28.2926 128.908 28.3926 128.508C28.4926 128.008 28.2926 127.608 27.8926 127.308C27.3926 126.908 26.9926 126.908 26.3926 126.908C26.2926 126.908 26.0926 126.908 25.8926 126.908C25.7926 126.908 25.5926 127.008 25.4926 127.108C25.3926 127.108 25.2926 127.108 25.0926 127.208C24.9926 127.308 24.8926 127.408 24.7926 127.408L24.9926 127.508Z" fill="#772666"/>
<path opacity="0.2" fill-rule="evenodd" clip-rule="evenodd" d="M44.2934 121.309C43.9934 121.109 44.0934 120.909 44.3934 120.609C44.5934 120.409 44.6934 120.309 44.9934 120.209C45.1934 120.109 45.4934 120.109 45.6934 120.209C45.8934 120.309 46.0934 120.509 46.1934 120.709C46.2934 120.809 46.2934 120.909 46.2934 121.109C46.2934 121.309 46.3934 121.409 46.2934 121.509C46.0934 121.709 45.8934 121.809 45.5934 121.809C45.2934 121.809 45.0934 121.809 44.7934 121.709C44.4934 121.709 44.4934 121.509 44.2934 121.309Z" fill="#772666"/>
<path opacity="0.2" fill-rule="evenodd" clip-rule="evenodd" d="M41.4932 88.1084C41.4932 88.2084 41.4932 88.5084 41.4932 88.6084C41.4932 88.7084 41.5932 88.7084 41.5932 88.7084C41.5932 88.7084 41.6932 88.8084 41.7932 88.8084C42.0932 88.9084 42.4932 89.0084 42.5932 88.7084C42.7932 88.4084 42.7932 88.1084 42.4932 87.9084C42.2932 87.7084 41.6932 87.5084 41.5932 87.9084L41.4932 88.1084Z" fill="#772666"/>
<path opacity="0.2" fill-rule="evenodd" clip-rule="evenodd" d="M47.1932 87.7085C47.1932 87.7085 47.0932 87.7085 47.1932 87.7085C47.0932 87.5085 47.1932 87.3085 47.1932 87.1085C47.1932 86.9085 47.1932 86.7085 47.4932 86.7085C47.7932 86.7085 48.1932 86.9085 48.3932 87.0085C48.5932 87.1085 48.6932 87.2085 48.7932 87.3085C48.8932 87.4085 48.9932 87.6085 49.0932 87.8085C49.1932 88.2085 48.9932 88.6085 48.7932 89.0085C48.5932 89.4085 48.3932 89.5085 48.0932 89.8085C47.7932 90.0085 47.4932 90.2085 47.0932 90.3085C46.6932 90.3085 46.3932 90.2085 46.1932 90.0085C45.8932 89.8085 45.9932 89.4085 46.0932 89.1085C46.1932 88.9085 46.1932 88.8085 46.2932 88.6085C46.3932 88.5085 46.3932 88.3085 46.4932 88.2085C46.6932 87.9085 46.9932 87.8085 47.2932 87.6085L47.1932 87.7085Z" fill="#772666"/>
<path opacity="0.2" fill-rule="evenodd" clip-rule="evenodd" d="M50.3926 87.7084V87.6084C50.3926 87.9084 50.5926 87.9084 50.8926 87.9084C50.9926 87.9084 51.0926 87.9084 51.1926 87.9084C51.2926 87.8084 51.2926 87.8084 51.2926 87.7084C51.2926 87.5084 51.1926 87.4084 50.9926 87.4084C50.7926 87.4084 50.4926 87.4084 50.3926 87.6084V87.7084Z" fill="#772666"/>
<path opacity="0.2" fill-rule="evenodd" clip-rule="evenodd" d="M11.5926 105.208C11.5926 105.308 11.4926 105.408 11.4926 105.508C11.4926 105.608 11.3926 105.708 11.3926 105.808C11.2926 106.008 11.1926 106.308 11.0926 106.608C10.9926 106.908 10.9926 107.208 10.9926 107.508C10.9926 107.808 10.8926 108.008 10.8926 108.308C10.8926 108.508 10.9926 108.708 11.1926 108.908C11.3926 109.008 11.5926 109.208 11.7926 109.208C11.9926 109.208 12.1926 109.208 12.3926 109.108C12.5926 109.008 12.7926 108.808 12.8926 108.608C13.0926 108.408 13.0926 108.208 13.1926 108.008C13.1926 107.908 13.2926 107.808 13.3926 107.708C13.3926 107.608 13.4926 107.408 13.4926 107.308C13.5926 107.108 13.6926 106.908 13.7926 106.608C13.7926 106.508 13.8926 106.408 13.8926 106.308C13.8926 106.208 13.9926 106.008 14.0926 105.908C14.0926 105.808 14.1926 105.708 14.1926 105.608V105.508C14.1926 105.408 14.2926 105.408 14.2926 105.308C14.2926 105.208 14.2926 105.108 14.2926 105.008C14.2926 104.908 14.3926 104.808 14.3926 104.708C14.3926 104.308 14.2926 103.808 13.8926 103.508C13.6926 103.308 13.4926 103.508 13.2926 103.608C13.0926 103.708 12.7926 103.808 12.6926 104.008C12.4926 104.208 12.2926 104.308 12.1926 104.508C12.0926 104.608 12.0926 104.708 11.9926 104.808C11.8926 104.808 11.8926 104.908 11.5926 105.208Z" fill="#772666"/>
<path opacity="0.2" fill-rule="evenodd" clip-rule="evenodd" d="M10.693 112.909C10.593 112.909 10.393 112.509 10.393 112.409C10.393 112.309 10.393 112.209 10.393 112.009C10.393 111.909 10.293 111.809 10.293 111.709C10.293 111.509 10.293 111.209 10.293 111.009C10.293 110.809 10.293 110.509 10.593 110.509C10.793 110.509 10.893 110.809 10.993 111.009C10.993 111.109 11.093 111.209 11.093 111.309V111.409C11.093 111.509 11.193 111.509 11.193 111.509C11.193 111.709 11.193 112.009 11.193 112.209C11.193 112.309 11.193 112.609 10.993 112.709L10.693 112.909Z" fill="#772666"/>
<path opacity="0.2" fill-rule="evenodd" clip-rule="evenodd" d="M11.5932 102.508V102.408C11.5932 102.508 11.4932 102.608 11.4932 102.708C11.4932 102.808 11.4932 102.908 11.5932 103.008C11.7932 103.108 11.9932 102.808 12.0932 102.708C12.0932 102.608 12.1932 102.608 12.1932 102.508C12.1932 102.408 12.2932 102.308 12.2932 102.208C12.2932 102.008 11.9932 101.908 11.7932 101.908L11.5932 102.508Z" fill="#772666"/>
</g>
<path fill-rule="evenodd" clip-rule="evenodd" d="M32.593 97.3087C32.493 97.3087 32.393 97.5087 32.393 97.6087C32.293 97.7087 32.293 97.9087 32.293 98.0087C32.293 98.1087 32.293 98.1087 32.293 98.1087C32.293 98.2087 32.293 98.2087 32.293 98.3087C32.293 98.4087 32.393 98.5087 32.493 98.6087C32.793 98.9087 33.493 98.8087 33.793 98.6087C34.193 98.4087 34.693 98.1087 34.893 97.6087C34.993 97.4087 34.893 97.1087 34.693 97.0087C34.593 96.9087 34.493 96.9087 34.393 96.8087C34.393 96.8087 34.293 96.7087 34.193 96.7087H34.093H33.993C33.693 96.6087 33.393 96.7087 33.093 96.9087C32.893 97.0087 32.493 97.2087 32.493 97.4087C32.393 97.3087 32.393 97.3087 32.593 97.3087Z" fill="white"/>
</g>
<g clip-path="url(#clip1)">
<g style="mix-blend-mode:screen" opacity="0.3">
<path fill-rule="evenodd" clip-rule="evenodd" d="M221.425 46.086C221.425 47.186 221.425 48.286 221.325 49.286C219.625 72.786 200.125 91.286 176.225 91.286C164.625 91.286 153.925 86.886 145.925 79.686C144.625 78.486 143.425 77.286 142.225 75.986C140.425 73.986 138.825 71.686 137.425 69.386C136.725 68.186 136.025 66.886 135.425 65.686C135.225 65.386 135.125 64.986 134.925 64.686C134.225 63.186 133.625 61.686 133.125 60.086C132.725 58.986 132.425 57.786 132.125 56.586C131.425 53.186 131.025 49.686 131.025 46.086C131.025 44.386 131.125 42.686 131.325 40.986C131.425 39.786 131.625 38.586 131.825 37.386C132.025 36.186 132.325 34.986 132.625 33.886C138.025 14.786 155.525 0.885986 176.225 0.885986C185.925 0.885986 195.025 3.98599 202.325 9.18599C204.025 10.386 205.725 11.786 207.325 13.286C207.625 13.586 207.925 13.886 208.225 14.186C212.025 17.986 215.125 22.486 217.425 27.486C218.525 29.986 219.425 32.586 220.125 35.286C220.625 37.286 221.025 39.386 221.225 41.586C221.325 42.186 221.325 42.786 221.325 43.486C221.425 44.286 221.425 45.186 221.425 46.086Z" fill="url(#paint6_radial)"/>
</g>
<g style="mix-blend-mode:screen" opacity="0.3">
<path fill-rule="evenodd" clip-rule="evenodd" d="M214.328 46.086C214.328 47.0339 214.328 47.887 214.234 48.8349C212.812 68.6457 196.319 84.1911 176.223 84.1911C166.46 84.1911 157.455 80.4943 150.725 74.4278C149.588 73.48 148.545 72.3425 147.597 71.2998C146.08 69.5936 144.753 67.6978 143.521 65.7073C142.952 64.6646 142.384 63.6219 141.815 62.5793C141.72 62.2949 141.531 62.0105 141.436 61.7262C140.867 60.4939 140.393 59.1669 139.919 57.9346C139.635 56.9867 139.35 55.944 139.066 54.9962C138.403 52.1525 138.023 49.2141 138.023 46.1808C138.023 44.759 138.118 43.3371 138.308 41.9153C138.403 40.8726 138.592 39.83 138.782 38.8821C138.971 37.8394 139.256 36.8915 139.54 35.9436C144.09 19.7348 158.782 7.98096 176.223 7.98096C184.375 7.98096 192.053 10.5403 198.214 14.9953C199.636 16.038 201.058 17.1755 202.385 18.4077C202.669 18.6921 202.954 18.8817 203.143 19.166C206.366 22.3888 209.02 26.1804 210.916 30.3511C211.864 32.4364 212.622 34.6166 213.191 36.8915C213.57 38.5977 213.949 40.3987 214.139 42.1997C214.234 42.7684 214.234 43.2424 214.234 43.8111C214.328 44.5694 214.328 45.3277 214.328 46.086Z" fill="url(#paint7_radial)"/>
</g>
<g style="mix-blend-mode:screen" opacity="0.3">
<path fill-rule="evenodd" clip-rule="evenodd" d="M211.755 46.09C211.755 46.9181 211.755 47.7462 211.663 48.6663C210.375 67.0689 195.009 81.607 176.33 81.607C167.221 81.607 158.848 78.2025 152.591 72.4977C151.579 71.5776 150.566 70.5654 149.738 69.5533C148.358 67.9891 147.07 66.2408 145.966 64.4006C145.414 63.4804 144.862 62.4683 144.402 61.4561C144.31 61.1801 144.126 60.9041 144.034 60.72C143.481 59.5239 143.021 58.3277 142.653 57.1315C142.377 56.2114 142.101 55.2913 141.917 54.3711C141.273 51.7028 140.997 48.9424 140.997 46.182C140.997 44.8018 141.089 43.5136 141.181 42.2254C141.273 41.2133 141.457 40.2931 141.641 39.373C141.825 38.4529 142.009 37.5327 142.285 36.6126C146.334 21.6145 160.044 10.6649 176.238 10.6649C183.875 10.6649 190.96 13.0573 196.757 17.1978C198.137 18.21 199.425 19.2221 200.622 20.4183C200.898 20.6023 201.082 20.8784 201.358 21.1544C204.302 24.0988 206.786 27.6873 208.535 31.5519C209.455 33.4842 210.099 35.5085 210.651 37.6248C211.019 39.189 211.295 40.8452 211.479 42.5014C211.571 42.9615 211.571 43.5136 211.571 43.9737C211.663 44.7098 211.755 45.3539 211.755 46.09Z" fill="url(#paint8_radial)"/>
</g>
<path fill-rule="evenodd" clip-rule="evenodd" d="M210.325 46.086C210.325 46.886 210.325 47.686 210.225 48.486C209.025 66.186 194.225 80.086 176.225 80.086C167.425 80.086 159.425 76.786 153.425 71.286C152.425 70.386 151.525 69.486 150.625 68.486C149.225 66.986 148.025 65.286 147.025 63.486C146.525 62.586 145.925 61.586 145.525 60.686C145.425 60.386 145.325 60.186 145.225 59.986C144.725 58.886 144.225 57.686 143.925 56.586C143.625 55.686 143.425 54.886 143.225 53.986C142.625 51.486 142.325 48.786 142.325 46.086C142.325 44.786 142.425 43.486 142.525 42.286C142.625 41.386 142.725 40.486 142.925 39.486C143.125 38.586 143.325 37.686 143.525 36.786C147.525 22.486 160.725 11.986 176.325 11.986C183.625 11.986 190.425 14.286 196.025 18.286C197.325 19.186 198.625 20.286 199.725 21.386C199.925 21.586 200.225 21.886 200.425 22.086C203.325 24.986 205.625 28.386 207.325 32.086C208.125 33.986 208.825 35.886 209.325 37.886C209.725 39.386 210.025 40.986 210.125 42.586C210.225 43.086 210.225 43.486 210.225 43.986C210.325 44.686 210.325 45.386 210.325 46.086Z" fill="url(#paint9_radial)"/>
<path opacity="0.2" fill-rule="evenodd" clip-rule="evenodd" d="M210.326 46.086C210.326 46.886 210.326 47.686 210.226 48.486C204.226 46.086 197.626 45.186 191.026 45.386C183.026 45.686 175.126 47.586 167.626 50.486C159.926 53.386 152.326 57.486 146.926 63.586C146.426 62.686 145.826 61.686 145.426 60.786C145.826 60.386 146.226 60.086 146.626 59.786C151.826 55.286 157.926 51.986 164.326 49.286C172.126 45.986 180.326 43.486 188.726 42.586C195.926 41.786 203.226 42.186 210.226 43.986C210.326 44.686 210.326 45.386 210.326 46.086Z" fill="#7E2654"/>
<g style="mix-blend-mode:soft-light">
<path fill-rule="evenodd" clip-rule="evenodd" d="M210.126 42.586C204.126 40.286 197.526 39.286 191.026 39.486C183.026 39.786 175.126 41.686 167.626 44.586C158.926 47.886 150.426 52.586 145.026 60.086C144.526 58.986 144.026 57.786 143.726 56.686C144.526 55.686 145.726 54.686 146.626 53.986C151.826 49.486 157.926 46.186 164.326 43.486C172.126 40.186 180.326 37.686 188.726 36.786C195.626 36.086 202.626 36.386 209.326 37.986C209.726 39.386 210.026 40.986 210.126 42.586Z" fill="#ABA7B5"/>
</g>
<path opacity="0.4" fill-rule="evenodd" clip-rule="evenodd" d="M205.826 60.886C205.026 62.486 203.726 63.886 202.426 65.086C198.126 69.186 193.326 72.786 188.326 75.986C186.926 76.886 185.326 77.786 183.726 77.986C182.426 78.186 181.126 77.986 179.826 77.786C174.626 76.986 169.426 75.586 164.526 73.786C163.726 73.486 162.926 73.086 162.426 72.486C161.726 71.486 161.926 70.086 162.326 68.886C163.426 66.286 165.526 64.186 168.026 62.786C170.526 61.386 173.226 60.486 175.926 59.686C184.026 57.286 192.326 55.286 200.726 55.986C200.026 60.386 197.026 63.886 193.926 66.886C192.726 67.986 191.526 69.086 190.126 69.986C184.726 73.586 177.326 74.086 171.526 71.286C171.226 71.186 170.926 70.986 170.926 70.686C170.826 70.286 171.226 69.886 171.626 69.586C176.426 66.586 181.626 64.186 187.026 62.386C187.626 62.186 188.226 61.986 188.826 62.286C189.426 62.486 189.626 63.386 189.126 63.686C184.826 63.686 180.526 65.786 177.826 69.186C181.426 70.686 185.626 70.186 189.026 68.286C192.426 66.386 194.926 63.186 196.526 59.686C196.626 59.486 196.626 59.386 196.626 59.186C196.526 58.986 196.326 58.986 196.126 58.886C190.226 58.086 184.126 58.886 178.326 60.286C175.326 60.986 172.326 61.886 169.726 63.486C167.126 65.086 164.926 67.486 164.126 70.486C164.026 70.786 164.026 71.086 164.026 71.386C164.126 71.786 164.526 72.086 164.826 72.286C169.026 75.086 174.226 75.586 179.326 76.086C180.126 76.186 180.926 76.286 181.726 76.086C182.426 75.986 183.026 75.686 183.726 75.386C190.026 72.686 195.926 69.086 201.226 64.686C203.026 63.186 204.726 61.586 205.626 59.586C206.626 57.486 206.626 54.886 205.026 53.186C203.526 51.486 200.926 51.186 198.626 51.086C194.026 50.986 189.426 51.486 184.926 52.286C181.226 52.886 177.526 53.586 173.926 54.486C170.926 55.186 167.626 57.086 164.926 58.686C159.726 61.786 156.826 66.386 153.526 71.286C152.526 70.386 151.626 69.486 150.726 68.486C157.426 61.286 166.226 56.186 175.626 53.286C185.426 50.286 195.826 49.486 206.026 50.186C206.726 53.786 207.426 57.686 205.826 60.886Z" fill="#7E2654"/>
<path opacity="0.2" fill-rule="evenodd" clip-rule="evenodd" d="M207.326 32.0861C196.026 29.6861 184.026 30.8861 172.926 34.1861C166.226 36.1861 159.726 38.8861 154.126 42.9861C150.326 45.6861 147.026 48.8861 144.326 52.6861C143.826 53.2861 143.426 53.7861 143.126 54.0861C142.526 51.5861 142.226 48.8861 142.226 46.1861C142.226 44.8861 142.326 43.5861 142.426 42.3861C142.726 41.8861 143.026 41.4861 143.426 41.0861C147.726 35.7861 153.526 32.0861 159.726 29.3861C172.426 23.6861 186.526 21.7861 200.426 22.2861C203.226 24.8861 205.626 28.2861 207.326 32.0861Z" fill="#7E2654"/>
<path opacity="0.4" fill-rule="evenodd" clip-rule="evenodd" d="M199.626 21.386C189.326 18.686 178.226 18.986 168.126 22.286C157.926 25.586 149.726 31.686 142.726 39.486C142.926 38.586 143.126 37.686 143.326 36.786C147.526 31.086 154.226 26.286 159.926 23.386C163.926 21.486 168.126 20.086 172.426 19.086C180.026 17.286 188.126 16.786 195.826 18.086C197.226 19.186 198.526 20.186 199.626 21.386Z" fill="#7E2654"/>
<g style="mix-blend-mode:soft-light">
<path fill-rule="evenodd" clip-rule="evenodd" d="M166.325 31.4859C166.125 31.8859 166.025 32.3859 166.025 32.7859C166.025 32.8859 166.025 32.9859 166.025 33.0859C166.125 33.1859 166.325 33.2859 166.425 33.2859C167.025 33.2859 167.525 33.3859 168.125 33.3859C168.325 33.3859 168.425 33.3859 168.625 33.3859C168.825 33.2859 169.025 33.1859 169.125 32.9859C169.725 32.2859 169.625 30.9859 168.725 30.4859C167.925 29.9859 166.625 30.5859 166.425 31.4859H166.325Z" fill="white"/>
</g>
<g style="mix-blend-mode:screen" opacity="0.5">
<path d="M169.225 51.886C179.663 51.886 188.125 43.9167 188.125 34.086C188.125 24.2553 179.663 16.286 169.225 16.286C158.787 16.286 150.325 24.2553 150.325 34.086C150.325 43.9167 158.787 51.886 169.225 51.886Z" fill="url(#paint10_radial)"/>
</g>
<g style="mix-blend-mode:screen" opacity="0.5">
<path fill-rule="evenodd" clip-rule="evenodd" d="M220.225 72.5861C213.225 85.5861 200.125 92.0861 190.925 87.1861C181.725 82.2861 179.925 67.6861 186.925 54.6861C193.925 41.6861 207.025 35.1861 216.225 40.0861C225.425 44.9861 227.125 59.5861 220.225 72.5861Z" fill="url(#paint11_radial)"/>
</g>
<path opacity="0.4" fill-rule="evenodd" clip-rule="evenodd" d="M174.525 47.086C184.325 44.386 194.625 42.586 204.525 44.686C206.725 45.186 209.125 45.986 210.125 48.086C205.125 46.486 200.025 44.986 194.825 44.786C189.625 44.586 184.425 45.686 179.225 46.786C176.425 47.386 173.525 47.986 170.825 48.986C168.125 49.986 165.625 51.286 163.025 52.386C160.625 53.386 158.225 54.186 155.925 55.386C154.525 56.186 153.325 57.086 152.125 58.186C151.525 58.686 149.725 60.986 149.025 60.786C151.025 57.886 154.725 55.486 157.725 53.686C161.025 51.686 164.625 50.186 168.225 48.986C170.425 48.286 172.525 47.686 174.525 47.086Z" fill="#7E2654"/>
<g style="mix-blend-mode:soft-light">
<path fill-rule="evenodd" clip-rule="evenodd" d="M162.225 45.2859C165.325 43.8859 168.425 42.3859 171.625 41.4859C174.325 40.6859 177.225 40.2859 179.925 39.5859C183.025 38.7859 186.025 37.6859 189.225 37.1859C191.425 36.7859 193.725 36.7859 195.925 36.7859C197.925 36.7859 200.025 36.6859 202.025 36.6859C194.425 36.2859 186.725 35.9859 179.325 37.5859C175.225 38.4859 171.225 39.9859 167.125 41.0859C164.825 41.6859 162.425 42.1859 160.325 43.2859C158.425 44.2859 156.725 45.6859 155.125 46.9859C154.125 47.7859 153.125 48.5859 152.225 49.4859C151.425 50.1859 150.425 51.2859 149.525 51.5859C151.225 50.1859 153.725 49.2859 155.825 48.2859C157.825 47.2859 160.025 45.7859 162.225 45.2859Z" fill="#E9E8EC"/>
</g>
<g style="mix-blend-mode:soft-light">
<path fill-rule="evenodd" clip-rule="evenodd" d="M204.325 36.986C205.525 36.886 206.825 37.186 207.925 37.786C206.625 38.286 205.225 37.586 204.125 36.886L204.325 36.986Z" fill="#ABA7B5"/>
</g>
<path opacity="0.4" fill-rule="evenodd" clip-rule="evenodd" d="M156.626 40.4859C158.226 39.5859 160.126 38.9859 161.926 38.3859C168.726 35.7859 174.926 31.0859 182.226 30.3859C185.126 30.0859 188.026 30.5859 190.926 30.5859C195.826 30.5859 201.026 29.4859 205.526 31.5859C202.126 30.6859 198.626 30.5859 195.126 30.6859C182.126 31.0859 169.026 34.4859 157.726 41.0859C154.926 42.7859 150.726 44.7859 148.726 47.4859C151.726 45.8859 153.526 42.2859 156.626 40.4859Z" fill="#7E2654"/>
<g style="mix-blend-mode:soft-light">
<path fill-rule="evenodd" clip-rule="evenodd" d="M148.726 31.286C151.226 29.586 152.426 26.586 154.726 24.686C156.126 23.486 157.926 22.786 159.726 22.086C162.126 21.186 164.526 20.186 167.026 19.486C170.326 18.486 173.726 17.886 177.126 17.286C180.426 16.786 183.926 16.286 187.226 16.686C188.526 16.786 189.726 17.086 191.026 17.386C186.426 16.886 181.826 17.486 177.226 18.186C174.526 18.586 171.726 18.986 169.026 19.686C165.126 20.786 161.426 22.586 157.826 24.386C154.926 25.886 151.826 27.486 149.926 30.186L148.726 31.286Z" fill="#ABA7B5"/>
</g>
<path opacity="0.2" fill-rule="evenodd" clip-rule="evenodd" d="M166.025 56.186C169.425 54.386 173.225 53.686 176.925 52.686C179.625 51.886 182.325 50.886 185.125 50.286C190.825 48.886 196.925 48.886 202.625 50.186C190.525 49.686 178.325 51.886 167.025 56.586C164.825 57.486 162.725 58.486 160.825 59.786C162.425 58.386 164.225 57.186 166.025 56.186Z" fill="#7E2654"/>
</g>
<defs>
<radialGradient id="paint0_radial" cx="0" cy="0" r="1" gradientUnits="userSpaceOnUse" gradientTransform="translate(38.6748 108.49) scale(38.4818)">
<stop offset="0.3189" stop-color="#FF0000"/>
<stop offset="0.3963" stop-color="#FB0000"/>
<stop offset="0.4809" stop-color="#ED0000"/>
<stop offset="0.569" stop-color="#D80000"/>
<stop offset="0.6593" stop-color="#B90000"/>
<stop offset="0.7515" stop-color="#910000"/>
<stop offset="0.8452" stop-color="#610000"/>
<stop offset="0.9383" stop-color="#290000"/>
<stop offset="1"/>
</radialGradient>
<radialGradient id="paint1_radial" cx="0" cy="0" r="1" gradientUnits="userSpaceOnUse" gradientTransform="translate(38.6748 108.49) scale(30.3988)">
<stop offset="0.6541" stop-color="#FFD100"/>
<stop offset="0.6934" stop-color="#FBCD00"/>
<stop offset="0.7364" stop-color="#EDC300"/>
<stop offset="0.7811" stop-color="#D8B100"/>
<stop offset="0.8269" stop-color="#B99800"/>
<stop offset="0.8738" stop-color="#917700"/>
<stop offset="0.9214" stop-color="#615000"/>
<stop offset="0.9687" stop-color="#292200"/>
<stop offset="1"/>
</radialGradient>
<radialGradient id="paint2_radial" cx="0" cy="0" r="1" gradientUnits="userSpaceOnUse" gradientTransform="translate(58.2742 126.746) scale(2.7238)">
<stop stop-color="#CF5236"/>
<stop offset="1" stop-color="#BB471F"/>
</radialGradient>
<radialGradient id="paint3_radial" cx="0" cy="0" r="1" gradientUnits="userSpaceOnUse" gradientTransform="translate(33.3967 98.8946) scale(32.6118)">
<stop stop-color="#FFC827"/>
<stop offset="0.3703" stop-color="#FF9E25"/>
<stop offset="0.8703" stop-color="#FF741F"/>
<stop offset="0.9973" stop-color="#FF9589"/>
</radialGradient>
<radialGradient id="paint4_radial" cx="0" cy="0" r="1" gradientUnits="userSpaceOnUse" gradientTransform="translate(35.4797 84.0679) scale(7.9069)">
<stop stop-color="#FFC727"/>
<stop offset="1" stop-color="#FFAB1F"/>
</radialGradient>
<radialGradient id="paint5_radial" cx="0" cy="0" r="1" gradientUnits="userSpaceOnUse" gradientTransform="translate(15.0455 93.3958) scale(4.6111)">
<stop stop-color="#FFC727"/>
<stop offset="1" stop-color="#FFAB1F"/>
</radialGradient>
<radialGradient id="paint6_radial" cx="0" cy="0" r="1" gradientUnits="userSpaceOnUse" gradientTransform="translate(176.239 46.0994) scale(45.2134)">
<stop offset="0.6541" stop-color="#0645FF"/>
<stop offset="0.6934" stop-color="#0644FB"/>
<stop offset="0.7364" stop-color="#0640ED"/>
<stop offset="0.7811" stop-color="#053AD8"/>
<stop offset="0.8269" stop-color="#0432B9"/>
<stop offset="0.8738" stop-color="#032791"/>
<stop offset="0.9214" stop-color="#021A61"/>
<stop offset="0.9687" stop-color="#010B29"/>
<stop offset="1"/>
</radialGradient>
<radialGradient id="paint7_radial" cx="0" cy="0" r="1" gradientUnits="userSpaceOnUse" gradientTransform="translate(176.236 46.0987) scale(38.1035)">
<stop offset="0.6541" stop-color="#0645FF"/>
<stop offset="0.6934" stop-color="#0644FB"/>
<stop offset="0.7364" stop-color="#0640ED"/>
<stop offset="0.7811" stop-color="#053AD8"/>
<stop offset="0.8269" stop-color="#0432B9"/>
<stop offset="0.8738" stop-color="#032791"/>
<stop offset="0.9214" stop-color="#021A61"/>
<stop offset="0.9687" stop-color="#010B29"/>
<stop offset="1"/>
</radialGradient>
<radialGradient id="paint8_radial" cx="0" cy="0" r="1" gradientUnits="userSpaceOnUse" gradientTransform="translate(176.25 46.1023) scale(35.4599)">
<stop offset="0.827" stop-color="#06A2FF"/>
<stop offset="0.8467" stop-color="#069FFB"/>
<stop offset="0.8682" stop-color="#0697ED"/>
<stop offset="0.8905" stop-color="#0589D8"/>
<stop offset="0.9135" stop-color="#0475B9"/>
<stop offset="0.9369" stop-color="#035C91"/>
<stop offset="0.9607" stop-color="#023E61"/>
<stop offset="0.9843" stop-color="#011A29"/>
<stop offset="1"/>
</radialGradient>
<radialGradient id="paint9_radial" cx="0" cy="0" r="1" gradientUnits="userSpaceOnUse" gradientTransform="translate(172.119 36.8703) scale(44.0623)">
<stop stop-color="#6AA2FF"/>
<stop offset="0.773" stop-color="#5B2D74"/>
<stop offset="0.9973" stop-color="#9A3989"/>
</radialGradient>
<radialGradient id="paint10_radial" cx="0" cy="0" r="1" gradientUnits="userSpaceOnUse" gradientTransform="translate(169.181 34.0895) scale(18.8899 17.8113)">
<stop stop-color="#FF6DFF"/>
<stop offset="1"/>
</radialGradient>
<radialGradient id="paint11_radial" cx="0" cy="0" r="1" gradientUnits="userSpaceOnUse" gradientTransform="translate(203.551 63.6615) rotate(28.2282) scale(18.8901 26.7219)">
<stop stop-color="#007CFF"/>
<stop offset="1"/>
</radialGradient>
<clipPath id="clip0">
<rect width="77" height="77" fill="white" transform="translate(0.193359 70.0085)"/>
</clipPath>
<clipPath id="clip1">
<rect width="93.4" height="90.4" fill="white" transform="translate(131.025 0.885986)"/>
</clipPath>
</defs>
</svg>
