<svg width="299" height="1497" viewBox="0 0 299 1497" fill="none" xmlns="http://www.w3.org/2000/svg">
<g style="mix-blend-mode:screen">
<path d="M61.1618 1.02733C57.9386 3.51896 18.8206 35.6169 16.7695 146.421C16.7695 147.74 16.7695 149.206 16.7695 150.525C16.7695 205.634 36.9878 249.457 60.2827 300.169C83.2847 350.587 109.363 407.455 120.791 488.36C134.27 583.774 96.9101 623.64 66.8756 655.738C46.3643 677.576 27.1716 698.242 31.5669 729.9C38.8923 781.345 100.28 790.872 154.488 799.373C193.753 805.529 234.189 811.831 246.35 832.643C262.612 860.637 271.403 908.711 161.96 1002.66C127.97 1031.83 110.389 1073.16 109.656 1125.78C109.656 1126.95 109.656 1128.12 109.656 1129.44C109.656 1204.48 143.06 1283.77 171.044 1336.98C204.448 1400.59 248.694 1461.41 286.347 1495.85L297.921 1483.1C279.9 1466.69 260.268 1443.97 240.929 1417.59C221.003 1390.03 201.811 1358.96 185.402 1327.74C167.528 1293.45 153.463 1259.59 143.5 1227.2C132.512 1191.44 126.944 1158.46 126.944 1129.29C126.944 1128.27 126.944 1127.09 126.944 1126.07C127.677 1078.73 143.207 1041.65 173.241 1015.85C263.931 937.878 291.914 876.906 261.294 823.996C245.177 796.148 202.397 789.406 157.272 782.371C106.58 774.457 54.2758 766.249 48.855 727.409C45.4853 703.958 59.8432 688.569 79.6219 667.463C110.535 634.486 152.73 589.344 138.079 485.868C126.212 402.618 99.5472 344.432 75.9592 293.134L75.9592 292.987C52.9572 243.008 33.1785 199.771 34.2041 146.714C35.9622 46.9025 69.2198 17.003 71.7105 14.9511L66.5826 8.06251L61.1618 1.02733Z" fill="url(#paint0_linear)"/>
</g>
<path d="M16.1833 150.525C16.1833 149.206 16.1833 147.74 16.1833 146.421C18.2345 33.2719 59.1106 1.90673 60.8687 0.734202L61.0152 0.587636L66.2896 7.76937L71.7104 14.9511L71.5639 15.0977C71.2709 15.3908 35.9621 43.8246 34.0575 146.714C33.0319 199.771 52.9572 242.861 75.8126 292.84L75.8126 292.987C99.4007 344.285 126.212 402.618 137.933 485.868C152.584 589.637 110.242 634.779 79.4754 667.756C59.6966 688.862 45.4852 704.105 48.8549 727.409C54.2758 765.956 106.58 774.163 156.979 782.078C202.25 789.113 245.031 795.855 261.293 823.996C292.06 877.053 264.077 938.171 173.241 1016.29C143.353 1041.94 127.823 1079.02 127.091 1126.22C127.091 1127.24 127.091 1128.41 127.091 1129.44C127.091 1251.97 226.717 1418.03 298.214 1483.1L298.36 1483.25L286.347 1496.59L286.2 1496.44C248.401 1462 204.155 1401.03 170.604 1337.42C142.621 1284.07 109.217 1204.77 109.217 1129.73C109.217 1128.56 109.217 1127.39 109.217 1126.07C109.949 1073.45 127.53 1031.97 161.667 1002.66C270.817 908.565 262.026 860.784 245.91 832.936C233.896 812.271 193.46 805.968 154.342 799.812C99.9867 791.312 38.4527 781.638 31.1273 730.047C26.5855 698.242 45.9247 677.43 66.436 655.591C96.4704 623.493 133.83 583.627 120.351 488.506C108.924 407.748 82.6986 350.881 59.6966 300.608C36.4016 249.603 16.1833 205.634 16.1833 150.525ZM61.0152 1.02733C57.792 3.51896 18.674 35.6169 16.6229 146.421C16.6229 147.74 16.6229 149.206 16.6229 150.525C16.6229 205.634 36.8412 249.457 60.1361 300.169C83.2846 350.441 109.363 407.455 120.791 488.213C134.27 583.627 96.91 623.493 66.8756 655.591C46.3643 677.43 27.1715 698.096 31.5668 729.754C38.8923 781.199 100.28 790.725 154.488 799.226C193.753 805.382 234.189 811.684 246.35 832.497C262.612 860.491 271.403 908.565 161.96 1002.51C127.97 1031.68 110.389 1073.01 109.656 1125.63C109.656 1126.8 109.656 1127.97 109.656 1129.29C109.656 1204.33 143.06 1283.63 171.044 1336.83C204.448 1400.44 248.694 1461.27 286.347 1495.71L297.921 1482.96C279.9 1466.54 260.268 1443.82 240.929 1417.44C221.003 1390.03 201.811 1358.96 185.402 1327.6C167.527 1293.3 153.463 1259.44 143.5 1227.05C132.512 1191.29 126.944 1158.31 126.944 1129.15C126.944 1128.12 126.944 1126.95 126.944 1125.92C127.677 1078.58 143.207 1041.5 173.241 1015.7C263.931 937.731 291.914 876.76 261.293 823.849C245.177 796.002 202.397 789.26 157.272 782.225C106.58 774.31 54.2758 766.102 48.8549 727.262C45.4852 703.812 59.8431 688.422 79.6219 667.317C110.535 634.339 152.73 589.197 138.079 485.721C126.212 402.472 99.5472 344.285 75.9592 292.987L75.9592 292.84C52.9572 242.861 33.1784 199.624 34.204 146.567C35.9621 46.756 69.2198 16.8565 71.7104 14.8045L66.5826 7.91594L61.0152 1.02733Z" fill="#BAC9FB"/>
<path d="M16.4763 150.232C16.4763 148.912 16.4763 147.447 16.4763 146.128C18.5275 32.9787 59.4036 1.61352 61.1617 0.440989L61.3082 0.294423L66.5825 7.47616L72.0034 14.6579L71.8569 14.8045C71.5638 15.0976 36.2551 43.5314 34.3505 146.421C33.3249 199.478 53.2502 242.568 76.1056 292.547L76.1056 292.694C99.6936 343.992 126.505 402.325 138.226 485.575C152.877 589.343 110.535 634.486 79.7683 667.463C59.9896 688.569 45.7782 703.812 49.1479 727.116C54.5687 765.662 106.873 773.87 157.272 781.785C202.543 788.82 245.324 795.562 261.586 823.703C292.353 876.76 264.37 937.878 173.534 1016C143.646 1041.65 128.116 1078.73 127.384 1125.92C127.384 1126.95 127.384 1128.12 127.384 1129.15C127.384 1251.68 227.01 1417.73 298.507 1482.81L298.653 1482.96L286.639 1496.29L286.493 1496.15C248.694 1461.7 204.448 1400.73 170.897 1337.12C142.914 1283.77 109.51 1204.48 109.51 1129.44C109.51 1128.27 109.51 1127.09 109.51 1125.78C110.242 1073.16 127.823 1031.68 161.96 1002.37C271.256 908.564 262.465 860.637 246.203 832.79C234.189 812.124 193.753 805.822 154.635 799.666C100.28 791.165 38.7457 781.492 31.4203 729.9C26.8785 698.096 46.2177 677.283 66.729 655.445C96.7634 623.347 134.123 583.481 120.644 488.359C109.217 407.602 82.9916 350.734 59.9896 300.462C36.6946 249.31 16.4763 205.487 16.4763 150.232ZM61.3082 0.880688C58.085 3.22574 18.8205 35.4703 16.9159 146.128C16.9159 147.447 16.9159 148.912 16.9159 150.232C16.9159 205.34 37.1341 249.164 60.4291 299.875C83.5776 350.148 109.656 407.162 121.084 487.92C134.563 583.334 97.203 623.2 67.1685 655.298C46.6572 677.137 27.4645 697.802 31.8598 729.461C39.1852 780.905 100.573 790.432 154.781 798.933C194.046 805.089 234.482 811.391 246.642 832.203C262.905 860.198 271.696 908.271 162.253 1002.22C128.263 1031.39 110.682 1072.72 109.949 1125.34C109.949 1126.51 109.949 1127.68 109.949 1129C109.949 1204.04 143.353 1283.33 171.337 1336.54C204.741 1400.15 248.987 1460.97 286.639 1495.42L298.214 1482.66C280.193 1466.25 260.561 1443.53 241.222 1417.15C221.15 1389.74 201.957 1358.82 185.695 1327.45C167.82 1293.15 153.609 1259.3 143.646 1226.91C132.658 1191.14 127.091 1158.17 127.091 1129C127.091 1127.97 127.091 1126.8 127.091 1125.78C127.823 1078.43 143.353 1041.35 173.388 1015.56C264.077 937.585 292.06 876.613 261.44 823.703C245.324 795.855 202.543 789.113 157.418 782.078C106.726 774.163 54.4222 765.956 49.0014 727.116C45.6317 703.665 59.9896 688.276 79.7683 667.17C110.682 634.193 152.877 589.05 138.226 485.575C126.358 402.325 99.6936 344.138 76.1056 292.84L76.1056 292.694C53.1037 242.715 33.3249 199.478 34.3505 146.421C36.1086 46.6093 69.3662 16.7098 71.8569 14.6579L66.729 7.76929L61.3082 0.880688Z" fill="#BAC9FB"/>
<path d="M59.99 12.4595C59.99 12.0198 60.1365 11.5801 60.576 11.287C61.0155 10.9938 61.3086 10.7007 61.3086 10.7007C62.0411 10.261 62.9201 10.4076 63.3597 11.1404C63.7992 11.7267 63.6527 12.7526 63.0667 13.1923C63.0667 13.1923 62.9201 13.3389 62.6271 13.632C62.0411 14.2183 61.0155 14.0717 60.576 13.4855C60.1365 13.1923 59.99 12.8992 59.99 12.4595Z" fill="white"/>
<path d="M24.095 156.387C24.095 155.654 24.681 154.922 25.5601 154.922C26.4391 154.922 27.0252 155.508 27.0252 156.387L27.0252 157.853C27.0252 158.732 26.4391 159.319 25.5601 159.319C24.681 159.319 24.095 158.732 24.095 157.853L24.095 156.387ZM24.2415 138.653L24.2415 137.187C24.2415 136.308 24.974 135.721 25.7066 135.721C26.5856 135.721 27.1717 136.454 27.1717 137.187L27.1717 138.653C27.1717 139.532 26.4391 140.118 25.7066 140.118C24.8275 140.118 24.2415 139.532 24.2415 138.653ZM25.2671 119.599L25.4136 117.987C25.4136 117.107 26.1461 116.521 27.0252 116.668C27.7577 116.668 28.4903 117.401 28.3438 118.28L28.1972 119.746C28.1972 120.625 27.4647 121.211 26.5856 121.065C25.8531 121.065 25.2671 120.332 25.2671 119.599ZM25.4136 175.441C25.4136 174.708 25.9996 174.122 26.7321 173.975C27.4647 173.829 28.1972 174.415 28.3438 175.294L28.4903 176.76C28.6368 177.639 28.0507 178.226 27.1717 178.372C26.4391 178.519 25.7066 177.932 25.5601 177.053L25.4136 175.587L25.4136 175.441ZM27.1717 100.546L27.1717 100.399L27.3182 98.9333C27.4647 98.2004 28.1972 97.6142 28.9298 97.6142C29.6623 97.7607 30.2484 98.4936 30.2484 99.2264L30.1019 100.692C29.9554 101.425 29.2228 102.011 28.4903 102.011C27.6112 102.011 27.1717 101.278 27.1717 100.546ZM28.4903 194.201C28.4903 193.468 28.9298 192.882 29.6623 192.736C30.3949 192.589 31.2739 193.029 31.4205 193.908L31.7135 195.374C31.86 196.107 31.4204 196.986 30.5414 197.133C29.8088 197.279 28.9298 196.839 28.7833 195.96L28.4903 194.494C28.4903 194.494 28.4903 194.348 28.4903 194.201ZM30.1019 81.6385C30.1019 81.4919 30.1019 81.4919 30.1019 81.3453L30.3949 79.8797C30.5414 79.1469 31.274 78.5606 32.153 78.7072C32.8856 78.8537 33.4716 79.5866 33.3251 80.4659L33.0321 81.9316C32.8855 82.6644 32.153 83.2507 31.274 83.1041C30.5414 82.9576 30.1019 82.3713 30.1019 81.6385ZM33.0321 212.815C33.0321 212.229 33.4716 211.643 34.0576 211.349C34.7902 211.056 35.6692 211.643 35.8157 212.375L36.2553 213.841C36.5483 214.574 35.9622 215.453 35.2297 215.6C34.4971 215.746 33.6181 215.307 33.4716 214.574L33.0321 213.108C33.1786 213.108 33.0321 212.962 33.0321 212.815ZM34.2041 63.0246C34.2041 62.878 34.2041 62.7314 34.2041 62.5849L34.6437 61.1192C34.7902 60.3864 35.6692 59.9467 36.4018 60.0933C37.1343 60.2398 37.5739 61.1192 37.4273 61.8521L36.9878 63.3177C36.8413 64.0505 35.9622 64.4902 35.2297 64.3437C34.6437 64.1971 34.2041 63.6108 34.2041 63.0246ZM38.3064 722.425C38.3064 721.693 38.8924 720.96 39.7715 720.96C40.6505 720.96 41.2366 721.546 41.2366 722.425C41.2366 722.865 41.2366 723.305 41.2366 723.891C41.2366 724.624 40.6505 725.357 39.918 725.503C39.0389 725.503 38.4529 724.917 38.3064 724.184C38.3064 723.451 38.3064 723.012 38.3064 722.425ZM38.8924 230.989C38.8924 230.403 39.3319 229.817 39.918 229.67C40.6505 229.377 41.5296 229.817 41.8226 230.55L42.2621 231.869C42.5552 232.602 42.1156 233.481 41.3831 233.774C40.6505 234.067 39.7715 233.628 39.4785 232.895L39.0389 231.576C38.8924 231.282 38.8924 231.136 38.8924 230.989ZM40.211 44.8504C40.211 44.7038 40.211 44.5573 40.3575 44.2641L40.9436 42.945C41.2366 42.2122 42.1156 41.7725 42.8482 42.0656C43.5807 42.3588 44.0203 43.2382 43.7272 43.971L43.1412 45.2901C42.8482 46.0229 41.9691 46.4626 41.2366 46.1695C40.504 46.0229 40.211 45.4367 40.211 44.8504ZM40.6505 704.984C40.6505 704.837 40.6505 704.691 40.6505 704.544C40.797 704.105 40.9435 703.518 41.09 703.079C41.3831 702.346 42.2621 701.906 42.9947 702.199C43.7272 702.492 44.1667 703.372 43.8737 704.105C43.7272 704.544 43.5807 704.984 43.4342 705.424C43.1412 706.157 42.4086 706.596 41.5296 706.303C41.09 706.303 40.6505 705.717 40.6505 704.984ZM42.2621 740.893C42.2621 740.306 42.5551 739.72 43.1412 739.574C43.8737 739.28 44.7528 739.574 45.0458 740.306C45.1923 740.746 45.4853 741.186 45.6318 741.625C45.9249 742.358 45.6318 743.238 44.8993 743.531C44.1667 743.824 43.2877 743.531 42.9947 742.798C42.8482 742.358 42.5551 741.919 42.4086 741.479C42.2621 741.332 42.2621 741.039 42.2621 740.893ZM45.6319 248.87C45.6319 248.284 45.9249 247.698 46.5109 247.551C47.2434 247.258 48.1225 247.551 48.4155 248.431L49.0016 249.75C49.2946 250.483 49.0016 251.362 48.1225 251.655C47.39 251.948 46.5109 251.655 46.2179 250.922L45.6319 249.603C45.7784 249.31 45.6319 249.017 45.6319 248.87ZM48.269 27.5556C48.269 27.2625 48.269 27.1159 48.4155 26.8228C48.7086 26.3831 48.8551 25.9434 49.1481 25.5037C49.5876 24.7708 50.4667 24.6243 51.1992 25.064C51.9318 25.5037 52.0783 26.3831 51.6387 27.1159C51.3457 27.5556 51.1992 27.9953 50.9062 28.435C50.4667 29.1678 49.5876 29.3144 48.8551 29.0213C48.5621 28.5816 48.269 28.1419 48.269 27.5556ZM49.2946 687.982C49.2946 687.689 49.4411 687.396 49.5876 687.103C49.8806 686.663 50.1736 686.224 50.4667 685.93C50.9062 685.198 51.7852 685.051 52.5178 685.637C53.2503 686.077 53.3968 686.956 52.8108 687.689C52.5178 688.129 52.2248 688.422 51.9317 688.862C51.4922 689.595 50.6131 689.741 49.8806 689.301C49.4411 689.008 49.2946 688.569 49.2946 687.982ZM52.8108 756.575C52.8108 756.136 52.9573 755.842 53.2503 755.549C53.8364 754.963 54.7154 754.963 55.3014 755.549C55.5945 755.842 56.034 756.282 56.327 756.575C56.9131 757.162 56.9131 758.041 56.327 758.627C55.741 759.213 54.8619 759.213 54.2759 758.627C53.9829 758.334 53.5433 757.894 53.2503 757.601C52.9573 757.308 52.8108 757.015 52.8108 756.575ZM53.1038 266.458C53.1038 265.872 53.3969 265.286 53.9829 265.139C54.7154 264.846 55.5945 265.139 55.8875 265.872L56.4735 267.191C56.7666 267.924 56.4735 268.803 55.741 269.096C55.0084 269.39 54.1294 269.096 53.8364 268.364L53.2503 267.045C53.1038 266.898 53.1038 266.751 53.1038 266.458ZM61.0153 283.9C61.0153 283.313 61.3084 282.874 61.8944 282.581C62.6269 282.287 63.506 282.581 63.799 283.313L64.3851 284.632C64.6781 285.365 64.3851 286.245 63.6525 286.538C62.92 286.831 62.0409 286.538 61.7479 285.805L61.1618 284.486C61.0153 284.339 61.0153 284.193 61.0153 283.9ZM61.1618 673.033C61.1618 672.739 61.3083 672.3 61.6014 672.007L62.6269 670.834C63.213 670.248 64.092 670.248 64.6781 670.688C65.2641 671.274 65.2641 672.153 64.8246 672.739L63.799 673.765C63.213 674.352 62.3339 674.498 61.7479 673.912C61.3083 673.912 61.1618 673.472 61.1618 673.033ZM68.0478 768.007C68.0478 767.714 68.0478 767.568 68.1943 767.275C68.6338 766.542 69.5129 766.249 70.2454 766.688C70.6849 766.981 71.1245 767.128 71.564 767.421C72.2965 767.861 72.5896 768.74 72.15 769.473C71.7105 770.206 70.8314 770.499 70.0989 770.059C69.6594 769.766 69.2198 769.62 68.7803 769.327C68.3408 769.033 68.0478 768.447 68.0478 768.007ZM68.9268 301.341C68.9268 300.755 69.2199 300.315 69.8059 300.022C70.5385 299.729 71.4175 300.022 71.7105 300.755L72.2966 302.074C72.5896 302.807 72.2966 303.686 71.564 303.979C70.8315 304.272 69.9524 303.979 69.6594 303.246L69.0734 301.927C68.9269 301.781 68.9268 301.488 68.9268 301.341ZM74.0546 658.962C74.0546 658.669 74.2012 658.229 74.4942 657.936L75.5197 656.91C76.1058 656.324 76.9849 656.324 77.5709 656.764C78.1569 657.35 78.1569 658.229 77.7174 658.816L76.6918 659.842C76.1058 660.428 75.2267 660.428 74.6407 659.842C74.2012 659.842 74.0546 659.402 74.0546 658.962ZM76.8384 318.782C76.8384 318.196 77.1314 317.756 77.7174 317.463C78.4499 317.17 79.329 317.463 79.622 318.196L80.2081 319.515C80.5011 320.248 80.2081 321.127 79.4755 321.421C78.743 321.714 77.8639 321.421 77.5709 320.688L76.9849 319.369C76.8383 319.076 76.8384 318.929 76.8384 318.782ZM84.6033 336.224C84.6033 335.638 84.8964 335.051 85.4824 334.905C86.2149 334.612 87.094 334.905 87.387 335.638L87.9731 336.957C88.2661 337.689 87.9731 338.569 87.2405 338.862C86.508 339.155 85.6289 338.862 85.3359 338.129L84.7498 336.81C84.6033 336.663 84.6033 336.37 84.6033 336.224ZM85.4824 775.775C85.4824 775.629 85.4824 775.482 85.6289 775.336C85.9219 774.603 86.8009 774.163 87.5335 774.456C87.973 774.603 88.4126 774.749 88.8521 774.896C89.5846 775.189 90.0242 775.922 89.7311 776.801C89.4381 777.534 88.7056 777.974 87.8265 777.681C87.387 777.534 86.9475 777.388 86.3614 777.241C85.7754 776.948 85.4824 776.362 85.4824 775.775ZM86.9475 644.892C86.9475 644.599 87.094 644.159 87.2405 643.866L88.2661 642.693C88.8521 642.107 89.7312 641.961 90.3172 642.547C90.9032 643.133 91.0497 644.013 90.4637 644.599L89.4381 645.771C88.8521 646.358 87.973 646.504 87.387 645.918C87.094 645.625 86.9475 645.185 86.9475 644.892ZM91.9288 353.958C91.9288 353.372 92.2218 352.786 92.8079 352.639C93.5404 352.346 94.4195 352.639 94.7125 353.519L95.2985 354.838C95.5915 355.57 95.2985 356.45 94.4195 356.743C93.6869 357.036 92.8079 356.743 92.5148 355.864L91.9288 354.545C91.9288 354.251 91.9288 354.105 91.9288 353.958ZM98.8148 371.693C98.8148 371.106 99.1078 370.52 99.8403 370.374C100.573 370.081 101.452 370.52 101.745 371.253L102.184 372.572C102.477 373.305 102.038 374.184 101.305 374.478C100.573 374.771 99.6938 374.331 99.4008 373.598L98.9612 372.279C98.8147 371.986 98.8148 371.839 98.8148 371.693ZM98.9612 629.942C98.9612 629.649 99.1077 629.356 99.2542 629.063L100.133 627.89C100.573 627.304 101.452 627.157 102.184 627.597C102.77 628.037 102.917 628.916 102.477 629.649L101.598 630.822C101.159 631.408 100.133 631.554 99.5473 631.115C99.1078 630.822 98.9612 630.382 98.9612 629.942ZM103.796 781.198C103.796 781.052 103.796 780.905 103.796 780.905C103.943 780.172 104.822 779.586 105.554 779.879L107.019 780.172C107.752 780.319 108.338 781.198 108.045 781.931C107.898 782.664 107.019 783.25 106.287 782.957L104.822 782.664C104.236 782.517 103.796 781.785 103.796 781.198ZM105.115 389.72C105.115 389.134 105.554 388.548 106.14 388.401C106.873 388.108 107.752 388.548 108.045 389.281L108.484 390.746C108.777 391.479 108.338 392.359 107.605 392.652C106.873 392.945 105.994 392.505 105.701 391.772L105.261 390.16C105.115 390.014 105.115 389.867 105.115 389.72ZM109.363 613.966C109.363 613.673 109.363 613.527 109.51 613.234L110.242 611.915C110.682 611.182 111.561 610.889 112.294 611.328C113.026 611.768 113.319 612.647 112.88 613.38L112.147 614.699C111.708 615.432 110.829 615.579 110.096 615.286C109.656 614.846 109.363 614.406 109.363 613.966ZM110.975 408.041C110.975 407.455 111.415 406.869 112.001 406.575C112.733 406.282 113.612 406.722 113.759 407.601L114.198 409.067C114.491 409.8 114.052 410.679 113.173 410.826C112.44 411.119 111.561 410.679 111.415 409.8L110.975 408.334C110.975 408.188 110.975 408.188 110.975 408.041ZM116.103 426.362C116.103 425.776 116.542 425.043 117.128 424.896C117.861 424.75 118.74 425.189 118.887 425.922L119.326 427.388C119.473 428.121 119.033 429 118.3 429.147C117.568 429.293 116.689 428.854 116.542 428.121L116.103 426.655C116.103 426.655 116.103 426.508 116.103 426.362ZM116.982 1134.28C116.982 1133.54 117.568 1132.81 118.447 1132.81C119.326 1132.81 119.912 1133.4 119.912 1134.28L119.912 1135.74C119.912 1136.47 119.326 1137.21 118.447 1137.21C117.568 1137.21 116.982 1136.62 116.982 1135.74L116.982 1134.28C116.982 1134.42 116.982 1134.28 116.982 1134.28ZM117.275 1116.69L117.421 1115.08C117.421 1114.2 118.154 1113.61 119.033 1113.76C119.912 1113.76 120.498 1114.49 120.352 1115.37L120.205 1116.83C120.205 1117.71 119.473 1118.3 118.593 1118.15C117.861 1118.15 117.275 1117.42 117.275 1116.69ZM117.861 596.818C117.861 596.672 117.861 596.379 118.007 596.232L118.593 594.913C118.887 594.18 119.766 593.74 120.498 594.18C121.231 594.473 121.67 595.353 121.231 596.085L120.645 597.404C120.352 598.137 119.473 598.43 118.74 598.137C118.154 597.991 117.861 597.404 117.861 596.818ZM118.154 1153.48C118.154 1152.74 118.74 1152.16 119.473 1152.01C120.205 1151.86 120.938 1152.6 121.084 1153.33L121.231 1154.65C121.231 1154.65 121.67 1157.14 120.059 1157.43C118.447 1157.73 118.3 1155.09 118.3 1155.09L118.154 1153.48ZM119.18 1097.63L119.18 1097.49L119.473 1096.02C119.619 1095.29 120.352 1094.7 121.084 1094.85C121.817 1095 122.403 1095.73 122.256 1096.46L121.963 1097.93C121.817 1098.66 121.084 1099.25 120.352 1099.1C119.766 1098.95 119.18 1098.37 119.18 1097.63ZM120.498 1172.38C120.498 1171.65 121.084 1171.06 121.67 1170.92C122.403 1170.77 123.282 1171.36 123.282 1172.09L123.575 1173.56C123.721 1174.29 123.135 1175.17 122.403 1175.17C121.67 1175.31 120.791 1174.73 120.791 1174L120.498 1172.53C120.498 1172.53 120.498 1172.53 120.498 1172.38ZM120.498 444.976C120.498 444.243 120.938 443.657 121.67 443.51C122.403 443.364 123.282 443.803 123.428 444.683L123.721 446.148C123.868 446.881 123.428 447.761 122.549 447.907C121.817 448.054 120.938 447.614 120.791 446.735L120.498 445.269C120.498 445.122 120.498 445.122 120.498 444.976ZM122.549 785.302C122.549 785.156 122.549 785.156 122.549 785.009C122.696 784.276 123.428 783.69 124.307 783.837L125.772 784.13C126.505 784.276 127.091 785.009 126.945 785.888C126.798 786.621 126.065 787.208 125.186 787.061L123.721 786.768C122.989 786.621 122.549 785.888 122.549 785.302ZM123.135 1078.87C123.135 1078.73 123.135 1078.58 123.135 1078.43L123.575 1076.97C123.721 1076.24 124.6 1075.8 125.333 1075.94C126.065 1076.09 126.505 1076.97 126.358 1077.7L125.919 1079.17C125.772 1079.9 124.893 1080.49 124.161 1080.19C123.575 1080.19 123.135 1079.61 123.135 1078.87ZM124.014 1191.29C124.014 1190.56 124.454 1189.97 125.186 1189.82C125.919 1189.68 126.798 1190.12 126.945 1191L127.238 1192.46C127.384 1193.2 126.944 1194.07 126.065 1194.22C125.333 1194.37 124.454 1193.93 124.307 1193.05L124.014 1191.58C124.014 1191.44 124.014 1191.29 124.014 1191.29ZM124.161 578.791C124.161 578.644 124.161 578.497 124.161 578.351C124.307 577.911 124.454 577.471 124.6 576.885C124.747 576.152 125.626 575.713 126.358 575.859C127.091 576.006 127.531 576.885 127.384 577.618C127.238 578.058 127.091 578.644 126.945 579.084C126.652 579.817 125.919 580.256 125.186 580.11C124.6 579.963 124.161 579.377 124.161 578.791ZM124.307 463.736C124.307 463.003 124.747 462.417 125.479 462.271C126.212 462.124 127.091 462.71 127.238 463.443L127.531 464.909C127.677 465.642 127.091 466.521 126.359 466.668C125.626 466.814 124.747 466.228 124.6 465.495L124.307 464.029C124.307 463.883 124.307 463.736 124.307 463.736ZM127.531 482.643C127.531 481.91 128.117 481.324 128.849 481.178C129.582 481.031 130.461 481.617 130.461 482.35L130.607 483.816C130.754 484.549 130.168 485.428 129.435 485.428C128.703 485.575 127.824 484.988 127.824 484.256L127.677 482.79C127.531 482.79 127.531 482.643 127.531 482.643ZM128.41 1209.9C128.41 1209.32 128.849 1208.73 129.435 1208.44C130.168 1208.29 131.047 1208.73 131.193 1209.46L131.633 1210.93C131.779 1211.66 131.34 1212.54 130.607 1212.69C129.875 1212.84 128.996 1212.4 128.849 1211.66L128.41 1210.2C128.41 1210.05 128.41 1210.05 128.41 1209.9ZM128.41 560.177C128.41 560.03 128.41 560.03 128.41 559.884L128.703 558.418C128.849 557.685 129.582 557.099 130.314 557.245C131.047 557.392 131.633 558.125 131.486 558.858L131.193 560.323C131.047 561.056 130.314 561.642 129.435 561.496C128.849 561.496 128.41 560.91 128.41 560.177ZM129.142 1060.85C129.142 1060.7 129.142 1060.41 129.289 1060.26C129.435 1059.82 129.728 1059.38 129.875 1058.94C130.168 1058.21 131.047 1057.92 131.779 1058.21C132.512 1058.5 132.951 1059.38 132.512 1060.11C132.365 1060.55 132.072 1060.99 131.926 1061.43C131.633 1062.17 130.754 1062.61 130.021 1062.17C129.435 1061.87 129.142 1061.43 129.142 1060.85ZM129.875 501.55C129.875 500.817 130.461 500.231 131.193 500.085C131.926 499.938 132.658 500.671 132.805 501.404L132.951 502.869C132.951 503.749 132.365 504.335 131.633 504.482C130.9 504.628 130.168 503.895 130.021 503.163L129.875 501.55C129.875 501.697 129.875 501.55 129.875 501.55ZM130.607 541.27C130.607 541.123 130.607 541.123 130.607 541.27L130.754 539.657C130.754 538.778 131.486 538.192 132.365 538.338C133.244 538.338 133.83 539.071 133.684 539.951L133.537 541.416C133.537 542.296 132.805 542.882 131.926 542.735C131.193 542.589 130.607 542.003 130.607 541.27ZM131.047 520.604C131.047 519.871 131.633 519.138 132.512 519.138C133.391 519.138 133.977 519.724 133.977 520.604L133.977 522.07C133.977 522.949 133.391 523.535 132.512 523.535C131.633 523.535 131.047 522.949 131.047 522.07L131.047 520.604ZM133.537 1228.22C133.537 1227.64 133.977 1227.05 134.563 1226.76C135.296 1226.47 136.175 1226.91 136.321 1227.79L136.761 1229.25C137.054 1229.98 136.614 1230.86 135.735 1231.16C135.003 1231.45 134.123 1231.01 133.83 1230.13L133.391 1228.66C133.537 1228.52 133.537 1228.37 133.537 1228.22ZM137.493 1043.7C137.493 1043.41 137.493 1043.26 137.64 1042.97C137.933 1042.53 138.079 1042.09 138.372 1041.65C138.812 1040.91 139.691 1040.77 140.423 1041.06C141.156 1041.5 141.302 1042.38 141.009 1043.11C140.716 1043.55 140.57 1043.99 140.277 1044.43C139.837 1045.16 138.958 1045.31 138.226 1045.02C137.786 1044.58 137.493 1044.14 137.493 1043.7ZM139.544 1246.4C139.544 1245.81 139.984 1245.23 140.57 1245.08C141.302 1244.79 142.181 1245.23 142.474 1245.96L142.914 1247.28C143.207 1248.01 142.768 1248.89 142.035 1249.18C141.302 1249.48 140.423 1249.04 140.13 1248.3L139.691 1246.99C139.544 1246.84 139.544 1246.69 139.544 1246.4ZM141.449 788.527C141.449 788.38 141.449 788.38 141.449 788.234C141.595 787.501 142.328 786.914 143.061 787.061L144.526 787.354C145.258 787.501 145.844 788.234 145.698 788.966C145.551 789.699 144.819 790.286 144.086 790.139L142.621 789.846C141.888 789.846 141.449 789.26 141.449 788.527ZM146.137 1264.43C146.137 1263.84 146.43 1263.25 147.016 1263.11C147.749 1262.81 148.628 1263.25 148.921 1263.99L149.507 1265.31C149.8 1266.04 149.36 1266.92 148.628 1267.21C147.895 1267.5 147.016 1267.06 146.723 1266.33L146.137 1265.01C146.137 1264.72 146.137 1264.57 146.137 1264.43ZM148.188 1027.87C148.188 1027.58 148.335 1027.28 148.481 1026.99C148.774 1026.55 149.067 1026.26 149.36 1025.82C149.8 1025.23 150.826 1025.08 151.412 1025.52C151.998 1025.96 152.144 1026.99 151.705 1027.58C151.412 1028.02 151.119 1028.31 150.826 1028.75C150.386 1029.33 149.36 1029.48 148.774 1029.04C148.481 1028.6 148.188 1028.31 148.188 1027.87ZM153.316 1282.16C153.316 1281.57 153.609 1280.99 154.195 1280.84C154.928 1280.55 155.807 1280.84 156.1 1281.57L156.686 1282.89C156.979 1283.63 156.686 1284.51 155.953 1284.8C155.221 1285.09 154.342 1284.8 154.049 1284.07L153.463 1282.75C153.316 1282.6 153.316 1282.31 153.316 1282.16ZM160.349 791.605C160.349 791.458 160.349 791.458 160.349 791.311C160.495 790.579 161.228 789.992 161.96 790.139L163.425 790.432C164.158 790.579 164.744 791.311 164.597 792.044C164.451 792.777 163.718 793.363 162.986 793.217L161.521 792.924C160.788 792.924 160.349 792.191 160.349 791.605ZM161.081 1299.6C161.081 1299.02 161.374 1298.58 161.96 1298.28C162.693 1297.99 163.572 1298.28 163.865 1299.02L164.451 1300.34C164.744 1301.07 164.451 1301.95 163.718 1302.24C162.986 1302.53 162.107 1302.24 161.814 1301.51L161.228 1300.19C161.081 1300.04 161.081 1299.9 161.081 1299.6ZM161.081 1013.65C161.081 1013.21 161.228 1012.92 161.521 1012.63L162.546 1011.6C163.132 1011.01 164.011 1011.01 164.597 1011.6C165.183 1012.19 165.183 1013.07 164.597 1013.65L163.572 1014.68C162.986 1015.26 162.107 1015.26 161.521 1014.68C161.228 1014.38 161.081 1014.09 161.081 1013.65ZM169.286 1316.9C169.286 1316.31 169.579 1315.87 170.165 1315.58C170.897 1315.29 171.776 1315.58 172.069 1316.31L172.655 1317.63C172.948 1318.36 172.655 1319.24 171.923 1319.54C171.19 1319.83 170.311 1319.54 170.018 1318.8L169.432 1317.48C169.286 1317.34 169.286 1317.19 169.286 1316.9ZM175.439 1001.05C175.439 1000.61 175.586 1000.17 175.879 1000.02L176.904 998.996C177.49 998.409 178.369 998.556 178.955 999.142C179.541 999.728 179.395 1000.61 178.809 1001.19L177.637 1002.22C177.051 1002.81 176.172 1002.66 175.586 1002.07C175.586 1001.78 175.439 1001.34 175.439 1001.05ZM178.076 1334.05C178.076 1333.46 178.369 1333.02 178.809 1332.73C179.541 1332.29 180.42 1332.58 180.86 1333.31L181.592 1334.63C182.032 1335.36 181.739 1336.24 181.006 1336.68C180.274 1337.12 179.395 1336.83 178.955 1336.1L178.223 1334.78C178.076 1334.49 178.076 1334.19 178.076 1334.05ZM179.248 794.682C179.248 794.536 179.248 794.536 179.248 794.389C179.395 793.656 180.127 793.07 181.006 793.217L182.472 793.51C183.204 793.656 183.79 794.389 183.644 795.269C183.497 796.002 182.765 796.588 181.886 796.441L180.42 796.148C179.688 796.002 179.248 795.415 179.248 794.682ZM187.16 1350.9C187.16 1350.46 187.453 1349.87 187.892 1349.58C188.625 1349.14 189.504 1349.44 189.944 1350.17L190.676 1351.49C191.116 1352.22 190.823 1353.1 190.09 1353.54C189.357 1353.98 188.478 1353.69 188.039 1352.95L187.306 1351.63C187.306 1351.34 187.16 1351.05 187.16 1350.9ZM189.504 988.15C189.504 987.71 189.651 987.417 189.944 987.124L190.969 986.098C191.555 985.511 192.434 985.511 193.02 986.098C193.606 986.684 193.606 987.563 193.02 988.15L191.995 989.176C191.409 989.762 190.53 989.762 189.944 989.176C189.651 988.883 189.504 988.443 189.504 988.15ZM196.829 1367.46C196.829 1367.02 197.122 1366.44 197.562 1366.14C198.295 1365.7 199.174 1366 199.613 1366.58L200.346 1367.9C200.785 1368.64 200.492 1369.51 199.906 1369.95C199.174 1370.39 198.295 1370.1 197.855 1369.51L197.122 1368.2C196.829 1367.9 196.829 1367.61 196.829 1367.46ZM198.002 798.493C198.002 798.347 198.002 798.347 198.002 798.2C198.148 797.467 199.027 796.881 199.76 797.027L201.225 797.321C201.957 797.467 202.543 798.347 202.25 799.079C202.104 799.812 201.225 800.399 200.492 800.105L199.027 799.812C198.441 799.666 198.002 799.079 198.002 798.493ZM203.276 974.666C203.276 974.226 203.422 973.933 203.715 973.64L204.741 972.614C205.327 972.027 206.206 972.027 206.792 972.614C207.378 973.2 207.378 974.079 206.792 974.666L205.767 975.692C205.181 976.278 204.301 976.278 203.715 975.692C203.422 975.545 203.276 975.105 203.276 974.666ZM206.792 1383.73C206.792 1383.29 207.085 1382.71 207.525 1382.56C208.257 1382.12 209.136 1382.27 209.576 1383L210.308 1384.17C210.748 1384.9 210.601 1385.78 209.869 1386.22C209.136 1386.66 208.257 1386.52 207.818 1385.78L207.085 1384.46C206.792 1384.32 206.792 1384.02 206.792 1383.73ZM216.315 960.742C216.315 960.449 216.462 960.009 216.755 959.716L217.78 958.69C218.366 958.104 219.245 957.957 219.831 958.543C220.417 959.13 220.564 960.009 219.978 960.595L218.952 961.768C218.366 962.354 217.487 962.354 216.901 961.914C216.462 961.621 216.315 961.182 216.315 960.742ZM216.462 803.476C216.462 803.33 216.462 803.183 216.608 803.037C216.901 802.304 217.634 801.864 218.513 802.157L219.978 802.597C220.711 802.89 221.15 803.77 220.857 804.502C220.564 805.235 219.831 805.675 218.952 805.382L217.634 804.942C216.901 804.649 216.462 804.063 216.462 803.476ZM217.194 1399.71C217.194 1399.27 217.487 1398.83 217.78 1398.53C218.513 1398.09 219.392 1398.24 219.831 1398.97L220.71 1400.15C221.15 1400.88 221.003 1401.76 220.271 1402.2C219.538 1402.64 218.659 1402.49 218.22 1401.76L217.341 1400.59C217.341 1400.29 217.194 1400 217.194 1399.71ZM228.036 1415.54C228.036 1415.1 228.182 1414.66 228.622 1414.36C229.355 1413.92 230.234 1414.07 230.673 1414.66L231.552 1415.83C231.992 1416.56 231.845 1417.44 231.259 1417.88C230.673 1418.32 229.648 1418.17 229.208 1417.59L228.329 1416.42C228.182 1416.12 228.036 1415.83 228.036 1415.54ZM228.622 946.232C228.622 945.939 228.769 945.646 228.915 945.352L229.794 944.18C230.234 943.594 231.259 943.447 231.845 943.887C232.431 944.326 232.578 945.352 232.138 945.939L231.259 947.111C230.82 947.697 229.794 947.844 229.208 947.404C228.769 947.111 228.622 946.672 228.622 946.232ZM234.043 810.951C234.043 810.658 234.043 810.512 234.189 810.218C234.629 809.486 235.508 809.193 236.24 809.632C236.68 809.925 237.12 810.072 237.559 810.365C238.292 810.805 238.438 811.684 238.145 812.417C237.706 813.15 236.827 813.296 236.094 813.003C235.654 812.71 235.215 812.564 234.775 812.27C234.336 811.977 234.043 811.538 234.043 810.951ZM239.317 1430.93C239.317 1430.49 239.464 1430.05 239.903 1429.75C240.489 1429.31 241.515 1429.46 241.954 1430.05L242.833 1431.22C243.273 1431.81 243.126 1432.83 242.54 1433.27C241.954 1433.71 240.929 1433.56 240.489 1432.98L239.61 1431.81C239.464 1431.66 239.317 1431.37 239.317 1430.93ZM240.05 930.842C240.05 930.549 240.196 930.256 240.343 929.963L241.222 928.79C241.661 928.058 242.54 927.911 243.273 928.351C244.005 928.79 244.152 929.67 243.712 930.403L242.833 931.575C242.394 932.308 241.515 932.455 240.782 932.015C240.196 931.722 240.05 931.282 240.05 930.842ZM248.84 822.823C248.84 822.383 248.987 821.944 249.426 821.651C250.012 821.064 251.038 821.211 251.477 821.797C251.77 822.237 252.064 822.53 252.503 822.97C252.943 823.556 252.943 824.582 252.21 825.022C251.624 825.461 250.598 825.461 250.159 824.729C249.866 824.289 249.573 823.996 249.28 823.556C248.84 823.556 248.84 823.263 248.84 822.823ZM249.866 914.427C249.866 914.134 249.866 913.987 250.012 913.694L250.745 912.375C251.184 911.642 252.064 911.349 252.65 911.789C253.382 912.229 253.675 913.108 253.236 913.694L252.503 915.013C252.064 915.746 251.184 916.039 250.452 915.599C250.159 915.453 249.866 915.013 249.866 914.427ZM251.184 1446.02C251.184 1445.58 251.331 1445.14 251.77 1444.85C252.356 1444.41 253.382 1444.41 253.822 1445.14L254.701 1446.32C255.14 1446.9 255.14 1447.93 254.554 1448.37C253.968 1448.81 252.943 1448.81 252.503 1448.22L251.624 1447.05C251.184 1446.75 251.184 1446.46 251.184 1446.02ZM257.631 896.986C257.631 896.839 257.631 896.692 257.777 896.546C257.924 896.106 258.07 895.666 258.217 895.227C258.51 894.494 259.389 894.054 260.122 894.347C260.854 894.641 261.294 895.52 261.001 896.253C260.854 896.692 260.708 897.132 260.561 897.718C260.268 898.451 259.389 898.891 258.656 898.598C258.07 898.158 257.631 897.572 257.631 896.986ZM258.07 839.532C258.07 838.945 258.363 838.359 258.949 838.213C259.682 837.919 260.561 838.213 260.854 839.092C261.001 839.532 261.294 839.971 261.44 840.558C261.733 841.29 261.294 842.17 260.561 842.463C259.828 842.756 258.949 842.316 258.656 841.584C258.51 841.144 258.363 840.704 258.07 840.264C258.07 839.825 258.07 839.678 258.07 839.532ZM262.466 878.518L262.466 878.372C262.466 877.932 262.612 877.346 262.612 876.906C262.759 876.173 263.491 875.587 264.224 875.587C264.956 875.734 265.542 876.466 265.542 877.199C265.542 877.639 265.396 878.225 265.396 878.665C265.249 879.398 264.517 879.984 263.784 879.837C262.905 879.837 262.466 879.251 262.466 878.518ZM262.759 857.999C262.759 857.266 263.345 856.68 264.077 856.533C264.81 856.387 265.542 856.973 265.689 857.852C265.689 858.292 265.835 858.878 265.835 859.318C265.982 860.197 265.396 860.784 264.517 860.93C263.784 861.077 263.052 860.491 262.905 859.611C262.905 859.172 262.759 858.585 262.759 858.146L262.759 857.999ZM263.491 1460.83C263.491 1460.39 263.638 1459.95 263.931 1459.65C264.517 1459.07 265.396 1459.21 265.982 1459.8L267.007 1460.97C267.593 1461.56 267.447 1462.44 266.861 1463.02C266.275 1463.61 265.396 1463.46 264.81 1462.88L263.784 1461.7C263.491 1461.41 263.491 1461.12 263.491 1460.83ZM276.384 1474.9C276.384 1474.46 276.531 1474.16 276.824 1473.87C277.41 1473.28 278.289 1473.28 278.875 1473.87L279.9 1474.9C280.486 1475.48 280.486 1476.36 279.9 1476.95C279.314 1477.53 278.435 1477.53 277.849 1476.95L276.824 1475.92C276.384 1475.63 276.384 1475.34 276.384 1474.9Z" fill="white"/>
<path d="M290.449 1488.82C290.449 1488.53 290.595 1488.09 290.888 1487.79C291.474 1487.21 292.353 1487.21 292.94 1487.65L293.526 1488.09C294.112 1488.67 294.112 1489.55 293.672 1490.14C293.086 1490.73 292.207 1490.73 291.621 1490.29L291.035 1489.85C290.595 1489.7 290.449 1489.26 290.449 1488.82Z" fill="white"/>
<g style="mix-blend-mode:screen" opacity="0.5">
<path d="M25.2673 267.192C25.2673 283.543 38.5174 296.798 54.8622 296.798C71.207 296.798 84.457 283.543 84.457 267.192C84.457 250.84 71.207 237.585 54.8622 237.585C38.5174 237.585 25.2673 250.84 25.2673 267.192Z" fill="url(#paint1_radial)"/>
</g>
<g style="mix-blend-mode:screen" opacity="0.5">
<path d="M89.7311 596.525C89.7311 612.876 102.981 626.131 119.326 626.131C135.671 626.131 148.921 612.876 148.921 596.525C148.921 580.174 135.671 566.919 119.326 566.919C102.981 566.919 89.7311 580.174 89.7311 596.525Z" fill="url(#paint2_radial)"/>
</g>
<g style="mix-blend-mode:screen" opacity="0.5">
<path d="M44.3128 267.191C44.3128 273.02 49.0356 277.744 54.8615 277.744C60.6874 277.744 65.4102 273.02 65.4102 267.191C65.4102 261.363 60.6874 256.639 54.8615 256.639C49.0356 256.639 44.3128 261.363 44.3128 267.191Z" fill="url(#paint3_radial)"/>
</g>
<g style="mix-blend-mode:screen" opacity="0.5">
<path d="M105.701 1228.96C105.701 1245.31 118.951 1258.56 135.296 1258.56C151.641 1258.56 164.891 1245.31 164.891 1228.96C164.891 1212.61 151.641 1199.35 135.296 1199.35C118.951 1199.35 105.701 1212.61 105.701 1228.96Z" fill="url(#paint4_radial)"/>
</g>
<g style="mix-blend-mode:screen" opacity="0.5">
<path d="M124.746 1228.96C124.746 1234.79 129.469 1239.51 135.295 1239.51C141.121 1239.51 145.844 1234.79 145.844 1228.96C145.844 1223.13 141.121 1218.4 135.295 1218.4C129.469 1218.4 124.746 1223.13 124.746 1228.96Z" fill="url(#paint5_radial)"/>
</g>
<g style="mix-blend-mode:screen" opacity="0.99">
<path d="M54.7155 319.662C54.7155 332.856 65.4074 343.552 78.5965 343.552C91.7856 343.552 102.478 332.856 102.478 319.662C102.478 306.468 91.7856 295.771 78.5965 295.771C65.4074 295.771 54.7155 306.468 54.7155 319.662Z" fill="url(#paint6_radial)"/>
</g>
<g style="mix-blend-mode:screen" opacity="0.99">
<path d="M70.0987 319.662C70.0987 324.357 73.9031 328.163 78.5962 328.163C83.2893 328.163 87.0937 324.357 87.0937 319.662C87.0937 314.967 83.2893 311.161 78.5962 311.161C73.9031 311.161 70.0987 314.967 70.0987 319.662Z" fill="url(#paint7_radial)"/>
</g>
<g style="mix-blend-mode:screen" opacity="0.99">
<path d="M0.652998 62.7316C0.652997 82.2396 16.4613 98.054 35.9617 98.054C55.4622 98.054 71.2705 82.2396 71.2705 62.7316C71.2705 43.2236 55.4622 27.4092 35.9617 27.4092C16.4613 27.4092 0.652999 43.2236 0.652998 62.7316Z" fill="url(#paint8_radial)"/>
</g>
<g style="mix-blend-mode:screen" opacity="0.99">
<path d="M23.5084 62.7313C23.5084 69.6117 29.084 75.1894 35.9617 75.1894C42.8395 75.1894 48.415 69.6117 48.415 62.7313C48.415 55.8509 42.8395 50.2732 35.9617 50.2732C29.084 50.2732 23.5084 55.8509 23.5084 62.7313Z" fill="url(#paint9_radial)"/>
</g>
<g style="mix-blend-mode:screen" opacity="0.99">
<path d="M75.6657 600.483C75.6657 619.991 91.474 635.805 110.974 635.805C130.475 635.805 146.283 619.991 146.283 600.483C146.283 580.975 130.475 565.16 110.974 565.16C91.474 565.16 75.6657 580.975 75.6657 600.483Z" fill="url(#paint10_radial)"/>
</g>
<g style="mix-blend-mode:screen" opacity="0.99">
<path d="M98.5211 600.483C98.5211 607.363 104.097 612.941 110.974 612.941C117.852 612.941 123.428 607.363 123.428 600.483C123.428 593.602 117.852 588.025 110.974 588.025C104.097 588.025 98.5211 593.602 98.5211 600.483Z" fill="url(#paint11_radial)"/>
</g>
<g style="mix-blend-mode:screen" opacity="0.99">
<path d="M112.293 559.151C112.293 568.541 119.902 576.153 129.288 576.153C138.674 576.153 146.283 568.541 146.283 559.151C146.283 549.761 138.674 542.149 129.288 542.149C119.902 542.149 112.293 549.761 112.293 559.151Z" fill="url(#paint12_radial)"/>
</g>
<g style="mix-blend-mode:screen" opacity="0.99">
<path d="M123.281 559.151C123.281 562.47 125.971 565.16 129.288 565.16C132.606 565.16 135.295 562.47 135.295 559.151C135.295 555.832 132.606 553.142 129.288 553.142C125.971 553.142 123.281 555.832 123.281 559.151Z" fill="url(#paint13_radial)"/>
</g>
<g style="mix-blend-mode:screen" opacity="0.99">
<path d="M233.75 912.961C233.75 922.351 241.359 929.963 250.745 929.963C260.131 929.963 267.74 922.351 267.74 912.961C267.74 903.571 260.131 895.959 250.745 895.959C241.359 895.959 233.75 903.571 233.75 912.961Z" fill="url(#paint14_radial)"/>
</g>
<g style="mix-blend-mode:screen" opacity="0.99">
<path d="M244.738 912.961C244.738 916.28 247.428 918.97 250.745 918.97C254.063 918.97 256.752 916.28 256.752 912.961C256.752 909.642 254.063 906.952 250.745 906.952C247.428 906.952 244.738 909.642 244.738 912.961Z" fill="url(#paint15_radial)"/>
</g>
<g style="mix-blend-mode:screen" opacity="0.99">
<path d="M247.082 877.785C247.082 887.175 254.691 894.787 264.077 894.787C273.463 894.787 281.072 887.175 281.072 877.785C281.072 868.396 273.463 860.784 264.077 860.784C254.691 860.784 247.082 868.396 247.082 877.785Z" fill="url(#paint16_radial)"/>
</g>
<g style="mix-blend-mode:screen" opacity="0.99">
<path d="M258.07 877.785C258.07 881.104 260.76 883.795 264.077 883.795C267.395 883.795 270.084 881.104 270.084 877.785C270.084 874.467 267.395 871.776 264.077 871.776C260.76 871.776 258.07 874.467 258.07 877.785Z" fill="url(#paint17_radial)"/>
</g>
<g style="mix-blend-mode:screen" opacity="0.99">
<path d="M160.935 1000.31C160.935 1009.7 168.544 1017.32 177.93 1017.32C187.316 1017.32 194.925 1009.7 194.925 1000.31C194.925 990.925 187.316 983.313 177.93 983.313C168.544 983.313 160.935 990.925 160.935 1000.31Z" fill="url(#paint18_radial)"/>
</g>
<g style="mix-blend-mode:screen" opacity="0.99">
<path d="M171.923 1000.31C171.923 1003.63 174.612 1006.32 177.93 1006.32C181.247 1006.32 183.937 1003.63 183.937 1000.31C183.937 996.996 181.247 994.306 177.93 994.306C174.612 994.306 171.923 996.996 171.923 1000.31Z" fill="url(#paint19_radial)"/>
</g>
<g style="mix-blend-mode:screen" opacity="0.99">
<path d="M105.114 1173.12C105.114 1182.51 112.723 1190.12 122.109 1190.12C131.496 1190.12 139.104 1182.51 139.104 1173.12C139.104 1163.73 131.496 1156.11 122.109 1156.11C112.723 1156.11 105.114 1163.73 105.114 1173.12Z" fill="url(#paint20_radial)"/>
</g>
<g style="mix-blend-mode:screen" opacity="0.99">
<path d="M116.102 1173.12C116.102 1176.43 118.792 1179.13 122.109 1179.13C125.427 1179.13 128.116 1176.43 128.116 1173.12C128.116 1169.8 125.427 1167.11 122.109 1167.11C118.792 1167.11 116.102 1169.8 116.102 1173.12Z" fill="url(#paint21_radial)"/>
</g>
<g style="mix-blend-mode:screen" opacity="0.99">
<path d="M224.813 1431.51C224.813 1440.9 232.422 1448.51 241.808 1448.51C251.194 1448.51 258.803 1440.9 258.803 1431.51C258.803 1422.12 251.194 1414.51 241.808 1414.51C232.422 1414.51 224.813 1422.12 224.813 1431.51Z" fill="url(#paint22_radial)"/>
</g>
<g style="mix-blend-mode:screen" opacity="0.99">
<path d="M235.801 1431.51C235.801 1434.83 238.49 1437.52 241.808 1437.52C245.125 1437.52 247.814 1434.83 247.814 1431.51C247.814 1428.19 245.125 1425.5 241.808 1425.5C238.49 1425.5 235.801 1428.19 235.801 1431.51Z" fill="url(#paint23_radial)"/>
</g>
<g style="mix-blend-mode:screen" opacity="0.99">
<path d="M53.3966 769.326C53.3966 778.716 61.0055 786.328 70.3916 786.328C79.7778 786.328 87.3867 778.716 87.3867 769.326C87.3867 759.937 79.7778 752.325 70.3916 752.325C61.0055 752.325 53.3966 759.937 53.3966 769.326Z" fill="url(#paint24_radial)"/>
</g>
<g style="mix-blend-mode:screen" opacity="0.99">
<path d="M64.3847 769.326C64.3847 772.645 67.074 775.336 70.3916 775.336C73.7091 775.336 76.3984 772.645 76.3984 769.326C76.3984 766.008 73.7091 763.317 70.3916 763.317C67.074 763.317 64.3847 766.008 64.3847 769.326Z" fill="url(#paint25_radial)"/>
</g>
<g style="mix-blend-mode:screen" opacity="0.99">
<path d="M116.835 785.449C116.835 789.82 120.377 793.363 124.747 793.363C129.116 793.363 132.658 789.82 132.658 785.449C132.658 781.078 129.116 777.534 124.747 777.534C120.377 777.534 116.835 781.078 116.835 785.449Z" fill="url(#paint26_radial)"/>
</g>
<g style="mix-blend-mode:screen" opacity="0.99">
<path d="M124.16 521.483C124.16 525.854 127.703 529.398 132.072 529.398C136.441 529.398 139.983 525.854 139.983 521.483C139.983 517.112 136.441 513.569 132.072 513.569C127.703 513.569 124.16 517.112 124.16 521.483Z" fill="url(#paint27_radial)"/>
</g>
<defs>
<linearGradient id="paint0_linear" x1="-72.8131" y1="748.272" x2="382.82" y2="748.272" gradientUnits="userSpaceOnUse">
<stop stop-color="#BD13FF"/>
<stop offset="0.1828" stop-color="#A93995"/>
<stop offset="0.5233" stop-color="#310542"/>
<stop offset="0.9815" stop-color="#020100"/>
<stop offset="1"/>
</linearGradient>
<radialGradient id="paint1_radial" cx="0" cy="0" r="1" gradientUnits="userSpaceOnUse" gradientTransform="translate(54.8939 267.17) rotate(90) scale(29.6681 29.6566)">
<stop stop-color="#FFA7FF"/>
<stop offset="0.0382804" stop-color="#F19EF1"/>
<stop offset="0.2481" stop-color="#A96FA9"/>
<stop offset="0.4456" stop-color="#6D476D"/>
<stop offset="0.6251" stop-color="#3E283E"/>
<stop offset="0.783" stop-color="#1C121C"/>
<stop offset="0.9133" stop-color="#070507"/>
<stop offset="1"/>
</radialGradient>
<radialGradient id="paint2_radial" cx="0" cy="0" r="1" gradientUnits="userSpaceOnUse" gradientTransform="translate(119.342 596.469) rotate(90) scale(29.6681 29.6566)">
<stop stop-color="#FFA7FF"/>
<stop offset="0.0382804" stop-color="#F19EF1"/>
<stop offset="0.2481" stop-color="#A96FA9"/>
<stop offset="0.4456" stop-color="#6D476D"/>
<stop offset="0.6251" stop-color="#3E283E"/>
<stop offset="0.783" stop-color="#1C121C"/>
<stop offset="0.9133" stop-color="#070507"/>
<stop offset="1"/>
</radialGradient>
<radialGradient id="paint3_radial" cx="0" cy="0" r="1" gradientUnits="userSpaceOnUse" gradientTransform="translate(54.8933 267.17) rotate(90) scale(10.5453 10.5412)">
<stop stop-color="#FFA7FF"/>
<stop offset="0.0382804" stop-color="#F19EF1"/>
<stop offset="0.2481" stop-color="#A96FA9"/>
<stop offset="0.4456" stop-color="#6D476D"/>
<stop offset="0.6251" stop-color="#3E283E"/>
<stop offset="0.783" stop-color="#1C121C"/>
<stop offset="0.9133" stop-color="#070507"/>
<stop offset="1"/>
</radialGradient>
<radialGradient id="paint4_radial" cx="0" cy="0" r="1" gradientUnits="userSpaceOnUse" gradientTransform="translate(135.239 1228.98) rotate(90) scale(29.6681 29.6566)">
<stop stop-color="#FFA7FF"/>
<stop offset="0.0382804" stop-color="#F19EF1"/>
<stop offset="0.2481" stop-color="#A96FA9"/>
<stop offset="0.4456" stop-color="#6D476D"/>
<stop offset="0.6251" stop-color="#3E283E"/>
<stop offset="0.783" stop-color="#1C121C"/>
<stop offset="0.9133" stop-color="#070507"/>
<stop offset="1"/>
</radialGradient>
<radialGradient id="paint5_radial" cx="0" cy="0" r="1" gradientUnits="userSpaceOnUse" gradientTransform="translate(135.239 1228.98) rotate(90) scale(10.5453 10.5412)">
<stop stop-color="#FFA7FF"/>
<stop offset="0.0382804" stop-color="#F19EF1"/>
<stop offset="0.2481" stop-color="#A96FA9"/>
<stop offset="0.4456" stop-color="#6D476D"/>
<stop offset="0.6251" stop-color="#3E283E"/>
<stop offset="0.783" stop-color="#1C121C"/>
<stop offset="0.9133" stop-color="#070507"/>
<stop offset="1"/>
</radialGradient>
<radialGradient id="paint6_radial" cx="0" cy="0" r="1" gradientUnits="userSpaceOnUse" gradientTransform="translate(78.6119 319.713) rotate(90) scale(23.9331 23.9238)">
<stop stop-color="#FF1D92"/>
<stop offset="0.0382804" stop-color="#F11B8A"/>
<stop offset="0.2481" stop-color="#A91361"/>
<stop offset="0.4456" stop-color="#6D0C3E"/>
<stop offset="0.6251" stop-color="#3E0723"/>
<stop offset="0.783" stop-color="#1C0310"/>
<stop offset="0.9133" stop-color="#070104"/>
<stop offset="1"/>
</radialGradient>
<radialGradient id="paint7_radial" cx="0" cy="0" r="1" gradientUnits="userSpaceOnUse" gradientTransform="translate(78.6116 319.713) rotate(90) scale(8.50683 8.50355)">
<stop stop-color="#FF1D92"/>
<stop offset="0.0382804" stop-color="#F11B8A"/>
<stop offset="0.2481" stop-color="#A91361"/>
<stop offset="0.4456" stop-color="#6D0C3E"/>
<stop offset="0.6251" stop-color="#3E0723"/>
<stop offset="0.783" stop-color="#1C0310"/>
<stop offset="0.9133" stop-color="#070104"/>
<stop offset="1"/>
</radialGradient>
<radialGradient id="paint8_radial" cx="0" cy="0" r="1" gradientUnits="userSpaceOnUse" gradientTransform="translate(35.932 62.6664) rotate(90) scale(35.2502 35.2365)">
<stop stop-color="#FF1D92"/>
<stop offset="0.0382804" stop-color="#F11B8A"/>
<stop offset="0.2481" stop-color="#A91361"/>
<stop offset="0.4456" stop-color="#6D0C3E"/>
<stop offset="0.6251" stop-color="#3E0723"/>
<stop offset="0.783" stop-color="#1C0310"/>
<stop offset="0.9133" stop-color="#070104"/>
<stop offset="1"/>
</radialGradient>
<radialGradient id="paint9_radial" cx="0" cy="0" r="1" gradientUnits="userSpaceOnUse" gradientTransform="translate(35.932 62.6661) rotate(90) scale(12.5295 12.5247)">
<stop stop-color="#FF1D92"/>
<stop offset="0.0382804" stop-color="#F11B8A"/>
<stop offset="0.2481" stop-color="#A91361"/>
<stop offset="0.4456" stop-color="#6D0C3E"/>
<stop offset="0.6251" stop-color="#3E0723"/>
<stop offset="0.783" stop-color="#1C0310"/>
<stop offset="0.9133" stop-color="#070104"/>
<stop offset="1"/>
</radialGradient>
<radialGradient id="paint10_radial" cx="0" cy="0" r="1" gradientUnits="userSpaceOnUse" gradientTransform="translate(110.921 600.505) rotate(90) scale(35.2502 35.2365)">
<stop stop-color="#FF1D92"/>
<stop offset="0.0382804" stop-color="#F11B8A"/>
<stop offset="0.2481" stop-color="#A91361"/>
<stop offset="0.4456" stop-color="#6D0C3E"/>
<stop offset="0.6251" stop-color="#3E0723"/>
<stop offset="0.783" stop-color="#1C0310"/>
<stop offset="0.9133" stop-color="#070104"/>
<stop offset="1"/>
</radialGradient>
<radialGradient id="paint11_radial" cx="0" cy="0" r="1" gradientUnits="userSpaceOnUse" gradientTransform="translate(110.921 600.505) rotate(90) scale(12.5295 12.5246)">
<stop stop-color="#FF1D92"/>
<stop offset="0.0382804" stop-color="#F11B8A"/>
<stop offset="0.2481" stop-color="#A91361"/>
<stop offset="0.4456" stop-color="#6D0C3E"/>
<stop offset="0.6251" stop-color="#3E0723"/>
<stop offset="0.783" stop-color="#1C0310"/>
<stop offset="0.9133" stop-color="#070104"/>
<stop offset="1"/>
</radialGradient>
<radialGradient id="paint12_radial" cx="0" cy="0" r="1" gradientUnits="userSpaceOnUse" gradientTransform="translate(129.296 559.124) rotate(90) scale(17.0345 17.0279)">
<stop stop-color="#FF1D92"/>
<stop offset="0.0382804" stop-color="#F11B8A"/>
<stop offset="0.2481" stop-color="#A91361"/>
<stop offset="0.4456" stop-color="#6D0C3E"/>
<stop offset="0.6251" stop-color="#3E0723"/>
<stop offset="0.783" stop-color="#1C0310"/>
<stop offset="0.9133" stop-color="#070104"/>
<stop offset="1"/>
</radialGradient>
<radialGradient id="paint13_radial" cx="0" cy="0" r="1" gradientUnits="userSpaceOnUse" gradientTransform="translate(129.296 559.124) rotate(90) scale(6.0548 6.05244)">
<stop stop-color="#FF1D92"/>
<stop offset="0.0382804" stop-color="#F11B8A"/>
<stop offset="0.2481" stop-color="#A91361"/>
<stop offset="0.4456" stop-color="#6D0C3E"/>
<stop offset="0.6251" stop-color="#3E0723"/>
<stop offset="0.783" stop-color="#1C0310"/>
<stop offset="0.9133" stop-color="#070104"/>
<stop offset="1"/>
</radialGradient>
<radialGradient id="paint14_radial" cx="0" cy="0" r="1" gradientUnits="userSpaceOnUse" gradientTransform="translate(250.712 913.024) rotate(90) scale(17.0345 17.0279)">
<stop stop-color="#FF1D92"/>
<stop offset="0.0382804" stop-color="#F11B8A"/>
<stop offset="0.2481" stop-color="#A91361"/>
<stop offset="0.4456" stop-color="#6D0C3E"/>
<stop offset="0.6251" stop-color="#3E0723"/>
<stop offset="0.783" stop-color="#1C0310"/>
<stop offset="0.9133" stop-color="#070104"/>
<stop offset="1"/>
</radialGradient>
<radialGradient id="paint15_radial" cx="0" cy="0" r="1" gradientUnits="userSpaceOnUse" gradientTransform="translate(250.712 913.024) rotate(90) scale(6.0548 6.05245)">
<stop stop-color="#FF1D92"/>
<stop offset="0.0382804" stop-color="#F11B8A"/>
<stop offset="0.2481" stop-color="#A91361"/>
<stop offset="0.4456" stop-color="#6D0C3E"/>
<stop offset="0.6251" stop-color="#3E0723"/>
<stop offset="0.783" stop-color="#1C0310"/>
<stop offset="0.9133" stop-color="#070104"/>
<stop offset="1"/>
</radialGradient>
<radialGradient id="paint16_radial" cx="0" cy="0" r="1" gradientUnits="userSpaceOnUse" gradientTransform="translate(264.015 877.79) rotate(90) scale(17.0345 17.0279)">
<stop stop-color="#FF1D92"/>
<stop offset="0.0382804" stop-color="#F11B8A"/>
<stop offset="0.2481" stop-color="#A91361"/>
<stop offset="0.4456" stop-color="#6D0C3E"/>
<stop offset="0.6251" stop-color="#3E0723"/>
<stop offset="0.783" stop-color="#1C0310"/>
<stop offset="0.9133" stop-color="#070104"/>
<stop offset="1"/>
</radialGradient>
<radialGradient id="paint17_radial" cx="0" cy="0" r="1" gradientUnits="userSpaceOnUse" gradientTransform="translate(264.015 877.79) rotate(90) scale(6.05483 6.05245)">
<stop stop-color="#FF1D92"/>
<stop offset="0.0382804" stop-color="#F11B8A"/>
<stop offset="0.2481" stop-color="#A91361"/>
<stop offset="0.4456" stop-color="#6D0C3E"/>
<stop offset="0.6251" stop-color="#3E0723"/>
<stop offset="0.783" stop-color="#1C0310"/>
<stop offset="0.9133" stop-color="#070104"/>
<stop offset="1"/>
</radialGradient>
<radialGradient id="paint18_radial" cx="0" cy="0" r="1" gradientUnits="userSpaceOnUse" gradientTransform="translate(177.97 1000.3) rotate(90) scale(17.0345 17.0279)">
<stop stop-color="#FF1D92"/>
<stop offset="0.0382804" stop-color="#F11B8A"/>
<stop offset="0.2481" stop-color="#A91361"/>
<stop offset="0.4456" stop-color="#6D0C3E"/>
<stop offset="0.6251" stop-color="#3E0723"/>
<stop offset="0.783" stop-color="#1C0310"/>
<stop offset="0.9133" stop-color="#070104"/>
<stop offset="1"/>
</radialGradient>
<radialGradient id="paint19_radial" cx="0" cy="0" r="1" gradientUnits="userSpaceOnUse" gradientTransform="translate(177.969 1000.3) rotate(90) scale(6.0548 6.05245)">
<stop stop-color="#FF1D92"/>
<stop offset="0.0382804" stop-color="#F11B8A"/>
<stop offset="0.2481" stop-color="#A91361"/>
<stop offset="0.4456" stop-color="#6D0C3E"/>
<stop offset="0.6251" stop-color="#3E0723"/>
<stop offset="0.783" stop-color="#1C0310"/>
<stop offset="0.9133" stop-color="#070104"/>
<stop offset="1"/>
</radialGradient>
<radialGradient id="paint20_radial" cx="0" cy="0" r="1" gradientUnits="userSpaceOnUse" gradientTransform="translate(122.075 1173.14) rotate(90) scale(17.0345 17.0279)">
<stop stop-color="#FF1D92"/>
<stop offset="0.0382804" stop-color="#F11B8A"/>
<stop offset="0.2481" stop-color="#A91361"/>
<stop offset="0.4456" stop-color="#6D0C3E"/>
<stop offset="0.6251" stop-color="#3E0723"/>
<stop offset="0.783" stop-color="#1C0310"/>
<stop offset="0.9133" stop-color="#070104"/>
<stop offset="1"/>
</radialGradient>
<radialGradient id="paint21_radial" cx="0" cy="0" r="1" gradientUnits="userSpaceOnUse" gradientTransform="translate(122.074 1173.14) rotate(90) scale(6.0548 6.05245)">
<stop stop-color="#FF1D92"/>
<stop offset="0.0382804" stop-color="#F11B8A"/>
<stop offset="0.2481" stop-color="#A91361"/>
<stop offset="0.4456" stop-color="#6D0C3E"/>
<stop offset="0.6251" stop-color="#3E0723"/>
<stop offset="0.783" stop-color="#1C0310"/>
<stop offset="0.9133" stop-color="#070104"/>
<stop offset="1"/>
</radialGradient>
<radialGradient id="paint22_radial" cx="0" cy="0" r="1" gradientUnits="userSpaceOnUse" gradientTransform="translate(241.852 1431.58) rotate(90) scale(17.0345 17.0279)">
<stop stop-color="#FF1D92"/>
<stop offset="0.0382804" stop-color="#F11B8A"/>
<stop offset="0.2481" stop-color="#A91361"/>
<stop offset="0.4456" stop-color="#6D0C3E"/>
<stop offset="0.6251" stop-color="#3E0723"/>
<stop offset="0.783" stop-color="#1C0310"/>
<stop offset="0.9133" stop-color="#070104"/>
<stop offset="1"/>
</radialGradient>
<radialGradient id="paint23_radial" cx="0" cy="0" r="1" gradientUnits="userSpaceOnUse" gradientTransform="translate(241.852 1431.58) rotate(90) scale(6.05474 6.05245)">
<stop stop-color="#FF1D92"/>
<stop offset="0.0382804" stop-color="#F11B8A"/>
<stop offset="0.2481" stop-color="#A91361"/>
<stop offset="0.4456" stop-color="#6D0C3E"/>
<stop offset="0.6251" stop-color="#3E0723"/>
<stop offset="0.783" stop-color="#1C0310"/>
<stop offset="0.9133" stop-color="#070104"/>
<stop offset="1"/>
</radialGradient>
<radialGradient id="paint24_radial" cx="0" cy="0" r="1" gradientUnits="userSpaceOnUse" gradientTransform="translate(70.434 769.355) rotate(90) scale(17.0345 17.0279)">
<stop stop-color="#FF1D92"/>
<stop offset="0.0382804" stop-color="#F11B8A"/>
<stop offset="0.2481" stop-color="#A91361"/>
<stop offset="0.4456" stop-color="#6D0C3E"/>
<stop offset="0.6251" stop-color="#3E0723"/>
<stop offset="0.783" stop-color="#1C0310"/>
<stop offset="0.9133" stop-color="#070104"/>
<stop offset="1"/>
</radialGradient>
<radialGradient id="paint25_radial" cx="0" cy="0" r="1" gradientUnits="userSpaceOnUse" gradientTransform="translate(70.4339 769.355) rotate(90) scale(6.05483 6.05244)">
<stop stop-color="#FF1D92"/>
<stop offset="0.0382804" stop-color="#F11B8A"/>
<stop offset="0.2481" stop-color="#A91361"/>
<stop offset="0.4456" stop-color="#6D0C3E"/>
<stop offset="0.6251" stop-color="#3E0723"/>
<stop offset="0.783" stop-color="#1C0310"/>
<stop offset="0.9133" stop-color="#070104"/>
<stop offset="1"/>
</radialGradient>
<radialGradient id="paint26_radial" cx="0" cy="0" r="1" gradientUnits="userSpaceOnUse" gradientTransform="translate(124.706 785.384) rotate(90) scale(7.85036 7.84733)">
<stop stop-color="#FF1D92"/>
<stop offset="0.0382804" stop-color="#F11B8A"/>
<stop offset="0.2481" stop-color="#A91361"/>
<stop offset="0.4456" stop-color="#6D0C3E"/>
<stop offset="0.6251" stop-color="#3E0723"/>
<stop offset="0.783" stop-color="#1C0310"/>
<stop offset="0.9133" stop-color="#070104"/>
<stop offset="1"/>
</radialGradient>
<radialGradient id="paint27_radial" cx="0" cy="0" r="1" gradientUnits="userSpaceOnUse" gradientTransform="translate(132.071 521.445) rotate(90) scale(7.85036 7.84733)">
<stop stop-color="#FF1D92"/>
<stop offset="0.0382804" stop-color="#F11B8A"/>
<stop offset="0.2481" stop-color="#A91361"/>
<stop offset="0.4456" stop-color="#6D0C3E"/>
<stop offset="0.6251" stop-color="#3E0723"/>
<stop offset="0.783" stop-color="#1C0310"/>
<stop offset="0.9133" stop-color="#070104"/>
<stop offset="1"/>
</radialGradient>
</defs>
</svg>
