<svg width="199" height="1497" viewBox="0 0 199 1497" fill="none" xmlns="http://www.w3.org/2000/svg">
<g style="mix-blend-mode:screen">
<path d="M40.2857 0.732903C38.1397 3.22453 12.0955 35.3225 10.7299 146.126C10.7299 147.446 10.7299 148.911 10.7299 150.23C10.7299 205.339 24.1909 249.162 39.7004 299.874C55.0148 350.293 72.3776 407.161 79.9861 488.065C88.9601 583.48 64.0864 623.346 44.0899 655.444C30.4337 677.282 17.6555 697.948 20.5818 729.606C25.459 781.051 66.3299 790.578 102.421 799.078C128.563 805.234 155.485 811.536 163.581 832.349C174.409 860.343 180.261 908.417 107.396 1002.37C84.7657 1031.53 73.0604 1072.86 72.5727 1125.48C72.5727 1126.65 72.5727 1127.83 72.5727 1129.15C72.5727 1204.19 94.8127 1283.48 113.444 1336.68C135.684 1400.29 165.142 1461.12 190.211 1495.56L197.917 1482.81C185.919 1466.39 172.848 1443.68 159.972 1417.29C146.706 1389.74 133.928 1358.67 123.003 1327.45C111.103 1293.15 101.738 1259.3 95.1053 1226.9C87.7895 1191.14 84.0829 1158.17 84.0829 1129C84.0829 1127.97 84.0829 1126.8 84.0829 1125.77C84.5706 1078.43 94.9103 1041.35 114.907 1015.56C175.286 937.583 193.917 876.612 173.531 823.701C162.801 795.854 134.318 789.112 104.274 782.077C70.5243 774.162 35.7011 765.954 32.092 727.114C29.8485 703.664 39.4078 688.274 52.5762 667.169C73.158 634.192 101.251 589.049 91.4962 485.573C83.5952 402.324 65.8422 344.137 50.1376 292.839L50.1376 292.693C34.8232 242.713 21.6548 199.477 22.3376 146.42C23.5081 46.6081 45.6506 16.7086 47.3089 14.6567L43.8948 7.76808L40.2857 0.732903Z" fill="url(#paint0_linear)"/>
</g>
<path d="M10.3397 150.23C10.3397 148.911 10.3397 147.446 10.3397 146.126C11.7053 32.9774 38.9201 1.6123 40.0906 0.439772L40.1882 0.293206L43.6997 7.47494L47.3089 14.6567L47.2113 14.8032C47.0162 15.0964 23.5082 43.5302 22.2401 146.42C21.5573 199.477 34.8232 242.567 50.0401 292.546L50.0401 292.693C65.7447 343.991 83.5952 402.324 91.3987 485.573C101.153 589.342 72.9629 634.485 52.4787 667.462C39.3102 688.567 29.8485 703.81 32.092 727.114C35.7011 765.661 70.5243 773.869 104.079 781.784C134.22 788.819 162.703 795.561 173.531 823.701C194.015 876.758 175.384 937.876 114.907 1016C95.0078 1041.65 84.6682 1078.73 84.1804 1125.92C84.1804 1126.95 84.1804 1128.12 84.1804 1129.15C84.1804 1251.67 150.51 1417.73 198.112 1482.81L198.209 1482.96L190.211 1496.29L190.113 1496.15C164.947 1461.7 135.489 1400.73 113.151 1337.12C94.5201 1283.77 72.2801 1204.48 72.2801 1129.44C72.2801 1128.27 72.2801 1127.09 72.2801 1125.77C72.7678 1073.16 84.4731 1031.68 107.201 1002.37C179.871 908.27 174.018 860.49 163.289 832.642C155.29 811.976 128.368 805.674 102.324 799.518C66.1348 791.017 25.1664 781.344 20.2892 729.753C17.2653 697.948 30.1411 677.135 43.7973 655.297C63.7938 623.199 88.6675 583.333 79.6934 488.212C72.085 407.454 54.6247 350.586 39.3103 300.314C23.8008 249.309 10.3397 205.339 10.3397 150.23ZM40.1882 0.732904C38.0422 3.22453 11.998 35.3225 10.6324 146.126C10.6324 147.446 10.6324 148.911 10.6324 150.23C10.6324 205.339 24.0934 249.162 39.6029 299.874C55.0148 350.146 72.3777 407.161 79.9861 487.919C88.9601 583.333 64.0864 623.199 44.0899 655.297C30.4338 677.135 17.6555 697.801 20.5818 729.459C25.459 780.904 66.3299 790.431 102.421 798.932C128.563 805.088 155.485 811.39 163.581 832.202C174.409 860.196 180.261 908.27 107.396 1002.22C84.7657 1031.39 73.0604 1072.72 72.5727 1125.33C72.5727 1126.51 72.5727 1127.68 72.5727 1129C72.5727 1204.04 94.8127 1283.33 113.444 1336.54C135.684 1400.15 165.142 1460.97 190.211 1495.41L197.917 1482.66C185.919 1466.25 172.848 1443.53 159.972 1417.15C146.706 1389.74 133.928 1358.67 123.003 1327.3C111.103 1293.01 101.738 1259.15 95.1053 1226.76C87.7896 1191 84.0829 1158.02 84.0829 1128.85C84.0829 1127.83 84.0829 1126.65 84.0829 1125.63C84.5706 1078.29 94.9103 1041.21 114.907 1015.41C175.286 937.437 193.917 876.465 173.531 823.555C162.801 795.707 134.318 788.965 104.275 781.93C70.5243 774.016 35.7011 765.808 32.092 726.968C29.8485 703.517 39.4078 688.128 52.5762 667.022C73.158 634.045 101.251 588.903 91.4963 485.427C83.5952 402.177 65.8422 343.991 50.1376 292.693L50.1376 292.546C34.8232 242.567 21.6548 199.33 22.3376 146.273C23.5082 46.4615 45.6506 16.562 47.3089 14.5101L43.8948 7.62151L40.1882 0.732904Z" fill="#BAC9FB"/>
<path d="M10.5348 149.937C10.5348 148.618 10.5348 147.152 10.5348 145.833C11.9004 32.6842 39.1152 1.31909 40.2857 0.146559L40.3833 -6.90732e-06L43.8948 7.18173L47.504 14.3635L47.4064 14.51C47.2113 14.8032 23.7032 43.237 22.4352 146.126C21.7524 199.183 35.0183 242.274 50.2352 292.253L50.2352 292.399C65.9398 343.697 83.7903 402.031 91.5938 485.28C101.348 589.049 73.158 634.191 52.6738 667.169C39.5053 688.274 30.0436 703.517 32.2871 726.821C35.8962 765.368 70.7194 773.576 104.274 781.49C134.416 788.526 162.898 795.268 173.726 823.408C194.21 876.465 175.579 937.583 115.102 1015.7C95.2029 1041.35 84.8632 1078.43 84.3755 1125.63C84.3755 1126.65 84.3755 1127.83 84.3755 1128.85C84.3755 1251.38 150.705 1417.44 198.307 1482.52L198.404 1482.66L190.406 1496L190.308 1495.85C165.142 1461.41 135.684 1400.44 113.346 1336.83C94.7152 1283.48 72.4751 1204.19 72.4751 1129.15C72.4751 1127.97 72.4751 1126.8 72.4751 1125.48C72.9629 1072.86 84.6681 1031.39 107.396 1002.07C180.164 908.27 174.311 860.343 163.484 832.495C155.485 811.83 128.563 805.527 102.519 799.371C66.3299 790.871 25.3615 781.197 20.4843 729.606C17.4604 697.801 30.3362 676.989 43.9923 655.15C63.9888 623.052 88.8626 583.186 79.8885 488.065C72.2801 407.307 54.8197 350.44 39.5053 300.167C23.9959 249.016 10.5348 205.193 10.5348 149.937ZM40.3833 0.586257C38.2373 2.93131 12.0955 35.1758 10.8274 145.833C10.8274 147.152 10.8274 148.618 10.8274 149.937C10.8274 205.046 24.2885 248.869 39.798 299.581C55.2099 349.853 72.5727 406.867 80.1812 487.625C89.1552 583.04 64.2815 622.906 44.285 655.004C30.6288 676.842 17.8506 697.508 20.7769 729.166C25.6541 780.611 66.525 790.138 102.616 798.639C128.758 804.794 155.68 811.097 163.776 831.909C174.604 859.903 180.456 907.977 107.591 1001.93C84.9608 1031.09 73.2555 1072.42 72.7678 1125.04C72.7678 1126.21 72.7678 1127.39 72.7678 1128.71C72.7678 1203.75 95.0078 1283.04 113.639 1336.24C135.879 1399.85 165.337 1460.68 190.406 1495.12L198.112 1482.37C186.114 1465.95 173.043 1443.24 160.167 1416.85C146.804 1389.45 134.025 1358.52 123.198 1327.16C111.298 1292.86 101.836 1259 95.2029 1226.61C87.8871 1190.85 84.1804 1157.87 84.1804 1128.71C84.1804 1127.68 84.1804 1126.51 84.1804 1125.48C84.6682 1078.14 95.0078 1041.06 115.004 1015.26C175.384 937.29 194.015 876.319 173.628 823.408C162.898 795.561 134.416 788.819 104.372 781.784C70.6218 773.869 35.7987 765.661 32.1895 726.821C29.946 703.371 39.5053 687.981 52.6738 666.876C73.2555 633.898 101.348 588.756 91.5938 485.28C83.6927 402.031 65.9398 343.844 50.2352 292.546L50.2352 292.399C34.9208 242.42 21.7524 199.183 22.4352 146.126C23.6057 46.3149 45.7482 16.4154 47.4064 14.3635L43.9924 7.47486L40.3833 0.586257Z" fill="#BAC9FB"/>
<path d="M39.5054 12.1651C39.5054 11.7254 39.6029 11.2857 39.8955 10.9925C40.1882 10.6994 40.3832 10.4063 40.3832 10.4063C40.871 9.96657 41.4562 10.1131 41.7489 10.846C42.0415 11.4322 41.9439 12.4582 41.5538 12.8979C41.5538 12.8979 41.4562 13.0445 41.2611 13.3376C40.871 13.9239 40.1882 13.7773 39.8955 13.191C39.6029 12.8979 39.5054 12.6048 39.5054 12.1651Z" fill="white"/>
<path d="M15.6071 156.093C15.6071 155.36 15.9973 154.627 16.5825 154.627C17.1678 154.627 17.558 155.214 17.558 156.093L17.558 157.559C17.558 158.438 17.1678 159.024 16.5825 159.024C15.9973 159.024 15.6071 158.438 15.6071 157.559L15.6071 156.093ZM15.7046 138.359L15.7046 136.893C15.7046 136.013 16.1923 135.427 16.6801 135.427C17.2653 135.427 17.6555 136.16 17.6555 136.893L17.6555 138.359C17.6555 139.238 17.1678 139.824 16.68 139.824C16.0948 139.824 15.7046 139.238 15.7046 138.359ZM16.3874 119.305L16.485 117.693C16.485 116.813 16.9727 116.227 17.558 116.374C18.0457 116.374 18.5334 117.106 18.4358 117.986L18.3383 119.451C18.3383 120.331 17.8506 120.917 17.2653 120.771C16.7776 120.771 16.3874 120.038 16.3874 119.305ZM16.485 175.147C16.485 174.414 16.8751 173.827 17.3629 173.681C17.8506 173.534 18.3383 174.121 18.4358 175L18.5334 176.466C18.6309 177.345 18.2408 177.931 17.6555 178.078C17.1678 178.224 16.6801 177.638 16.5825 176.759L16.485 175.293L16.485 175.147ZM17.6555 100.251L17.6555 100.105L17.753 98.6391C17.8506 97.9063 18.3383 97.32 18.826 97.32C19.3137 97.4666 19.7039 98.1994 19.7039 98.9322L19.6064 100.398C19.5088 101.131 19.0211 101.717 18.5334 101.717C17.9481 101.717 17.6555 100.984 17.6555 100.251ZM18.5334 193.907C18.5334 193.174 18.826 192.588 19.3137 192.441C19.8015 192.295 20.3867 192.735 20.4843 193.614L20.6794 195.08C20.7769 195.812 20.4843 196.692 19.899 196.838C19.4113 196.985 18.826 196.545 18.7285 195.666L18.5334 194.2C18.5334 194.2 18.5334 194.054 18.5334 193.907ZM19.6064 81.3443C19.6064 81.1977 19.6064 81.1977 19.6064 81.0512L19.8015 79.5855C19.899 78.8527 20.3867 78.2664 20.972 78.413C21.4597 78.5595 21.8499 79.2924 21.7523 80.1718L21.5572 81.6374C21.4597 82.3703 20.972 82.9565 20.3867 82.81C19.899 82.6634 19.6064 82.0771 19.6064 81.3443ZM21.5572 212.521C21.5572 211.935 21.8499 211.348 22.2401 211.055C22.7278 210.762 23.3131 211.348 23.4106 212.081L23.7032 213.547C23.8983 214.28 23.5081 215.159 23.0204 215.306C22.5327 215.452 21.9474 215.013 21.8499 214.28L21.5572 212.814C21.6548 212.814 21.5572 212.668 21.5572 212.521ZM22.3376 62.7304C22.3376 62.5838 22.3376 62.4373 22.3376 62.2907L22.6302 60.825C22.7278 60.0922 23.313 59.6525 23.8008 59.7991C24.2885 59.9456 24.5811 60.825 24.4836 61.5579L24.1909 63.0235C24.0934 63.7564 23.5081 64.1961 23.0204 64.0495C22.6302 63.9029 22.3376 63.3167 22.3376 62.7304ZM25.0688 722.131C25.0688 721.398 25.459 720.666 26.0443 720.666C26.6295 720.666 27.0197 721.252 27.0197 722.131C27.0197 722.571 27.0197 723.011 27.0197 723.597C27.0197 724.33 26.6295 725.062 26.1418 725.209C25.5565 725.209 25.1664 724.623 25.0688 723.89C25.0688 723.157 25.0688 722.717 25.0688 722.131ZM25.459 230.695C25.459 230.109 25.7516 229.523 26.1418 229.376C26.6295 229.083 27.2148 229.523 27.4099 230.255L27.7025 231.575C27.8976 232.307 27.605 233.187 27.1173 233.48C26.6295 233.773 26.0443 233.333 25.8492 232.6L25.5566 231.281C25.459 230.988 25.459 230.842 25.459 230.695ZM26.3369 44.5562C26.3369 44.4096 26.3369 44.2631 26.4344 43.9699L26.8246 42.6508C27.0197 41.918 27.605 41.4783 28.0927 41.7715C28.5804 42.0646 28.8731 42.944 28.678 43.6768L28.2878 44.9959C28.0927 45.7287 27.5074 46.1684 27.0197 45.8753C26.532 45.7287 26.3369 45.1425 26.3369 44.5562ZM26.6295 704.69C26.6295 704.543 26.6295 704.397 26.6295 704.25C26.7271 703.81 26.8246 703.224 26.9222 702.784C27.1172 702.052 27.7025 701.612 28.1902 701.905C28.6779 702.198 28.9706 703.078 28.7755 703.81C28.678 704.25 28.5804 704.69 28.4829 705.13C28.2878 705.862 27.8001 706.302 27.2148 706.009C26.9222 706.009 26.6295 705.423 26.6295 704.69ZM27.7025 740.599C27.7025 740.012 27.8976 739.426 28.2878 739.279C28.7755 738.986 29.3607 739.279 29.5558 740.012C29.6534 740.452 29.8485 740.892 29.946 741.331C30.1411 742.064 29.946 742.944 29.4583 743.237C28.9706 743.53 28.3853 743.237 28.1902 742.504C28.0927 742.064 27.8976 741.625 27.8 741.185C27.7025 741.038 27.7025 740.745 27.7025 740.599ZM29.946 248.576C29.946 247.99 30.1411 247.404 30.5313 247.257C31.019 246.964 31.6043 247.257 31.7994 248.136L32.1896 249.456C32.3846 250.188 32.1895 251.068 31.6043 251.361C31.1166 251.654 30.5313 251.361 30.3362 250.628L29.946 249.309C30.0436 249.016 29.946 248.723 29.946 248.576ZM31.7018 27.2614C31.7018 26.9683 31.7018 26.8217 31.7994 26.5286C31.9945 26.0889 32.092 25.6492 32.2871 25.2095C32.5797 24.4767 33.165 24.3301 33.6527 24.7698C34.1404 25.2095 34.238 26.0889 33.9453 26.8217C33.7502 27.2614 33.6527 27.7011 33.4576 28.1408C33.165 28.8736 32.5797 29.0202 32.092 28.7271C31.8969 28.2874 31.7018 27.8477 31.7018 27.2614ZM32.3846 687.688C32.3846 687.395 32.4822 687.102 32.5797 686.809C32.7748 686.369 32.9699 685.929 33.165 685.636C33.4576 684.903 34.0428 684.757 34.5306 685.343C35.0183 685.783 35.1158 686.662 34.7257 687.395C34.5306 687.835 34.3355 688.128 34.1404 688.568C33.8478 689.3 33.2625 689.447 32.7748 689.007C32.4821 688.714 32.3846 688.274 32.3846 687.688ZM34.7257 756.281C34.7257 755.841 34.8232 755.548 35.0183 755.255C35.4085 754.669 35.9937 754.669 36.3839 755.255C36.579 755.548 36.8716 755.988 37.0667 756.281C37.4569 756.867 37.4569 757.747 37.0667 758.333C36.6765 758.919 36.0913 758.919 35.7011 758.333C35.506 758.04 35.2134 757.6 35.0183 757.307C34.8232 757.014 34.7257 756.721 34.7257 756.281ZM34.9208 266.164C34.9208 265.578 35.1159 264.992 35.506 264.845C35.9937 264.552 36.579 264.845 36.7741 265.578L37.1643 266.897C37.3594 267.63 37.1643 268.509 36.6766 268.802C36.1888 269.095 35.6036 268.802 35.4085 268.069L35.0183 266.75C34.9208 266.604 34.9208 266.457 34.9208 266.164ZM40.1881 283.605C40.1881 283.019 40.3832 282.58 40.7734 282.286C41.2611 281.993 41.8464 282.286 42.0415 283.019L42.4317 284.338C42.6267 285.071 42.4317 285.951 41.9439 286.244C41.4562 286.537 40.8709 286.244 40.6759 285.511L40.2857 284.192C40.1881 284.045 40.1881 283.899 40.1881 283.605ZM40.2857 672.738C40.2857 672.445 40.3832 672.006 40.5783 671.712L41.2611 670.54C41.6513 669.954 42.2365 669.954 42.6267 670.393C43.0169 670.98 43.0169 671.859 42.7243 672.445L42.0415 673.471C41.6513 674.057 41.066 674.204 40.6758 673.618C40.3832 673.618 40.2857 673.178 40.2857 672.738ZM44.8702 767.713C44.8702 767.42 44.8702 767.273 44.9678 766.98C45.2604 766.248 45.8457 765.954 46.3334 766.394C46.626 766.687 46.9187 766.834 47.2113 767.127C47.699 767.567 47.8941 768.446 47.6015 769.179C47.3088 769.912 46.7236 770.205 46.2358 769.765C45.9432 769.472 45.6506 769.325 45.358 769.032C45.0653 768.739 44.8702 768.153 44.8702 767.713ZM45.4555 301.047C45.4555 300.461 45.6506 300.021 46.0408 299.728C46.5285 299.435 47.1138 299.728 47.3089 300.461L47.699 301.78C47.8941 302.513 47.699 303.392 47.2113 303.685C46.7236 303.978 46.1383 303.685 45.9432 302.952L45.5531 301.633C45.4555 301.487 45.4555 301.193 45.4555 301.047ZM48.8695 658.668C48.8695 658.375 48.9671 657.935 49.1622 657.642L49.845 656.616C50.2351 656.03 50.8204 656.03 51.2106 656.47C51.6008 657.056 51.6008 657.935 51.3081 658.521L50.6253 659.547C50.2352 660.134 49.6499 660.134 49.2597 659.547C48.9671 659.547 48.8695 659.108 48.8695 658.668ZM50.7229 318.488C50.7229 317.902 50.918 317.462 51.3081 317.169C51.7959 316.876 52.3811 317.169 52.5762 317.902L52.9664 319.221C53.1615 319.954 52.9664 320.833 52.4787 321.126C51.991 321.42 51.4057 321.126 51.2106 320.394L50.8204 319.074C50.7229 318.781 50.7229 318.635 50.7229 318.488ZM55.8927 335.93C55.8927 335.343 56.0878 334.757 56.478 334.61C56.9657 334.317 57.551 334.61 57.7461 335.343L58.1362 336.662C58.3313 337.395 58.1362 338.275 57.6485 338.568C57.1608 338.861 56.5755 338.568 56.3804 337.835L55.9903 336.516C55.8927 336.369 55.8927 336.076 55.8927 335.93ZM56.478 775.481C56.478 775.335 56.478 775.188 56.5755 775.041C56.7706 774.309 57.3558 773.869 57.8436 774.162C58.1362 774.309 58.4288 774.455 58.7215 774.602C59.2092 774.895 59.5018 775.628 59.3067 776.507C59.1116 777.24 58.6239 777.68 58.0387 777.387C57.746 777.24 57.4534 777.093 57.0632 776.947C56.673 776.654 56.478 776.067 56.478 775.481ZM57.4534 644.598C57.4534 644.305 57.5509 643.865 57.6485 643.572L58.3313 642.399C58.7215 641.813 59.3067 641.666 59.6969 642.253C60.0871 642.839 60.1846 643.718 59.7945 644.305L59.1116 645.477C58.7215 646.063 58.1362 646.21 57.746 645.624C57.551 645.331 57.4534 644.891 57.4534 644.598ZM60.7699 353.664C60.7699 353.078 60.965 352.492 61.3552 352.345C61.8429 352.052 62.4282 352.345 62.6232 353.224L63.0134 354.543C63.2085 355.276 63.0134 356.156 62.4282 356.449C61.9404 356.742 61.3552 356.449 61.1601 355.569L60.7699 354.25C60.7699 353.957 60.7699 353.811 60.7699 353.664ZM65.3545 371.399C65.3545 370.812 65.5496 370.226 66.0373 370.079C66.525 369.786 67.1103 370.226 67.3054 370.959L67.598 372.278C67.7931 373.011 67.5004 373.89 67.0127 374.183C66.525 374.476 65.9397 374.037 65.7447 373.304L65.452 371.985C65.3545 371.692 65.3545 371.545 65.3545 371.399ZM65.452 629.648C65.452 629.355 65.5495 629.062 65.6471 628.769L66.2324 627.596C66.525 627.01 67.1103 626.863 67.598 627.303C67.9881 627.743 68.0857 628.622 67.7931 629.355L67.2078 630.527C66.9152 631.114 66.2324 631.26 65.8422 630.82C65.5496 630.527 65.452 630.088 65.452 629.648ZM68.671 780.904C68.671 780.758 68.671 780.611 68.671 780.611C68.7685 779.878 69.3538 779.292 69.8415 779.585L70.8169 779.878C71.3046 780.025 71.6948 780.904 71.4997 781.637C71.4022 782.37 70.8169 782.956 70.3292 782.663L69.3538 782.37C68.9636 782.223 68.671 781.49 68.671 780.904ZM69.5489 389.426C69.5489 388.84 69.8415 388.254 70.2317 388.107C70.7194 387.814 71.3046 388.254 71.4997 388.987L71.7924 390.452C71.9875 391.185 71.6948 392.064 71.2071 392.358C70.7194 392.651 70.1341 392.211 69.939 391.478L69.6464 389.866C69.5489 389.719 69.5489 389.573 69.5489 389.426ZM72.3776 613.672C72.3776 613.379 72.3776 613.233 72.4752 612.939L72.9629 611.62C73.2555 610.888 73.8408 610.594 74.3285 611.034C74.8162 611.474 75.0113 612.353 74.7187 613.086L74.231 614.405C73.9383 615.138 73.3531 615.285 72.8653 614.991C72.5727 614.552 72.3776 614.112 72.3776 613.672ZM73.4506 407.747C73.4506 407.161 73.7432 406.574 74.1334 406.281C74.6211 405.988 75.2064 406.428 75.304 407.307L75.5966 408.773C75.7917 409.506 75.499 410.385 74.9138 410.532C74.4261 410.825 73.8408 410.385 73.7432 409.506L73.4506 408.04C73.4506 407.893 73.4506 407.894 73.4506 407.747ZM76.8647 426.068C76.8647 425.481 77.1573 424.749 77.5475 424.602C78.0352 424.456 78.6205 424.895 78.718 425.628L79.0106 427.094C79.1082 427.826 78.8155 428.706 78.3278 428.852C77.8401 428.999 77.2548 428.559 77.1573 427.826L76.8647 426.361C76.8647 426.361 76.8647 426.214 76.8647 426.068ZM77.4499 1133.98C77.4499 1133.25 77.8401 1132.52 78.4253 1132.52C79.0106 1132.52 79.4008 1133.1 79.4008 1133.98L79.4008 1135.45C79.4008 1136.18 79.0106 1136.91 78.4253 1136.91C77.8401 1136.91 77.4499 1136.33 77.4499 1135.45L77.4499 1133.98C77.4499 1134.13 77.4499 1133.98 77.4499 1133.98ZM77.645 1116.39L77.7425 1114.78C77.7425 1113.9 78.2302 1113.32 78.8155 1113.46C79.4008 1113.46 79.7909 1114.2 79.6934 1115.07L79.5959 1116.54C79.5959 1117.42 79.1081 1118.01 78.5229 1117.86C78.0351 1117.86 77.645 1117.13 77.645 1116.39ZM78.0352 596.524C78.0352 596.377 78.0352 596.084 78.1327 595.938L78.5229 594.619C78.718 593.886 79.3033 593.446 79.791 593.886C80.2787 594.179 80.5713 595.058 80.2787 595.791L79.8885 597.11C79.6934 597.843 79.1082 598.136 78.6204 597.843C78.2303 597.697 78.0352 597.11 78.0352 596.524ZM78.2302 1153.18C78.2302 1152.45 78.6204 1151.86 79.1081 1151.72C79.5959 1151.57 80.0836 1152.3 80.1811 1153.04L80.2787 1154.35C80.2787 1154.35 80.5713 1156.85 79.4983 1157.14C78.4253 1157.43 78.3278 1154.79 78.3278 1154.79L78.2302 1153.18ZM78.913 1097.34L78.913 1097.19L79.1081 1095.73C79.2057 1095 79.6934 1094.41 80.1811 1094.56C80.6688 1094.7 81.059 1095.44 80.9615 1096.17L80.7664 1097.63C80.6688 1098.37 80.1811 1098.95 79.6934 1098.81C79.3032 1098.66 78.913 1098.07 78.913 1097.34ZM79.7909 1172.09C79.7909 1171.36 80.1811 1170.77 80.5713 1170.62C81.059 1170.48 81.6443 1171.06 81.6443 1171.8L81.8394 1173.26C81.9369 1173.99 81.5467 1174.87 81.059 1174.87C80.5713 1175.02 79.986 1174.43 79.986 1173.7L79.7909 1172.24C79.7909 1172.24 79.7909 1172.24 79.7909 1172.09ZM79.791 444.682C79.791 443.949 80.0836 443.362 80.5713 443.216C81.059 443.069 81.6443 443.509 81.7418 444.388L81.9369 445.854C82.0345 446.587 81.7419 447.466 81.1566 447.613C80.6689 447.759 80.0836 447.32 79.9861 446.44L79.791 444.975C79.791 444.828 79.791 444.828 79.791 444.682ZM81.1566 785.008C81.1566 784.861 81.1566 784.862 81.1566 784.715C81.2541 783.982 81.7418 783.396 82.3271 783.542L83.3025 783.836C83.7903 783.982 84.1804 784.715 84.0829 785.594C83.9854 786.327 83.4976 786.913 82.9124 786.767L81.9369 786.474C81.4492 786.327 81.1566 785.594 81.1566 785.008ZM81.5467 1078.58C81.5467 1078.43 81.5467 1078.29 81.5467 1078.14L81.8394 1076.67C81.9369 1075.94 82.5222 1075.5 83.0099 1075.65C83.4976 1075.8 83.7902 1076.67 83.6927 1077.41L83.4001 1078.87C83.3025 1079.61 82.7173 1080.19 82.2295 1079.9C81.8394 1079.9 81.5467 1079.31 81.5467 1078.58ZM82.132 1191C82.132 1190.26 82.4246 1189.68 82.9123 1189.53C83.4001 1189.38 83.9853 1189.82 84.0829 1190.7L84.278 1192.17C84.3755 1192.9 84.0829 1193.78 83.4976 1193.93C83.0099 1194.07 82.4246 1193.63 82.3271 1192.75L82.132 1191.29C82.132 1191.14 82.132 1191 82.132 1191ZM82.2296 578.496C82.2296 578.35 82.2296 578.203 82.2296 578.057C82.3271 577.617 82.4247 577.177 82.5222 576.591C82.6197 575.858 83.205 575.419 83.6927 575.565C84.1804 575.712 84.4731 576.591 84.3755 577.324C84.278 577.764 84.1805 578.35 84.0829 578.79C83.8878 579.522 83.4001 579.962 82.9124 579.816C82.5222 579.669 82.2296 579.083 82.2296 578.496ZM82.3271 463.442C82.3271 462.709 82.6197 462.123 83.1075 461.976C83.5952 461.83 84.1804 462.416 84.278 463.149L84.4731 464.615C84.5706 465.347 84.1804 466.227 83.6927 466.373C83.205 466.52 82.6197 465.934 82.5222 465.201L82.3271 463.735C82.3271 463.589 82.3271 463.442 82.3271 463.442ZM84.4731 482.349C84.4731 481.616 84.8633 481.03 85.351 480.883C85.8387 480.737 86.424 481.323 86.424 482.056L86.5215 483.522C86.6191 484.254 86.2289 485.134 85.7412 485.134C85.2534 485.28 84.6682 484.694 84.6682 483.961L84.5706 482.496C84.4731 482.496 84.4731 482.349 84.4731 482.349ZM85.0583 1209.61C85.0583 1209.02 85.3509 1208.44 85.7411 1208.14C86.2288 1208 86.8141 1208.44 86.9116 1209.17L87.2043 1210.64C87.3018 1211.37 87.0092 1212.25 86.5215 1212.39C86.0338 1212.54 85.4485 1212.1 85.3509 1211.37L85.0583 1209.9C85.0583 1209.76 85.0583 1209.76 85.0583 1209.61ZM85.0583 559.883C85.0583 559.736 85.0583 559.736 85.0583 559.589L85.2534 558.124C85.351 557.391 85.8387 556.805 86.3264 556.951C86.8141 557.098 87.2043 557.831 87.1068 558.563L86.9117 560.029C86.8141 560.762 86.3264 561.348 85.7412 561.202C85.351 561.202 85.0583 560.615 85.0583 559.883ZM85.546 1060.55C85.546 1060.41 85.546 1060.11 85.6436 1059.97C85.7411 1059.53 85.9362 1059.09 86.0338 1058.65C86.2289 1057.91 86.8141 1057.62 87.3018 1057.91C87.7895 1058.21 88.0822 1059.09 87.7895 1059.82C87.692 1060.26 87.4969 1060.7 87.3994 1061.14C87.2043 1061.87 86.619 1062.31 86.1313 1061.87C85.7411 1061.58 85.546 1061.14 85.546 1060.55ZM86.0338 501.256C86.0338 500.523 86.424 499.937 86.9117 499.79C87.3994 499.644 87.8871 500.377 87.9847 501.11L88.0822 502.575C88.0822 503.455 87.692 504.041 87.2043 504.187C86.7166 504.334 86.2289 503.601 86.1313 502.868L86.0338 501.256C86.0338 501.403 86.0338 501.256 86.0338 501.256ZM86.5215 540.976C86.5215 540.829 86.5215 540.829 86.5215 540.976L86.619 539.363C86.619 538.484 87.1068 537.898 87.692 538.044C88.2773 538.044 88.6675 538.777 88.5699 539.656L88.4724 541.122C88.4724 542.001 87.9847 542.588 87.3994 542.441C86.9117 542.295 86.5215 541.708 86.5215 540.976ZM86.8141 520.31C86.8141 519.577 87.2043 518.844 87.7896 518.844C88.3748 518.844 88.765 519.43 88.765 520.31L88.765 521.775C88.765 522.655 88.3748 523.241 87.7896 523.241C87.2043 523.241 86.8141 522.655 86.8141 521.775L86.8141 520.31ZM88.4724 1227.93C88.4724 1227.34 88.765 1226.76 89.1552 1226.47C89.6429 1226.17 90.2281 1226.61 90.3257 1227.49L90.6183 1228.96C90.8134 1229.69 90.5208 1230.57 89.9355 1230.86C89.4478 1231.16 88.8625 1230.72 88.6674 1229.84L88.3748 1228.37C88.4723 1228.22 88.4724 1228.08 88.4724 1227.93ZM91.106 1043.4C91.106 1043.11 91.106 1042.96 91.2036 1042.67C91.3987 1042.23 91.4962 1041.79 91.6913 1041.35C91.9839 1040.62 92.5692 1040.47 93.0569 1040.77C93.5446 1041.21 93.6422 1042.08 93.4471 1042.82C93.252 1043.26 93.1545 1043.7 92.9594 1044.14C92.6668 1044.87 92.0815 1045.02 91.5938 1044.72C91.3011 1044.28 91.106 1043.84 91.106 1043.4ZM92.4717 1246.1C92.4717 1245.52 92.7643 1244.93 93.1545 1244.79C93.6422 1244.49 94.2274 1244.93 94.4225 1245.67L94.7152 1246.98C94.9102 1247.72 94.6176 1248.6 94.1299 1248.89C93.6422 1249.18 93.0569 1248.74 92.8618 1248.01L92.5692 1246.69C92.4717 1246.54 92.4717 1246.4 92.4717 1246.1ZM93.7397 788.232C93.7397 788.086 93.7397 788.086 93.7397 787.939C93.8373 787.206 94.325 786.62 94.8127 786.767L95.7882 787.06C96.2759 787.207 96.6661 787.939 96.5685 788.672C96.471 789.405 95.9833 789.991 95.4955 789.845L94.5201 789.552C94.0324 789.552 93.7397 788.965 93.7397 788.232ZM96.8611 1264.13C96.8611 1263.55 97.0562 1262.96 97.4464 1262.81C97.9341 1262.52 98.5194 1262.96 98.7145 1263.69L99.1046 1265.01C99.2997 1265.74 99.0071 1266.62 98.5194 1266.92C98.0317 1267.21 97.4464 1266.77 97.2513 1266.04L96.8611 1264.72C96.8611 1264.43 96.8611 1264.28 96.8611 1264.13ZM98.2268 1027.57C98.2268 1027.28 98.3243 1026.99 98.4218 1026.7C98.6169 1026.26 98.812 1025.96 99.0071 1025.52C99.2997 1024.94 99.9825 1024.79 100.373 1025.23C100.763 1025.67 100.86 1026.7 100.568 1027.28C100.373 1027.72 100.178 1028.01 99.9825 1028.45C99.6899 1029.04 99.0071 1029.19 98.6169 1028.75C98.4218 1028.31 98.2268 1028.01 98.2268 1027.57ZM101.641 1281.87C101.641 1281.28 101.836 1280.69 102.226 1280.55C102.714 1280.25 103.299 1280.55 103.494 1281.28L103.884 1282.6C104.079 1283.33 103.884 1284.21 103.397 1284.51C102.909 1284.8 102.324 1284.51 102.129 1283.77L101.738 1282.45C101.641 1282.31 101.641 1282.01 101.641 1281.87ZM106.323 791.31C106.323 791.164 106.323 791.164 106.323 791.017C106.42 790.284 106.908 789.698 107.396 789.845L108.371 790.138C108.859 790.284 109.249 791.017 109.152 791.75C109.054 792.483 108.566 793.069 108.079 792.923L107.103 792.629C106.616 792.629 106.323 791.897 106.323 791.31ZM106.811 1299.31C106.811 1298.72 107.006 1298.28 107.396 1297.99C107.884 1297.7 108.469 1297.99 108.664 1298.72L109.054 1300.04C109.249 1300.77 109.054 1301.65 108.566 1301.95C108.079 1302.24 107.493 1301.95 107.298 1301.21L106.908 1299.89C106.811 1299.75 106.811 1299.6 106.811 1299.31ZM106.811 1013.36C106.811 1012.92 106.908 1012.63 107.103 1012.33L107.786 1011.31C108.176 1010.72 108.762 1010.72 109.152 1011.31C109.542 1011.89 109.542 1012.77 109.152 1013.36L108.469 1014.38C108.079 1014.97 107.493 1014.97 107.103 1014.38C106.908 1014.09 106.811 1013.8 106.811 1013.36ZM112.273 1316.6C112.273 1316.02 112.468 1315.58 112.858 1315.28C113.346 1314.99 113.931 1315.28 114.126 1316.02L114.517 1317.34C114.712 1318.07 114.517 1318.95 114.029 1319.24C113.541 1319.53 112.956 1319.24 112.761 1318.51L112.371 1317.19C112.273 1317.04 112.273 1316.9 112.273 1316.6ZM116.37 1000.75C116.37 1000.31 116.467 999.874 116.663 999.727L117.345 998.701C117.736 998.115 118.321 998.262 118.711 998.848C119.101 999.434 119.004 1000.31 118.613 1000.9L117.833 1001.93C117.443 1002.51 116.858 1002.37 116.467 1001.78C116.467 1001.49 116.37 1001.05 116.37 1000.75ZM118.126 1333.75C118.126 1333.17 118.321 1332.73 118.613 1332.43C119.101 1331.99 119.686 1332.29 119.979 1333.02L120.467 1334.34C120.759 1335.07 120.564 1335.95 120.077 1336.39C119.589 1336.83 119.004 1336.54 118.711 1335.8L118.223 1334.48C118.126 1334.19 118.126 1333.9 118.126 1333.75ZM118.906 794.388C118.906 794.242 118.906 794.242 118.906 794.095C119.004 793.362 119.491 792.776 120.077 792.923L121.052 793.216C121.54 793.362 121.93 794.095 121.832 794.975C121.735 795.707 121.247 796.294 120.662 796.147L119.686 795.854C119.199 795.707 118.906 795.121 118.906 794.388ZM124.173 1350.61C124.173 1350.17 124.369 1349.58 124.661 1349.29C125.149 1348.85 125.734 1349.14 126.027 1349.87L126.514 1351.19C126.807 1351.93 126.612 1352.81 126.124 1353.24C125.637 1353.68 125.051 1353.39 124.759 1352.66L124.271 1351.34C124.271 1351.05 124.173 1350.75 124.173 1350.61ZM125.734 987.855C125.734 987.416 125.832 987.123 126.027 986.83L126.71 985.804C127.1 985.217 127.685 985.217 128.075 985.804C128.465 986.39 128.465 987.269 128.075 987.855L127.392 988.881C127.002 989.468 126.417 989.468 126.027 988.881C125.832 988.588 125.734 988.149 125.734 987.855ZM130.611 1367.17C130.611 1366.73 130.806 1366.14 131.099 1365.85C131.587 1365.41 132.172 1365.7 132.465 1366.29L132.952 1367.61C133.245 1368.34 133.05 1369.22 132.66 1369.66C132.172 1370.1 131.587 1369.81 131.294 1369.22L130.806 1367.9C130.611 1367.61 130.611 1367.32 130.611 1367.17ZM131.392 798.199C131.392 798.052 131.392 798.052 131.392 797.906C131.489 797.173 132.075 796.587 132.562 796.733L133.538 797.026C134.025 797.173 134.416 798.052 134.22 798.785C134.123 799.518 133.538 800.104 133.05 799.811L132.075 799.518C131.684 799.372 131.392 798.785 131.392 798.199ZM134.903 974.371C134.903 973.932 135.001 973.639 135.196 973.345L135.879 972.32C136.269 971.733 136.854 971.733 137.244 972.32C137.635 972.906 137.635 973.785 137.244 974.371L136.562 975.397C136.171 975.984 135.586 975.984 135.196 975.397C135.001 975.251 134.903 974.811 134.903 974.371ZM137.244 1383.44C137.244 1383 137.439 1382.41 137.732 1382.26C138.22 1381.83 138.805 1381.97 139.098 1382.7L139.585 1383.88C139.878 1384.61 139.78 1385.49 139.293 1385.93C138.805 1386.37 138.22 1386.22 137.927 1385.49L137.439 1384.17C137.244 1384.02 137.244 1383.73 137.244 1383.44ZM143.585 960.448C143.585 960.154 143.682 959.715 143.877 959.422L144.56 958.396C144.95 957.81 145.536 957.663 145.926 958.249C146.316 958.835 146.413 959.715 146.023 960.301L145.34 961.474C144.95 962.06 144.365 962.06 143.975 961.62C143.682 961.327 143.585 960.887 143.585 960.448ZM143.682 803.182C143.682 803.036 143.682 802.889 143.78 802.743C143.975 802.01 144.463 801.57 145.048 801.863L146.023 802.303C146.511 802.596 146.804 803.475 146.609 804.208C146.413 804.941 145.926 805.381 145.34 805.088L144.463 804.648C143.975 804.355 143.682 803.768 143.682 803.182ZM144.17 1399.41C144.17 1398.97 144.365 1398.53 144.56 1398.24C145.048 1397.8 145.633 1397.95 145.926 1398.68L146.511 1399.85C146.804 1400.59 146.706 1401.46 146.218 1401.9C145.731 1402.34 145.145 1402.2 144.853 1401.46L144.267 1400.29C144.267 1400 144.17 1399.71 144.17 1399.41ZM151.388 1415.24C151.388 1414.8 151.486 1414.36 151.778 1414.07C152.266 1413.63 152.851 1413.78 153.144 1414.36L153.729 1415.54C154.022 1416.27 153.924 1417.15 153.534 1417.59C153.144 1418.03 152.461 1417.88 152.169 1417.29L151.583 1416.12C151.486 1415.83 151.388 1415.54 151.388 1415.24ZM151.778 945.938C151.778 945.644 151.876 945.351 151.973 945.058L152.559 943.886C152.851 943.299 153.534 943.153 153.924 943.593C154.315 944.032 154.412 945.058 154.119 945.644L153.534 946.817C153.242 947.403 152.559 947.55 152.169 947.11C151.876 946.817 151.778 946.377 151.778 945.938ZM155.388 810.657C155.388 810.364 155.388 810.217 155.485 809.924C155.778 809.191 156.363 808.898 156.851 809.338C157.143 809.631 157.436 809.778 157.729 810.071C158.216 810.511 158.314 811.39 158.119 812.123C157.826 812.856 157.241 813.002 156.753 812.709C156.46 812.416 156.168 812.269 155.875 811.976C155.583 811.683 155.388 811.243 155.388 810.657ZM158.899 1430.63C158.899 1430.19 158.997 1429.75 159.289 1429.46C159.679 1429.02 160.362 1429.17 160.655 1429.75L161.24 1430.92C161.533 1431.51 161.435 1432.54 161.045 1432.98C160.655 1433.42 159.972 1433.27 159.679 1432.68L159.094 1431.51C158.997 1431.36 158.899 1431.07 158.899 1430.63ZM159.387 930.548C159.387 930.255 159.484 929.962 159.582 929.669L160.167 928.496C160.46 927.763 161.045 927.617 161.533 928.057C162.02 928.496 162.118 929.376 161.825 930.108L161.24 931.281C160.948 932.014 160.362 932.16 159.875 931.721C159.484 931.428 159.387 930.988 159.387 930.548ZM165.239 822.529C165.239 822.089 165.337 821.65 165.63 821.356C166.02 820.77 166.703 820.917 166.995 821.503C167.19 821.943 167.385 822.236 167.678 822.675C167.971 823.262 167.971 824.288 167.483 824.727C167.093 825.167 166.41 825.167 166.117 824.434C165.922 823.995 165.727 823.701 165.532 823.262C165.239 823.262 165.239 822.969 165.239 822.529ZM165.922 914.133C165.922 913.84 165.922 913.693 166.02 913.4L166.508 912.081C166.8 911.348 167.385 911.055 167.776 911.495C168.263 911.934 168.458 912.814 168.166 913.4L167.678 914.719C167.385 915.452 166.8 915.745 166.312 915.305C166.117 915.159 165.922 914.719 165.922 914.133ZM166.8 1445.73C166.8 1445.29 166.898 1444.85 167.19 1444.56C167.58 1444.12 168.263 1444.12 168.556 1444.85L169.141 1446.02C169.434 1446.61 169.434 1447.63 169.044 1448.07C168.653 1448.51 167.971 1448.51 167.678 1447.93L167.093 1446.75C166.8 1446.46 166.8 1446.17 166.8 1445.73ZM171.092 896.691C171.092 896.545 171.092 896.398 171.19 896.252C171.287 895.812 171.385 895.372 171.482 894.933C171.677 894.2 172.263 893.76 172.75 894.053C173.238 894.346 173.531 895.226 173.336 895.959C173.238 896.398 173.141 896.838 173.043 897.424C172.848 898.157 172.263 898.597 171.775 898.304C171.385 897.864 171.092 897.278 171.092 896.691ZM171.385 839.237C171.385 838.651 171.58 838.065 171.97 837.918C172.458 837.625 173.043 837.918 173.238 838.798C173.336 839.237 173.531 839.677 173.628 840.263C173.823 840.996 173.531 841.876 173.043 842.169C172.555 842.462 171.97 842.022 171.775 841.289C171.677 840.85 171.58 840.41 171.385 839.97C171.385 839.531 171.385 839.384 171.385 839.237ZM174.311 878.224L174.311 878.077C174.311 877.638 174.409 877.052 174.409 876.612C174.506 875.879 174.994 875.293 175.482 875.293C175.969 875.439 176.359 876.172 176.359 876.905C176.359 877.345 176.262 877.931 176.262 878.371C176.164 879.103 175.677 879.69 175.189 879.543C174.604 879.543 174.311 878.957 174.311 878.224ZM174.506 857.705C174.506 856.972 174.896 856.386 175.384 856.239C175.872 856.093 176.359 856.679 176.457 857.558C176.457 857.998 176.555 858.584 176.555 859.024C176.652 859.903 176.262 860.49 175.677 860.636C175.189 860.783 174.701 860.196 174.604 859.317C174.604 858.877 174.506 858.291 174.506 857.851L174.506 857.705ZM174.994 1460.53C174.994 1460.09 175.091 1459.65 175.286 1459.36C175.677 1458.77 176.262 1458.92 176.652 1459.51L177.335 1460.68C177.725 1461.26 177.627 1462.14 177.237 1462.73C176.847 1463.32 176.262 1463.17 175.872 1462.58L175.189 1461.41C174.994 1461.12 174.994 1460.82 174.994 1460.53ZM183.578 1474.6C183.578 1474.16 183.675 1473.87 183.87 1473.58C184.26 1472.99 184.846 1472.99 185.236 1473.58L185.919 1474.6C186.309 1475.19 186.309 1476.07 185.919 1476.65C185.529 1477.24 184.943 1477.24 184.553 1476.65L183.87 1475.63C183.578 1475.33 183.578 1475.04 183.578 1474.6Z" fill="white"/>
<path d="M192.942 1488.53C192.942 1488.23 193.039 1487.79 193.235 1487.5C193.625 1486.91 194.21 1486.91 194.6 1487.35L194.99 1487.79C195.381 1488.38 195.381 1489.26 195.088 1489.84C194.698 1490.43 194.112 1490.43 193.722 1489.99L193.332 1489.55C193.039 1489.4 192.942 1488.97 192.942 1488.53Z" fill="white"/>
<g style="mix-blend-mode:screen" opacity="0.5">
<path d="M16.3874 266.897C16.3874 283.248 25.2092 296.503 36.0913 296.503C46.9735 296.503 55.7952 283.248 55.7952 266.897C55.7952 250.546 46.9735 237.291 36.0913 237.291C25.2092 237.291 16.3874 250.546 16.3874 266.897Z" fill="url(#paint1_radial)"/>
</g>
<g style="mix-blend-mode:screen" opacity="0.5">
<path d="M59.3067 596.23C59.3067 612.582 68.1285 625.837 79.0106 625.837C89.8928 625.837 98.7145 612.582 98.7145 596.23C98.7145 579.879 89.8928 566.624 79.0106 566.624C68.1285 566.624 59.3068 579.879 59.3067 596.23Z" fill="url(#paint2_radial)"/>
</g>
<g style="mix-blend-mode:screen" opacity="0.5">
<path d="M29.0681 266.897C29.0681 272.725 32.2125 277.45 36.0913 277.45C39.9701 277.45 43.1145 272.725 43.1145 266.897C43.1145 261.069 39.9701 256.344 36.0913 256.344C32.2125 256.344 29.0681 261.069 29.0681 266.897Z" fill="url(#paint3_radial)"/>
</g>
<g style="mix-blend-mode:screen" opacity="0.5">
<path d="M69.939 1228.66C69.939 1245.01 78.7607 1258.27 89.6429 1258.27C100.525 1258.27 109.347 1245.01 109.347 1228.66C109.347 1212.31 100.525 1199.06 89.6429 1199.06C78.7607 1199.06 69.939 1212.31 69.939 1228.66Z" fill="url(#paint4_radial)"/>
</g>
<g style="mix-blend-mode:screen" opacity="0.5">
<path d="M82.6197 1228.66C82.6197 1234.49 85.7641 1239.22 89.6429 1239.22C93.5217 1239.22 96.666 1234.49 96.666 1228.66C96.666 1222.84 93.5217 1218.11 89.6429 1218.11C85.7641 1218.11 82.6197 1222.84 82.6197 1228.66Z" fill="url(#paint5_radial)"/>
</g>
<g style="mix-blend-mode:screen" opacity="0.99">
<path d="M35.9938 319.367C35.9938 332.562 43.1123 343.258 51.8935 343.258C60.6746 343.258 67.7931 332.562 67.7931 319.367C67.7931 306.173 60.6746 295.477 51.8935 295.477C43.1123 295.477 35.9938 306.173 35.9938 319.367Z" fill="url(#paint6_radial)"/>
</g>
<g style="mix-blend-mode:screen" opacity="0.99">
<path d="M46.2359 319.368C46.2359 324.062 48.7689 327.868 51.8934 327.868C55.018 327.868 57.551 324.062 57.551 319.368C57.551 314.673 55.018 310.867 51.8934 310.867C48.7689 310.867 46.2359 314.673 46.2359 319.368Z" fill="url(#paint7_radial)"/>
</g>
<g style="mix-blend-mode:screen" opacity="0.99">
<path d="M5.56765e-05 62.4372C5.48237e-05 81.9452 10.525 97.7596 23.5081 97.7596C36.4913 97.7596 47.0162 81.9452 47.0162 62.4372C47.0162 42.9291 36.4913 27.1147 23.5081 27.1147C10.525 27.1147 5.65292e-05 42.9291 5.56765e-05 62.4372Z" fill="url(#paint8_radial)"/>
</g>
<g style="mix-blend-mode:screen" opacity="0.99">
<path d="M15.2169 62.4371C15.2169 69.3175 18.929 74.8952 23.5081 74.8952C28.0872 74.8952 31.7994 69.3175 31.7994 62.4371C31.7994 55.5567 28.0872 49.979 23.5081 49.979C18.929 49.979 15.2169 55.5567 15.2169 62.4371Z" fill="url(#paint9_radial)"/>
</g>
<g style="mix-blend-mode:screen" opacity="0.99">
<path d="M49.942 600.188C49.942 619.696 60.467 635.511 73.4501 635.511C86.4333 635.511 96.9582 619.696 96.9582 600.188C96.9582 580.68 86.4333 564.866 73.4501 564.866C60.467 564.866 49.942 580.68 49.942 600.188Z" fill="url(#paint10_radial)"/>
</g>
<g style="mix-blend-mode:screen" opacity="0.99">
<path d="M65.1589 600.189C65.1589 607.069 68.871 612.647 73.4501 612.647C78.0292 612.647 81.7414 607.069 81.7414 600.189C81.7414 593.308 78.0292 587.73 73.4501 587.73C68.871 587.73 65.1589 593.308 65.1589 600.189Z" fill="url(#paint11_radial)"/>
</g>
<g style="mix-blend-mode:screen" opacity="0.99">
<path d="M74.3285 558.857C74.3285 568.246 79.3944 575.858 85.6436 575.858C91.8928 575.858 96.9587 568.246 96.9587 558.857C96.9587 549.467 91.8928 541.855 85.6436 541.855C79.3944 541.855 74.3285 549.467 74.3285 558.857Z" fill="url(#paint12_radial)"/>
</g>
<g style="mix-blend-mode:screen" opacity="0.99">
<path d="M81.6443 558.856C81.6443 562.175 83.4349 564.866 85.6436 564.866C87.8524 564.866 89.6429 562.175 89.6429 558.856C89.6429 555.538 87.8524 552.847 85.6436 552.847C83.4349 552.847 81.6443 555.538 81.6443 558.856Z" fill="url(#paint13_radial)"/>
</g>
<g style="mix-blend-mode:screen" opacity="0.99">
<path d="M155.192 912.667C155.192 922.057 160.258 929.668 166.507 929.668C172.757 929.668 177.823 922.057 177.823 912.667C177.823 903.277 172.757 895.665 166.507 895.665C160.258 895.665 155.192 903.277 155.192 912.667Z" fill="url(#paint14_radial)"/>
</g>
<g style="mix-blend-mode:screen" opacity="0.99">
<path d="M162.508 912.667C162.508 915.986 164.299 918.676 166.507 918.676C168.716 918.676 170.507 915.986 170.507 912.667C170.507 909.348 168.716 906.658 166.507 906.658C164.299 906.658 162.508 909.348 162.508 912.667Z" fill="url(#paint15_radial)"/>
</g>
<g style="mix-blend-mode:screen" opacity="0.99">
<path d="M164.069 877.491C164.069 886.881 169.135 894.493 175.384 894.493C181.633 894.493 186.699 886.881 186.699 877.491C186.699 868.101 181.633 860.489 175.384 860.489C169.135 860.489 164.069 868.101 164.069 877.491Z" fill="url(#paint16_radial)"/>
</g>
<g style="mix-blend-mode:screen" opacity="0.99">
<path d="M171.385 877.491C171.385 880.81 173.175 883.5 175.384 883.5C177.593 883.5 179.383 880.81 179.383 877.491C179.383 874.172 177.593 871.481 175.384 871.481C173.175 871.481 171.385 874.172 171.385 877.491Z" fill="url(#paint17_radial)"/>
</g>
<g style="mix-blend-mode:screen" opacity="0.99">
<path d="M106.713 1000.02C106.713 1009.41 111.779 1017.02 118.028 1017.02C124.277 1017.02 129.343 1009.41 129.343 1000.02C129.343 990.63 124.277 983.019 118.028 983.019C111.779 983.019 106.713 990.63 106.713 1000.02Z" fill="url(#paint18_radial)"/>
</g>
<g style="mix-blend-mode:screen" opacity="0.99">
<path d="M114.029 1000.02C114.029 1003.34 115.819 1006.03 118.028 1006.03C120.237 1006.03 122.027 1003.34 122.027 1000.02C122.027 996.702 120.237 994.011 118.028 994.011C115.819 994.011 114.029 996.702 114.029 1000.02Z" fill="url(#paint19_radial)"/>
</g>
<g style="mix-blend-mode:screen" opacity="0.99">
<path d="M69.5489 1172.82C69.5489 1182.21 74.6148 1189.82 80.8639 1189.82C87.1131 1189.82 92.179 1182.21 92.179 1172.82C92.179 1163.43 87.1131 1155.82 80.8639 1155.82C74.6148 1155.82 69.5489 1163.43 69.5489 1172.82Z" fill="url(#paint20_radial)"/>
</g>
<g style="mix-blend-mode:screen" opacity="0.99">
<path d="M76.8646 1172.82C76.8646 1176.14 78.6552 1178.83 80.8639 1178.83C83.0727 1178.83 84.8633 1176.14 84.8633 1172.82C84.8633 1169.5 83.0727 1166.81 80.864 1166.81C78.6552 1166.81 76.8647 1169.5 76.8646 1172.82Z" fill="url(#paint21_radial)"/>
</g>
<g style="mix-blend-mode:screen" opacity="0.99">
<path d="M149.242 1431.22C149.242 1440.61 154.308 1448.22 160.557 1448.22C166.806 1448.22 171.872 1440.61 171.872 1431.22C171.872 1421.83 166.806 1414.22 160.557 1414.22C154.308 1414.22 149.242 1421.83 149.242 1431.22Z" fill="url(#paint22_radial)"/>
</g>
<g style="mix-blend-mode:screen" opacity="0.99">
<path d="M156.558 1431.22C156.558 1434.54 158.349 1437.23 160.557 1437.23C162.766 1437.23 164.557 1434.54 164.557 1431.22C164.557 1427.9 162.766 1425.21 160.557 1425.21C158.349 1425.21 156.558 1427.9 156.558 1431.22Z" fill="url(#paint23_radial)"/>
</g>
<g style="mix-blend-mode:screen" opacity="0.99">
<path d="M35.1159 769.032C35.1159 778.422 40.1818 786.034 46.4309 786.034C52.6801 786.034 57.746 778.422 57.746 769.032C57.746 759.642 52.6801 752.03 46.4309 752.03C40.1818 752.03 35.1159 759.642 35.1159 769.032Z" fill="url(#paint24_radial)"/>
</g>
<g style="mix-blend-mode:screen" opacity="0.99">
<path d="M42.4317 769.032C42.4317 772.351 44.2222 775.041 46.4309 775.041C48.6397 775.041 50.4303 772.351 50.4303 769.032C50.4303 765.713 48.6397 763.023 46.4309 763.023C44.2222 763.023 42.4317 765.713 42.4317 769.032Z" fill="url(#paint25_radial)"/>
</g>
<g style="mix-blend-mode:screen" opacity="0.99">
<path d="M77.3524 785.154C77.3524 789.525 79.7106 793.069 82.6197 793.069C85.5288 793.069 87.8871 789.525 87.8871 785.154C87.8871 780.783 85.5288 777.24 82.6197 777.24C79.7106 777.24 77.3524 780.783 77.3524 785.154Z" fill="url(#paint26_radial)"/>
</g>
<g style="mix-blend-mode:screen" opacity="0.99">
<path d="M82.2296 521.189C82.2296 525.56 84.5878 529.104 87.4969 529.104C90.406 529.104 92.7643 525.56 92.7643 521.189C92.7643 516.818 90.406 513.274 87.4969 513.274C84.5878 513.274 82.2296 516.818 82.2296 521.189Z" fill="url(#paint27_radial)"/>
</g>
<defs>
<linearGradient id="paint0_linear" x1="-48.9129" y1="747.977" x2="254.441" y2="747.977" gradientUnits="userSpaceOnUse">
<stop stop-color="#BD13FF"/>
<stop offset="0.1828" stop-color="#A93995"/>
<stop offset="0.5233" stop-color="#310542"/>
<stop offset="1" stop-color="#BD13FF" stop-opacity="0"/>
</linearGradient>
<radialGradient id="paint1_radial" cx="0" cy="0" r="1" gradientUnits="userSpaceOnUse" gradientTransform="translate(36.1125 266.876) rotate(90) scale(29.6681 19.7449)">
<stop stop-color="#FFA7FF"/>
<stop offset="0.0382804" stop-color="#F19EF1"/>
<stop offset="0.2481" stop-color="#A96FA9"/>
<stop offset="0.4456" stop-color="#6D476D"/>
<stop offset="0.6251" stop-color="#3E283E"/>
<stop offset="0.783" stop-color="#1C121C"/>
<stop offset="0.9133" stop-color="#070507"/>
<stop offset="1"/>
</radialGradient>
<radialGradient id="paint2_radial" cx="0" cy="0" r="1" gradientUnits="userSpaceOnUse" gradientTransform="translate(79.0213 596.174) rotate(90) scale(29.6681 19.7449)">
<stop stop-color="#FFA7FF"/>
<stop offset="0.0382804" stop-color="#F19EF1"/>
<stop offset="0.2481" stop-color="#A96FA9"/>
<stop offset="0.4456" stop-color="#6D476D"/>
<stop offset="0.6251" stop-color="#3E283E"/>
<stop offset="0.783" stop-color="#1C121C"/>
<stop offset="0.9133" stop-color="#070507"/>
<stop offset="1"/>
</radialGradient>
<radialGradient id="paint3_radial" cx="0" cy="0" r="1" gradientUnits="userSpaceOnUse" gradientTransform="translate(36.1125 266.876) rotate(90) scale(10.5453 7.01819)">
<stop stop-color="#FFA7FF"/>
<stop offset="0.0382804" stop-color="#F19EF1"/>
<stop offset="0.2481" stop-color="#A96FA9"/>
<stop offset="0.4456" stop-color="#6D476D"/>
<stop offset="0.6251" stop-color="#3E283E"/>
<stop offset="0.783" stop-color="#1C121C"/>
<stop offset="0.9133" stop-color="#070507"/>
<stop offset="1"/>
</radialGradient>
<radialGradient id="paint4_radial" cx="0" cy="0" r="1" gradientUnits="userSpaceOnUse" gradientTransform="translate(89.6052 1228.69) rotate(90) scale(29.6681 19.7449)">
<stop stop-color="#FFA7FF"/>
<stop offset="0.0382804" stop-color="#F19EF1"/>
<stop offset="0.2481" stop-color="#A96FA9"/>
<stop offset="0.4456" stop-color="#6D476D"/>
<stop offset="0.6251" stop-color="#3E283E"/>
<stop offset="0.783" stop-color="#1C121C"/>
<stop offset="0.9133" stop-color="#070507"/>
<stop offset="1"/>
</radialGradient>
<radialGradient id="paint5_radial" cx="0" cy="0" r="1" gradientUnits="userSpaceOnUse" gradientTransform="translate(89.6052 1228.69) rotate(90) scale(10.5453 7.01819)">
<stop stop-color="#FFA7FF"/>
<stop offset="0.0382804" stop-color="#F19EF1"/>
<stop offset="0.2481" stop-color="#A96FA9"/>
<stop offset="0.4456" stop-color="#6D476D"/>
<stop offset="0.6251" stop-color="#3E283E"/>
<stop offset="0.783" stop-color="#1C121C"/>
<stop offset="0.9133" stop-color="#070507"/>
<stop offset="1"/>
</radialGradient>
<radialGradient id="paint6_radial" cx="0" cy="0" r="1" gradientUnits="userSpaceOnUse" gradientTransform="translate(51.9037 319.419) rotate(90) scale(23.9331 15.9282)">
<stop stop-color="#FF1D92"/>
<stop offset="0.0382804" stop-color="#F11B8A"/>
<stop offset="0.2481" stop-color="#A91361"/>
<stop offset="0.4456" stop-color="#6D0C3E"/>
<stop offset="0.6251" stop-color="#3E0723"/>
<stop offset="0.783" stop-color="#1C0310"/>
<stop offset="0.9133" stop-color="#070104"/>
<stop offset="1"/>
</radialGradient>
<radialGradient id="paint7_radial" cx="0" cy="0" r="1" gradientUnits="userSpaceOnUse" gradientTransform="translate(51.9037 319.419) rotate(90) scale(8.50683 5.66155)">
<stop stop-color="#FF1D92"/>
<stop offset="0.0382804" stop-color="#F11B8A"/>
<stop offset="0.2481" stop-color="#A91361"/>
<stop offset="0.4456" stop-color="#6D0C3E"/>
<stop offset="0.6251" stop-color="#3E0723"/>
<stop offset="0.783" stop-color="#1C0310"/>
<stop offset="0.9133" stop-color="#070104"/>
<stop offset="1"/>
</radialGradient>
<radialGradient id="paint8_radial" cx="0" cy="0" r="1" gradientUnits="userSpaceOnUse" gradientTransform="translate(23.4883 62.3719) rotate(90) scale(35.2502 23.46)">
<stop stop-color="#FF1D92"/>
<stop offset="0.0382804" stop-color="#F11B8A"/>
<stop offset="0.2481" stop-color="#A91361"/>
<stop offset="0.4456" stop-color="#6D0C3E"/>
<stop offset="0.6251" stop-color="#3E0723"/>
<stop offset="0.783" stop-color="#1C0310"/>
<stop offset="0.9133" stop-color="#070104"/>
<stop offset="1"/>
</radialGradient>
<radialGradient id="paint9_radial" cx="0" cy="0" r="1" gradientUnits="userSpaceOnUse" gradientTransform="translate(23.4883 62.3719) rotate(90) scale(12.5295 8.33874)">
<stop stop-color="#FF1D92"/>
<stop offset="0.0382804" stop-color="#F11B8A"/>
<stop offset="0.2481" stop-color="#A91361"/>
<stop offset="0.4456" stop-color="#6D0C3E"/>
<stop offset="0.6251" stop-color="#3E0723"/>
<stop offset="0.783" stop-color="#1C0310"/>
<stop offset="0.9133" stop-color="#070104"/>
<stop offset="1"/>
</radialGradient>
<radialGradient id="paint10_radial" cx="0" cy="0" r="1" gradientUnits="userSpaceOnUse" gradientTransform="translate(73.4148 600.21) rotate(90) scale(35.2502 23.46)">
<stop stop-color="#FF1D92"/>
<stop offset="0.0382804" stop-color="#F11B8A"/>
<stop offset="0.2481" stop-color="#A91361"/>
<stop offset="0.4456" stop-color="#6D0C3E"/>
<stop offset="0.6251" stop-color="#3E0723"/>
<stop offset="0.783" stop-color="#1C0310"/>
<stop offset="0.9133" stop-color="#070104"/>
<stop offset="1"/>
</radialGradient>
<radialGradient id="paint11_radial" cx="0" cy="0" r="1" gradientUnits="userSpaceOnUse" gradientTransform="translate(73.4148 600.211) rotate(90) scale(12.5295 8.33874)">
<stop stop-color="#FF1D92"/>
<stop offset="0.0382804" stop-color="#F11B8A"/>
<stop offset="0.2481" stop-color="#A91361"/>
<stop offset="0.4456" stop-color="#6D0C3E"/>
<stop offset="0.6251" stop-color="#3E0723"/>
<stop offset="0.783" stop-color="#1C0310"/>
<stop offset="0.9133" stop-color="#070104"/>
<stop offset="1"/>
</radialGradient>
<radialGradient id="paint12_radial" cx="0" cy="0" r="1" gradientUnits="userSpaceOnUse" gradientTransform="translate(85.649 558.83) rotate(90) scale(17.0345 11.3369)">
<stop stop-color="#FF1D92"/>
<stop offset="0.0382804" stop-color="#F11B8A"/>
<stop offset="0.2481" stop-color="#A91361"/>
<stop offset="0.4456" stop-color="#6D0C3E"/>
<stop offset="0.6251" stop-color="#3E0723"/>
<stop offset="0.783" stop-color="#1C0310"/>
<stop offset="0.9133" stop-color="#070104"/>
<stop offset="1"/>
</radialGradient>
<radialGradient id="paint13_radial" cx="0" cy="0" r="1" gradientUnits="userSpaceOnUse" gradientTransform="translate(85.649 558.83) rotate(90) scale(6.0548 4.02963)">
<stop stop-color="#FF1D92"/>
<stop offset="0.0382804" stop-color="#F11B8A"/>
<stop offset="0.2481" stop-color="#A91361"/>
<stop offset="0.4456" stop-color="#6D0C3E"/>
<stop offset="0.6251" stop-color="#3E0723"/>
<stop offset="0.783" stop-color="#1C0310"/>
<stop offset="0.9133" stop-color="#070104"/>
<stop offset="1"/>
</radialGradient>
<radialGradient id="paint14_radial" cx="0" cy="0" r="1" gradientUnits="userSpaceOnUse" gradientTransform="translate(166.486 912.729) rotate(90) scale(17.0345 11.3369)">
<stop stop-color="#FF1D92"/>
<stop offset="0.0382804" stop-color="#F11B8A"/>
<stop offset="0.2481" stop-color="#A91361"/>
<stop offset="0.4456" stop-color="#6D0C3E"/>
<stop offset="0.6251" stop-color="#3E0723"/>
<stop offset="0.783" stop-color="#1C0310"/>
<stop offset="0.9133" stop-color="#070104"/>
<stop offset="1"/>
</radialGradient>
<radialGradient id="paint15_radial" cx="0" cy="0" r="1" gradientUnits="userSpaceOnUse" gradientTransform="translate(166.486 912.729) rotate(90) scale(6.0548 4.02964)">
<stop stop-color="#FF1D92"/>
<stop offset="0.0382804" stop-color="#F11B8A"/>
<stop offset="0.2481" stop-color="#A91361"/>
<stop offset="0.4456" stop-color="#6D0C3E"/>
<stop offset="0.6251" stop-color="#3E0723"/>
<stop offset="0.783" stop-color="#1C0310"/>
<stop offset="0.9133" stop-color="#070104"/>
<stop offset="1"/>
</radialGradient>
<radialGradient id="paint16_radial" cx="0" cy="0" r="1" gradientUnits="userSpaceOnUse" gradientTransform="translate(175.343 877.496) rotate(90) scale(17.0345 11.3369)">
<stop stop-color="#FF1D92"/>
<stop offset="0.0382804" stop-color="#F11B8A"/>
<stop offset="0.2481" stop-color="#A91361"/>
<stop offset="0.4456" stop-color="#6D0C3E"/>
<stop offset="0.6251" stop-color="#3E0723"/>
<stop offset="0.783" stop-color="#1C0310"/>
<stop offset="0.9133" stop-color="#070104"/>
<stop offset="1"/>
</radialGradient>
<radialGradient id="paint17_radial" cx="0" cy="0" r="1" gradientUnits="userSpaceOnUse" gradientTransform="translate(175.343 877.495) rotate(90) scale(6.05483 4.02964)">
<stop stop-color="#FF1D92"/>
<stop offset="0.0382804" stop-color="#F11B8A"/>
<stop offset="0.2481" stop-color="#A91361"/>
<stop offset="0.4456" stop-color="#6D0C3E"/>
<stop offset="0.6251" stop-color="#3E0723"/>
<stop offset="0.783" stop-color="#1C0310"/>
<stop offset="0.9133" stop-color="#070104"/>
<stop offset="1"/>
</radialGradient>
<radialGradient id="paint18_radial" cx="0" cy="0" r="1" gradientUnits="userSpaceOnUse" gradientTransform="translate(118.055 1000.01) rotate(90) scale(17.0345 11.3369)">
<stop stop-color="#FF1D92"/>
<stop offset="0.0382804" stop-color="#F11B8A"/>
<stop offset="0.2481" stop-color="#A91361"/>
<stop offset="0.4456" stop-color="#6D0C3E"/>
<stop offset="0.6251" stop-color="#3E0723"/>
<stop offset="0.783" stop-color="#1C0310"/>
<stop offset="0.9133" stop-color="#070104"/>
<stop offset="1"/>
</radialGradient>
<radialGradient id="paint19_radial" cx="0" cy="0" r="1" gradientUnits="userSpaceOnUse" gradientTransform="translate(118.055 1000.01) rotate(90) scale(6.0548 4.02964)">
<stop stop-color="#FF1D92"/>
<stop offset="0.0382804" stop-color="#F11B8A"/>
<stop offset="0.2481" stop-color="#A91361"/>
<stop offset="0.4456" stop-color="#6D0C3E"/>
<stop offset="0.6251" stop-color="#3E0723"/>
<stop offset="0.783" stop-color="#1C0310"/>
<stop offset="0.9133" stop-color="#070104"/>
<stop offset="1"/>
</radialGradient>
<radialGradient id="paint20_radial" cx="0" cy="0" r="1" gradientUnits="userSpaceOnUse" gradientTransform="translate(80.8407 1172.85) rotate(90) scale(17.0345 11.3369)">
<stop stop-color="#FF1D92"/>
<stop offset="0.0382804" stop-color="#F11B8A"/>
<stop offset="0.2481" stop-color="#A91361"/>
<stop offset="0.4456" stop-color="#6D0C3E"/>
<stop offset="0.6251" stop-color="#3E0723"/>
<stop offset="0.783" stop-color="#1C0310"/>
<stop offset="0.9133" stop-color="#070104"/>
<stop offset="1"/>
</radialGradient>
<radialGradient id="paint21_radial" cx="0" cy="0" r="1" gradientUnits="userSpaceOnUse" gradientTransform="translate(80.8407 1172.85) rotate(90) scale(6.0548 4.02964)">
<stop stop-color="#FF1D92"/>
<stop offset="0.0382804" stop-color="#F11B8A"/>
<stop offset="0.2481" stop-color="#A91361"/>
<stop offset="0.4456" stop-color="#6D0C3E"/>
<stop offset="0.6251" stop-color="#3E0723"/>
<stop offset="0.783" stop-color="#1C0310"/>
<stop offset="0.9133" stop-color="#070104"/>
<stop offset="1"/>
</radialGradient>
<radialGradient id="paint22_radial" cx="0" cy="0" r="1" gradientUnits="userSpaceOnUse" gradientTransform="translate(160.587 1431.28) rotate(90) scale(17.0345 11.337)">
<stop stop-color="#FF1D92"/>
<stop offset="0.0382804" stop-color="#F11B8A"/>
<stop offset="0.2481" stop-color="#A91361"/>
<stop offset="0.4456" stop-color="#6D0C3E"/>
<stop offset="0.6251" stop-color="#3E0723"/>
<stop offset="0.783" stop-color="#1C0310"/>
<stop offset="0.9133" stop-color="#070104"/>
<stop offset="1"/>
</radialGradient>
<radialGradient id="paint23_radial" cx="0" cy="0" r="1" gradientUnits="userSpaceOnUse" gradientTransform="translate(160.587 1431.28) rotate(90) scale(6.05474 4.02964)">
<stop stop-color="#FF1D92"/>
<stop offset="0.0382804" stop-color="#F11B8A"/>
<stop offset="0.2481" stop-color="#A91361"/>
<stop offset="0.4456" stop-color="#6D0C3E"/>
<stop offset="0.6251" stop-color="#3E0723"/>
<stop offset="0.783" stop-color="#1C0310"/>
<stop offset="0.9133" stop-color="#070104"/>
<stop offset="1"/>
</radialGradient>
<radialGradient id="paint24_radial" cx="0" cy="0" r="1" gradientUnits="userSpaceOnUse" gradientTransform="translate(46.4591 769.061) rotate(90) scale(17.0345 11.3369)">
<stop stop-color="#FF1D92"/>
<stop offset="0.0382804" stop-color="#F11B8A"/>
<stop offset="0.2481" stop-color="#A91361"/>
<stop offset="0.4456" stop-color="#6D0C3E"/>
<stop offset="0.6251" stop-color="#3E0723"/>
<stop offset="0.783" stop-color="#1C0310"/>
<stop offset="0.9133" stop-color="#070104"/>
<stop offset="1"/>
</radialGradient>
<radialGradient id="paint25_radial" cx="0" cy="0" r="1" gradientUnits="userSpaceOnUse" gradientTransform="translate(46.4591 769.061) rotate(90) scale(6.05483 4.02963)">
<stop stop-color="#FF1D92"/>
<stop offset="0.0382804" stop-color="#F11B8A"/>
<stop offset="0.2481" stop-color="#A91361"/>
<stop offset="0.4456" stop-color="#6D0C3E"/>
<stop offset="0.6251" stop-color="#3E0723"/>
<stop offset="0.783" stop-color="#1C0310"/>
<stop offset="0.9133" stop-color="#070104"/>
<stop offset="1"/>
</radialGradient>
<radialGradient id="paint26_radial" cx="0" cy="0" r="1" gradientUnits="userSpaceOnUse" gradientTransform="translate(82.5924 785.09) rotate(90) scale(7.85036 5.22464)">
<stop stop-color="#FF1D92"/>
<stop offset="0.0382804" stop-color="#F11B8A"/>
<stop offset="0.2481" stop-color="#A91361"/>
<stop offset="0.4456" stop-color="#6D0C3E"/>
<stop offset="0.6251" stop-color="#3E0723"/>
<stop offset="0.783" stop-color="#1C0310"/>
<stop offset="0.9133" stop-color="#070104"/>
<stop offset="1"/>
</radialGradient>
<radialGradient id="paint27_radial" cx="0" cy="0" r="1" gradientUnits="userSpaceOnUse" gradientTransform="translate(87.4964 521.151) rotate(90) scale(7.85036 5.22464)">
<stop stop-color="#FF1D92"/>
<stop offset="0.0382804" stop-color="#F11B8A"/>
<stop offset="0.2481" stop-color="#A91361"/>
<stop offset="0.4456" stop-color="#6D0C3E"/>
<stop offset="0.6251" stop-color="#3E0723"/>
<stop offset="0.783" stop-color="#1C0310"/>
<stop offset="0.9133" stop-color="#070104"/>
<stop offset="1"/>
</radialGradient>
</defs>
</svg>
