<svg width="43" height="31" viewBox="0 0 43 31" fill="none" xmlns="http://www.w3.org/2000/svg">
<path fill-rule="evenodd" clip-rule="evenodd" d="M0.989258 0.994141H42.6893L39.3893 9.29414L36.8893 11.6941L29.7893 24.7941L21.7893 30.8941L9.78926 25.8941L6.68926 16.2941V14.7941L4.48926 13.3941L0.989258 0.994141Z" fill="url(#paint0_linear)"/>
<path opacity="0.7" fill-rule="evenodd" clip-rule="evenodd" d="M34.3893 0.994141L31.8893 6.39414L24.0893 6.89414L21.0893 10.0941L4.48926 13.3941L6.68926 14.7941L19.7893 10.7941L26.9893 10.4941L26.6893 18.8941L26.2893 22.3941L13.1893 26.1941L9.78926 25.8941L21.7893 30.8941L29.7893 24.7941L36.8893 11.6941L39.3893 9.29414L42.6893 0.994141H34.3893Z" fill="url(#paint1_linear)"/>
<path opacity="0.2" fill-rule="evenodd" clip-rule="evenodd" d="M6.68945 14.794L17.3895 13.394H24.9895L32.6895 14.694L34.6895 15.694L33.9895 17.094L31.3895 15.194H25.4895L6.68945 16.294V14.794Z" fill="#D9772F"/>
<path opacity="0.7" fill-rule="evenodd" clip-rule="evenodd" d="M29.7895 24.794L26.2895 22.394L13.1895 26.194V27.294L21.7895 30.894L29.7895 24.794Z" fill="url(#paint2_linear)"/>
<path opacity="0.7" fill-rule="evenodd" clip-rule="evenodd" d="M39.3889 9.29404L31.8889 6.39404L24.0889 6.89404L21.0889 10.094L26.9889 10.494L36.8889 11.694L39.3889 9.29404Z" fill="url(#paint3_linear)"/>
<path fill-rule="evenodd" clip-rule="evenodd" d="M0.989258 0.994141H42.6893C42.6893 0.994141 25.0893 4.79414 0.989258 0.994141Z" fill="#FF956A"/>
<defs>
<linearGradient id="paint0_linear" x1="21.8631" y1="30.8551" x2="21.8631" y2="0.994141" gradientUnits="userSpaceOnUse">
<stop stop-color="#65337C"/>
<stop offset="0.2838" stop-color="#752E32"/>
<stop offset="1" stop-color="#4A2232"/>
</linearGradient>
<linearGradient id="paint1_linear" x1="4.48686" y1="15.9246" x2="42.7369" y2="15.9246" gradientUnits="userSpaceOnUse">
<stop stop-color="#C77CBD"/>
<stop offset="1" stop-color="#974577"/>
</linearGradient>
<linearGradient id="paint2_linear" x1="13.1538" y1="26.6025" x2="29.7912" y2="26.6025" gradientUnits="userSpaceOnUse">
<stop stop-color="#C77CBD"/>
<stop offset="1" stop-color="#974577"/>
</linearGradient>
<linearGradient id="paint3_linear" x1="21.049" y1="9.03404" x2="39.3585" y2="9.03404" gradientUnits="userSpaceOnUse">
<stop stop-color="#C77CBD"/>
<stop offset="1" stop-color="#974577"/>
</linearGradient>
</defs>
</svg>
