<svg width="276" height="318" viewBox="0 0 276 318" fill="none" xmlns="http://www.w3.org/2000/svg">
<g style="mix-blend-mode:screen" clip-path="url(#clip0)">
<g style="mix-blend-mode:screen" opacity="0.61">
<path d="M25.2217 292.476C25.2217 292.476 69.397 225.065 136.355 146.511C136.633 146.233 136.91 145.676 137.466 145.397C139.689 138.99 147.468 137.04 150.246 130.633C150.524 130.355 151.08 129.798 151.358 129.241C155.803 120.327 166.083 119.77 168.583 110.299C169.139 109.742 169.695 109.184 170.25 108.349C170.806 107.792 171.362 107.235 171.917 106.677C172.473 106.12 173.029 105.563 173.584 105.006C175.529 98.8778 180.808 95.5351 186.642 91.0781C187.198 90.521 187.754 89.9639 188.309 89.4068C189.421 88.2925 190.532 87.1783 191.643 86.0641C192.199 85.507 192.755 84.9498 193.31 84.3927C201.645 80.2143 207.48 78.8215 208.313 69.072C208.869 68.5149 209.425 67.9577 209.98 67.4006C212.203 65.1722 214.426 62.9437 216.648 60.7152C217.204 60.1581 217.76 59.601 218.315 59.0439C221.094 50.6871 226.372 47.0658 233.596 44.2802C234.152 43.7231 234.707 43.166 235.263 42.6089C250.544 27.8453 266.38 13.9173 282.772 0.546509C282.772 0.546509 264.991 18.3743 238.319 46.5087C238.041 47.0658 237.486 47.3444 237.208 47.9015C228.317 48.7372 223.038 52.0799 223.038 62.9437C222.761 63.2222 222.483 63.5008 222.205 63.7794C219.704 66.2864 217.482 69.072 214.981 71.579C214.703 71.8576 214.426 72.1361 214.148 72.4147C211.647 79.3787 204.146 83.2785 199.978 87.7354C199.7 88.014 199.423 88.2925 199.145 88.8497C197.2 90.7996 195.533 92.7495 193.588 94.978C193.31 95.2565 193.033 95.5351 192.755 95.8136C182.753 96.9279 179.974 101.942 178.863 111.134C178.585 111.413 178.307 111.691 178.03 112.249C176.918 113.641 175.807 114.756 174.418 116.148C174.14 116.427 173.862 116.706 173.584 116.984C169.139 125.062 161.36 127.012 158.859 133.698C158.581 133.976 158.026 134.533 157.748 134.812C149.691 138.155 146.357 141.219 144.134 150.69C143.856 151.247 143.578 151.525 143.023 152.083C103.57 198.602 63.5626 249.021 35.2236 294.148L25.2217 292.476Z" fill="url(#paint0_linear)"/>
</g>
<path opacity="0.61" d="M30.501 315.597C42.4695 315.597 52.172 305.869 52.172 293.869C52.172 281.869 42.4695 272.141 30.501 272.141C18.5325 272.141 8.83008 281.869 8.83008 293.869C8.83008 305.869 18.5325 315.597 30.501 315.597Z" fill="url(#paint1_radial)"/>
<path opacity="0.61" d="M84.1223 254.035C50.7824 295.819 16.0533 323.953 6.88487 316.432C-2.56144 308.911 16.8868 268.799 50.5046 227.015C84.1223 185.231 118.574 157.097 127.742 164.618C137.188 172.139 117.74 212.251 84.1223 254.035Z" fill="url(#paint2_radial)"/>
<path d="M32.2151 300.597C35.9357 299.661 38.1946 295.877 37.2605 292.147C36.3264 288.417 32.5531 286.152 28.8324 287.089C25.1118 288.025 22.8529 291.808 23.787 295.539C24.7211 299.269 28.4945 301.534 32.2151 300.597Z" fill="white"/>
<g style="mix-blend-mode:screen">
<path d="M26.333 291.083C26.333 291.083 76.3428 218.937 137.744 147.626C138.022 147.068 138.577 146.79 138.855 146.233C143.578 140.662 146.357 136.205 150.524 132.305C151.08 131.748 151.358 131.469 151.913 130.912C156.359 124.227 165.805 120.048 169.417 111.97C169.972 111.134 170.528 110.577 171.084 110.02C171.639 109.463 172.195 108.906 172.751 108.349C173.306 107.792 173.862 107.235 174.418 106.677C175.251 98.8778 182.475 94.978 188.587 91.9138C189.143 91.3567 189.699 90.7996 190.254 90.2425C191.365 89.1282 192.477 88.014 193.31 87.1783C193.866 86.6212 194.422 86.0641 194.977 85.507C196.922 79.1001 210.814 85.7855 208.035 74.086C209.98 81.8857 199.423 80.4929 196.366 86.6212C196.089 86.8998 195.533 87.4569 195.255 87.7354C193.866 89.4068 192.199 91.3567 190.532 93.0281C190.254 93.3066 189.976 93.8637 189.421 94.1423C182.197 94.978 177.196 100.271 176.64 109.184C176.363 109.463 176.085 109.742 175.807 110.299C175.251 110.856 174.696 111.691 174.14 112.249C173.862 112.806 173.306 113.084 173.029 113.641C168.028 121.441 163.304 126.734 156.914 132.862C156.636 133.141 156.359 133.698 156.081 133.976C146.912 135.09 147.468 145.119 142.745 150.133C142.467 150.411 142.189 150.968 141.633 151.247C102.737 198.602 56.3389 257.099 31.6118 298.326C31.6118 298.326 27.1665 298.605 26.333 291.083Z" fill="url(#paint3_linear)"/>
</g>
<path d="M49.1165 275.206C49.95 272.699 50.2278 270.192 49.6721 267.406C49.6721 267.127 49.6721 266.57 49.3943 266.292C48.8386 265.735 48.0051 265.456 47.1716 265.456C45.2268 265.456 43.282 266.849 42.7263 268.799C42.1707 270.749 42.4485 272.977 43.8377 274.37C44.3933 275.206 45.5046 276.041 46.616 276.041C47.7273 276.32 48.8386 275.484 49.1165 274.648C48.8386 274.37 48.283 274.37 48.283 274.648L49.1165 275.206Z" fill="white"/>
<path d="M23.5549 314.204C24.3884 311.697 24.6663 309.19 24.1106 306.404C24.1106 306.126 24.1106 305.568 23.8328 305.29C23.2771 304.733 22.4436 304.454 21.6101 304.454C19.6653 304.454 17.7205 305.847 17.1648 307.797C16.6091 309.747 16.887 311.975 18.2761 313.368C18.8318 314.204 19.9431 315.039 21.0545 315.039C22.1658 315.318 23.2771 314.482 23.5549 313.647C23.2771 313.368 22.7215 313.368 22.7215 313.647L23.5549 314.204Z" fill="white"/>
<path d="M108.016 189.967C108.572 188.295 108.85 186.345 108.572 184.395C108.572 184.117 108.572 183.838 108.294 183.56C108.016 183.003 107.46 183.003 106.905 183.003C105.516 183.003 104.127 184.117 103.849 185.51C103.293 186.902 103.849 188.295 104.682 189.409C105.238 189.967 105.793 190.524 106.627 190.524C107.46 190.524 108.294 190.245 108.572 189.409C108.294 189.131 108.016 189.131 108.016 189.409V189.967Z" fill="white"/>
<path d="M39.1135 280.777C39.3914 279.384 39.1135 277.713 38.0022 276.598C36.613 276.877 35.2239 277.991 34.6682 279.384C34.1125 280.777 34.946 282.727 36.3352 283.005C37.7244 283.284 39.3914 281.612 38.5579 280.22L39.1135 280.777Z" fill="white"/>
<path d="M58.5615 273.813C58.5615 273.256 58.2837 272.977 58.0059 272.42C58.0059 272.42 58.0059 272.42 57.728 272.42C57.1724 272.699 57.1724 273.534 56.6167 273.534H56.3389V273.813C56.8945 274.648 58.0059 274.37 58.5615 273.813Z" fill="white"/>
<path d="M39.6689 299.719C39.6689 299.162 39.3911 298.883 39.1133 298.326C39.1133 298.326 39.1133 298.326 38.8355 298.326C38.2798 298.604 38.2798 299.44 37.7241 299.44H37.4463V299.719C38.002 300.276 39.1133 299.997 39.6689 299.719C39.6689 299.44 39.6689 299.44 39.6689 299.719Z" fill="white"/>
<path d="M59.1162 247.35C58.8383 246.514 58.5605 245.4 58.0048 244.564C58.0048 244.564 58.0048 244.286 57.727 244.286H57.4492C56.6157 244.843 56.3378 246.235 55.5043 246.235C55.2265 246.235 55.2265 246.235 54.9487 246.235C54.6708 246.514 54.9487 246.793 54.9487 247.071C56.06 248.185 58.0048 248.185 58.8383 246.793C58.8383 247.071 58.8383 247.071 59.1162 247.35Z" fill="white"/>
<path d="M25.2226 296.376C24.9448 295.54 24.6669 294.426 24.1113 293.59C24.1113 293.59 24.1113 293.312 23.8334 293.312H23.5556C22.7221 293.869 22.4443 295.262 21.6108 295.262C21.333 295.262 21.333 295.262 21.0551 295.262C20.7773 295.54 21.0551 295.819 21.0551 296.097C22.1665 297.212 24.1113 297.212 24.9448 295.819C24.9448 296.097 24.9448 296.376 25.2226 296.376Z" fill="white"/>
<path d="M66.8965 230.636C66.8965 230.358 66.8965 230.358 66.6187 230.079C66.3408 230.079 66.3408 230.079 66.063 229.8C65.5073 229.8 64.9517 229.8 64.6738 229.522C65.2295 230.079 65.7852 230.915 66.063 231.472C66.063 231.472 66.063 231.472 66.063 231.75C66.063 232.029 65.7852 232.029 65.7852 232.307C65.7852 232.586 66.063 232.865 66.3408 233.143C68.2857 234.815 67.1743 231.75 66.8965 230.636Z" fill="white"/>
<path d="M82.7334 209.187C82.7334 208.909 82.7334 208.909 82.4556 208.63C82.1777 208.63 82.1777 208.63 81.8999 208.351C81.3442 208.351 80.7886 208.351 80.5107 208.073C81.0664 208.63 81.6221 209.466 81.8999 210.023C81.8999 210.023 81.8999 210.023 81.8999 210.301C81.8999 210.58 81.6221 210.58 81.6221 210.858C81.6221 211.137 81.8999 211.416 82.1777 211.694C84.1226 213.087 83.0112 210.023 82.7334 209.187Z" fill="white"/>
<path d="M83.5662 239.829C83.5662 240.664 82.4548 240.943 81.8992 240.664C81.3435 240.386 81.3435 239.271 81.8992 238.993C82.7327 238.714 83.5662 239.271 83.5662 239.829Z" fill="white"/>
<path d="M60.5063 258.771C61.062 259.049 61.3398 259.606 61.062 260.163C60.7842 260.721 59.9507 260.442 59.6729 260.163C59.395 260.163 59.1172 259.885 59.1172 259.606C59.1172 259.049 60.2285 259.049 60.2285 258.492L60.5063 258.771Z" fill="white"/>
<path d="M86.3442 216.987C86.8999 217.265 87.1777 217.822 86.8999 218.38C86.6221 218.937 85.7886 218.658 85.5107 218.38C85.2329 218.38 84.9551 218.101 84.9551 217.822C84.9551 217.265 86.0664 217.265 86.0664 216.708L86.3442 216.987Z" fill="white"/>
<path d="M38.5571 267.406C38.835 267.684 38.835 267.684 38.835 267.963C38.2793 267.963 38.0015 267.406 37.4458 267.127C37.168 266.849 37.168 266.57 37.168 266.292C37.168 266.013 37.4458 266.013 37.7236 266.013C38.0015 265.735 38.2793 265.177 38.5571 265.177C38.835 265.177 38.835 265.456 38.835 265.735C38.835 266.013 38.835 266.292 38.5571 266.292C38.2793 266.849 38.0015 267.127 37.7236 267.684L38.5571 267.406Z" fill="white"/>
<path d="M68.0083 215.873C68.2861 216.151 68.2861 216.151 68.2861 216.43C67.7305 216.43 67.4526 215.873 66.897 215.594C66.6191 215.315 66.6191 215.037 66.6191 214.758C66.6191 214.48 66.897 214.48 67.1748 214.48C67.4526 214.201 67.7305 213.644 68.0083 213.644C68.2861 213.644 68.2861 213.923 68.2861 214.201C68.2861 214.48 68.2861 214.758 68.0083 214.758C67.7305 215.315 67.4526 215.594 67.1748 216.151L68.0083 215.873Z" fill="white"/>
<path d="M32.7235 272.698C32.7235 272.141 32.1678 272.141 31.89 272.42C31.6122 272.698 31.6122 273.256 31.89 273.813C32.1678 273.813 32.7235 273.534 32.7235 272.698Z" fill="white"/>
<path d="M1.88379 267.684C1.88379 267.963 1.60596 267.963 1.32813 267.963C1.05029 267.963 1.05029 267.684 0.772461 267.684V267.406C0.772461 267.127 1.05029 266.849 1.32813 266.849C1.60596 266.849 1.88379 267.127 1.88379 267.406C1.88379 267.684 1.60596 267.963 1.32813 267.963L1.88379 267.684Z" fill="white"/>
<path d="M53.2821 240.943C53.8378 240.943 53.8378 240.386 53.5599 239.829C53.2821 239.829 53.0043 239.829 53.0043 240.107C52.7264 240.386 52.7264 240.664 53.0043 240.664C53.0043 240.943 53.2821 240.943 53.2821 240.943Z" fill="white"/>
<path d="M43.0028 260.72C43.2806 260.163 43.2806 259.606 43.0028 259.328C42.7249 259.328 42.4471 259.606 41.8915 259.606C41.6136 259.606 41.6136 259.885 41.3358 259.885C41.058 260.163 41.3358 260.72 41.6136 260.72C42.1693 261.278 42.7249 260.999 43.0028 260.72Z" fill="white"/>
<path d="M128.575 171.303C128.853 170.746 128.853 170.189 128.575 169.91C128.297 170.189 127.742 170.189 127.464 170.467C127.186 170.467 127.186 170.746 126.908 170.746C126.63 171.025 126.908 171.582 127.186 171.582C127.742 171.86 128.297 171.582 128.575 171.303Z" fill="white"/>
<path d="M58.284 256.264C58.5619 255.985 58.8397 255.428 58.5619 254.871C58.284 254.871 57.7284 255.149 57.4505 255.149C57.1727 255.428 56.8949 255.985 57.1727 256.542C57.4505 256.821 58.284 256.821 58.284 256.264Z" fill="white"/>
<path d="M56.3379 261.278C56.3379 261.556 56.0601 261.835 55.7822 262.113C55.5044 261.835 55.5044 261.556 55.2266 260.999C55.5044 260.442 56.3379 260.442 56.6157 260.999L56.3379 261.278Z" fill="white"/>
<path d="M57.1729 273.256L57.4507 273.534C57.1729 273.534 56.895 273.813 56.3394 273.813C56.0615 273.813 55.5059 273.534 55.5059 273.256C55.5059 272.977 55.7837 272.42 56.0615 272.699C56.6172 272.699 56.895 272.977 57.1729 273.256Z" fill="white"/>
<path d="M22.4434 291.083L22.7212 291.362C22.4434 291.362 22.1655 291.641 21.6099 291.641C21.332 291.641 20.7764 291.362 20.7764 291.083C20.7764 290.805 21.0542 290.248 21.332 290.526C21.8877 290.526 22.1655 290.805 22.4434 291.083Z" fill="white"/>
<path d="M25.2217 290.526L25.4995 290.805C25.2217 290.805 24.9439 291.083 24.3882 291.083C24.1104 291.083 23.5547 290.805 23.5547 290.526C23.5547 290.248 23.8325 289.691 24.1104 289.969C24.666 289.969 24.9439 290.248 25.2217 290.526Z" fill="white"/>
<path d="M28.5562 269.356C28.5562 269.634 28.2783 269.913 28.0005 269.913C27.7227 269.913 27.4448 269.913 27.167 269.634C27.167 269.356 27.167 269.077 27.167 269.077H27.4448C27.7227 269.077 28.2783 269.077 28.5562 269.356Z" fill="white"/>
<path d="M158.581 128.405C157.47 128.405 159.415 127.848 158.581 127.848V128.405Z" fill="white"/>
<path d="M176.64 110.577C176.64 110.856 176.917 111.134 177.195 110.856C177.473 110.856 177.751 110.577 178.029 110.577C178.029 110.577 179.974 110.299 179.14 111.134V111.413C178.862 111.97 178.584 112.249 178.029 112.527C177.473 112.806 176.917 112.806 176.362 112.249C176.084 111.97 176.084 111.692 176.084 111.134C176.084 111.134 176.362 110.577 176.64 110.577Z" fill="white"/>
<path d="M74.6758 232.586C75.2315 232.586 75.5093 232.029 75.5093 231.472C75.5093 231.193 75.5093 230.636 75.2315 230.358C74.9536 230.079 74.398 230.358 73.8423 230.636C73.5645 230.915 73.0088 230.915 72.731 231.193C72.4531 231.193 72.4531 231.472 72.4531 231.472C72.4531 231.75 72.4531 231.75 72.731 232.029C73.2866 232.586 73.8423 233.143 74.398 233.7L74.6758 232.586Z" fill="white"/>
<path d="M62.7288 243.45C67.4519 245.121 68.5633 239.271 65.2293 237.043C61.3396 234.815 58.5613 242.057 62.7288 243.45Z" fill="white"/>
<path d="M43.5579 284.119C48.281 285.791 49.3923 279.941 46.0584 277.713C42.1687 275.484 39.3904 282.727 43.5579 284.119Z" fill="white"/>
<path d="M35.2229 294.148C39.9461 295.819 41.0574 289.969 37.7234 287.741C33.8337 285.512 31.0554 292.755 35.2229 294.148Z" fill="white"/>
<path d="M18.8323 285.512C23.5554 287.184 24.6668 281.334 21.3328 279.105C17.4431 276.877 14.6648 284.398 18.8323 285.512Z" fill="white"/>
<path d="M174.14 113.084C176.918 113.92 177.474 110.577 175.529 109.463C173.306 108.07 171.639 112.249 174.14 113.084Z" fill="white"/>
<path d="M38.5581 274.091C38.2803 274.648 37.1689 274.648 36.6133 274.091C36.8911 273.813 37.4468 273.256 38.0024 272.977C38.5581 272.977 39.1138 273.256 39.3916 273.813C39.1138 274.091 39.1138 274.37 38.8359 274.648L38.5581 274.091Z" fill="white"/>
<path d="M152.748 137.04C150.803 125.898 151.636 138.155 152.192 137.319L152.748 137.04Z" fill="white"/>
<path d="M28.2778 233.143C28.2778 232.865 28.2778 232.307 28 232.029C27.7222 231.75 27.4444 231.472 27.1665 231.472C26.8887 231.472 26.8887 231.472 26.6109 231.75C26.333 232.029 26.0552 232.865 26.6109 233.143C27.1665 233.7 28 233.7 28.2778 233.143Z" fill="white"/>
<path d="M58.8398 238.993C59.1177 239.271 58.8398 240.107 58.2842 240.107C58.0063 239.829 57.7285 239.829 57.7285 239.55C58.0063 239.271 58.2842 239.271 58.562 238.993H58.8398Z" fill="white"/>
<path d="M40.5024 284.398C40.5024 284.119 40.2246 283.841 40.2246 283.841C39.9468 283.841 39.9468 284.119 39.6689 284.119C39.6689 284.398 39.9468 284.677 40.5024 284.398Z" fill="white"/>
</g>
<defs>
<linearGradient id="paint0_linear" x1="-1.07488" y1="187.564" x2="310.179" y2="109.658" gradientUnits="userSpaceOnUse">
<stop stop-color="#FF6392"/>
<stop offset="1" stop-color="#FF6392" stop-opacity="0"/>
</linearGradient>
<radialGradient id="paint1_radial" cx="0" cy="0" r="1" gradientUnits="userSpaceOnUse" gradientTransform="translate(30.4222 293.816) rotate(-14.123) scale(21.6501 21.7)">
<stop stop-color="#FF006A"/>
<stop offset="1" stop-color="#FF006A" stop-opacity="0"/>
</radialGradient>
<radialGradient id="paint2_radial" cx="0" cy="0" r="1" gradientUnits="userSpaceOnUse" gradientTransform="translate(67.3209 240.555) rotate(38.6621) scale(21.6686 97.0087)">
<stop stop-color="#FF006A"/>
<stop offset="1" stop-color="#FF006A" stop-opacity="0"/>
</radialGradient>
<linearGradient id="paint3_linear" x1="7.02781" y1="214.737" x2="229.31" y2="159.1" gradientUnits="userSpaceOnUse">
<stop stop-color="white"/>
<stop offset="1" stop-color="white" stop-opacity="0"/>
</linearGradient>
<clipPath id="clip0">
<rect width="282" height="317" fill="white" transform="translate(0.772461 0.546509)"/>
</clipPath>
</defs>
</svg>
