<svg width="298" height="162" viewBox="0 0 298 162" fill="none" xmlns="http://www.w3.org/2000/svg">
<g style="mix-blend-mode:screen">
<path d="M146.583 161.476C227.479 161.476 293.058 126.441 293.058 83.2228C293.058 40.0045 227.479 4.96924 146.583 4.96924C65.6881 4.96924 0.109375 40.0045 0.109375 83.2228C0.109375 126.441 65.6881 161.476 146.583 161.476Z" fill="url(#paint0_radial)"/>
</g>
<path d="M171.233 26.9375H169.547V56.3151H171.233V26.9375Z" fill="url(#paint1_linear)"/>
<path d="M171.233 34.6069H169.547V38.7666H171.233V34.6069Z" fill="url(#paint2_linear)"/>
<path d="M180.056 26.0276H175.256V55.6651H180.056V26.0276Z" fill="url(#paint3_linear)"/>
<path d="M180.186 32.3972H176.812V42.7964H180.186V32.3972Z" fill="url(#paint4_linear)"/>
<path d="M246.611 67.884H244.925V97.2616H246.611V67.884Z" fill="url(#paint5_linear)"/>
<path d="M260.623 81.793H256.602V94.012H260.623V81.793Z" fill="url(#paint6_linear)"/>
<path d="M50.7075 70.2239H45.9072V99.8614H50.7075V70.2239Z" fill="url(#paint7_linear)"/>
<path d="M32.9328 85.9526H31.376V95.7018H32.9328V85.9526Z" fill="url(#paint8_linear)"/>
<path d="M228.059 110.39C228.059 112.6 193.419 114.94 150.476 115.59C107.532 116.24 72.7627 115.07 72.7627 112.86C72.7627 110.65 107.403 108.311 150.346 107.661C193.159 106.881 227.929 108.181 228.059 110.39Z" fill="url(#paint9_linear)"/>
<path d="M292.798 126.119C292.798 128.329 227.929 131.189 147.881 132.489C67.8327 133.789 2.83398 133.009 2.83398 130.799C2.83398 128.589 67.7029 125.729 147.751 124.429C227.8 123.26 292.668 123.909 292.798 126.119Z" fill="url(#paint10_linear)"/>
<path d="M67.5732 91.6721C67.5732 91.6721 94.5587 51.8954 144.767 49.0356C197.83 46.0459 228.059 89.0723 228.059 89.0723C228.059 89.0723 112.722 94.0119 67.5732 91.6721Z" fill="url(#paint11_linear)"/>
<path d="M79.1201 92.0621L79.6391 95.5718L216.772 93.492L217.94 89.5923L79.1201 92.0621Z" fill="url(#paint12_linear)"/>
<path d="M66.5352 95.5717C66.5352 95.5717 123.49 116.24 230.654 93.2319L66.5352 95.5717Z" fill="url(#paint13_linear)"/>
<path d="M218.718 109.481C218.718 109.481 231.692 90.2422 255.953 88.9423C281.511 87.5124 296.171 108.311 296.171 108.311C296.171 108.311 240.514 110.651 218.718 109.481Z" fill="url(#paint14_linear)"/>
<path d="M224.297 109.741L224.686 111.431L290.852 110.391L291.371 108.441L224.297 109.741Z" fill="url(#paint15_linear)"/>
<path d="M218.198 111.431C218.198 111.431 245.703 121.44 297.468 110.261L218.198 111.431Z" fill="url(#paint16_linear)"/>
<path d="M4.52051 112.73C4.52051 112.73 17.4943 93.492 41.7553 92.1921C67.3137 90.7622 81.974 111.56 81.974 111.56C81.974 111.56 26.3165 113.9 4.52051 112.73Z" fill="url(#paint17_linear)"/>
<path d="M10.0996 112.86L10.3591 114.68L76.6552 113.64L77.1741 111.69L10.0996 112.86Z" fill="url(#paint18_linear)"/>
<path d="M4.00195 114.68C4.00195 114.68 31.5064 124.689 83.2718 113.51L4.00195 114.68Z" fill="url(#paint19_linear)"/>
<path d="M221.571 2.8894L203.278 6.91907L203.927 60.0847L220.015 61.9045L221.571 2.8894Z" fill="url(#paint20_linear)"/>
<path d="M123.36 104.021L129.588 110.001C143.599 111.82 154.108 112.6 171.623 108.831L174.866 102.071L123.36 104.021Z" fill="url(#paint21_linear)"/>
<path d="M209.507 63.8544L210.156 0.419678L230.395 3.7994L229.227 61.2547L209.507 63.8544Z" fill="url(#paint22_linear)"/>
<path d="M220.015 85.1727C219.626 85.1727 219.366 84.9127 219.366 84.5227V61.9046C219.366 61.5146 219.626 61.2546 220.015 61.2546C220.404 61.2546 220.664 61.5146 220.664 61.9046V84.5227C220.664 84.9127 220.404 85.1727 220.015 85.1727Z" fill="url(#paint23_linear)"/>
<path d="M50.7072 76.5935H47.334V86.9926H50.7072V76.5935Z" fill="url(#paint24_linear)"/>
<path d="M246.611 75.5535H244.925V79.7131H246.611V75.5535Z" fill="url(#paint25_linear)"/>
<path d="M260.623 84.0029H256.602V86.3427H260.623V84.0029Z" fill="url(#paint26_linear)"/>
<path d="M210.025 12.6387L230.264 14.7185L230.005 26.0276L209.896 24.7277L210.025 12.6387Z" fill="url(#paint27_linear)"/>
<path d="M209.766 34.0867L217.939 34.7366V39.4162H209.895L209.766 34.0867Z" fill="url(#paint28_linear)"/>
<path d="M41.6253 129.629C41.236 129.629 40.9766 129.369 40.9766 128.979V118.71C40.9766 118.32 41.236 118.06 41.6253 118.06C42.0145 118.06 42.2739 118.32 42.2739 118.71V128.849C42.2739 129.369 42.0145 129.629 41.6253 129.629Z" fill="url(#paint29_linear)"/>
<path d="M258.677 128.329C258.288 128.329 258.028 128.069 258.028 127.679V115.46C258.028 115.07 258.288 114.81 258.677 114.81C259.066 114.81 259.326 115.07 259.326 115.46V127.679C259.326 128.069 259.066 128.329 258.677 128.329Z" fill="url(#paint30_linear)"/>
<path d="M79.3794 79.7132C79.2497 79.7132 78.9902 79.5832 78.9902 79.3232C78.9902 79.1932 79.12 78.9332 79.3794 78.9332L185.375 76.8534C183.17 73.4737 170.066 54.2353 150.865 49.0357C150.735 49.0357 150.606 48.7757 150.606 48.6457C150.606 48.5157 150.865 48.3857 150.995 48.3857C172.142 54.1053 186.024 76.7234 186.154 76.9834L186.413 77.5033L79.3794 79.7132Z" fill="url(#paint31_linear)"/>
<path d="M162.152 91.0221C162.022 91.0221 161.892 91.0221 161.892 90.8921C161.762 90.7621 161.762 90.5021 161.892 90.3721L170.974 82.8328H222.999C223.129 82.8328 223.388 82.9628 223.388 83.2227C223.388 83.3527 223.258 83.6127 222.999 83.6127H171.363L162.411 91.0221C162.281 90.8921 162.281 91.0221 162.152 91.0221Z" fill="url(#paint32_linear)"/>
<path d="M66.6645 112.08H66.5347L54.8583 105.711L9.70953 107.141C9.45005 107.141 9.32031 107.011 9.32031 106.751C9.32031 106.621 9.45005 106.361 9.70953 106.361L54.9881 104.801H55.1178L66.7942 111.17C66.924 111.3 67.0537 111.43 66.9239 111.69C66.7942 111.95 66.7942 112.08 66.6645 112.08Z" fill="url(#paint33_linear)"/>
<path d="M232.859 109.871H232.729C232.6 109.741 232.47 109.611 232.6 109.351C242.979 90.7622 267.11 89.3323 267.369 89.3323C267.499 89.3323 267.759 89.4623 267.759 89.5923C267.759 89.7222 267.629 89.9822 267.499 89.9822C267.24 89.9822 243.498 91.4121 233.248 109.611C233.119 109.741 232.989 109.871 232.859 109.871Z" fill="url(#paint34_linear)"/>
<path d="M47.5929 132.359C52.8235 132.359 57.0638 132.01 57.0638 131.579C57.0638 131.148 52.8235 130.799 47.5929 130.799C42.3623 130.799 38.1221 131.148 38.1221 131.579C38.1221 132.01 42.3623 132.359 47.5929 132.359Z" fill="url(#paint35_linear)"/>
<path d="M152.552 131.579C157.783 131.579 162.023 131.23 162.023 130.799C162.023 130.368 157.783 130.019 152.552 130.019C147.321 130.019 143.081 130.368 143.081 130.799C143.081 131.23 147.321 131.579 152.552 131.579Z" fill="url(#paint36_linear)"/>
<path d="M257.899 128.459C263.129 128.459 267.369 128.11 267.369 127.679C267.369 127.248 263.129 126.899 257.899 126.899C252.668 126.899 248.428 127.248 248.428 127.679C248.428 128.11 252.668 128.459 257.899 128.459Z" fill="url(#paint37_linear)"/>
<defs>
<radialGradient id="paint0_radial" cx="0" cy="0" r="1" gradientUnits="userSpaceOnUse" gradientTransform="translate(146.543 83.1997) scale(146.435 78.3082)">
<stop stop-color="#0081CC"/>
<stop offset="0.1975" stop-color="#005C91"/>
<stop offset="0.3951" stop-color="#003B5E"/>
<stop offset="0.5809" stop-color="#002235"/>
<stop offset="0.7492" stop-color="#000F18"/>
<stop offset="0.8945" stop-color="#000406"/>
<stop offset="1"/>
</radialGradient>
<linearGradient id="paint1_linear" x1="170.344" y1="56.262" x2="170.344" y2="26.9298" gradientUnits="userSpaceOnUse">
<stop stop-color="#2C5BE4"/>
<stop offset="1" stop-color="#2487CF"/>
</linearGradient>
<linearGradient id="paint2_linear" x1="170.344" y1="38.7505" x2="170.344" y2="34.5604" gradientUnits="userSpaceOnUse">
<stop stop-color="#30A7FB"/>
<stop offset="1" stop-color="#00FEF4"/>
</linearGradient>
<linearGradient id="paint3_linear" x1="177.74" y1="55.7254" x2="177.74" y2="26.0312" gradientUnits="userSpaceOnUse">
<stop stop-color="#2C5BE4"/>
<stop offset="1" stop-color="#2487CF"/>
</linearGradient>
<linearGradient id="paint4_linear" x1="178.489" y1="42.7626" x2="178.489" y2="32.3951" gradientUnits="userSpaceOnUse">
<stop stop-color="#30A7FB"/>
<stop offset="1" stop-color="#00FEF4"/>
</linearGradient>
<linearGradient id="paint5_linear" x1="245.712" y1="97.2056" x2="245.712" y2="67.8734" gradientUnits="userSpaceOnUse">
<stop stop-color="#2C5BE4"/>
<stop offset="1" stop-color="#2487CF"/>
</linearGradient>
<linearGradient id="paint6_linear" x1="258.674" y1="94.0527" x2="258.674" y2="81.8045" gradientUnits="userSpaceOnUse">
<stop stop-color="#2C5BE4"/>
<stop offset="1" stop-color="#2487CF"/>
</linearGradient>
<linearGradient id="paint7_linear" x1="48.2936" y1="99.9692" x2="48.2936" y2="70.275" gradientUnits="userSpaceOnUse">
<stop stop-color="#2C5BE4"/>
<stop offset="1" stop-color="#2487CF"/>
</linearGradient>
<linearGradient id="paint8_linear" x1="32.0823" y1="95.6255" x2="32.0823" y2="85.916" gradientUnits="userSpaceOnUse">
<stop stop-color="#2C5BE4"/>
<stop offset="1" stop-color="#2487CF"/>
</linearGradient>
<linearGradient id="paint9_linear" x1="72.7171" y1="111.606" x2="228.012" y2="111.606" gradientUnits="userSpaceOnUse">
<stop stop-color="#2C8AE4"/>
<stop offset="1" stop-color="#329FD1"/>
</linearGradient>
<linearGradient id="paint10_linear" x1="2.79506" y1="128.525" x2="292.743" y2="128.525" gradientUnits="userSpaceOnUse">
<stop stop-color="#2C8AE4"/>
<stop offset="1" stop-color="#329FD1"/>
</linearGradient>
<linearGradient id="paint11_linear" x1="147.769" y1="92.3188" x2="147.769" y2="48.9502" gradientUnits="userSpaceOnUse">
<stop stop-color="#2C8AE4"/>
<stop offset="1" stop-color="#329FD1"/>
</linearGradient>
<linearGradient id="paint12_linear" x1="79.0882" y1="92.6291" x2="217.923" y2="92.6291" gradientUnits="userSpaceOnUse">
<stop stop-color="#30A7FB"/>
<stop offset="1" stop-color="#00FEF4"/>
</linearGradient>
<linearGradient id="paint13_linear" x1="148.563" y1="104.159" x2="148.563" y2="93.2599" gradientUnits="userSpaceOnUse">
<stop stop-color="#2C8AE4"/>
<stop offset="1" stop-color="#329FD1"/>
</linearGradient>
<linearGradient id="paint14_linear" x1="257.519" y1="109.782" x2="257.519" y2="88.8323" gradientUnits="userSpaceOnUse">
<stop stop-color="#2C8AE4"/>
<stop offset="1" stop-color="#329FD1"/>
</linearGradient>
<linearGradient id="paint15_linear" x1="224.342" y1="109.933" x2="291.408" y2="109.933" gradientUnits="userSpaceOnUse">
<stop stop-color="#30A7FB"/>
<stop offset="1" stop-color="#00FEF4"/>
</linearGradient>
<linearGradient id="paint16_linear" x1="257.902" y1="115.502" x2="257.902" y2="110.237" gradientUnits="userSpaceOnUse">
<stop stop-color="#2C8AE4"/>
<stop offset="1" stop-color="#329FD1"/>
</linearGradient>
<linearGradient id="paint17_linear" x1="43.3181" y1="113.021" x2="43.3181" y2="92.0713" gradientUnits="userSpaceOnUse">
<stop stop-color="#2C8AE4"/>
<stop offset="1" stop-color="#329FD1"/>
</linearGradient>
<linearGradient id="paint18_linear" x1="10.1407" y1="113.171" x2="77.2077" y2="113.171" gradientUnits="userSpaceOnUse">
<stop stop-color="#30A7FB"/>
<stop offset="1" stop-color="#00FEF4"/>
</linearGradient>
<linearGradient id="paint19_linear" x1="43.7019" y1="118.741" x2="43.7019" y2="113.476" gradientUnits="userSpaceOnUse">
<stop stop-color="#2C8AE4"/>
<stop offset="1" stop-color="#329FD1"/>
</linearGradient>
<linearGradient id="paint20_linear" x1="212.443" y1="61.9093" x2="212.443" y2="2.82701" gradientUnits="userSpaceOnUse">
<stop stop-color="#2C5BE4"/>
<stop offset="1" stop-color="#2487CF"/>
</linearGradient>
<linearGradient id="paint21_linear" x1="149.165" y1="111.493" x2="149.165" y2="102.115" gradientUnits="userSpaceOnUse">
<stop stop-color="#2C5BE4"/>
<stop offset="1" stop-color="#2487CF"/>
</linearGradient>
<linearGradient id="paint22_linear" x1="219.975" y1="63.8469" x2="219.975" y2="0.419678" gradientUnits="userSpaceOnUse">
<stop stop-color="#2C8AE4"/>
<stop offset="1" stop-color="#329FD1"/>
</linearGradient>
<linearGradient id="paint23_linear" x1="219.211" y1="73.1975" x2="220.739" y2="73.186" gradientUnits="userSpaceOnUse">
<stop stop-color="#2C8AE4"/>
<stop offset="1" stop-color="#329FD1"/>
</linearGradient>
<linearGradient id="paint24_linear" x1="49.0416" y1="87.0062" x2="49.0416" y2="76.6389" gradientUnits="userSpaceOnUse">
<stop stop-color="#30A7FB"/>
<stop offset="1" stop-color="#00FEF4"/>
</linearGradient>
<linearGradient id="paint25_linear" x1="245.712" y1="79.694" x2="245.712" y2="75.5039" gradientUnits="userSpaceOnUse">
<stop stop-color="#30A7FB"/>
<stop offset="1" stop-color="#00FEF4"/>
</linearGradient>
<linearGradient id="paint26_linear" x1="258.674" y1="86.4164" x2="258.674" y2="84.0337" gradientUnits="userSpaceOnUse">
<stop stop-color="#30A7FB"/>
<stop offset="1" stop-color="#00FEF4"/>
</linearGradient>
<linearGradient id="paint27_linear" x1="220.057" y1="26.0312" x2="220.057" y2="12.6219" gradientUnits="userSpaceOnUse">
<stop stop-color="#30A7FB"/>
<stop offset="1" stop-color="#00FEF4"/>
</linearGradient>
<linearGradient id="paint28_linear" x1="213.869" y1="39.4638" x2="213.869" y2="34.0306" gradientUnits="userSpaceOnUse">
<stop stop-color="#30A7FB"/>
<stop offset="1" stop-color="#00FEF4"/>
</linearGradient>
<linearGradient id="paint29_linear" x1="40.9081" y1="123.875" x2="42.3444" y2="123.864" gradientUnits="userSpaceOnUse">
<stop stop-color="#2C8AE4"/>
<stop offset="1" stop-color="#329FD1"/>
</linearGradient>
<linearGradient id="paint30_linear" x1="257.948" y1="121.602" x2="259.398" y2="121.591" gradientUnits="userSpaceOnUse">
<stop stop-color="#2C8AE4"/>
<stop offset="1" stop-color="#329FD1"/>
</linearGradient>
<linearGradient id="paint31_linear" x1="79.058" y1="64.1776" x2="186.635" y2="64.1776" gradientUnits="userSpaceOnUse">
<stop stop-color="#30A7FB"/>
<stop offset="1" stop-color="#00FEF4"/>
</linearGradient>
<linearGradient id="paint32_linear" x1="161.809" y1="86.9118" x2="223.484" y2="86.9118" gradientUnits="userSpaceOnUse">
<stop stop-color="#30A7FB"/>
<stop offset="1" stop-color="#00FEF4"/>
</linearGradient>
<linearGradient id="paint33_linear" x1="9.37571" y1="108.514" x2="66.9512" y2="108.514" gradientUnits="userSpaceOnUse">
<stop stop-color="#30A7FB"/>
<stop offset="1" stop-color="#00FEF4"/>
</linearGradient>
<linearGradient id="paint34_linear" x1="232.481" y1="99.6203" x2="267.64" y2="99.6203" gradientUnits="userSpaceOnUse">
<stop stop-color="#30A7FB"/>
<stop offset="1" stop-color="#00FEF4"/>
</linearGradient>
<linearGradient id="paint35_linear" x1="47.6363" y1="132.307" x2="47.6363" y2="130.808" gradientUnits="userSpaceOnUse">
<stop stop-color="#30A7FB"/>
<stop offset="1" stop-color="#00FEF4"/>
</linearGradient>
<linearGradient id="paint36_linear" x1="152.594" y1="131.558" x2="152.594" y2="130.059" gradientUnits="userSpaceOnUse">
<stop stop-color="#30A7FB"/>
<stop offset="1" stop-color="#00FEF4"/>
</linearGradient>
<linearGradient id="paint37_linear" x1="257.902" y1="128.441" x2="257.902" y2="126.942" gradientUnits="userSpaceOnUse">
<stop stop-color="#30A7FB"/>
<stop offset="1" stop-color="#00FEF4"/>
</linearGradient>
</defs>
</svg>
