<svg width="72" height="73" viewBox="0 0 72 73" fill="none" xmlns="http://www.w3.org/2000/svg">
<g style="mix-blend-mode:screen">
<path d="M70.7803 36.4951C70.7803 55.7037 55.2086 71.2754 36 71.2754C16.7914 71.2754 1.21973 55.7037 1.21973 36.4951C1.21973 17.2865 16.7914 1.71484 36 1.71484C55.2086 1.71484 70.7803 17.2865 70.7803 36.4951Z" fill="url(#paint0_linear)"/>
<path d="M70.7803 36.4951C70.7803 55.7037 55.2086 71.2754 36 71.2754C16.7914 71.2754 1.21973 55.7037 1.21973 36.4951C1.21973 17.2865 16.7914 1.71484 36 1.71484C55.2086 1.71484 70.7803 17.2865 70.7803 36.4951Z" stroke="url(#paint1_linear)" stroke-width="2"/>
</g>
<path d="M29.4406 52.8944C28.2813 52.8944 28.4784 52.4567 28.0786 51.3529L24.6699 40.1349L50.9088 24.5684" fill="#C8DAEA"/>
<path d="M29.4404 52.8943C30.3349 52.8943 30.73 52.4853 31.2294 51.9998L36.0001 47.3609L30.0493 43.7725" fill="#A9C9DD"/>
<path d="M30.0485 43.7736L44.4679 54.4269C46.1135 55.3348 47.3008 54.8646 47.7108 52.8993L53.5803 25.2403C54.1811 22.8311 52.6619 21.738 51.0876 22.4527L16.6222 35.7424C14.2697 36.6861 14.2837 37.9986 16.1934 38.5833L25.038 41.3441L45.5142 28.4259C46.4809 27.8397 47.3682 28.1546 46.6401 28.801" fill="url(#paint2_linear)"/>
<defs>
<linearGradient id="paint0_linear" x1="35.9919" y1="95.0766" x2="35.9919" y2="-20.8942" gradientUnits="userSpaceOnUse">
<stop stop-color="#BD13FF"/>
<stop offset="0.1828" stop-color="#A93995"/>
<stop offset="0.5233" stop-color="#A93995" stop-opacity="0.5"/>
<stop offset="1" stop-color="#A93995" stop-opacity="0"/>
</linearGradient>
<linearGradient id="paint1_linear" x1="0.219727" y1="43.8185" x2="71.7644" y2="43.8185" gradientUnits="userSpaceOnUse">
<stop stop-color="#A0ACB6"/>
<stop offset="0.1064" stop-color="#717785"/>
<stop offset="0.2648" stop-color="#E4E7EA"/>
<stop offset="0.3977" stop-color="#94A4AD"/>
<stop offset="0.5455" stop-color="#636877"/>
<stop offset="0.7145" stop-color="#A8B5BC"/>
<stop offset="0.805" stop-color="#D1D7DC"/>
<stop offset="0.8871" stop-color="#6C7278"/>
<stop offset="0.9441" stop-color="#8F99A3"/>
<stop offset="1" stop-color="#A3A9AE"/>
</linearGradient>
<linearGradient id="paint2_linear" x1="40.4855" y1="36.4981" x2="46.0695" y2="49.2207" gradientUnits="userSpaceOnUse">
<stop stop-color="#EFF7FC"/>
<stop offset="1" stop-color="white"/>
</linearGradient>
</defs>
</svg>
