<svg width="87" height="88" viewBox="0 0 87 88" fill="none" xmlns="http://www.w3.org/2000/svg">
<g clip-path="url(#clip0)">
<path d="M86.9649 43.5294C86.9649 59.6632 78.2841 73.9589 65.162 81.311C58.9038 84.9871 51.6362 87.0294 43.9648 87.0294C20.1432 87.0294 0.964844 67.6279 0.964844 43.5294C0.964844 42.5082 0.964844 41.4871 1.16672 40.466C2.57987 17.797 21.1526 0.0293579 43.9648 0.0293579C67.7864 0.0293579 86.9649 19.4308 86.9649 43.5294Z" fill="url(#paint0_radial)"/>
<path d="M84.9461 44.5505C84.9461 60.4801 76.4672 74.1632 63.7489 81.5153C57.6926 84.9872 50.6268 87.0294 42.9555 87.0294C19.7395 87.0294 0.964844 68.0365 0.964844 44.5505C0.964844 43.5294 0.964844 42.5083 1.16672 41.4872C2.57987 19.4308 20.7489 1.86743 42.9555 1.86743C66.1714 1.86743 84.9461 21.0646 84.9461 44.5505Z" fill="url(#paint1_radial)"/>
<path d="M1.16672 42.9167C0.964844 43.7336 0.964844 44.7547 0.964844 45.7758C0.964844 68.6491 18.932 87.0294 41.3404 87.0294C48.608 87.0294 55.4719 84.9871 61.3263 81.5153C73.439 74.3674 81.716 61.0927 81.716 45.5716C81.716 44.7547 81.1104 43.5294 81.1104 42.7124C81.1104 42.304 81.1104 41.6913 81.1104 41.2829C81.1104 40.2617 80.9085 39.2406 80.9085 38.2195C80.9085 37.6068 80.9085 37.1984 80.9085 36.5857C80.9085 36.1772 80.7066 35.7688 80.7066 35.1561C80.7066 34.135 80.3029 33.1139 80.5048 32.297C80.7066 31.6843 80.9085 31.0716 80.3029 30.6632C79.8991 30.4589 79.6972 30.4589 79.2935 29.8463C79.0916 29.4378 78.8897 29.0294 78.486 28.8251C78.0822 28.2124 77.2747 27.804 77.0728 27.1913C77.0728 26.9871 76.6691 26.7829 76.6691 26.5786C76.6691 26.3744 76.8709 26.1702 76.8709 25.7617C76.2653 25.5575 75.6597 25.7617 75.2559 25.7617C74.6503 25.5575 74.4484 24.9448 74.4484 24.3322C74.4484 23.9237 74.4484 23.7195 74.6503 23.311C74.6503 22.9026 74.6503 22.6984 74.6503 22.2899C74.6503 22.4941 74.6503 22.6984 74.6503 22.9026C74.6503 22.2899 74.8522 21.2688 74.6503 20.8603C74.4484 20.4519 73.8428 19.8392 73.6409 19.4308C73.0353 18.8181 72.6315 18.8181 71.824 18.6139C71.0165 18.4096 71.0165 17.3885 70.6127 16.5716C70.4109 16.1632 70.209 15.9589 70.0071 15.7547C69.4015 15.142 68.7958 14.3251 68.3921 13.5082C66.9789 12.2829 66.3733 12.4871 64.7583 12.2829C63.3451 12.2829 61.7301 11.6702 60.5188 11.0575C58.7019 10.2406 56.885 9.01526 54.8663 9.42372C53.655 9.62794 52.6456 10.4448 51.2324 10.4448C50.0212 10.4448 49.2137 10.0364 48.4062 9.42372C46.3874 8.40259 44.5705 6.97301 42.3498 6.56456C40.5329 6.15611 38.3123 5.95188 36.2935 6.36034C34.0728 6.76879 32.2559 7.58569 30.2371 8.19836C28.0165 9.01527 26.1996 10.8533 24.1808 12.0786C22.5658 13.304 20.3451 13.5082 18.7301 14.7336C18.3263 15.3463 17.5188 16.1632 17.1151 16.7758C17.1151 17.1843 16.9132 17.5927 16.7113 17.797C16.5094 18.4096 16.1057 18.8181 15.7019 19.2265C12.27 23.1068 6.41555 24.5364 3.79113 29.0293C3.38738 29.8463 2.37799 33.9308 2.17611 34.7477C1.77236 36.3815 5.20428 37.4026 4.80052 39.0364C4.59865 39.4448 4.39677 39.8533 4.19489 40.2617C3.99301 40.6702 3.79113 41.2829 3.38738 41.4871C2.78175 42.0998 1.57048 42.304 1.16672 42.9167Z" fill="url(#paint2_radial)"/>
<path opacity="0.2" d="M77.679 57.4167C77.2752 55.5787 76.2658 54.1491 75.2565 52.5153C74.4489 51.2899 73.6414 50.2688 72.8339 49.2477C72.2283 48.4308 71.6227 47.4096 71.017 46.797C70.2095 45.9801 68.9982 44.7547 69.6039 43.5294C70.0076 42.9167 70.8151 42.5082 71.2189 41.8956C71.8245 41.2829 72.2283 40.6702 72.8339 40.0575C73.4396 39.2406 73.4396 38.628 73.6414 37.8111C73.8433 36.7899 74.0452 36.1773 73.8433 35.1561C73.6414 34.3392 73.8433 33.7266 73.4396 32.9097C73.0358 32.297 72.4302 31.8885 71.8245 31.6843C70.6133 31.0716 69.8058 30.4589 68.9982 29.4378C68.5945 28.8251 68.3926 28.2125 67.5851 27.804C66.9795 27.3956 66.172 27.5998 65.3644 27.5998C64.3551 27.3956 62.74 27.3956 61.9325 26.5787C60.7213 25.1491 61.9325 22.9026 60.1156 21.8815C59.1062 21.2688 57.895 20.6561 56.4818 20.6561C54.463 20.6561 52.4443 21.2688 50.6274 21.6773C48.8105 22.0857 47.1954 23.3111 46.7917 25.1491C46.5898 25.7618 46.7917 26.3744 46.9935 26.7829C47.1954 27.5998 47.1954 28.0082 47.5992 28.8251C49.0123 31.6843 52.2424 32.7054 54.8668 34.135C56.8856 35.1561 57.4912 37.6068 56.6837 39.6491C56.2799 40.8744 54.8668 41.8956 53.8574 42.9167C53.2518 43.5294 52.6461 44.142 52.0405 44.9589C51.4349 45.5716 51.0311 46.3885 50.6274 47.0012C49.618 48.635 49.0123 50.2688 48.0029 51.9026C46.9935 53.3322 45.7823 54.5575 44.1673 55.3744C42.7541 55.9871 41.1391 55.7829 39.5241 55.9871C38.1109 56.1913 36.6978 56.1913 35.2846 56.1913C34.4771 56.1913 33.8715 55.9871 33.064 55.9871C32.2565 55.9871 31.449 55.9871 30.6414 55.7829C29.0264 55.3744 27.2095 54.7618 25.7964 53.9449C24.787 53.3322 23.9795 52.5153 23.7776 51.2899C23.5757 50.2688 23.5757 48.4308 24.1813 47.4097C25.1907 45.5716 27.8151 44.5505 29.8339 44.9589C31.8527 45.3674 33.6696 46.797 35.2846 47.6139C37.1015 48.4308 38.7166 48.8392 40.3316 47.6139C40.9372 47.2054 41.1391 46.5927 41.7447 45.9801C41.9466 45.5716 42.5522 45.3674 42.956 44.9589C44.3691 43.9378 45.5804 42.9167 46.7917 41.4871C47.8011 40.2618 48.8105 39.0364 48.8105 37.4026C48.8105 35.973 48.2048 34.9519 47.1954 33.7266C46.3879 32.7054 45.7823 31.6843 45.1766 30.4589C44.7729 29.4378 43.7635 28.8251 42.5522 28.4167C41.5428 28.2125 40.1297 28.0082 39.3222 28.6209C38.9184 28.8251 38.7166 29.0294 38.5147 29.4378C38.3128 29.642 38.3128 29.8463 38.1109 30.0505C37.7072 30.4589 37.3034 31.2758 36.6978 31.6843C36.0921 32.5012 35.4865 33.1139 34.679 33.7266C33.4677 34.7477 32.0546 35.1561 30.6414 34.5435C29.632 34.135 28.4208 33.7266 27.6133 32.9097C26.402 31.6843 26.8058 29.4378 26.6039 27.804C26.402 25.966 26.2001 23.9237 25.5945 22.0857C25.3926 21.2688 24.787 20.4519 24.1813 19.8392C23.5757 19.4308 22.9701 19.4308 22.3644 19.635C21.3551 19.8392 20.3457 20.4519 19.5382 21.0646C18.3269 21.8815 17.9231 22.9026 17.3175 24.3322C16.1062 26.9871 15.0968 29.642 13.8856 32.5012C13.2799 33.9308 12.8762 35.5646 13.0781 37.1984C13.4818 39.0364 13.2799 42.5082 10.6555 42.5082C7.82924 42.5082 7.42548 39.2406 6.41609 37.1984C6.21421 36.9942 5.60858 35.1561 5.00294 35.973C4.80107 36.1773 5.00294 36.9942 4.80107 37.1984C4.59919 37.6068 4.59919 38.0153 4.39731 38.4237C4.19543 39.4449 3.18604 40.466 1.97477 40.466C1.7729 40.466 1.57102 40.466 1.57102 40.466C1.57102 41.4871 1.36914 42.5082 1.36914 43.5294C1.36914 67.628 20.5475 87.0294 44.3691 87.0294C52.0405 87.0294 59.3081 84.9871 65.5663 81.3111C64.9607 80.6984 64.1532 80.0857 63.3457 79.6773C62.1344 79.0646 60.5194 78.8604 59.3081 78.2477C58.0968 77.8392 56.8856 77.635 55.8762 77.2266C54.8668 76.8181 53.8574 76.6139 53.0499 76.0012C52.6461 75.5928 52.4443 74.9801 52.0405 74.5716C51.8386 74.1632 51.6367 73.7547 51.4349 73.5505C50.6274 72.5294 49.618 71.5082 49.618 70.0787C49.618 68.8533 50.8292 67.8322 51.8386 67.8322C53.2518 67.8322 54.6649 68.2406 56.0781 68.6491C57.0874 68.8533 58.0968 69.466 59.1062 69.6702C59.9137 69.8744 60.7212 70.2829 61.3269 70.6913C62.3363 71.304 63.5475 71.9167 64.7588 71.9167C66.172 71.9167 66.9795 71.7125 67.9889 71.0998C69.6039 70.2829 70.4114 68.6491 71.4208 67.2195C71.8245 66.6068 72.2283 65.7899 72.8339 65.1773C73.2377 64.7688 73.6414 64.5646 73.8433 64.1561C74.4489 63.5435 75.0546 62.9308 75.8621 62.5223C76.2658 62.3181 76.6696 62.1139 77.0734 61.9096C77.2752 61.7054 77.4771 61.0928 77.679 60.8885C77.679 59.8674 77.8809 58.4378 77.679 57.4167ZM39.5241 35.3604C40.1297 35.3604 40.7353 35.7688 40.9372 36.1773C41.341 36.5857 41.7447 37.8111 41.7447 38.4237C41.7447 38.8322 41.5428 39.6491 41.1391 40.0575C40.5335 40.466 39.5241 40.466 38.9184 40.6702C38.5147 40.6702 38.1109 40.8744 37.7072 40.6702C37.5053 40.6702 36.8997 40.6702 36.6978 40.466C35.4865 40.0575 35.6884 38.0153 35.6884 37.1984L35.2846 36.9942C36.4959 35.973 37.909 35.1561 39.5241 35.3604ZM17.7213 47.0012C17.1156 47.0012 16.51 46.797 16.3081 46.1843C15.9044 45.5716 15.9044 44.7547 15.9044 43.9378C15.9044 42.5082 16.3081 40.8744 16.9137 39.4449C17.5194 37.8111 18.3269 36.5857 19.3363 35.1561C18.3269 35.7688 19.5382 34.5435 20.5475 34.135C21.3551 33.9308 21.9607 33.5223 22.7682 33.7266C24.3832 33.9308 26.2001 35.7688 26.8058 37.1984C27.4114 38.4237 27.2095 39.8533 27.0076 41.0787C27.4114 40.466 28.2189 39.8533 28.8245 40.0575C29.8339 40.0575 30.4396 41.0787 30.4396 41.8956C30.4396 42.9167 29.6321 43.5294 28.8245 43.5294C28.2189 43.5294 27.4114 43.3251 27.0076 42.7125C26.8058 42.0998 26.8058 41.4871 26.8058 41.0787L26.6039 41.2829C24.9889 42.7125 23.3738 44.142 21.9607 45.5716C20.7494 46.5927 19.1344 47.0012 17.7213 47.0012ZM40.9372 72.7336C40.5335 73.7547 39.9278 74.9801 38.9184 75.5928C37.5053 76.4097 35.6884 76.4097 34.0734 76.2054C32.2565 76.0012 30.6414 75.5928 29.0264 75.1843C27.0076 74.7758 25.3926 73.7547 23.9795 72.3251C21.9607 69.8744 21.1532 66.1984 21.1532 63.135C21.1532 62.3181 21.3551 61.297 21.9607 60.6843C22.3644 60.2759 22.5663 60.0716 22.9701 59.6632C23.172 59.459 23.3738 59.0505 22.5663 59.459C22.9701 58.642 23.3738 58.0294 23.7776 57.2125C23.9795 57.0082 24.3832 57.0082 24.5851 56.804C25.3926 56.5998 26.2001 56.3956 27.0076 56.1913C27.8151 55.9871 28.6227 55.9871 29.632 55.9871C30.6414 55.9871 31.6508 55.9871 32.6602 56.1913C33.4677 56.3956 34.2752 56.804 35.0828 57.2125C35.8903 57.6209 36.6978 57.8251 37.3034 58.2336C37.7072 58.4378 37.909 58.8463 38.3128 59.0505C38.7166 59.4589 39.1203 59.8674 39.3222 60.2758C39.9278 61.297 40.3316 62.3181 40.5335 63.5435C41.341 66.6068 41.7447 69.8744 40.9372 72.7336ZM66.3738 55.7829C65.7682 56.5998 64.9607 57.2125 63.9513 57.4167C63.1438 57.6209 62.1344 57.4167 61.3269 57.2125C60.7212 57.0082 60.3175 56.804 59.7119 56.5998C59.1062 56.3956 58.7025 56.1913 58.0968 55.9871C57.0874 55.3744 56.0781 54.966 55.2705 54.1491C54.6649 53.128 54.463 51.6984 54.0593 50.6773C53.8574 49.6561 53.6555 48.635 53.8574 47.6139C54.2612 46.5927 54.8668 45.5716 55.4724 44.7547C55.8762 44.142 56.2799 43.7336 56.6837 43.3251C57.2893 42.5082 57.6931 41.6913 58.2987 40.6702C59.1062 40.0575 60.1156 39.4449 61.7306 39.4449C62.5382 39.4449 63.1438 39.6491 63.7494 40.0575C64.7588 40.8744 65.5663 41.6913 65.9701 42.9167C66.172 43.5294 66.3738 44.142 66.3738 44.7547C66.5757 45.3674 66.5757 45.9801 66.5757 46.5927C66.5757 47.2054 66.7776 47.8181 66.7776 48.2266C66.7776 48.8392 66.7776 49.4519 66.5757 50.0646C66.5757 50.6773 66.5757 51.2899 66.5757 51.6984C66.5757 52.1068 66.7776 52.5153 66.7776 53.128C66.9795 53.7406 66.7776 54.966 66.3738 55.7829Z" fill="#190078"/>
<path opacity="0.2" d="M37.5043 22.2899C36.6968 20.4519 35.4855 18.6139 35.6874 16.3674C35.6874 15.142 36.293 13.7124 37.5043 13.5082C38.5137 13.304 39.7249 13.9167 40.7343 14.3251C41.1381 14.5293 41.7437 14.9378 42.1475 15.3462C42.5512 15.7547 42.7531 16.3674 42.955 16.98C43.3587 18.4096 44.1662 21.2688 42.5512 22.2899C40.5324 23.311 38.7155 22.9026 37.5043 22.2899Z" fill="#190078"/>
<path opacity="0.2" d="M32.6601 13.9167C33.2658 14.3251 34.0733 14.5294 34.6789 14.5294C34.6789 14.3251 34.8808 14.1209 34.8808 13.9167C34.8808 13.7125 34.8808 13.304 34.8808 13.304C34.8808 12.8956 34.477 12.8956 34.2752 12.8956C34.0733 12.8956 33.8714 12.8956 33.6695 12.8956C33.4677 12.8956 33.4677 12.6913 33.2658 12.6913C32.862 12.6913 32.4583 13.5082 32.6601 13.9167Z" fill="#190078"/>
<path opacity="0.2" d="M58.0966 15.3462C59.1059 14.9378 61.1247 13.5082 62.336 14.1209C63.3454 14.5293 64.1529 15.5504 64.7585 16.3674C65.3642 16.98 65.7679 18.2054 65.566 19.0223C65.1623 19.8392 64.1529 20.4519 63.3454 20.4519C62.7397 20.4519 62.1341 20.2476 61.7304 20.0434C61.1247 19.8392 60.3172 19.8392 59.7116 19.4307C59.1059 19.2265 58.7022 18.8181 58.2984 18.4096C58.0966 18.2054 57.6928 18.0012 57.4909 17.7969C57.0872 17.3885 57.289 16.7758 57.4909 16.3674C57.6928 15.9589 58.2984 14.9378 58.0966 15.3462Z" fill="#190078"/>
<path opacity="0.2" d="M40.5329 57.8251C40.9367 59.4589 40.9367 62.5223 43.1573 62.318C44.3686 62.318 44.7724 61.5011 44.5705 60.48C44.3686 59.2547 43.763 58.0293 42.5517 57.6209C42.3498 57.6209 41.7442 57.4166 41.5423 57.4166C41.1386 57.4166 40.7348 58.0293 40.3311 58.2335V57.8251H40.5329Z" fill="#190078"/>
</g>
<defs>
<radialGradient id="paint0_radial" cx="0" cy="0" r="1" gradientUnits="userSpaceOnUse" gradientTransform="translate(53.4699 19.7565) scale(49.9268 50.5074)">
<stop stop-color="#C0D6FA"/>
<stop offset="0.1678" stop-color="#B5C8F1"/>
<stop offset="0.4856" stop-color="#98A3D8"/>
<stop offset="0.9166" stop-color="#6A67B1"/>
<stop offset="1" stop-color="#605BA9"/>
</radialGradient>
<radialGradient id="paint1_radial" cx="0" cy="0" r="1" gradientUnits="userSpaceOnUse" gradientTransform="translate(52.1826 21.2145) scale(48.7053 49.4124)">
<stop stop-color="#9095C7"/>
<stop offset="0.1957" stop-color="#8289BD"/>
<stop offset="0.5662" stop-color="#5D68A1"/>
<stop offset="1" stop-color="#2A3B7C"/>
</radialGradient>
<radialGradient id="paint2_radial" cx="0" cy="0" r="1" gradientUnits="userSpaceOnUse" gradientTransform="translate(50.2061 24.6367) scale(45.9495 47.0746)">
<stop offset="0.2814" stop-color="#4A5190"/>
<stop offset="0.4564" stop-color="#474C90"/>
<stop offset="0.6588" stop-color="#3D3E8E"/>
<stop offset="0.8742" stop-color="#2C278C"/>
<stop offset="1" stop-color="#20168B"/>
</radialGradient>
<clipPath id="clip0">
<rect width="86" height="87" fill="white" transform="translate(0.964844 0.0293579)"/>
</clipPath>
</defs>
</svg>
