<svg width="1440" height="443" viewBox="0 0 1440 443" fill="none" xmlns="http://www.w3.org/2000/svg">
<path opacity="0.2" fill-rule="evenodd" clip-rule="evenodd" d="M1327.99 307.132C1242.8 246.86 1149.3 88.8436 979.278 21.8545C840.36 -32.9386 590.449 24.6826 602.821 112.882C612.542 181.108 750.576 120.482 767.543 140.985C783.096 159.721 708.688 201.965 616.076 195.955C523.641 189.946 247.042 61.2703 80.3756 95.5602C-86.2908 129.85 -163.88 268.247 -163.88 268.247V473.81H78.9617C78.9617 473.81 247.749 299.002 683.768 325.161C1119.79 351.32 1006.67 473.81 1006.67 473.81H1603.88V373.414C1604.06 373.414 1413.18 367.405 1327.99 307.132ZM183.946 136.567C183.415 141.869 159.379 145.758 153.37 141.692C147.36 137.627 154.96 129.673 163.444 128.966C174.225 128.083 184.476 131.264 183.946 136.567ZM54.925 115.003C70.3014 96.9742 170.16 88.6668 170.16 103.514C170.16 112.175 155.49 124.371 128.626 130.911C101.761 137.804 39.5486 133.032 54.925 115.003ZM230.428 365.637C193.843 388.615 0.665631 445.883 7.20503 411.239C9.85614 396.922 75.0734 359.451 132.161 349.73C189.248 340.185 267.014 342.836 230.428 365.637ZM303.953 191.89C235.2 175.099 180.234 126.845 189.778 116.24C211.164 92.3786 388.081 131.618 426.434 166.438C464.786 201.435 380.658 210.803 303.953 191.89ZM743.86 35.2877C795.645 -19.1519 1039.55 45.1858 1016.22 68.3403C993.064 91.4948 723.181 57.0282 743.86 35.2877ZM949.763 344.604C958.423 319.328 1059.52 323.217 1065.53 337.357C1070.83 349.906 1065.35 368.289 1034.07 372.707C1002.78 377.303 946.581 354.148 949.763 344.604ZM1270.02 449.241C1195.26 462.674 1017.98 424.673 1042.2 395.685C1087.8 340.715 1233.78 321.98 1282.39 351.497C1330.82 380.838 1344.95 435.808 1270.02 449.241Z" fill="url(#paint0_linear)"/>
<defs>
<linearGradient id="paint0_linear" x1="-163.841" y1="237.186" x2="-163.841" y2="461.856" gradientUnits="userSpaceOnUse">
<stop stop-color="#52297A"/>
<stop offset="1" stop-color="#52297A" stop-opacity="0"/>
</linearGradient>
</defs>
</svg>
