<svg width="83" height="51" viewBox="0 0 83 51" fill="none" xmlns="http://www.w3.org/2000/svg">
<path fill-rule="evenodd" clip-rule="evenodd" d="M6.37813 44.1433C6.37813 44.1433 2.67813 41.5433 1.57812 33.1433H82.0781C82.0781 33.1433 82.1781 38.0433 74.4781 46.3433C74.4781 46.3433 64.5781 51.6433 39.3781 50.8433C13.5781 50.0433 6.37813 44.1433 6.37813 44.1433Z" fill="url(#paint0_radial)"/>
<path fill-rule="evenodd" clip-rule="evenodd" d="M1.47785 33.1433C0.577855 30.2433 15.9779 24.8433 40.3779 24.8433C63.6779 24.8433 80.9779 30.3433 81.9779 33.1433C82.9779 35.9433 66.7779 42.6433 40.3779 42.6433C13.9779 42.6433 2.57785 36.5433 1.47785 33.1433Z" fill="#FFD8EE"/>
<path fill-rule="evenodd" clip-rule="evenodd" d="M6.17819 31.3434C6.17819 31.3434 -0.72181 18.4434 1.37819 8.94336H81.8782C81.8782 8.94336 81.8782 24.6434 74.2782 33.5434C74.2782 33.5434 64.3782 38.8434 39.1782 38.0434C13.3782 37.1434 6.17819 31.3434 6.17819 31.3434Z" fill="url(#paint1_linear)"/>
<path fill-rule="evenodd" clip-rule="evenodd" d="M1.37847 8.94331C0.478472 6.04331 15.7785 0.643311 40.2785 0.643311C63.5785 0.643311 80.8785 6.14331 81.8785 8.94331C82.8785 11.7433 66.6785 18.4433 40.2785 18.4433C13.8785 18.4433 2.37847 12.3433 1.37847 8.94331Z" fill="#A4A0C2"/>
<path fill-rule="evenodd" clip-rule="evenodd" d="M71.4779 9.5432C71.4779 9.7432 71.4779 9.8432 71.2779 10.0432C68.7779 12.5432 46.0779 16.8432 31.2779 15.6432C31.1779 15.6432 31.0779 15.6432 30.9779 15.6432C23.9779 15.0432 18.9779 14.0432 15.5779 13.0432C12.2779 11.9432 10.5779 10.7432 10.0779 9.7432C10.0779 9.4432 10.0779 9.2432 10.0779 8.9432C10.3779 6.8432 35.9779 4.7432 48.4779 6.6432C53.7779 7.4432 55.2779 8.4432 54.4779 9.3432C53.8779 10.0432 51.6779 10.7432 48.7779 11.2432C46.4779 11.6432 43.7779 11.8432 40.7779 11.9432C38.1779 12.0432 35.9779 12.0432 34.0779 11.9432C29.3779 11.7432 26.7779 11.1432 25.7779 10.8432C25.3779 10.7432 25.1779 10.6432 25.1779 10.6432C25.1779 10.6432 27.1779 7.7432 30.2779 8.6432C33.3779 9.5432 34.1779 11.1432 34.1779 11.1432C34.1779 11.1432 47.0779 11.6432 49.8779 9.9432C50.0779 9.8432 50.1779 9.6432 50.2779 9.5432C51.6779 7.3432 13.6779 6.2432 13.5779 10.1432C13.5779 10.3432 13.5779 10.4432 13.6779 10.6432C15.6779 14.3432 39.7779 16.9432 55.4779 12.2432C57.9779 11.5432 59.2779 10.7432 59.5779 9.8432C61.0779 6.4432 46.1779 2.7432 27.8779 2.9432H27.6779C20.8779 3.1432 13.5779 3.7432 6.37793 5.1432L10.0779 3.9432C10.0779 3.9432 18.6779 1.4432 37.5779 2.1432C56.5779 2.9432 70.9779 7.1432 71.4779 9.5432Z" fill="#7B5B7B"/>
<path fill-rule="evenodd" clip-rule="evenodd" d="M34.0783 12.0432C29.3783 11.8432 26.7783 11.2432 25.7783 10.9432C26.5783 10.1432 28.1783 9.04319 30.2783 9.64319C32.7783 10.4432 33.7783 11.6432 34.0783 12.0432Z" fill="#5A475C"/>
<path fill-rule="evenodd" clip-rule="evenodd" d="M50.2777 10.4433C50.3777 10.2433 50.2777 10.0433 49.8777 9.94327C50.0777 9.84327 50.1777 9.64327 50.2777 9.54327C51.6777 7.34327 13.6777 6.24327 13.5777 10.1433C13.5777 10.3433 13.5777 10.4433 13.6777 10.6433C13.5777 10.7433 13.5777 10.9433 13.5777 11.0433C13.5777 11.7433 14.2777 12.3433 15.6777 12.9433C12.3777 11.8433 10.6777 10.6433 10.1777 9.64327C12.0777 7.64327 36.3777 5.64327 48.4777 7.54327C51.9777 8.04327 53.8777 8.74327 54.4777 9.34327C53.8777 10.0433 51.6777 10.7433 48.7777 11.2433C49.5777 11.0433 50.0777 10.7433 50.2777 10.4433Z" fill="#5A475C"/>
<path fill-rule="evenodd" clip-rule="evenodd" d="M71.2785 10.0434C68.7785 12.5434 46.0785 16.8434 31.2785 15.6434C31.1785 15.6434 31.0785 15.6434 30.9785 15.6434C38.8785 16.0434 48.1785 15.4434 55.5785 13.2434C58.9785 12.2434 60.1785 11.1434 59.6785 9.94341C61.1785 6.54341 46.2785 2.84341 27.9785 3.04341C30.7785 3.04341 33.9785 3.04341 37.4785 3.14341C55.5785 3.84341 69.3785 7.64341 71.2785 10.0434Z" fill="#5A475C"/>
<path opacity="0.5" fill-rule="evenodd" clip-rule="evenodd" d="M6.17773 31.3433C6.17773 31.3433 12.6777 39.7433 33.7777 41.3433C63.7777 43.5433 74.2777 33.6433 74.2777 33.6433C74.2777 33.6433 37.3777 42.6433 6.17773 31.3433Z" fill="url(#paint2_linear)"/>
<path fill-rule="evenodd" clip-rule="evenodd" d="M10.2783 14.6433C10.2783 14.6433 19.1783 17.5433 28.4783 17.5433C37.7783 17.5433 51.8783 18.0433 51.8783 18.0433C51.8783 18.0433 40.7783 21.6433 31.0783 21.1433C21.3783 20.3433 10.2783 14.6433 10.2783 14.6433Z" fill="#8B6F8B"/>
<path fill-rule="evenodd" clip-rule="evenodd" d="M69.0781 15.3433C69.0781 15.3433 75.3781 11.3433 77.3781 10.5433C79.3781 9.84329 81.0781 10.5433 81.0781 10.5433C81.0781 10.5433 78.2781 16.0433 69.0781 15.3433Z" fill="#8B6F8B"/>
<path fill-rule="evenodd" clip-rule="evenodd" d="M1.67773 9.54335C1.67773 9.54335 2.47773 9.34335 3.77773 10.2433C5.07773 11.2433 9.67773 14.3433 9.67773 14.3433C9.67773 14.3433 4.37773 15.8433 2.77773 14.3433C2.07773 13.7433 1.67773 9.54335 1.67773 9.54335Z" fill="#8B6F8B"/>
<path fill-rule="evenodd" clip-rule="evenodd" d="M46.2783 50.9434L47.1783 42.6434C47.1783 42.6434 56.4783 42.3434 63.7783 40.7434L60.4783 49.9434C60.4783 49.9434 50.9783 50.9434 46.2783 50.9434Z" fill="#FFCCB5"/>
<path fill-rule="evenodd" clip-rule="evenodd" d="M8.27793 45.3434L6.37793 37.2434C6.37793 37.2434 11.4779 39.3434 14.3779 40.0434L14.6779 47.7434C14.6779 47.6434 11.1779 46.7434 8.27793 45.3434Z" fill="#FFCCB5"/>
<path fill-rule="evenodd" clip-rule="evenodd" d="M50.2785 9.54321V10.4432C50.2785 10.4432 49.6785 11.0432 49.1785 11.1432L48.9785 10.3432C48.9785 10.3432 49.9785 9.94321 50.2785 9.54321Z" fill="#7B5B7B"/>
<path fill-rule="evenodd" clip-rule="evenodd" d="M59.7781 9.44336L59.6781 10.7434L58.5781 11.9434V11.0434C58.6781 11.0434 59.7781 10.6434 59.7781 9.44336Z" fill="#7B5B7B"/>
<path fill-rule="evenodd" clip-rule="evenodd" d="M13.6786 11.2434V9.94336C13.6786 9.94336 13.5786 10.6434 14.5786 11.4434L14.6786 12.4434C14.6786 12.4434 13.6786 11.8434 13.6786 11.2434Z" fill="#7B5B7B"/>
<defs>
<radialGradient id="paint0_radial" cx="0" cy="0" r="1" gradientUnits="userSpaceOnUse" gradientTransform="translate(41.7988 42.0541) scale(29.1631)">
<stop stop-color="#FF9689"/>
<stop offset="0.9888" stop-color="#FF909C"/>
</radialGradient>
<linearGradient id="paint1_linear" x1="41.4407" y1="38.1115" x2="41.4407" y2="8.92126" gradientUnits="userSpaceOnUse">
<stop stop-color="#48365E"/>
<stop offset="1" stop-color="#685763"/>
</linearGradient>
<linearGradient id="paint2_linear" x1="6.17653" y1="36.4752" x2="74.2757" y2="36.4752" gradientUnits="userSpaceOnUse">
<stop stop-color="#C77CBD"/>
<stop offset="1" stop-color="#974577"/>
</linearGradient>
</defs>
</svg>
