<svg width="90" height="58" viewBox="0 0 90 58" fill="none" xmlns="http://www.w3.org/2000/svg">
<path fill-rule="evenodd" clip-rule="evenodd" d="M9.79609 50.3999C9.79609 50.3999 6.09609 47.7999 4.99609 39.3999H85.4961C85.4961 39.3999 85.5961 44.2999 77.8961 52.5999C77.8961 52.5999 67.9961 57.8999 42.7961 57.0999C16.9961 56.1999 9.79609 50.3999 9.79609 50.3999Z" fill="url(#paint0_radial)"/>
<path fill-rule="evenodd" clip-rule="evenodd" d="M4.99543 39.3999C4.09543 36.4999 19.4954 31.0999 43.8954 31.0999C67.1954 31.0999 84.4954 36.5999 85.4954 39.3999C86.4954 42.1999 70.2954 48.8999 43.8954 48.8999C17.4954 48.7999 6.09543 42.7999 4.99543 39.3999Z" fill="#FFD8EE"/>
<path fill-rule="evenodd" clip-rule="evenodd" d="M9.69577 37.4999C9.69577 37.4999 2.79577 24.5999 4.89577 15.0999H85.3958C85.3958 15.0999 85.3958 30.7999 77.7958 39.6999C77.7958 39.6999 67.8958 44.9999 42.6958 44.1999C16.8958 43.3999 9.69577 37.4999 9.69577 37.4999Z" fill="url(#paint1_linear)"/>
<path fill-rule="evenodd" clip-rule="evenodd" d="M4.79621 15.0999C3.89621 12.1999 19.2962 6.8999 43.7962 6.8999C67.0962 6.8999 84.3962 12.3999 85.3962 15.1999C86.3962 17.9999 70.1962 24.6999 43.7962 24.6999C17.2962 24.5999 5.89621 18.4999 4.79621 15.0999Z" fill="#A4A0C2"/>
<path fill-rule="evenodd" clip-rule="evenodd" d="M74.9955 15.6998C74.9955 15.8998 74.9955 15.9998 74.7955 16.1998C72.2955 18.6998 49.5955 22.9998 34.7955 21.7998C34.6955 21.7998 34.5955 21.7998 34.4955 21.7998C27.4955 21.1998 22.4955 20.1998 19.0955 19.1998C15.7955 18.0998 14.0955 16.8998 13.5955 15.8998C13.4955 15.5998 13.4955 15.3998 13.4955 15.1998C13.7955 13.0998 39.3955 10.8998 51.8955 12.8998C57.1955 13.6998 58.6955 14.6998 57.8955 15.5998C57.2955 16.2998 55.0955 16.9998 52.1955 17.4998C49.8955 17.8998 47.1955 18.0998 44.1955 18.1998C41.5955 18.2998 39.3955 18.2998 37.4955 18.1998C32.7955 17.9998 30.1955 17.3998 29.1955 17.0998C28.7955 16.9998 28.5955 16.8998 28.5955 16.8998C28.5955 16.8998 30.5955 13.9998 33.6955 14.8998C36.7955 15.8998 37.5955 17.3998 37.5955 17.3998C37.5955 17.3998 50.4955 17.8998 53.2955 16.0998C53.4955 15.9998 53.6955 15.7998 53.6955 15.6998C55.0955 13.4998 17.0955 12.3998 16.9955 16.2998C16.9955 16.4998 16.9955 16.5998 17.0955 16.7998C19.0955 20.4998 43.2955 23.0998 58.8955 18.3998C61.3955 17.6998 62.6955 16.8998 62.9955 15.9998C64.4955 12.5998 49.5955 8.89983 31.2955 9.09983C24.3955 9.19983 16.9955 9.79984 9.89551 11.1998L13.5955 9.99984C13.5955 9.99984 22.1955 7.49984 41.0955 8.19984C60.0955 9.19984 74.3955 13.2998 74.9955 15.6998Z" fill="#4C95C7"/>
<path fill-rule="evenodd" clip-rule="evenodd" d="M37.5959 18.1999C32.8959 17.9999 30.2959 17.3999 29.2959 17.0999C30.0959 16.2999 31.6959 15.1999 33.7959 15.7999C36.2959 16.6999 37.2959 17.7999 37.5959 18.1999Z" fill="#00FFED"/>
<path fill-rule="evenodd" clip-rule="evenodd" d="M53.7953 16.6C53.8953 16.4 53.7953 16.2 53.3953 16.1C53.5953 16 53.7953 15.8 53.7953 15.7C55.1953 13.5 17.1953 12.4 17.0953 16.3C17.0953 16.5 17.0953 16.6 17.1953 16.8C17.0953 16.9 17.0953 17.1 17.0953 17.2C17.0953 17.9 17.7953 18.5 19.1953 19.1C15.8953 18 14.1953 16.8 13.6953 15.8C15.5953 13.8 39.8953 11.8 51.9953 13.7C55.4953 14.3 57.3953 14.9 57.9953 15.5C57.3953 16.2 55.1953 16.9 52.2953 17.4C52.9953 17.3 53.5953 17 53.7953 16.6Z" fill="#00FFED"/>
<path fill-rule="evenodd" clip-rule="evenodd" d="M74.7961 16.1999C72.2961 18.6999 49.5961 22.9999 34.7961 21.7999C34.6961 21.7999 34.5961 21.7999 34.4961 21.7999C42.3961 22.1999 51.6961 21.5999 59.0961 19.3999C62.4961 18.3999 63.6961 17.1999 63.1961 16.0999C64.6961 12.6999 49.7961 8.99987 31.4961 9.19987C34.2961 9.09987 37.4961 9.19987 40.9961 9.29987C59.0961 9.99987 72.8961 13.7999 74.7961 16.1999Z" fill="#00FFED"/>
<path opacity="0.5" fill-rule="evenodd" clip-rule="evenodd" d="M9.69531 37.5C9.69531 37.5 16.1953 45.9 37.2953 47.5C67.2953 49.7 77.7953 39.8 77.7953 39.8C77.7953 39.8 40.8953 48.8 9.69531 37.5Z" fill="url(#paint2_linear)"/>
<path fill-rule="evenodd" clip-rule="evenodd" d="M13.7959 20.7998C13.7959 20.7998 22.6959 23.6998 31.9959 23.6998C41.2959 23.6998 55.3959 24.1998 55.3959 24.1998C55.3959 24.1998 44.2959 27.7998 34.5959 27.2998C24.8959 26.5998 13.7959 20.7998 13.7959 20.7998Z" fill="#8B6F8B"/>
<path fill-rule="evenodd" clip-rule="evenodd" d="M72.4961 21.4998C72.4961 21.4998 78.7961 17.4998 80.7961 16.6998C82.7961 15.9998 84.4961 16.6998 84.4961 16.6998C84.4961 16.6998 81.6961 22.2998 72.4961 21.4998Z" fill="#8B6F8B"/>
<path fill-rule="evenodd" clip-rule="evenodd" d="M5.0957 15.6998C5.0957 15.6998 5.8957 15.4998 7.1957 16.3998C8.4957 17.3998 13.0957 20.4998 13.0957 20.4998C13.0957 20.4998 7.7957 21.9998 6.1957 20.4998C5.5957 19.9998 5.0957 15.6998 5.0957 15.6998Z" fill="#8B6F8B"/>
<path fill-rule="evenodd" clip-rule="evenodd" d="M49.7959 57.2L50.6959 48.9C50.6959 48.9 59.9959 48.6 67.2959 47L63.9959 56.2C63.9959 56.2 54.4959 57.2 49.7959 57.2Z" fill="#FFCCB5"/>
<path fill-rule="evenodd" clip-rule="evenodd" d="M11.7955 51.4999L9.89551 43.3999C9.89551 43.3999 14.9955 45.4999 17.8955 46.1999L18.1955 53.8999C18.1955 53.8999 14.6955 52.9999 11.7955 51.4999Z" fill="#FFCCB5"/>
<path fill-rule="evenodd" clip-rule="evenodd" d="M53.7961 15.7V16.5999C53.7961 16.5999 53.1961 17.1999 52.6961 17.2999L52.4961 16.4999C52.4961 16.5999 53.3961 16.2 53.7961 15.7Z" fill="#4C95C7"/>
<path fill-rule="evenodd" clip-rule="evenodd" d="M63.2957 15.7L63.1957 16.9999L62.0957 18.2V17.2999C62.0957 17.1999 63.1957 16.8 63.2957 15.7Z" fill="#4C95C7"/>
<path fill-rule="evenodd" clip-rule="evenodd" d="M17.0956 17.3999V16.0999C17.0956 16.0999 16.9956 16.7999 17.9956 17.5999L18.0956 18.5999C18.0956 18.6999 17.0956 18.0999 17.0956 17.3999Z" fill="#4C95C7"/>
<g style="mix-blend-mode:lighten" opacity="0.5">
<path d="M44.8953 30.2C69.5824 30.2 89.5953 23.4395 89.5953 15.1C89.5953 6.7605 69.5824 0 44.8953 0C20.2082 0 0.195312 6.7605 0.195312 15.1C0.195312 23.4395 20.2082 30.2 44.8953 30.2Z" fill="url(#paint3_radial)"/>
</g>
<defs>
<radialGradient id="paint0_radial" cx="0" cy="0" r="1" gradientUnits="userSpaceOnUse" gradientTransform="translate(45.2789 48.274) scale(29.1631)">
<stop stop-color="#FF9689"/>
<stop offset="0.9888" stop-color="#FF909C"/>
</radialGradient>
<linearGradient id="paint1_linear" x1="44.9204" y1="44.3314" x2="44.9204" y2="15.1412" gradientUnits="userSpaceOnUse">
<stop stop-color="#48365E"/>
<stop offset="1" stop-color="#685763"/>
</linearGradient>
<linearGradient id="paint2_linear" x1="9.65631" y1="42.6952" x2="77.7554" y2="42.6952" gradientUnits="userSpaceOnUse">
<stop stop-color="#C77CBD"/>
<stop offset="1" stop-color="#974577"/>
</linearGradient>
<radialGradient id="paint3_radial" cx="0" cy="0" r="1" gradientUnits="userSpaceOnUse" gradientTransform="translate(44.9199 15.1412) scale(44.6541 15.0733)">
<stop stop-color="#0038FF"/>
<stop offset="1"/>
</radialGradient>
</defs>
</svg>
