<svg width="406" height="369" viewBox="0 0 406 369" fill="none" xmlns="http://www.w3.org/2000/svg">
<g style="mix-blend-mode:screen" opacity="0.5">
<path d="M401.854 354.323C401.854 360.4 395.89 365.337 388.55 365.337H18.3333C10.9931 365.337 5.0293 360.4 5.0293 354.323V19.7158C5.0293 13.639 10.9931 8.70155 18.3333 8.70155H388.55C395.89 8.70155 401.854 13.639 401.854 19.7158V354.323Z" fill="url(#paint0_linear)"/>
</g>
<path d="M388.09 8.24394C395.43 8.24394 401.394 14.1929 401.394 21.5146V350.312C401.394 357.634 395.43 363.583 388.09 363.583H17.873C10.5329 363.583 4.56902 357.634 4.56902 350.312V21.5146C4.56902 14.1929 10.5329 8.24394 17.873 8.24394H388.09ZM388.09 3.66785H17.873C8.23907 3.66785 -0.0185547 11.9048 -0.0185547 21.5146V350.312C-0.0185547 360.379 8.23907 368.159 17.873 368.159H388.09C398.183 368.159 405.981 359.922 405.981 350.312V21.5146C405.981 11.9048 397.724 3.66785 388.09 3.66785Z" fill="url(#paint1_linear)"/>
<path d="M93.5667 27.0059V4.12544C93.5667 2.295 91.7317 0.464561 89.8966 0.464561C88.0616 0.464561 86.2266 2.295 86.2266 4.12544V27.0059H93.5667Z" fill="#A9A9AA"/>
<path d="M90.8143 4.12544V27.0059H93.5668V4.12544C93.5668 2.295 91.7318 0.464561 89.8968 0.464561C89.438 0.464561 88.9793 0.464561 88.5205 0.922171C89.8968 1.37978 90.8143 2.295 90.8143 4.12544Z" fill="#A9A9AA"/>
<path d="M86.6849 27.0059V4.12545C86.6849 2.29501 88.0611 0.922178 89.8962 0.922178C91.7312 0.922178 93.1075 2.29501 93.1075 4.12545V27.0059H93.5662V4.12545C93.5662 1.8374 91.7312 0.00695801 89.4374 0.00695801C87.1436 0.00695801 85.3086 1.8374 85.3086 4.12545V27.0059H86.6849Z" fill="#3A3A3A"/>
<path d="M89.8966 10.532C87.1441 10.532 86.2266 9.15916 86.2266 9.15916V8.70155H86.6853C86.6853 8.70155 87.6028 9.61677 90.3554 9.61677C92.6492 9.61677 93.5667 8.70155 94.0255 8.70155H94.4842V9.15916C94.0255 9.15916 92.6492 10.532 89.8966 10.532Z" fill="#3A3A3A"/>
<path d="M89.8944 21.9722C87.1419 21.9722 85.7656 20.5994 85.7656 20.5994V20.1418H86.2244C86.2244 20.1418 87.1419 21.057 89.8944 21.057C92.1882 21.057 93.1057 20.1418 93.5645 20.1418H94.0232V20.5994C94.0232 21.057 92.647 21.9722 89.8944 21.9722Z" fill="#3A3A3A"/>
<path d="M311.934 27.0059V4.12544C311.934 2.295 310.099 0.464561 308.264 0.464561C306.429 0.464561 304.594 2.295 304.594 4.12544V27.0059H311.934Z" fill="#A9A9AA"/>
<path d="M309.181 4.12544V27.0059H311.934V4.12544C311.934 2.295 310.099 0.464561 308.264 0.464561C307.805 0.464561 307.346 0.464561 306.888 0.922171C308.264 1.37978 309.181 2.295 309.181 4.12544Z" fill="#A9A9AA"/>
<path d="M305.052 27.0059V4.12545C305.052 2.29501 306.428 0.922178 308.263 0.922178C310.098 0.922178 311.475 2.29501 311.475 4.12545V27.0059H311.933V4.12545C311.933 1.8374 310.098 0.00695801 307.805 0.00695801C305.511 0.00695801 303.676 1.8374 303.676 4.12545V27.0059H305.052Z" fill="#3A3A3A"/>
<path d="M308.266 10.532C305.513 10.532 304.137 9.15916 304.137 9.15916V8.70155H304.595C304.595 8.70155 305.513 9.61677 308.266 9.61677C310.559 9.61677 311.477 8.70155 311.936 8.70155H312.394V9.15916C312.394 9.15916 311.018 10.532 308.266 10.532Z" fill="#3A3A3A"/>
<path d="M308.266 21.9722C305.513 21.9722 304.137 20.5994 304.137 20.5994V20.1418H304.595C304.595 20.1418 305.513 21.057 308.266 21.057C310.559 21.057 311.477 20.1418 311.936 20.1418H312.394V20.5994C312.394 21.057 311.018 21.9722 308.266 21.9722Z" fill="#3A3A3A"/>
<path d="M375.246 27.4635H25.1113V33.4125H375.246V27.4635Z" fill="#1F2633"/>
<path d="M375.246 108.997H24.7559V114.945H375.246V108.997Z" fill="#1F2633"/>
<path d="M372.597 25.6331H22.4619V31.582H372.597V25.6331Z" fill="url(#paint2_linear)"/>
<path d="M372.952 106.709H22.4619V112.657H372.952V106.709Z" fill="url(#paint3_linear)"/>
<defs>
<linearGradient id="paint0_linear" x1="203.397" y1="478.971" x2="203.397" y2="-98.9914" gradientUnits="userSpaceOnUse">
<stop stop-color="#BD13FF"/>
<stop offset="0.1828" stop-color="#A93995"/>
<stop offset="0.5233" stop-color="#310542"/>
<stop offset="0.9815" stop-color="#020100"/>
<stop offset="1"/>
</linearGradient>
<linearGradient id="paint1_linear" x1="-0.0185547" y1="223.215" x2="405.892" y2="223.215" gradientUnits="userSpaceOnUse">
<stop stop-color="#A0ACB6"/>
<stop offset="0.1064" stop-color="#717785"/>
<stop offset="0.2648" stop-color="#E4E7EA"/>
<stop offset="0.3977" stop-color="#94A4AD"/>
<stop offset="0.5455" stop-color="#636877"/>
<stop offset="0.7145" stop-color="#A8B5BC"/>
<stop offset="0.805" stop-color="#D1D7DC"/>
<stop offset="0.8871" stop-color="#6C7278"/>
<stop offset="0.9441" stop-color="#8F99A3"/>
<stop offset="1" stop-color="#A3A9AE"/>
</linearGradient>
<linearGradient id="paint2_linear" x1="196.068" y1="18.1978" x2="205.273" y2="92.1903" gradientUnits="userSpaceOnUse">
<stop stop-color="#A0ACB6"/>
<stop offset="0.1064" stop-color="#717785"/>
<stop offset="0.2648" stop-color="#E4E7EA"/>
<stop offset="0.3977" stop-color="#94A4AD"/>
<stop offset="0.5455" stop-color="#636877"/>
<stop offset="0.7145" stop-color="#A8B5BC"/>
<stop offset="0.805" stop-color="#D1D7DC"/>
<stop offset="0.8871" stop-color="#6C7278"/>
<stop offset="0.9441" stop-color="#8F99A3"/>
<stop offset="1" stop-color="#A3A9AE"/>
</linearGradient>
<linearGradient id="paint3_linear" x1="196.285" y1="98.1823" x2="208.302" y2="181.838" gradientUnits="userSpaceOnUse">
<stop stop-color="#A0ACB6"/>
<stop offset="0.1064" stop-color="#717785"/>
<stop offset="0.2648" stop-color="#E4E7EA"/>
<stop offset="0.3977" stop-color="#94A4AD"/>
<stop offset="0.5455" stop-color="#636877"/>
<stop offset="0.7145" stop-color="#A8B5BC"/>
<stop offset="0.805" stop-color="#D1D7DC"/>
<stop offset="0.8871" stop-color="#6C7278"/>
<stop offset="0.9441" stop-color="#8F99A3"/>
<stop offset="1" stop-color="#A3A9AE"/>
</linearGradient>
</defs>
</svg>
