<svg width="414" height="804" viewBox="0 0 414 804" fill="none" xmlns="http://www.w3.org/2000/svg">
<g clip-path="url(#clip0)">
<path d="M850.337 -208.444H-436V804H850.337V-208.444Z" fill="url(#paint0_linear)"/>
<path opacity="0.2" fill-rule="evenodd" clip-rule="evenodd" d="M647.206 622.636C584.464 578.245 515.605 461.866 390.382 412.529C288.069 372.174 104.01 414.612 113.122 479.571C120.281 529.819 221.943 485.168 234.44 500.269C245.895 514.068 191.093 545.18 122.885 540.754C54.8064 536.328 -148.908 441.559 -271.658 466.813C-394.407 492.068 -451.551 593.997 -451.551 593.997V745.393H-272.699C-272.699 745.393 -148.388 616.647 172.74 635.914C493.867 655.18 410.558 745.393 410.558 745.393H850.4V671.452C850.53 671.452 709.947 667.026 647.206 622.636ZM-195.379 497.014C-195.769 500.92 -213.472 503.784 -217.898 500.789C-222.324 497.795 -216.726 491.937 -210.478 491.417C-202.538 490.766 -194.988 493.109 -195.379 497.014ZM-290.402 481.133C-279.077 467.855 -205.532 461.736 -205.532 472.671C-205.532 479.05 -216.336 488.032 -236.122 492.849C-255.907 497.926 -301.727 494.411 -290.402 481.133ZM-161.144 665.724C-188.089 682.647 -330.364 724.825 -325.548 699.31C-323.595 688.766 -275.563 661.168 -233.518 654.008C-191.474 646.979 -134.199 648.932 -161.144 665.724ZM-106.994 537.76C-157.63 525.393 -198.112 489.855 -191.083 482.044C-175.333 464.47 -45.0333 493.369 -16.7866 519.014C11.4601 544.789 -50.5004 551.689 -106.994 537.76ZM216.997 422.423C255.137 382.328 434.77 429.713 417.588 446.766C400.536 463.819 201.767 438.434 216.997 422.423ZM368.644 650.233C375.022 631.618 449.479 634.482 453.905 644.896C457.81 654.139 453.775 667.677 430.735 670.931C407.695 674.316 366.301 657.263 368.644 650.233ZM604.51 727.298C549.449 737.192 418.889 709.204 436.723 687.855C470.306 647.369 577.826 633.571 613.622 655.31C649.289 676.92 659.702 717.405 604.51 727.298Z" fill="url(#paint1_linear)"/>
<path opacity="0.2" fill-rule="evenodd" clip-rule="evenodd" d="M-235.134 112.712C-173.152 156.565 -105.125 271.537 18.5838 320.278C119.66 360.145 301.493 318.22 292.491 254.047C285.419 204.277 184.986 248.517 172.641 233.599C161.324 219.967 215.463 189.231 282.847 193.603C350.102 197.976 551.353 291.599 672.619 266.65C793.884 241.701 850.337 140.876 850.337 140.876V-8.56155H673.519C673.519 -8.56155 550.71 118.627 233.466 99.594C-83.778 80.5607 -1.47708 -8.56155 -1.47708 -8.56155H-436V64.4852C-436 64.4852 -297.117 68.8578 -235.134 112.712ZM597.262 236.814C597.648 232.956 615.136 230.127 619.509 233.084C623.881 236.042 618.351 241.829 612.179 242.344C604.335 242.987 596.876 240.672 597.262 236.814ZM691.136 252.632C679.948 265.75 607.292 271.794 607.292 260.863C607.292 254.561 617.966 245.688 637.512 240.929C656.93 236.042 702.324 239.386 691.136 252.632ZM563.441 70.1438C590.061 53.5539 730.615 11.7578 725.857 36.9641C723.928 47.381 676.476 74.6449 634.94 81.7181C593.275 88.7913 536.822 86.8623 563.441 70.1438ZM509.946 196.561C559.969 208.778 599.962 243.887 593.018 251.603C577.458 268.965 448.734 240.415 420.829 215.08C392.924 189.745 454.135 182.929 509.946 196.561ZM189.872 310.632C149.108 370.047 -25.2672 303.431 -8.2926 286.583C8.55334 269.608 198.103 298.544 189.872 310.632ZM40.0592 85.4476C33.758 103.838 -39.7984 101.009 -44.1707 90.7203C-48.0285 81.5895 -44.0421 68.2147 -21.2807 64.9996C1.35202 61.7846 42.3739 78.6316 40.0592 85.4476ZM-192.955 9.44294C-138.559 -0.330929 -9.57858 27.3188 -27.1961 48.4098C-60.3737 88.4055 -166.593 102.037 -201.828 80.5607C-237.192 59.0839 -247.48 19.2168 -192.955 9.44294Z" fill="url(#paint2_linear)"/>
<g style="mix-blend-mode:screen">
<path d="M385.105 605.037C385.879 605.037 386.507 604.409 386.507 603.635C386.507 602.861 385.879 602.233 385.105 602.233C384.33 602.233 383.703 602.861 383.703 603.635C383.703 604.409 384.33 605.037 385.105 605.037Z" fill="#FFD0BD"/>
<path d="M385.105 619.057C393.621 619.057 400.526 612.152 400.526 603.635C400.526 595.118 393.621 588.213 385.105 588.213C376.588 588.213 369.684 595.118 369.684 603.635C369.684 612.152 376.588 619.057 385.105 619.057Z" fill="url(#paint3_radial)"/>
<path d="M41.7608 385.391C42.449 385.391 43.0069 384.833 43.0069 384.145C43.0069 383.457 42.449 382.899 41.7608 382.899C41.0727 382.899 40.5148 383.457 40.5148 384.145C40.5148 384.833 41.0727 385.391 41.7608 385.391Z" fill="#FFD0BD"/>
<path d="M41.7608 398.165C49.5033 398.165 55.7798 391.888 55.7798 384.145C55.7798 376.402 49.5033 370.125 41.7608 370.125C34.0183 370.125 27.7418 376.402 27.7418 384.145C27.7418 391.888 34.0183 398.165 41.7608 398.165Z" fill="url(#paint4_radial)"/>
<path d="M255.581 536.183C256.269 536.183 256.827 535.626 256.827 534.937C256.827 534.249 256.269 533.691 255.581 533.691C254.892 533.691 254.335 534.249 254.335 534.937C254.335 535.626 254.892 536.183 255.581 536.183Z" fill="#FFD0BD"/>
<path d="M255.581 548.957C263.323 548.957 269.6 542.68 269.6 534.937C269.6 527.194 263.323 520.917 255.581 520.917C247.838 520.917 241.562 527.194 241.562 534.937C241.562 542.68 247.838 548.957 255.581 548.957Z" fill="url(#paint5_radial)"/>
<path d="M92.1071 714.548C92.5372 714.548 92.8859 714.2 92.8859 713.769C92.8859 713.339 92.5372 712.991 92.1071 712.991C91.6769 712.991 91.3282 713.339 91.3282 713.769C91.3282 714.2 91.6769 714.548 92.1071 714.548Z" fill="#FFD0BD"/>
<path d="M92.1071 717.508C94.1718 717.508 95.8455 715.834 95.8455 713.769C95.8455 711.705 94.1718 710.031 92.1071 710.031C90.0424 710.031 88.3687 711.705 88.3687 713.769C88.3687 715.834 90.0424 717.508 92.1071 717.508Z" fill="url(#paint6_radial)"/>
<path d="M174.975 221.358C175.406 221.358 175.754 221.009 175.754 220.579C175.754 220.149 175.406 219.8 174.975 219.8C174.545 219.8 174.197 220.149 174.197 220.579C174.197 221.009 174.545 221.358 174.975 221.358Z" fill="#FFD0BD"/>
<path d="M174.975 224.318C177.04 224.318 178.714 222.644 178.714 220.579C178.714 218.514 177.04 216.84 174.975 216.84C172.911 216.84 171.237 218.514 171.237 220.579C171.237 222.644 172.911 224.318 174.975 224.318Z" fill="url(#paint7_radial)"/>
<path d="M409.872 623.263C410.732 623.263 411.429 622.565 411.429 621.705C411.429 620.845 410.732 620.147 409.872 620.147C409.012 620.147 408.314 620.845 408.314 621.705C408.314 622.565 409.012 623.263 409.872 623.263Z" fill="#FFD0BD"/>
<path d="M409.872 628.715C413.743 628.715 416.881 625.577 416.881 621.705C416.881 617.833 413.743 614.695 409.872 614.695C406 614.695 402.862 617.833 402.862 621.705C402.862 625.577 406 628.715 409.872 628.715Z" fill="url(#paint8_radial)"/>
<path d="M369.995 500.978C370.425 500.978 370.774 500.629 370.774 500.199C370.774 499.769 370.425 499.42 369.995 499.42C369.565 499.42 369.216 499.769 369.216 500.199C369.216 500.629 369.565 500.978 369.995 500.978Z" fill="#FFD0BD"/>
<path d="M369.995 503.938C372.06 503.938 373.734 502.264 373.734 500.199C373.734 498.134 372.06 496.46 369.995 496.46C367.931 496.46 366.257 498.134 366.257 500.199C366.257 502.264 367.931 503.938 369.995 503.938Z" fill="url(#paint9_radial)"/>
<path d="M298.654 677.162C299.342 677.162 299.9 676.604 299.9 675.916C299.9 675.227 299.342 674.669 298.654 674.669C297.966 674.669 297.408 675.227 297.408 675.916C297.408 676.604 297.966 677.162 298.654 677.162Z" fill="#FFD0BD"/>
<path d="M298.654 689.935C306.397 689.935 312.673 683.659 312.673 675.916C312.673 668.173 306.397 661.896 298.654 661.896C290.912 661.896 284.635 668.173 284.635 675.916C284.635 683.659 290.912 689.935 298.654 689.935Z" fill="url(#paint10_radial)"/>
<path d="M408.314 85.0204C416.057 85.0204 422.333 78.7434 422.333 71.0004C422.333 63.2574 416.057 56.9805 408.314 56.9805C400.572 56.9805 394.296 63.2574 394.296 71.0004C394.296 78.7434 400.572 85.0204 408.314 85.0204Z" fill="url(#paint11_radial)"/>
<path d="M2.38556 129.054C10.128 129.054 16.4045 122.778 16.4045 115.035C16.4045 107.292 10.128 101.015 2.38556 101.015C-5.35691 101.015 -11.6334 107.292 -11.6334 115.035C-11.6334 122.778 -5.35691 129.054 2.38556 129.054Z" fill="url(#paint12_radial)"/>
<path d="M17.6507 712.523C18.339 712.523 18.8969 711.965 18.8969 711.277C18.8969 710.589 18.339 710.031 17.6507 710.031C16.9625 710.031 16.4045 710.589 16.4045 711.277C16.4045 711.965 16.9625 712.523 17.6507 712.523Z" fill="#FFD0BD"/>
<path d="M17.6505 725.297C25.393 725.297 31.6696 719.02 31.6696 711.277C31.6696 703.534 25.393 697.257 17.6505 697.257C9.90805 697.257 3.63147 703.534 3.63147 711.277C3.63147 719.02 9.90805 725.297 17.6505 725.297Z" fill="url(#paint13_radial)"/>
<path d="M313.452 635.102C314.14 635.102 314.698 634.544 314.698 633.856C314.698 633.167 314.14 632.609 313.452 632.609C312.764 632.609 312.206 633.167 312.206 633.856C312.206 634.544 312.764 635.102 313.452 635.102Z" fill="#FFD0BD"/>
<path d="M313.452 647.876C321.194 647.876 327.471 641.599 327.471 633.856C327.471 626.113 321.194 619.836 313.452 619.836C305.709 619.836 299.433 626.113 299.433 633.856C299.433 641.599 305.709 647.876 313.452 647.876Z" fill="url(#paint14_radial)"/>
<path d="M210.849 368.567C211.537 368.567 212.095 368.009 212.095 367.321C212.095 366.633 211.537 366.075 210.849 366.075C210.161 366.075 209.603 366.633 209.603 367.321C209.603 368.009 210.161 368.567 210.849 368.567Z" fill="#FFD0BD"/>
<path d="M210.849 381.341C218.591 381.341 224.868 375.064 224.868 367.321C224.868 359.578 218.591 353.301 210.849 353.301C203.106 353.301 196.83 359.578 196.83 367.321C196.83 375.064 203.106 381.341 210.849 381.341Z" fill="url(#paint15_radial)"/>
<path d="M26.4953 539.766C27.1835 539.766 27.7414 539.208 27.7414 538.52C27.7414 537.832 27.1835 537.274 26.4953 537.274C25.8071 537.274 25.2492 537.832 25.2492 538.52C25.2492 539.208 25.8071 539.766 26.4953 539.766Z" fill="#FFD0BD"/>
<path d="M26.4954 552.54C34.2379 552.54 40.5144 546.263 40.5144 538.52C40.5144 530.777 34.2379 524.5 26.4954 524.5C18.7529 524.5 12.4763 530.777 12.4763 538.52C12.4763 546.263 18.7529 552.54 26.4954 552.54Z" fill="url(#paint16_radial)"/>
</g>
<g style="mix-blend-mode:screen" clip-path="url(#clip1)">
<path opacity="0.2" d="M814.936 553.341C814.936 528.1 899.102 405.39 788.466 353.321C677.989 301.253 442.611 386.181 390.938 382.848C339.266 379.673 272.06 333.16 220.388 363.481C168.716 393.96 205.964 423.487 201.051 451.108C196.137 478.73 148.269 465.554 153.024 496.827C157.779 527.624 205.647 536.99 207.074 537.307C191.382 529.529 171.093 473.968 271.902 429.519C372.869 385.07 562.598 419.836 634.717 462.062C706.837 504.129 740.439 593.186 692.413 630.491C650.726 662.875 587.483 665.733 571.316 665.891H852.502V590.805C852.66 590.646 814.936 578.581 814.936 553.341ZM323.733 386.658C313.43 387.61 303.127 388.086 292.666 388.88C285.058 389.356 277.45 389.991 270.317 392.69C251.296 400.151 239.25 422.375 218.962 425.074C217.377 425.233 215.633 425.392 214.206 424.915C208.659 423.328 207.074 416.184 206.915 410.47C206.598 403.008 207.074 395.23 210.085 388.404C214.841 377.927 225.302 370.942 236.556 368.084C247.651 365.227 259.38 365.862 270.792 367.132C289.813 369.037 309.943 372.212 328.012 378.085C339.425 382.054 331.658 386.023 323.733 386.658ZM649.934 396.182C630.913 402.215 611.417 407.295 591.604 409.041C564.5 411.422 537.237 407.453 510.292 403.643C496.977 401.739 481.761 400.469 469.556 394.436C452.279 386.023 473.677 379.355 482.554 376.339C511.084 366.656 537.079 358.718 566.561 352.369C584.63 348.559 610.308 342.526 628.694 343.479C639.472 344.114 646.764 350.146 655.957 355.702C665.626 361.576 673.551 373.958 668.479 383.959C664.992 390.785 657.225 393.801 649.934 396.182ZM674.502 400.945C670.222 399.992 667.686 394.277 670.381 390.944H671.173C673.234 389.356 675.453 387.928 677.989 387.451C680.525 386.975 683.537 388.086 684.329 390.468C684.805 391.738 684.646 393.007 684.329 394.277C683.061 398.564 678.623 401.739 674.502 400.945ZM702.557 495.24C699.704 509.527 690.511 499.526 687.024 492.065C684.488 486.509 679.574 477.936 680.683 471.587C681.952 464.284 688.45 465.078 693.681 469.047C701.13 474.762 704.301 486.191 702.557 495.24ZM771.031 601.917C769.921 606.838 768.336 612.076 764.849 615.886C759.46 621.601 750.108 622.554 742.817 619.379C735.526 616.204 730.295 609.378 727.284 602.234C724.114 594.932 722.846 586.995 721.577 579.216C717.932 556.357 714.445 533.656 710.641 510.797C708.422 497.78 704.142 472.539 726.491 477.143C744.719 480.953 760.728 493.811 768.495 510.638C772.774 520.163 774.518 530.799 775.469 541.276C777.212 561.437 775.627 582.074 771.031 601.917ZM792.429 374.117C791.161 377.927 786.881 379.355 782.919 380.149C761.52 385.07 739.488 387.293 717.615 386.975C708.105 386.816 698.277 386.023 690.352 380.784C681.952 375.228 674.026 362.37 673.868 352.051C673.709 339.034 692.571 344.114 702.081 344.908C729.344 346.654 756.448 352.527 782.126 362.052C787.674 364.116 794.172 368.561 792.429 374.117Z" fill="url(#paint17_linear)"/>
<path opacity="0.15" d="M214.365 443.171C214.365 443.171 240.677 403.167 270.317 395.865C299.957 388.563 328.805 404.278 346.399 393.325C363.993 382.213 376.831 366.18 430.564 369.831C484.297 373.482 508.231 365.545 508.231 365.545C508.231 365.545 453.706 381.102 447.366 389.515C441.026 397.929 486.833 419.677 566.561 396.024C679.732 362.37 693.681 484.128 708.897 538.101C724.113 592.075 701.923 621.284 701.923 621.284C701.923 621.284 716.505 564.453 680.366 519.845C644.228 475.238 579.716 506.669 513.462 471.745C447.366 436.663 332.133 400.151 214.365 443.171Z" fill="url(#paint18_linear)"/>
<g style="mix-blend-mode:screen">
<path d="M804.95 439.679C792.429 505.717 697.168 552.706 592.08 544.927C486.992 537.149 412.019 477.143 424.541 411.263C437.063 345.225 532.482 298.078 637.412 306.015C742.5 313.793 817.472 373.641 804.95 439.679Z" fill="url(#paint19_radial)"/>
</g>
<g style="mix-blend-mode:lighten">
<path d="M494.118 700.374C431.826 783.24 312.631 799.273 227.832 735.933C143.032 672.753 124.646 554.329 186.938 471.305C249.23 388.439 368.425 372.406 453.224 435.746C538.182 499.085 556.41 617.509 494.118 700.374Z" fill="url(#paint20_radial)"/>
</g>
</g>
<g clip-path="url(#clip2)">
<path d="M344.896 661.543C344.896 661.543 353.172 637.957 359.014 632.141L372.321 642.965L376.702 645.388L374.43 648.619L390.333 659.927C390.333 659.927 386.926 666.066 381.733 668.489L371.996 672.367C371.996 672.367 365.667 675.274 361.773 674.144C361.611 674.144 353.01 673.82 344.896 661.543Z" fill="#5B254E"/>
<path d="M359.014 632.141C359.014 632.141 354.632 639.411 357.229 650.558C357.229 650.558 366.965 657.666 377.513 660.412L379.136 657.504L381.246 660.735C381.246 660.735 385.627 661.058 390.171 659.766C390.171 659.766 382.706 652.012 373.456 645.873L376.54 645.227C376.702 645.388 370.535 638.603 359.014 632.141Z" fill="#985965"/>
<path d="M357.229 650.558C357.229 650.558 347.979 656.858 344.896 661.543C344.896 661.543 350.089 645.065 359.014 632.141C359.014 632.141 356.418 643.934 357.229 650.558Z" fill="#461642"/>
<path d="M379.136 657.666L378.163 661.381L366.803 671.72C366.803 671.72 378 665.258 381.408 660.897L379.136 657.666Z" fill="#461642"/>
<path opacity="0.2" d="M358.852 632.626C358.852 632.626 357.554 643.45 359.176 647.811C360.637 652.173 371.509 655.242 372.645 655.242C373.781 655.081 374.43 653.627 379.298 655.404C384.004 657.181 385.14 656.373 384.491 655.566C383.842 654.596 377.027 651.042 374.106 648.134C371.022 645.227 374.268 645.065 372.645 643.126C370.86 641.188 362.422 633.757 358.852 632.626Z" fill="#D2CCBF"/>
<path d="M358.365 635.534C358.365 635.534 357.878 646.68 359.339 649.104C360.961 651.527 371.347 658.797 377.514 660.412C377.514 660.412 366.966 658.15 357.229 650.558C357.229 650.558 356.905 642.48 358.365 635.534Z" fill="#B06979"/>
<path d="M357.067 648.781L356.094 651.365L358.365 651.527L357.067 648.781Z" fill="#D27F7C"/>
<path d="M380.597 659.766L379.785 662.512L382.706 660.735C382.706 660.735 381.408 659.766 380.597 659.766Z" fill="#B06979"/>
<path d="M308.547 554.76C308.547 554.76 307.086 554.275 303.354 556.214C303.354 556.214 301.893 557.829 301.893 560.414L302.867 562.191C302.867 562.191 302.38 566.23 303.192 568.653C303.192 568.653 306.437 571.561 310.494 571.076C314.389 570.592 319.581 563.322 319.581 563.322L308.547 554.76Z" fill="#5B254E"/>
<path d="M319.581 563.322C319.419 563.484 319.419 563.484 319.581 563.322C319.419 563.484 319.257 563.807 318.932 564.291C317.796 565.907 315.362 568.492 311.467 566.876C306.112 564.937 306.924 559.93 306.924 559.93C306.924 558.96 305.625 556.699 305.625 556.699C305.95 555.406 308.222 554.922 308.546 554.76C314.875 557.183 318.77 561.707 318.77 561.707L319.581 563.322Z" fill="#985965"/>
<path d="M301.893 560.414C301.893 560.414 302.705 560.414 304.003 558.96C305.301 557.506 305.626 556.699 305.626 556.699L306.762 559.606C306.762 559.606 305.139 561.707 302.867 562.191L301.893 560.414Z" fill="#461642"/>
<path d="M303.191 568.653C303.191 568.653 306.275 569.622 309.033 568.653C311.792 567.684 312.279 567.199 312.279 567.199C312.279 567.199 316.011 568.492 319.581 563.484C319.581 563.484 317.958 568.007 310.981 571.238C310.981 571.076 307.735 572.692 303.191 568.653Z" fill="#461642"/>
<path d="M319.419 563.484L318.932 564.453C317.796 565.907 315.362 568.492 311.467 566.876C306.112 564.938 306.924 559.93 306.924 559.93C306.924 558.96 305.625 556.699 305.625 556.699C305.95 555.406 308.222 554.922 308.546 554.76C308.384 554.76 306.761 555.406 306.437 556.375C306.112 557.506 306.924 558.153 307.411 560.253C308.06 562.353 310.169 566.391 313.577 566.391C316.985 566.391 319.257 563.807 319.419 563.484Z" fill="#B06979"/>
</g>
<g clip-path="url(#clip3)">
<path d="M21.6633 246.448C21.6633 246.448 14.0633 205.048 17.6633 191.748L45.9633 196.448L54.4633 196.348L53.9633 202.948L86.4633 206.348C86.4633 206.348 86.7633 218.148 81.0633 226.148L70.0633 239.848C70.0633 239.848 63.2633 249.448 56.6633 251.048C56.5633 250.948 43.8633 257.548 21.6633 246.448Z" fill="#5B254E"/>
<path d="M17.5633 191.748C17.5633 191.748 17.3633 206.048 30.3633 220.248C30.3633 220.248 50.5633 222.648 68.1633 217.648V212.148L74.0633 215.048C74.0633 215.048 80.8633 211.948 86.3633 206.248C86.3633 206.248 69.0633 200.948 50.5633 199.748L54.4633 196.248C54.3633 196.348 39.8633 191.648 17.5633 191.748Z" fill="#985965"/>
<path d="M30.3633 220.248C30.3633 220.248 22.2633 237.048 21.5633 246.448C21.5633 246.448 15.2633 218.148 17.5633 191.748C17.5633 191.748 23.6633 211.148 30.3633 220.248Z" fill="#461642"/>
<path d="M68.1633 212.148L69.8633 218.448L61.8633 243.048C61.8633 243.048 72.6633 224.248 73.9633 215.048L68.1633 212.148Z" fill="#461642"/>
<path opacity="0.2" d="M17.8633 192.448C17.8633 192.448 25.0633 209.148 30.8633 214.348C36.6633 219.548 55.1633 214.948 56.6633 213.848C58.2633 212.748 57.9633 209.948 66.4633 208.648C74.9633 207.348 75.7633 205.348 74.0633 204.548C72.2633 203.848 59.5633 204.148 52.7633 202.448C45.9633 200.648 50.4633 197.848 46.5633 196.348C42.4633 194.948 23.8633 191.348 17.8633 192.448Z" fill="#D2CCBF"/>
<path d="M19.4633 197.248C19.4633 197.248 28.0633 214.048 32.2633 216.248C36.5633 218.448 57.8633 220.548 68.1633 217.748C68.1633 217.748 51.0633 223.248 30.3633 220.348C30.3633 220.248 23.2633 208.648 19.4633 197.248Z" fill="#B06979"/>
<path d="M28.8633 217.648L29.4633 222.348L32.9633 220.448L28.8633 217.648Z" fill="#D27F7C"/>
<path d="M72.1633 214.148L73.1633 218.848L76.0633 213.848C76.0633 213.848 73.1633 213.548 72.1633 214.148Z" fill="#B06979"/>
<path d="M7.96326 132.248L-9.43674 134.448L-13.7367 136.448L-16.2367 137.048C-16.2367 137.048 -19.2367 141.148 -19.2367 149.248C-19.2367 149.248 -12.8367 157.848 -7.43674 160.148L2.46326 162.048L7.96326 132.248Z" fill="#5B254E"/>
<path d="M2.46326 161.948L-10.9367 148.448L-7.13673 138.248H-3.03674L7.96326 132.248C7.96326 132.248 9.56326 142.848 7.96326 151.448C7.96326 151.448 5.46326 159.348 2.46326 161.948Z" fill="#985965"/>
<path d="M-10.9367 148.448C-10.9367 148.448 -16.1367 147.448 -19.2367 149.248C-19.2367 149.248 -16.8367 155.948 -7.43674 160.148C-7.43674 160.148 -0.336735 162.548 2.46326 162.048C2.46326 161.948 -7.33674 153.748 -10.9367 148.448Z" fill="#461642"/>
<path d="M-3.03674 138.248H2.66325L0.163254 136.448L-3.03674 138.248Z" fill="#6E3E62"/>
<path d="M-7.23675 138.248C-7.23675 138.248 -8.83675 143.548 -7.23675 147.648C-5.63675 151.748 2.36326 162.048 2.36326 162.048C2.36326 162.048 -8.63674 153.148 -11.0367 148.548L-7.23675 138.248Z" fill="#B06979"/>
<path d="M-16.2367 137.048L-7.23674 138.248H-3.03674L7.96326 132.248L-9.43674 134.448L-13.4367 136.448L-16.2367 137.048Z" fill="#6E3E62"/>
<path d="M19.1633 141.548C19.1633 141.548 20.2633 145.548 23.3633 147.048H24.9633L25.9633 148.448C25.9633 148.448 28.6633 149.048 32.0633 148.248C32.0633 148.248 37.8633 145.948 39.3633 140.448L19.1633 141.548Z" fill="#5B254E"/>
<path d="M39.3633 140.548C39.3633 140.548 33.2633 143.048 19.1633 141.548C19.1633 141.548 20.6633 140.248 22.7633 139.048C22.8633 139.048 22.8633 138.948 22.8633 138.948C24.4633 138.048 26.3633 137.148 27.9633 137.148C27.9633 137.148 32.6633 137.948 36.3633 139.148C37.4633 139.648 38.5633 140.048 39.3633 140.548Z" fill="#985965"/>
<path d="M39.3633 140.548C39.3633 140.548 33.2633 143.048 19.1633 141.548C19.1633 141.548 20.6633 140.248 22.7633 139.048C22.3633 139.248 21.2633 140.048 21.7633 140.648C22.3633 141.348 32.0633 141.848 35.3633 140.948C38.3633 140.148 36.7633 139.348 36.4633 139.148C37.4633 139.648 38.5633 140.048 39.3633 140.548Z" fill="#B06979"/>
<path d="M19.1633 141.548L23.2633 141.848L24.9633 147.048H23.3633C23.2633 147.048 20.1633 145.848 19.1633 141.548Z" fill="#461642"/>
<path d="M86.0633 114.048C86.0633 114.048 87.3633 116.448 89.2633 118.348C91.1633 120.248 95.1633 118.848 95.1633 118.848C95.1633 118.848 93.8633 117.748 93.9633 115.048L86.0633 114.048Z" fill="#5B254E"/>
<path d="M86.0633 114.048C86.0633 114.048 91.4633 114.048 93.9633 114.948C93.9633 114.948 93.2633 115.348 93.4633 115.948C93.6633 116.848 95.1633 118.748 95.1633 118.748C95.1633 118.748 92.3633 119.248 86.0633 114.048Z" fill="#985965"/>
</g>
</g>
<defs>
<linearGradient id="paint0_linear" x1="-315.439" y1="-220.795" x2="-315.439" y2="894.845" gradientUnits="userSpaceOnUse">
<stop stop-color="#890048"/>
<stop offset="0.5056" stop-color="#540048"/>
<stop offset="1" stop-color="#000027"/>
</linearGradient>
<linearGradient id="paint1_linear" x1="-451.523" y1="571.12" x2="-451.523" y2="736.589" gradientUnits="userSpaceOnUse">
<stop stop-color="#52297A"/>
<stop offset="1" stop-opacity="0"/>
</linearGradient>
<linearGradient id="paint2_linear" x1="-436" y1="163.681" x2="850.286" y2="163.681" gradientUnits="userSpaceOnUse">
<stop stop-color="#52297A"/>
<stop offset="1"/>
</linearGradient>
<radialGradient id="paint3_radial" cx="0" cy="0" r="1" gradientUnits="userSpaceOnUse" gradientTransform="translate(385.153 603.676) scale(15.3442 15.3452)">
<stop stop-color="#BD13FF"/>
<stop offset="0.0412098" stop-color="#A210DA"/>
<stop offset="0.0994739" stop-color="#800DAD"/>
<stop offset="0.1635" stop-color="#610A83"/>
<stop offset="0.2317" stop-color="#470760"/>
<stop offset="0.3053" stop-color="#310542"/>
<stop offset="0.3861" stop-color="#1F032A"/>
<stop offset="0.4771" stop-color="#110217"/>
<stop offset="0.5838" stop-color="#07010A"/>
<stop offset="0.7215" stop-color="#020002"/>
<stop offset="1"/>
</radialGradient>
<radialGradient id="paint4_radial" cx="0" cy="0" r="1" gradientUnits="userSpaceOnUse" gradientTransform="translate(41.7138 384.214) scale(13.9431 13.9441)">
<stop stop-color="#BD13FF"/>
<stop offset="0.0412098" stop-color="#A210DA"/>
<stop offset="0.0994739" stop-color="#800DAD"/>
<stop offset="0.1635" stop-color="#610A83"/>
<stop offset="0.2317" stop-color="#470760"/>
<stop offset="0.3053" stop-color="#310542"/>
<stop offset="0.3861" stop-color="#1F032A"/>
<stop offset="0.4771" stop-color="#110217"/>
<stop offset="0.5838" stop-color="#07010A"/>
<stop offset="0.7215" stop-color="#020002"/>
<stop offset="1"/>
</radialGradient>
<radialGradient id="paint5_radial" cx="0" cy="0" r="1" gradientUnits="userSpaceOnUse" gradientTransform="translate(255.534 535.006) scale(13.9431 13.9441)">
<stop stop-color="#BD13FF"/>
<stop offset="0.0412098" stop-color="#A210DA"/>
<stop offset="0.0994739" stop-color="#800DAD"/>
<stop offset="0.1635" stop-color="#610A83"/>
<stop offset="0.2317" stop-color="#470760"/>
<stop offset="0.3053" stop-color="#310542"/>
<stop offset="0.3861" stop-color="#1F032A"/>
<stop offset="0.4771" stop-color="#110217"/>
<stop offset="0.5838" stop-color="#07010A"/>
<stop offset="0.7215" stop-color="#020002"/>
<stop offset="1"/>
</radialGradient>
<radialGradient id="paint6_radial" cx="0" cy="0" r="1" gradientUnits="userSpaceOnUse" gradientTransform="translate(92.1346 713.713) scale(3.72065 3.72089)">
<stop stop-color="#BD13FF"/>
<stop offset="0.0412098" stop-color="#A210DA"/>
<stop offset="0.0994739" stop-color="#800DAD"/>
<stop offset="0.1635" stop-color="#610A83"/>
<stop offset="0.2317" stop-color="#470760"/>
<stop offset="0.3053" stop-color="#310542"/>
<stop offset="0.3861" stop-color="#1F032A"/>
<stop offset="0.4771" stop-color="#110217"/>
<stop offset="0.5838" stop-color="#07010A"/>
<stop offset="0.7215" stop-color="#020002"/>
<stop offset="1"/>
</radialGradient>
<radialGradient id="paint7_radial" cx="0" cy="0" r="1" gradientUnits="userSpaceOnUse" gradientTransform="translate(174.943 220.503) scale(3.72046 3.72073)">
<stop stop-color="#BD13FF"/>
<stop offset="0.0412098" stop-color="#A210DA"/>
<stop offset="0.0994739" stop-color="#800DAD"/>
<stop offset="0.1635" stop-color="#610A83"/>
<stop offset="0.2317" stop-color="#470760"/>
<stop offset="0.3053" stop-color="#310542"/>
<stop offset="0.3861" stop-color="#1F032A"/>
<stop offset="0.4771" stop-color="#110217"/>
<stop offset="0.5838" stop-color="#07010A"/>
<stop offset="0.7215" stop-color="#020002"/>
<stop offset="1"/>
</radialGradient>
<radialGradient id="paint8_radial" cx="0" cy="0" r="1" gradientUnits="userSpaceOnUse" gradientTransform="translate(409.909 621.693) scale(7.07435 7.07481)">
<stop stop-color="#BD13FF"/>
<stop offset="0.0412098" stop-color="#A210DA"/>
<stop offset="0.0994739" stop-color="#800DAD"/>
<stop offset="0.1635" stop-color="#610A83"/>
<stop offset="0.2317" stop-color="#470760"/>
<stop offset="0.3053" stop-color="#310542"/>
<stop offset="0.3861" stop-color="#1F032A"/>
<stop offset="0.4771" stop-color="#110217"/>
<stop offset="0.5838" stop-color="#07010A"/>
<stop offset="0.7215" stop-color="#020002"/>
<stop offset="1"/>
</radialGradient>
<radialGradient id="paint9_radial" cx="0" cy="0" r="1" gradientUnits="userSpaceOnUse" gradientTransform="translate(369.933 500.237) scale(3.72074 3.72086)">
<stop stop-color="#BD13FF"/>
<stop offset="0.0412098" stop-color="#A210DA"/>
<stop offset="0.0994739" stop-color="#800DAD"/>
<stop offset="0.1635" stop-color="#610A83"/>
<stop offset="0.2317" stop-color="#470760"/>
<stop offset="0.3053" stop-color="#310542"/>
<stop offset="0.3861" stop-color="#1F032A"/>
<stop offset="0.4771" stop-color="#110217"/>
<stop offset="0.5838" stop-color="#07010A"/>
<stop offset="0.7215" stop-color="#020002"/>
<stop offset="1"/>
</radialGradient>
<radialGradient id="paint10_radial" cx="0" cy="0" r="1" gradientUnits="userSpaceOnUse" gradientTransform="translate(298.613 675.873) scale(13.9432 13.944)">
<stop stop-color="#BD13FF"/>
<stop offset="0.0412098" stop-color="#A210DA"/>
<stop offset="0.0994739" stop-color="#800DAD"/>
<stop offset="0.1635" stop-color="#610A83"/>
<stop offset="0.2317" stop-color="#470760"/>
<stop offset="0.3053" stop-color="#310542"/>
<stop offset="0.3861" stop-color="#1F032A"/>
<stop offset="0.4771" stop-color="#110217"/>
<stop offset="0.5838" stop-color="#07010A"/>
<stop offset="0.7215" stop-color="#020002"/>
<stop offset="1"/>
</radialGradient>
<radialGradient id="paint11_radial" cx="0" cy="0" r="1" gradientUnits="userSpaceOnUse" gradientTransform="translate(408.375 71.0285) scale(13.9431 13.9441)">
<stop stop-color="#BD13FF"/>
<stop offset="0.0412098" stop-color="#A210DA"/>
<stop offset="0.0994739" stop-color="#800DAD"/>
<stop offset="0.1635" stop-color="#610A83"/>
<stop offset="0.2317" stop-color="#470760"/>
<stop offset="0.3053" stop-color="#310542"/>
<stop offset="0.3861" stop-color="#1F032A"/>
<stop offset="0.4771" stop-color="#110217"/>
<stop offset="0.5838" stop-color="#07010A"/>
<stop offset="0.7215" stop-color="#020002"/>
<stop offset="1"/>
</radialGradient>
<radialGradient id="paint12_radial" cx="0" cy="0" r="1" gradientUnits="userSpaceOnUse" gradientTransform="translate(2.33057 115.031) scale(13.9431 13.9441)">
<stop stop-color="#BD13FF"/>
<stop offset="0.0412098" stop-color="#A210DA"/>
<stop offset="0.0994739" stop-color="#800DAD"/>
<stop offset="0.1635" stop-color="#610A83"/>
<stop offset="0.2317" stop-color="#470760"/>
<stop offset="0.3053" stop-color="#310542"/>
<stop offset="0.3861" stop-color="#1F032A"/>
<stop offset="0.4771" stop-color="#110217"/>
<stop offset="0.5838" stop-color="#07010A"/>
<stop offset="0.7215" stop-color="#020002"/>
<stop offset="1"/>
</radialGradient>
<radialGradient id="paint13_radial" cx="0" cy="0" r="1" gradientUnits="userSpaceOnUse" gradientTransform="translate(17.6789 711.339) scale(13.9432 13.9441)">
<stop stop-color="#BD13FF"/>
<stop offset="0.0412098" stop-color="#A210DA"/>
<stop offset="0.0994739" stop-color="#800DAD"/>
<stop offset="0.1635" stop-color="#610A83"/>
<stop offset="0.2317" stop-color="#470760"/>
<stop offset="0.3053" stop-color="#310542"/>
<stop offset="0.3861" stop-color="#1F032A"/>
<stop offset="0.4771" stop-color="#110217"/>
<stop offset="0.5838" stop-color="#07010A"/>
<stop offset="0.7215" stop-color="#020002"/>
<stop offset="1"/>
</radialGradient>
<radialGradient id="paint14_radial" cx="0" cy="0" r="1" gradientUnits="userSpaceOnUse" gradientTransform="translate(313.415 633.928) scale(13.9432 13.9441)">
<stop stop-color="#BD13FF"/>
<stop offset="0.0412098" stop-color="#A210DA"/>
<stop offset="0.0994739" stop-color="#800DAD"/>
<stop offset="0.1635" stop-color="#610A83"/>
<stop offset="0.2317" stop-color="#470760"/>
<stop offset="0.3053" stop-color="#310542"/>
<stop offset="0.3861" stop-color="#1F032A"/>
<stop offset="0.4771" stop-color="#110217"/>
<stop offset="0.5838" stop-color="#07010A"/>
<stop offset="0.7215" stop-color="#020002"/>
<stop offset="1"/>
</radialGradient>
<radialGradient id="paint15_radial" cx="0" cy="0" r="1" gradientUnits="userSpaceOnUse" gradientTransform="translate(210.835 367.281) scale(13.9432 13.9441)">
<stop stop-color="#BD13FF"/>
<stop offset="0.0412098" stop-color="#A210DA"/>
<stop offset="0.0994739" stop-color="#800DAD"/>
<stop offset="0.1635" stop-color="#610A83"/>
<stop offset="0.2317" stop-color="#470760"/>
<stop offset="0.3053" stop-color="#310542"/>
<stop offset="0.3861" stop-color="#1F032A"/>
<stop offset="0.4771" stop-color="#110217"/>
<stop offset="0.5838" stop-color="#07010A"/>
<stop offset="0.7215" stop-color="#020002"/>
<stop offset="1"/>
</radialGradient>
<radialGradient id="paint16_radial" cx="0" cy="0" r="1" gradientUnits="userSpaceOnUse" gradientTransform="translate(26.481 538.48) scale(13.9432 13.9441)">
<stop stop-color="#BD13FF"/>
<stop offset="0.0412098" stop-color="#A210DA"/>
<stop offset="0.0994739" stop-color="#800DAD"/>
<stop offset="0.1635" stop-color="#610A83"/>
<stop offset="0.2317" stop-color="#470760"/>
<stop offset="0.3053" stop-color="#310542"/>
<stop offset="0.3861" stop-color="#1F032A"/>
<stop offset="0.4771" stop-color="#110217"/>
<stop offset="0.5838" stop-color="#07010A"/>
<stop offset="0.7215" stop-color="#020002"/>
<stop offset="1"/>
</radialGradient>
<linearGradient id="paint17_linear" x1="716.964" y1="629.704" x2="711.546" y2="346.878" gradientUnits="userSpaceOnUse">
<stop offset="0.00595238" stop-color="#070019" stop-opacity="0"/>
<stop offset="1" stop-color="#1D6DAE"/>
</linearGradient>
<linearGradient id="paint18_linear" x1="214.339" y1="493.242" x2="714.187" y2="493.242" gradientUnits="userSpaceOnUse">
<stop offset="0.00595238" stop-color="#070019"/>
<stop offset="1" stop-color="#1D6DAE"/>
</linearGradient>
<radialGradient id="paint19_radial" cx="0" cy="0" r="1" gradientUnits="userSpaceOnUse" gradientTransform="translate(614.769 425.43) rotate(4.28561) scale(190.699 120.831)">
<stop stop-color="#008E72"/>
<stop offset="0.0486286" stop-color="#008369"/>
<stop offset="0.2723" stop-color="#005444"/>
<stop offset="0.4859" stop-color="#003026"/>
<stop offset="0.6843" stop-color="#001511"/>
<stop offset="0.8615" stop-color="#000604"/>
<stop offset="1"/>
</radialGradient>
<radialGradient id="paint20_radial" cx="0" cy="0" r="1" gradientUnits="userSpaceOnUse" gradientTransform="translate(340.589 585.923) rotate(36.7008) scale(191.555 187.695)">
<stop stop-color="#008E72"/>
<stop offset="0.0486286" stop-color="#008369"/>
<stop offset="0.2723" stop-color="#005444"/>
<stop offset="0.4859" stop-color="#003026"/>
<stop offset="0.6843" stop-color="#001511"/>
<stop offset="0.8615" stop-color="#000604"/>
<stop offset="1"/>
</radialGradient>
<clipPath id="clip0">
<rect width="432" height="804" fill="white" transform="translate(-9)"/>
</clipPath>
<clipPath id="clip1">
<rect width="738.787" height="501.16" fill="white" transform="translate(152.707 302.84)"/>
</clipPath>
<clipPath id="clip2">
<rect width="88.44" height="119.707" fill="white" transform="translate(301.893 554.76)"/>
</clipPath>
<clipPath id="clip3">
<rect width="209" height="148.8" fill="white" transform="translate(-113.937 114.048)"/>
</clipPath>
</defs>
</svg>
