<svg width="1440" height="900" viewBox="0 0 1440 900" fill="none" xmlns="http://www.w3.org/2000/svg">
<g clip-path="url(#clip0)">
<path d="M1439.93 -233.333H0V900H1439.93V-233.333Z" fill="url(#paint0_linear)"/>
<path opacity="0.2" fill-rule="evenodd" clip-rule="evenodd" d="M1212.54 696.98C1142.31 647.289 1065.23 517.015 925.055 461.786C810.526 416.613 604.489 464.118 614.689 536.833C622.703 593.081 736.504 543.099 750.492 560.002C763.315 575.449 701.97 610.276 625.617 605.322C549.41 600.367 321.371 494.282 183.965 522.552C46.5592 550.822 -17.4082 664.922 -17.4082 664.922V834.395H182.8C182.8 834.395 321.954 690.277 681.425 711.844C1040.9 733.411 947.64 834.395 947.64 834.395H1440V751.626C1440.15 751.626 1282.78 746.671 1212.54 696.98ZM269.352 556.359C268.915 560.731 249.098 563.937 244.144 560.585C239.19 557.234 245.456 550.676 252.45 550.093C261.338 549.365 269.79 551.988 269.352 556.359ZM162.983 538.581C175.66 523.718 257.987 516.869 257.987 529.11C257.987 536.25 245.893 546.305 223.745 551.696C201.596 557.379 150.306 553.445 162.983 538.581ZM307.675 745.214C277.512 764.158 118.249 811.371 123.641 782.81C125.826 771.007 179.594 740.114 226.659 732.099C273.724 724.23 337.837 726.416 307.675 745.214ZM368.291 601.97C311.609 588.127 266.292 548.345 274.161 539.601C291.792 519.929 437.649 552.279 469.269 580.986C500.888 609.839 431.529 617.562 368.291 601.97ZM730.967 472.861C773.66 427.979 974.743 481.022 955.509 500.111C936.42 519.2 713.919 490.785 730.967 472.861ZM900.721 727.873C907.861 707.035 991.208 710.241 996.162 721.899C1000.53 732.245 996.016 747.4 970.225 751.043C944.435 754.832 898.098 735.742 900.721 727.873ZM1164.75 814.14C1103.11 825.215 956.966 793.885 976.928 769.987C1014.52 724.667 1134.88 709.221 1174.95 733.556C1214.88 757.746 1226.53 803.065 1164.75 814.14Z" fill="url(#paint1_linear)"/>
<path opacity="0.2" fill-rule="evenodd" clip-rule="evenodd" d="M224.85 126.17C294.233 175.26 370.383 303.959 508.862 358.52C622.007 403.147 825.552 356.216 815.475 284.381C807.558 228.669 695.133 278.19 681.314 261.491C668.647 246.232 729.249 211.825 804.679 216.72C879.965 221.615 1105.25 326.417 1240.99 298.489C1376.74 270.561 1439.93 157.697 1439.93 157.697V-9.58386H1242C1242 -9.58386 1104.53 132.792 749.402 111.486C394.278 90.1798 486.406 -9.58386 486.406 -9.58386H0V72.1849C0 72.1849 155.466 77.0796 224.85 126.17ZM1156.64 265.09C1157.07 260.771 1176.65 257.604 1181.54 260.915C1186.43 264.226 1180.24 270.705 1173.33 271.28C1164.55 272 1156.2 269.409 1156.64 265.09ZM1261.72 282.797C1249.2 297.481 1167.86 304.247 1167.86 292.011C1167.86 284.957 1179.81 275.023 1201.69 269.697C1223.43 264.226 1274.24 267.969 1261.72 282.797ZM1118.78 78.5191C1148.58 59.9484 1305.91 13.1617 1300.59 41.3777C1298.43 53.0384 1245.31 83.5577 1198.81 91.4754C1152.17 99.3932 1088.98 97.2338 1118.78 78.5191ZM1058.89 220.031C1114.89 233.707 1159.66 273.008 1151.89 281.645C1134.47 301.08 990.374 269.121 959.137 240.761C927.9 212.401 996.42 204.771 1058.89 220.031ZM700.604 347.723C654.971 414.232 459.776 339.661 478.777 320.802C497.634 301.8 709.816 334.191 700.604 347.723ZM532.902 95.6503C525.849 116.236 443.509 113.069 438.615 101.553C434.296 91.3315 438.759 76.3597 464.238 72.7608C489.573 69.1618 535.493 88.0204 532.902 95.6503ZM272.065 10.5704C332.956 -0.370477 477.337 30.5807 457.616 54.19C420.477 98.9613 301.575 114.221 262.133 90.1798C222.546 66.1386 211.03 21.5113 272.065 10.5704Z" fill="url(#paint2_linear)"/>
<g style="mix-blend-mode:screen">
<path d="M1149.83 386.419C1150.41 386.419 1150.88 385.95 1150.88 385.372C1150.88 384.795 1150.41 384.326 1149.83 384.326C1149.26 384.326 1148.79 384.795 1148.79 385.372C1148.79 385.95 1149.26 386.419 1149.83 386.419Z" fill="#FFD0BD"/>
<path d="M1149.83 396.533C1156 396.533 1160.99 391.536 1160.99 385.372C1160.99 379.209 1156 374.212 1149.83 374.212C1143.67 374.212 1138.67 379.209 1138.67 385.372C1138.67 391.536 1143.67 396.533 1149.83 396.533Z" fill="url(#paint3_radial)"/>
<path d="M255.378 128.77C261.541 128.77 266.538 123.773 266.538 117.61C266.538 111.446 261.541 106.45 255.378 106.45C249.215 106.45 244.219 111.446 244.219 117.61C244.219 123.773 249.215 128.77 255.378 128.77Z" fill="url(#paint4_radial)"/>
<path d="M1325.6 400.892C1326.17 400.892 1326.64 400.424 1326.64 399.846C1326.64 399.268 1326.17 398.799 1325.6 398.799C1325.02 398.799 1324.55 399.268 1324.55 399.846C1324.55 400.424 1325.02 400.892 1325.6 400.892Z" fill="#FFD0BD"/>
<path d="M1325.59 411.006C1331.76 411.006 1336.75 406.009 1336.75 399.846C1336.75 393.682 1331.76 388.686 1325.59 388.686C1319.43 388.686 1314.44 393.682 1314.44 399.846C1314.44 406.009 1319.43 411.006 1325.59 411.006Z" fill="url(#paint5_radial)"/>
<path d="M1290.55 403.333C1291.13 403.333 1291.59 402.865 1291.59 402.287C1291.59 401.709 1291.13 401.241 1290.55 401.241C1289.97 401.241 1289.5 401.709 1289.5 402.287C1289.5 402.865 1289.97 403.333 1290.55 403.333Z" fill="#FFD0BD"/>
<path d="M1290.55 413.447C1296.71 413.447 1301.71 408.451 1301.71 402.287C1301.71 396.123 1296.71 391.127 1290.55 391.127C1284.38 391.127 1279.39 396.123 1279.39 402.287C1279.39 408.451 1284.38 413.447 1290.55 413.447Z" fill="url(#paint6_radial)"/>
<path d="M1107.81 467.155C1108.39 467.155 1108.86 466.687 1108.86 466.109C1108.86 465.531 1108.39 465.063 1107.81 465.063C1107.23 465.063 1106.77 465.531 1106.77 466.109C1106.77 466.687 1107.23 467.155 1107.81 467.155Z" fill="#FFD0BD"/>
<path d="M1107.81 477.269C1113.98 477.269 1118.97 472.273 1118.97 466.109C1118.97 459.946 1113.98 454.949 1107.81 454.949C1101.65 454.949 1096.65 459.946 1096.65 466.109C1096.65 472.273 1101.65 477.269 1107.81 477.269Z" fill="url(#paint7_radial)"/>
<path d="M1252.19 586.778C1253.05 586.778 1253.76 586.076 1253.76 585.209C1253.76 584.342 1253.05 583.639 1252.19 583.639C1251.32 583.639 1250.62 584.342 1250.62 585.209C1250.62 586.076 1251.32 586.778 1252.19 586.778Z" fill="#FFD0BD"/>
<path d="M1252.19 602.472C1261.72 602.472 1269.45 594.743 1269.45 585.209C1269.45 575.675 1261.72 567.945 1252.19 567.945C1242.65 567.945 1234.92 575.675 1234.92 585.209C1234.92 594.743 1242.65 602.472 1252.19 602.472Z" fill="url(#paint8_radial)"/>
<path d="M919.147 677.28C920.014 677.28 920.717 676.578 920.717 675.711C920.717 674.844 920.014 674.141 919.147 674.141C918.281 674.141 917.578 674.844 917.578 675.711C917.578 676.578 918.281 677.28 919.147 677.28Z" fill="#FFD0BD"/>
<path d="M919.147 692.974C928.681 692.974 936.409 685.245 936.409 675.711C936.409 666.176 928.681 658.447 919.147 658.447C909.613 658.447 901.885 666.176 901.885 675.711C901.885 685.245 909.613 692.974 919.147 692.974Z" fill="url(#paint9_radial)"/>
<path d="M299.451 450C308.984 450 316.713 442.271 316.713 432.737C316.713 423.202 308.984 415.473 299.451 415.473C289.917 415.473 282.188 423.202 282.188 432.737C282.188 442.271 289.917 450 299.451 450Z" fill="url(#paint10_radial)"/>
<path d="M423.425 430.013C425.158 430.013 426.563 428.608 426.563 426.874C426.563 425.141 425.158 423.735 423.425 423.735C421.691 423.735 420.286 425.141 420.286 426.874C420.286 428.608 421.691 430.013 423.425 430.013Z" fill="#FFD0BD"/>
<path d="M423.424 461.575C442.588 461.575 458.123 446.039 458.123 426.874C458.123 407.709 442.588 392.173 423.424 392.173C404.261 392.173 388.726 407.709 388.726 426.874C388.726 446.039 404.261 461.575 423.424 461.575Z" fill="url(#paint11_radial)"/>
<path d="M1087.41 266.098C1089.14 266.098 1090.55 264.693 1090.55 262.959C1090.55 261.226 1089.14 259.821 1087.41 259.821C1085.68 259.821 1084.27 261.226 1084.27 262.959C1084.27 264.693 1085.68 266.098 1087.41 266.098Z" fill="#FFD0BD"/>
<path d="M1087.41 297.66C1106.57 297.66 1122.11 282.124 1122.11 262.959C1122.11 243.795 1106.57 228.258 1087.41 228.258C1068.25 228.258 1052.71 243.795 1052.71 262.959C1052.71 282.124 1068.25 297.66 1087.41 297.66Z" fill="url(#paint12_radial)"/>
<path d="M193.436 567.248C195.169 567.248 196.574 565.843 196.574 564.109C196.574 562.376 195.169 560.97 193.436 560.97C191.702 560.97 190.297 562.376 190.297 564.109C190.297 565.843 191.702 567.248 193.436 567.248Z" fill="#FFD0BD"/>
<path d="M193.436 598.81C212.6 598.81 228.135 583.274 228.135 564.109C228.135 544.944 212.6 529.408 193.436 529.408C174.273 529.408 158.737 544.944 158.737 564.109C158.737 583.274 174.273 598.81 193.436 598.81Z" fill="url(#paint13_radial)"/>
<path d="M534.807 431.408C535.577 431.408 536.202 430.783 536.202 430.013C536.202 429.243 535.577 428.618 534.807 428.618C534.037 428.618 533.412 429.243 533.412 430.013C533.412 430.783 534.037 431.408 534.807 431.408Z" fill="#FFD0BD"/>
<path d="M534.807 445.707C543.474 445.707 550.5 438.68 550.5 430.013C550.5 421.345 543.474 414.319 534.807 414.319C526.14 414.319 519.114 421.345 519.114 430.013C519.114 438.68 526.14 445.707 534.807 445.707Z" fill="url(#paint14_radial)"/>
<path d="M774.158 600.205C774.928 600.205 775.552 599.581 775.552 598.81C775.552 598.04 774.928 597.415 774.158 597.415C773.387 597.415 772.763 598.04 772.763 598.81C772.763 599.581 773.387 600.205 774.158 600.205Z" fill="#FFD0BD"/>
<path d="M774.158 614.504C782.825 614.504 789.851 607.478 789.851 598.81C789.851 590.143 782.825 583.116 774.158 583.116C765.491 583.116 758.465 590.143 758.465 598.81C758.465 607.478 765.491 614.504 774.158 614.504Z" fill="url(#paint15_radial)"/>
<path d="M591.165 799.867C591.646 799.867 592.037 799.477 592.037 798.996C592.037 798.514 591.646 798.124 591.165 798.124C590.683 798.124 590.293 798.514 590.293 798.996C590.293 799.477 590.683 799.867 591.165 799.867Z" fill="#FFD0BD"/>
<path d="M591.165 803.181C593.477 803.181 595.35 801.307 595.35 798.996C595.35 796.684 593.477 794.81 591.165 794.81C588.854 794.81 586.98 796.684 586.98 798.996C586.98 801.307 588.854 803.181 591.165 803.181Z" fill="url(#paint16_radial)"/>
<path d="M467.19 733.778C467.672 733.778 468.062 733.388 468.062 732.907C468.062 732.425 467.672 732.035 467.19 732.035C466.709 732.035 466.318 732.425 466.318 732.907C466.318 733.388 466.709 733.778 467.19 733.778Z" fill="#FFD0BD"/>
<path d="M467.191 737.092C469.502 737.092 471.375 735.218 471.375 732.907C471.375 730.595 469.502 728.721 467.191 728.721C464.879 728.721 463.006 730.595 463.006 732.907C463.006 735.218 464.879 737.092 467.191 737.092Z" fill="url(#paint17_radial)"/>
<path d="M66.4978 822.537C66.9793 822.537 67.3696 822.146 67.3696 821.665C67.3696 821.183 66.9793 820.793 66.4978 820.793C66.0163 820.793 65.626 821.183 65.626 821.665C65.626 822.146 66.0163 822.537 66.4978 822.537Z" fill="#FFD0BD"/>
<path d="M66.4973 825.85C68.8085 825.85 70.6821 823.976 70.6821 821.665C70.6821 819.353 68.8085 817.48 66.4973 817.48C64.1861 817.48 62.3125 819.353 62.3125 821.665C62.3125 823.976 64.1861 825.85 66.4973 825.85Z" fill="url(#paint18_radial)"/>
<path d="M683.928 247.789C684.41 247.789 684.8 247.398 684.8 246.917C684.8 246.435 684.41 246.045 683.928 246.045C683.447 246.045 683.057 246.435 683.057 246.917C683.057 247.398 683.447 247.789 683.928 247.789Z" fill="#FFD0BD"/>
<path d="M683.928 251.102C686.239 251.102 688.113 249.228 688.113 246.917C688.113 244.605 686.239 242.732 683.928 242.732C681.617 242.732 679.743 244.605 679.743 246.917C679.743 249.228 681.617 251.102 683.928 251.102Z" fill="url(#paint19_radial)"/>
<path d="M162.922 60.4709C163.403 60.4709 163.793 60.0805 163.793 59.599C163.793 59.1174 163.403 58.7271 162.922 58.7271C162.44 58.7271 162.05 59.1174 162.05 59.599C162.05 60.0805 162.44 60.4709 162.922 60.4709Z" fill="#FFD0BD"/>
<path d="M162.921 63.7841C165.232 63.7841 167.106 61.9104 167.106 59.5991C167.106 57.2877 165.232 55.4139 162.921 55.4139C160.61 55.4139 158.736 57.2877 158.736 59.5991C158.736 61.9104 160.61 63.7841 162.921 63.7841Z" fill="url(#paint20_radial)"/>
<path d="M1249.75 87.3251C1254.08 87.3251 1257.59 83.8119 1257.59 79.4781C1257.59 75.1443 1254.08 71.6311 1249.75 71.6311C1245.41 71.6311 1241.9 75.1443 1241.9 79.4781C1241.9 83.8119 1245.41 87.3251 1249.75 87.3251Z" fill="url(#paint21_radial)"/>
<path d="M946.872 697.682C947.835 697.682 948.615 696.902 948.615 695.938C948.615 694.975 947.835 694.195 946.872 694.195C945.909 694.195 945.128 694.975 945.128 695.938C945.128 696.902 945.909 697.682 946.872 697.682Z" fill="#FFD0BD"/>
<path d="M946.872 703.785C951.205 703.785 954.718 700.272 954.718 695.938C954.718 691.605 951.205 688.091 946.872 688.091C942.538 688.091 939.025 691.605 939.025 695.938C939.025 700.272 942.538 703.785 946.872 703.785Z" fill="url(#paint22_radial)"/>
<path d="M1344.6 780.512C1348.93 780.512 1352.45 776.998 1352.45 772.665C1352.45 768.331 1348.93 764.818 1344.6 764.818C1340.27 764.818 1336.75 768.331 1336.75 772.665C1336.75 776.998 1340.27 780.512 1344.6 780.512Z" fill="url(#paint23_radial)"/>
<path d="M280.444 679.198C281.407 679.198 282.188 678.418 282.188 677.454C282.188 676.491 281.407 675.711 280.444 675.711C279.481 675.711 278.7 676.491 278.7 677.454C278.7 678.418 279.481 679.198 280.444 679.198Z" fill="#FFD0BD"/>
<path d="M280.444 685.301C284.778 685.301 288.291 681.788 288.291 677.454C288.291 673.121 284.778 669.607 280.444 669.607C276.111 669.607 272.598 673.121 272.598 677.454C272.598 681.788 276.111 685.301 280.444 685.301Z" fill="url(#paint24_radial)"/>
<path d="M1058.99 435.07C1059.47 435.07 1059.86 434.68 1059.86 434.198C1059.86 433.717 1059.47 433.326 1058.99 433.326C1058.51 433.326 1058.12 433.717 1058.12 434.198C1058.12 434.68 1058.51 435.07 1058.99 435.07Z" fill="#FFD0BD"/>
<path d="M1058.99 438.383C1061.3 438.383 1063.17 436.509 1063.17 434.198C1063.17 431.887 1061.3 430.013 1058.99 430.013C1056.68 430.013 1054.8 431.887 1054.8 434.198C1054.8 436.509 1056.68 438.383 1058.99 438.383Z" fill="url(#paint25_radial)"/>
<path d="M1237.71 651.472C1238.2 651.472 1238.59 651.082 1238.59 650.6C1238.59 650.119 1238.2 649.728 1237.71 649.728C1237.23 649.728 1236.84 650.119 1236.84 650.6C1236.84 651.082 1237.23 651.472 1237.71 651.472Z" fill="#FFD0BD"/>
<path d="M1237.71 654.785C1240.03 654.785 1241.9 652.912 1241.9 650.6C1241.9 648.289 1240.03 646.415 1237.71 646.415C1235.4 646.415 1233.53 648.289 1233.53 650.6C1233.53 652.912 1235.4 654.785 1237.71 654.785Z" fill="url(#paint26_radial)"/>
<path d="M902.233 560.796C902.715 560.796 903.105 560.406 903.105 559.924C903.105 559.443 902.715 559.052 902.233 559.052C901.752 559.052 901.361 559.443 901.361 559.924C901.361 560.406 901.752 560.796 902.233 560.796Z" fill="#FFD0BD"/>
<path d="M902.234 564.109C904.545 564.109 906.419 562.236 906.419 559.924C906.419 557.613 904.545 555.739 902.234 555.739C899.922 555.739 898.049 557.613 898.049 559.924C898.049 562.236 899.922 564.109 902.234 564.109Z" fill="url(#paint27_radial)"/>
<path d="M53.7693 559.052C54.2508 559.052 54.6411 558.662 54.6411 558.18C54.6411 557.699 54.2508 557.309 53.7693 557.309C53.2878 557.309 52.8975 557.699 52.8975 558.18C52.8975 558.662 53.2878 559.052 53.7693 559.052Z" fill="#FFD0BD"/>
<path d="M53.7688 562.365C56.0799 562.365 57.9535 560.492 57.9535 558.18C57.9535 555.869 56.0799 553.995 53.7688 553.995C51.4576 553.995 49.584 555.869 49.584 558.18C49.584 560.492 51.4576 562.365 53.7688 562.365Z" fill="url(#paint28_radial)"/>
<path d="M822.374 758.017C823.145 758.017 823.769 757.392 823.769 756.622C823.769 755.851 823.145 755.227 822.374 755.227C821.604 755.227 820.979 755.851 820.979 756.622C820.979 757.392 821.604 758.017 822.374 758.017Z" fill="#FFD0BD"/>
<path d="M822.375 772.316C831.042 772.316 838.068 765.289 838.068 756.622C838.068 747.954 831.042 740.928 822.375 740.928C813.708 740.928 806.682 747.954 806.682 756.622C806.682 765.289 813.708 772.316 822.375 772.316Z" fill="url(#paint29_radial)"/>
<path d="M1045.21 796.206C1045.98 796.206 1046.61 795.581 1046.61 794.811C1046.61 794.04 1045.98 793.416 1045.21 793.416C1044.44 793.416 1043.82 794.04 1043.82 794.811C1043.82 795.581 1044.44 796.206 1045.21 796.206Z" fill="#FFD0BD"/>
<path d="M1045.21 810.504C1053.88 810.504 1060.91 803.478 1060.91 794.81C1060.91 786.143 1053.88 779.117 1045.21 779.117C1036.55 779.117 1029.52 786.143 1029.52 794.81C1029.52 803.478 1036.55 810.504 1045.21 810.504Z" fill="url(#paint30_radial)"/>
<path d="M945.128 95.172C953.795 95.172 960.821 88.1456 960.821 79.478C960.821 70.8105 953.795 63.7841 945.128 63.7841C936.461 63.7841 929.436 70.8105 929.436 79.478C929.436 88.1456 936.461 95.172 945.128 95.172Z" fill="url(#paint31_radial)"/>
<path d="M42.9585 386.593C51.6254 386.593 58.6513 379.567 58.6513 370.899C58.6513 362.232 51.6254 355.205 42.9585 355.205C34.2915 355.205 27.2656 362.232 27.2656 370.899C27.2656 379.567 34.2915 386.593 42.9585 386.593Z" fill="url(#paint32_radial)"/>
<path d="M490.73 144.464C499.397 144.464 506.423 137.437 506.423 128.77C506.423 120.102 499.397 113.076 490.73 113.076C482.063 113.076 475.037 120.102 475.037 128.77C475.037 137.437 482.063 144.464 490.73 144.464Z" fill="url(#paint33_radial)"/>
<path d="M1292.12 283.013C1292.89 283.013 1293.51 282.388 1293.51 281.618C1293.51 280.847 1292.89 280.223 1292.12 280.223C1291.35 280.223 1290.72 280.847 1290.72 281.618C1290.72 282.388 1291.35 283.013 1292.12 283.013Z" fill="#FFD0BD"/>
<path d="M1292.12 297.312C1300.78 297.312 1307.81 290.285 1307.81 281.618C1307.81 272.95 1300.78 265.924 1292.12 265.924C1283.45 265.924 1276.42 272.95 1276.42 281.618C1276.42 290.285 1283.45 297.312 1292.12 297.312Z" fill="url(#paint34_radial)"/>
<path d="M303.984 796.206C304.754 796.206 305.379 795.581 305.379 794.811C305.379 794.04 304.754 793.416 303.984 793.416C303.213 793.416 302.589 794.04 302.589 794.811C302.589 795.581 303.213 796.206 303.984 796.206Z" fill="#FFD0BD"/>
<path d="M303.984 810.504C312.651 810.504 319.677 803.478 319.677 794.81C319.677 786.143 312.651 779.117 303.984 779.117C295.317 779.117 288.291 786.143 288.291 794.81C288.291 803.478 295.317 810.504 303.984 810.504Z" fill="url(#paint35_radial)"/>
<path d="M507.818 797.6C508.588 797.6 509.213 796.976 509.213 796.205C509.213 795.435 508.588 794.81 507.818 794.81C507.047 794.81 506.423 795.435 506.423 796.205C506.423 796.976 507.047 797.6 507.818 797.6Z" fill="#FFD0BD"/>
<path d="M507.818 811.899C516.485 811.899 523.511 804.873 523.511 796.205C523.511 787.538 516.485 780.512 507.818 780.512C499.151 780.512 492.125 787.538 492.125 796.205C492.125 804.873 499.151 811.899 507.818 811.899Z" fill="url(#paint36_radial)"/>
<path d="M838.939 710.935C839.709 710.935 840.334 710.31 840.334 709.54C840.334 708.77 839.709 708.145 838.939 708.145C838.168 708.145 837.544 708.77 837.544 709.54C837.544 710.31 838.168 710.935 838.939 710.935Z" fill="#FFD0BD"/>
<path d="M838.939 725.234C847.606 725.234 854.632 718.208 854.632 709.54C854.632 700.872 847.606 693.846 838.939 693.846C830.272 693.846 823.246 700.872 823.246 709.54C823.246 718.208 830.272 725.234 838.939 725.234Z" fill="url(#paint37_radial)"/>
<path d="M213.314 284.408C214.084 284.408 214.709 283.783 214.709 283.013C214.709 282.242 214.084 281.618 213.314 281.618C212.543 281.618 211.919 282.242 211.919 283.013C211.919 283.783 212.543 284.408 213.314 284.408Z" fill="#FFD0BD"/>
<path d="M213.314 298.707C221.981 298.707 229.007 291.68 229.007 283.013C229.007 274.345 221.981 267.319 213.314 267.319C204.647 267.319 197.621 274.345 197.621 283.013C197.621 291.68 204.647 298.707 213.314 298.707Z" fill="url(#paint38_radial)"/>
<path d="M74.3451 550.159C75.1155 550.159 75.7401 549.534 75.7401 548.764C75.7401 547.994 75.1155 547.369 74.3451 547.369C73.5747 547.369 72.9502 547.994 72.9502 548.764C72.9502 549.534 73.5747 550.159 74.3451 550.159Z" fill="#FFD0BD"/>
<path d="M74.3443 564.458C83.0113 564.458 90.0373 557.432 90.0373 548.764C90.0373 540.096 83.0113 533.07 74.3443 533.07C65.6773 533.07 58.6514 540.096 58.6514 548.764C58.6514 557.432 65.6773 564.458 74.3443 564.458Z" fill="url(#paint39_radial)"/>
<path d="M724.084 412.575C724.855 412.575 725.479 411.951 725.479 411.18C725.479 410.41 724.855 409.785 724.084 409.785C723.314 409.785 722.689 410.41 722.689 411.18C722.689 411.951 723.314 412.575 724.084 412.575Z" fill="#FFD0BD"/>
<path d="M724.085 426.874C732.752 426.874 739.778 419.848 739.778 411.18C739.778 402.513 732.752 395.486 724.085 395.486C715.418 395.486 708.392 402.513 708.392 411.18C708.392 419.848 715.418 426.874 724.085 426.874Z" fill="url(#paint40_radial)"/>
<path d="M517.719 604.216C518.489 604.216 519.114 603.591 519.114 602.821C519.114 602.051 518.489 601.426 517.719 601.426C516.949 601.426 516.324 602.051 516.324 602.821C516.324 603.591 516.949 604.216 517.719 604.216Z" fill="#FFD0BD"/>
<path d="M517.719 618.515C526.386 618.515 533.412 611.489 533.412 602.821C533.412 594.154 526.386 587.127 517.719 587.127C509.052 587.127 502.026 594.154 502.026 602.821C502.026 611.489 509.052 618.515 517.719 618.515Z" fill="url(#paint41_radial)"/>
</g>
<g style="mix-blend-mode:screen" clip-path="url(#clip1)">
<path opacity="0.2" d="M1400.3 619.411C1400.3 591.157 1494.52 453.794 1370.67 395.509C1247 337.223 983.52 432.293 925.678 428.561C867.836 425.007 792.605 372.941 734.763 406.882C676.921 441 718.617 474.052 713.117 504.972C707.617 535.892 654.033 521.143 659.356 556.15C664.679 590.624 718.262 601.108 719.859 601.463C702.294 592.756 679.583 530.561 792.428 480.805C905.451 431.049 1117.83 469.965 1198.56 517.233C1279.3 564.324 1316.91 664.014 1263.15 705.773C1216.48 742.024 1145.69 745.223 1127.59 745.401H1442.35V661.348C1442.53 661.171 1400.3 647.665 1400.3 619.411ZM850.447 432.826C838.915 433.892 827.382 434.425 815.671 435.314C807.155 435.847 798.638 436.557 790.654 439.578C769.362 447.93 755.877 472.808 733.166 475.829C731.392 476.007 729.44 476.185 727.844 475.652C721.633 473.875 719.859 465.878 719.682 459.481C719.327 451.129 719.859 442.422 723.23 434.78C728.553 423.052 740.264 415.233 752.861 412.035C765.281 408.836 778.411 409.547 791.186 410.969C812.477 413.101 835.011 416.655 855.238 423.23C868.013 427.672 859.319 432.115 850.447 432.826ZM1215.6 443.488C1194.31 450.24 1172.48 455.927 1150.3 457.882C1119.96 460.547 1089.45 456.105 1059.28 451.84C1044.38 449.707 1027.34 448.286 1013.68 441.533C994.343 432.115 1018.3 424.652 1028.23 421.275C1060.17 410.436 1089.27 401.551 1122.27 394.442C1142.5 390.178 1171.24 383.425 1191.82 384.491C1203.89 385.202 1212.05 391.955 1222.34 398.174C1233.16 404.749 1242.03 418.61 1236.36 429.805C1232.45 437.446 1223.76 440.822 1215.6 443.488ZM1243.1 448.819C1238.31 447.753 1235.47 441.355 1238.49 437.624H1239.37C1241.68 435.847 1244.16 434.247 1247 433.714C1249.84 433.181 1253.21 434.425 1254.1 437.091C1254.63 438.512 1254.45 439.934 1254.1 441.355C1252.68 446.153 1247.71 449.707 1243.1 448.819ZM1274.5 554.373C1271.31 570.366 1261.02 559.171 1257.12 550.819C1254.28 544.599 1248.78 535.003 1250.02 527.895C1251.44 519.721 1258.71 520.61 1264.57 525.052C1272.91 531.449 1276.46 544.244 1274.5 554.373ZM1351.15 673.787C1349.91 679.296 1348.14 685.16 1344.23 689.425C1338.2 695.822 1327.73 696.888 1319.57 693.334C1311.41 689.78 1305.55 682.139 1302.18 674.143C1298.63 665.969 1297.22 657.084 1295.8 648.376C1291.72 622.787 1287.81 597.376 1283.55 571.787C1281.07 557.216 1276.28 528.962 1301.3 534.115C1321.7 538.38 1339.62 552.773 1348.32 571.61C1353.11 582.272 1355.06 594.178 1356.12 605.906C1358.07 628.474 1356.3 651.575 1351.15 673.787ZM1375.11 418.787C1373.69 423.052 1368.9 424.652 1364.46 425.54C1340.51 431.049 1315.85 433.537 1291.36 433.181C1280.71 433.003 1269.71 432.115 1260.84 426.251C1251.44 420.031 1242.57 405.638 1242.39 394.087C1242.21 379.516 1263.33 385.202 1273.97 386.091C1304.49 388.045 1334.83 394.62 1363.57 405.282C1369.78 407.592 1377.06 412.568 1375.11 418.787Z" fill="url(#paint42_linear)"/>
<path opacity="0.2" d="M1293.49 745.401C1293.49 745.401 1349.38 727.275 1364.11 674.676C1378.83 622.077 1369.43 558.46 1350.62 533.404C1331.81 508.348 1238.31 517.056 1226.24 492.888C1214.18 468.721 1274.15 461.436 1275.04 448.997C1275.92 436.38 1318.33 449.707 1361.98 441.355C1405.63 433.003 1426.56 474.23 1425.85 510.481C1425.14 546.732 1420 593.822 1424.08 619.944C1428.16 646.244 1442.35 680.185 1442.35 700.976C1442.35 721.767 1442.35 745.401 1442.35 745.401H1293.49Z" fill="url(#paint43_linear)"/>
<path opacity="0.15" d="M728.021 496.087C728.021 496.087 757.474 451.307 790.653 443.132C823.833 434.958 856.125 452.551 875.819 440.289C895.514 427.85 909.886 409.902 970.035 413.99C1030.18 418.077 1056.98 409.192 1056.98 409.192C1056.98 409.192 995.939 426.606 988.842 436.024C981.745 445.443 1033.02 469.787 1122.27 443.31C1248.95 405.638 1264.57 541.934 1281.6 602.352C1298.63 662.77 1273.79 695.467 1273.79 695.467C1273.79 695.467 1290.12 631.85 1249.66 581.916C1209.21 531.983 1137 567.167 1062.83 528.073C988.842 488.801 859.851 447.93 728.021 496.087Z" fill="url(#paint44_linear)"/>
<g style="mix-blend-mode:screen">
<path d="M1389.12 492.178C1375.11 566.101 1268.47 618.7 1150.84 609.993C1033.2 601.286 949.276 534.115 963.293 460.369C977.31 386.446 1084.12 333.669 1201.58 342.554C1319.22 351.261 1403.14 418.254 1389.12 492.178Z" fill="url(#paint45_radial)"/>
</g>
<g style="mix-blend-mode:lighten">
<path d="M1266.11 664.103C1196.38 756.862 1062.95 774.81 968.025 703.908C873.1 633.183 852.518 500.618 922.248 407.681C991.978 314.922 1125.4 296.974 1220.33 367.876C1315.43 438.779 1335.84 571.343 1266.11 664.103Z" fill="url(#paint46_radial)"/>
</g>
<g style="mix-blend-mode:screen">
<path d="M1284.08 407.77C1297.02 407.77 1307.51 397.268 1307.51 384.314C1307.51 371.359 1297.02 360.857 1284.08 360.857C1271.15 360.857 1260.66 371.359 1260.66 384.314C1260.66 397.268 1271.15 407.77 1284.08 407.77Z" fill="url(#paint47_radial)"/>
</g>
<g style="mix-blend-mode:screen">
<path d="M1284.08 395.153C1290.06 395.153 1294.91 390.3 1294.91 384.314C1294.91 378.327 1290.06 373.474 1284.08 373.474C1278.11 373.474 1273.26 378.327 1273.26 384.314C1273.26 390.3 1278.11 395.153 1284.08 395.153Z" fill="url(#paint48_radial)"/>
</g>
<g style="mix-blend-mode:screen">
<path d="M1284.08 386.446C1285.26 386.446 1286.21 385.491 1286.21 384.314C1286.21 383.136 1285.26 382.181 1284.08 382.181C1282.91 382.181 1281.96 383.136 1281.96 384.314C1281.96 385.491 1282.91 386.446 1284.08 386.446Z" fill="white"/>
</g>
<g style="mix-blend-mode:screen">
<path d="M1402.08 510.303C1402.08 513.857 1400.12 517.056 1397.28 518.655C1395.87 519.544 1394.27 519.899 1392.49 519.899C1387.17 519.899 1382.91 515.634 1382.91 510.303C1382.91 510.125 1382.91 509.77 1382.91 509.592C1383.27 504.617 1387.35 500.707 1392.49 500.707C1397.64 500.707 1402.08 504.972 1402.08 510.303Z" fill="url(#paint49_radial)"/>
</g>
<path d="M1397.11 510.125C1397.11 511.902 1396.22 513.324 1394.8 514.213C1394.09 514.568 1393.38 514.746 1392.49 514.746C1390.01 514.746 1387.88 512.613 1387.88 510.125C1387.88 509.948 1387.88 509.948 1387.88 509.77C1388.06 507.46 1390.01 505.505 1392.49 505.505C1395.16 505.505 1397.11 507.638 1397.11 510.125Z" fill="white"/>
<path d="M1396.93 510.303C1396.93 511.902 1396.04 513.502 1394.62 514.212C1393.91 514.568 1393.2 514.746 1392.32 514.746C1389.83 514.746 1387.88 512.791 1387.88 510.303C1387.88 510.125 1387.88 510.125 1387.88 509.948C1388.06 507.638 1390.01 505.683 1392.32 505.683C1394.98 505.861 1396.93 507.815 1396.93 510.303Z" fill="url(#paint50_radial)"/>
<g style="mix-blend-mode:screen">
<path d="M1372.03 544.697C1372.03 556.598 1365.57 567.077 1355.88 572.511C1351.23 575.228 1345.8 576.78 1340.12 576.78C1322.42 576.78 1308.22 562.42 1308.22 544.697C1308.22 543.92 1308.22 543.144 1308.34 542.497C1309.51 525.809 1323.33 512.613 1340.12 512.613C1357.69 512.743 1372.03 527.102 1372.03 544.697Z" fill="url(#paint51_radial)"/>
</g>
<g style="mix-blend-mode:screen">
<path d="M1361.64 544.458C1361.64 552.554 1357.2 559.738 1350.6 563.387C1347.41 565.212 1343.77 566.238 1339.9 566.238C1327.94 566.238 1318.15 556.432 1318.15 544.344C1318.15 543.774 1318.15 543.318 1318.27 542.862C1319.06 531.573 1328.4 522.564 1339.9 522.564C1351.85 522.678 1361.64 532.485 1361.64 544.458Z" fill="url(#paint52_radial)"/>
</g>
<path d="M1353.79 544.23C1353.79 549.248 1351.06 553.695 1346.96 556.089C1345.02 557.23 1342.74 557.914 1340.24 557.914C1332.72 557.914 1326.69 551.87 1326.69 544.344C1326.69 544.002 1326.69 543.66 1326.69 543.432C1327.15 536.362 1333.07 530.775 1340.24 530.775C1347.64 530.661 1353.79 536.704 1353.79 544.23Z" fill="white"/>
<path d="M1353.11 544.458C1353.11 549.362 1350.37 553.695 1346.39 555.975C1344.45 557.116 1342.17 557.686 1339.9 557.686C1332.61 557.686 1326.69 551.756 1326.69 544.344C1326.69 544.002 1326.69 543.66 1326.69 543.432C1327.15 536.476 1332.84 531.117 1339.9 531.117C1347.18 531.231 1353.11 537.16 1353.11 544.458Z" fill="url(#paint53_radial)"/>
</g>
<g clip-path="url(#clip2)">
<path d="M874.138 740.533C874.138 740.533 883.402 714.131 889.941 707.621L904.837 719.737L909.741 722.449L907.198 726.066L925 738.725C925 738.725 921.185 745.597 915.373 748.309L904.473 752.649C904.473 752.649 897.389 755.904 893.029 754.638C892.848 754.638 883.22 754.277 874.138 740.533Z" fill="#5B254E"/>
<path d="M889.941 707.621C889.941 707.621 885.037 715.758 887.943 728.236C887.943 728.236 898.842 736.193 910.649 739.267L912.466 736.012L914.827 739.629C914.827 739.629 919.732 739.991 924.818 738.544C924.818 738.544 916.462 729.864 906.108 722.992L909.56 722.269C909.741 722.449 902.838 714.854 889.941 707.621Z" fill="#985965"/>
<path d="M887.943 728.236C887.943 728.236 877.589 735.289 874.138 740.533C874.138 740.533 879.951 722.088 889.941 707.621C889.941 707.621 887.035 720.822 887.943 728.236Z" fill="#461642"/>
<path d="M912.466 736.193L911.376 740.352L898.66 751.926C898.66 751.926 911.194 744.692 915.009 739.81L912.466 736.193Z" fill="#461642"/>
<path opacity="0.2" d="M889.759 708.163C889.759 708.163 888.306 720.279 890.123 725.162C891.757 730.045 903.928 733.48 905.2 733.48C906.471 733.3 907.198 731.672 912.647 733.661C917.915 735.65 919.187 734.746 918.46 733.842C917.734 732.757 910.104 728.779 906.835 725.524C903.383 722.269 907.016 722.088 905.2 719.918C903.202 717.748 893.756 709.429 889.759 708.163Z" fill="#D2CCBF"/>
<path d="M889.215 711.418C889.215 711.418 888.67 723.896 890.305 726.609C892.122 729.321 903.747 737.459 910.65 739.267C910.65 739.267 898.843 736.736 887.944 728.236C887.944 728.236 887.58 719.194 889.215 711.418Z" fill="#B06979"/>
<path d="M887.762 726.247L886.672 729.14L889.215 729.321L887.762 726.247Z" fill="#D27F7C"/>
<path d="M914.101 738.544L913.192 741.618L916.462 739.629C916.462 739.629 915.009 738.544 914.101 738.544Z" fill="#B06979"/>
<path d="M833.448 621C833.448 621 831.813 620.457 827.635 622.628C827.635 622.628 826 624.436 826 627.329L827.09 629.318C827.09 629.318 826.545 633.839 827.453 636.552C827.453 636.552 831.086 639.807 835.628 639.264C839.987 638.722 845.8 630.584 845.8 630.584L833.448 621Z" fill="#5B254E"/>
<path d="M845.8 630.584C845.618 630.765 845.618 630.765 845.8 630.584C845.618 630.765 845.436 631.127 845.073 631.669C843.802 633.478 841.077 636.371 836.717 634.563C830.723 632.393 831.631 626.787 831.631 626.787C831.631 625.702 830.178 623.17 830.178 623.17C830.541 621.723 833.084 621.181 833.447 621C840.532 623.713 844.891 628.776 844.891 628.776L845.8 630.584Z" fill="#985965"/>
<path d="M826 627.329C826 627.329 826.908 627.329 828.361 625.702C829.815 624.074 830.178 623.17 830.178 623.17L831.45 626.425C831.45 626.425 829.633 628.776 827.09 629.318L826 627.329Z" fill="#461642"/>
<path d="M827.453 636.552C827.453 636.552 830.905 637.637 833.993 636.552C837.081 635.467 837.626 634.924 837.626 634.924C837.626 634.924 841.804 636.371 845.8 630.765C845.8 630.765 843.983 635.829 836.172 639.445C836.172 639.264 832.539 641.073 827.453 636.552Z" fill="#461642"/>
<path d="M845.618 630.765L845.073 631.85C843.802 633.478 841.077 636.371 836.717 634.563C830.723 632.393 831.631 626.787 831.631 626.787C831.631 625.702 830.178 623.17 830.178 623.17C830.541 621.723 833.084 621.181 833.447 621C833.266 621 831.449 621.723 831.086 622.808C830.723 624.074 831.631 624.798 832.176 627.148C832.903 629.499 835.264 634.02 839.079 634.02C842.893 634.02 845.436 631.127 845.618 630.765Z" fill="#B06979"/>
</g>
<g clip-path="url(#clip3)">
<path d="M457.663 246.448C457.663 246.448 450.063 205.048 453.663 191.748L481.963 196.448L490.463 196.348L489.963 202.948L522.463 206.348C522.463 206.348 522.763 218.148 517.063 226.148L506.063 239.848C506.063 239.848 499.263 249.448 492.663 251.048C492.563 250.948 479.863 257.548 457.663 246.448Z" fill="#5B254E"/>
<path d="M453.564 191.748C453.564 191.748 453.364 206.048 466.364 220.248C466.364 220.248 486.564 222.648 504.164 217.648V212.148L510.064 215.048C510.064 215.048 516.864 211.948 522.364 206.248C522.364 206.248 505.064 200.948 486.564 199.748L490.464 196.248C490.364 196.348 475.864 191.648 453.564 191.748Z" fill="#985965"/>
<path d="M466.364 220.248C466.364 220.248 458.264 237.048 457.564 246.448C457.564 246.448 451.264 218.148 453.564 191.748C453.564 191.748 459.664 211.148 466.364 220.248Z" fill="#461642"/>
<path d="M504.163 212.148L505.863 218.448L497.863 243.048C497.863 243.048 508.663 224.248 509.963 215.048L504.163 212.148Z" fill="#461642"/>
<path opacity="0.2" d="M453.863 192.448C453.863 192.448 461.063 209.148 466.863 214.348C472.663 219.548 491.163 214.948 492.663 213.848C494.263 212.748 493.963 209.948 502.463 208.648C510.963 207.348 511.763 205.348 510.063 204.548C508.263 203.848 495.563 204.148 488.763 202.448C481.963 200.648 486.463 197.848 482.563 196.348C478.463 194.948 459.863 191.348 453.863 192.448Z" fill="#D2CCBF"/>
<path d="M455.463 197.248C455.463 197.248 464.063 214.048 468.263 216.248C472.563 218.448 493.863 220.548 504.163 217.748C504.163 217.748 487.063 223.248 466.363 220.348C466.363 220.248 459.263 208.648 455.463 197.248Z" fill="#B06979"/>
<path d="M464.863 217.648L465.463 222.348L468.963 220.448L464.863 217.648Z" fill="#D27F7C"/>
<path d="M508.163 214.148L509.163 218.848L512.063 213.848C512.063 213.848 509.163 213.548 508.163 214.148Z" fill="#B06979"/>
<path d="M443.964 132.248L426.564 134.448L422.264 136.448L419.764 137.048C419.764 137.048 416.764 141.148 416.764 149.248C416.764 149.248 423.164 157.848 428.564 160.148L438.464 162.048L443.964 132.248Z" fill="#5B254E"/>
<path d="M438.463 161.948L425.063 148.448L428.863 138.248H432.963L443.963 132.248C443.963 132.248 445.563 142.848 443.963 151.448C443.963 151.448 441.463 159.348 438.463 161.948Z" fill="#985965"/>
<path d="M425.064 148.448C425.064 148.448 419.864 147.448 416.764 149.248C416.764 149.248 419.164 155.948 428.564 160.148C428.564 160.148 435.664 162.548 438.464 162.048C438.464 161.948 428.664 153.748 425.064 148.448Z" fill="#461642"/>
<path d="M432.964 138.248H438.664L436.164 136.448L432.964 138.248Z" fill="#6E3E62"/>
<path d="M428.764 138.248C428.764 138.248 427.164 143.548 428.764 147.648C430.364 151.748 438.364 162.048 438.364 162.048C438.364 162.048 427.364 153.148 424.964 148.548L428.764 138.248Z" fill="#B06979"/>
<path d="M423.464 148.148L425.764 146.248V149.648L423.464 148.148Z" fill="#D27F7C"/>
<path d="M419.764 137.048L428.764 138.248H432.964L443.964 132.248L426.564 134.448L422.564 136.448L419.764 137.048Z" fill="#6E3E62"/>
<path d="M455.163 141.548C455.163 141.548 456.263 145.548 459.363 147.048H460.963L461.963 148.448C461.963 148.448 464.663 149.048 468.063 148.248C468.063 148.248 473.863 145.948 475.363 140.448L455.163 141.548Z" fill="#5B254E"/>
<path d="M475.363 140.548C475.363 140.548 469.263 143.048 455.163 141.548C455.163 141.548 456.663 140.248 458.763 139.048C458.863 139.048 458.863 138.948 458.863 138.948C460.463 138.048 462.363 137.148 463.963 137.148C463.963 137.148 468.663 137.948 472.363 139.148C473.463 139.648 474.563 140.048 475.363 140.548Z" fill="#985965"/>
<path d="M475.363 140.548C475.363 140.548 469.263 143.048 455.163 141.548C455.163 141.548 456.663 140.248 458.763 139.048C458.363 139.248 457.263 140.048 457.763 140.648C458.363 141.348 468.063 141.848 471.363 140.948C474.363 140.148 472.763 139.348 472.463 139.148C473.463 139.648 474.563 140.048 475.363 140.548Z" fill="#B06979"/>
<path d="M455.163 141.548L459.263 141.848L460.963 147.048H459.363C459.263 147.048 456.163 145.848 455.163 141.548Z" fill="#461642"/>
<path d="M322.064 255.848C322.064 255.848 321.964 258.648 323.564 260.248L324.564 260.548L324.964 261.648C324.964 261.648 326.564 262.548 328.964 262.748C328.964 262.748 333.164 262.448 335.264 259.248L322.064 255.848Z" fill="#5B254E"/>
<path d="M335.263 259.348C335.263 259.348 330.863 259.748 322.063 255.848C322.063 255.848 323.263 255.348 324.863 255.048C324.963 255.048 324.963 255.048 324.963 255.048C326.163 254.748 327.563 254.648 328.663 254.948C328.663 254.948 331.563 256.448 333.663 257.948C334.263 258.448 334.863 258.948 335.263 259.348Z" fill="#985965"/>
<path d="M522.063 114.048C522.063 114.048 523.363 116.448 525.263 118.348C527.163 120.248 531.163 118.848 531.163 118.848C531.163 118.848 529.863 117.748 529.963 115.048L522.063 114.048Z" fill="#5B254E"/>
<path d="M522.063 114.048C522.063 114.048 527.463 114.048 529.963 114.948C529.963 114.948 529.263 115.348 529.463 115.948C529.663 116.848 531.163 118.748 531.163 118.748C531.163 118.748 528.363 119.248 522.063 114.048Z" fill="#985965"/>
<path d="M414.763 179.248C414.763 179.248 413.063 178.748 408.463 181.048C408.463 181.048 406.663 182.948 406.663 186.048L407.763 188.348C407.763 188.348 407.063 193.248 408.163 196.248C408.163 196.248 412.163 199.848 416.963 199.148C421.763 198.448 428.063 189.748 428.063 189.748L414.763 179.248Z" fill="#5B254E"/>
<path d="M428.163 189.748C428.063 189.748 428.063 189.748 428.163 189.748C428.063 189.948 427.863 190.448 427.463 191.048C426.163 192.848 423.263 195.948 418.463 194.148C411.863 191.648 412.763 185.548 412.763 185.548C412.763 184.448 411.263 181.548 411.263 181.548C411.763 179.948 414.463 179.348 414.763 179.248C422.463 182.148 427.263 187.748 427.263 187.748L428.163 189.748Z" fill="#985965"/>
<path d="M406.663 186.048C406.663 186.048 407.563 185.948 409.263 184.348C410.963 182.748 411.163 181.548 411.163 181.548L412.663 185.248C412.663 185.248 410.563 187.748 407.763 188.348L406.663 186.048Z" fill="#461642"/>
<path d="M408.163 196.248C408.163 196.248 411.963 197.348 415.363 196.248C418.663 195.148 419.263 194.348 419.263 194.348C419.263 194.348 423.763 195.848 428.163 189.748C428.163 189.748 426.163 195.348 417.763 199.248C417.663 199.148 413.763 201.148 408.163 196.248Z" fill="#461642"/>
<path d="M428.063 189.748L427.363 190.948C426.063 192.748 423.163 195.848 418.363 194.048C411.763 191.548 412.663 185.448 412.663 185.448C412.663 184.348 411.163 181.448 411.163 181.448C411.663 179.848 414.363 179.248 414.663 179.148C414.363 179.248 412.563 179.948 412.163 181.148C411.763 182.448 412.663 183.248 413.463 185.748C414.163 188.348 416.863 193.248 421.063 193.248C425.063 193.348 427.763 190.148 428.063 189.748Z" fill="#B06979"/>
</g>
</g>
<defs>
<linearGradient id="paint0_linear" x1="134.957" y1="-247.158" x2="134.957" y2="1001.69" gradientUnits="userSpaceOnUse">
<stop stop-color="#890048"/>
<stop offset="0.5056" stop-color="#540048"/>
<stop offset="1" stop-color="#000027"/>
</linearGradient>
<linearGradient id="paint1_linear" x1="-17.3764" y1="639.314" x2="-17.3764" y2="824.54" gradientUnits="userSpaceOnUse">
<stop stop-color="#52297A"/>
<stop offset="1" stop-opacity="0"/>
</linearGradient>
<linearGradient id="paint2_linear" x1="0" y1="183.225" x2="1439.87" y2="183.225" gradientUnits="userSpaceOnUse">
<stop stop-color="#52297A"/>
<stop offset="1"/>
</linearGradient>
<radialGradient id="paint3_radial" cx="0" cy="0" r="1" gradientUnits="userSpaceOnUse" gradientTransform="translate(1149.83 385.348) scale(11.2328 11.2336)">
<stop stop-color="#BD13FF"/>
<stop offset="0.0412098" stop-color="#A210DA"/>
<stop offset="0.0994739" stop-color="#800DAD"/>
<stop offset="0.1635" stop-color="#610A83"/>
<stop offset="0.2317" stop-color="#470760"/>
<stop offset="0.3053" stop-color="#310542"/>
<stop offset="0.3861" stop-color="#1F032A"/>
<stop offset="0.4771" stop-color="#110217"/>
<stop offset="0.5838" stop-color="#07010A"/>
<stop offset="0.7215" stop-color="#020002"/>
<stop offset="1"/>
</radialGradient>
<radialGradient id="paint4_radial" cx="0" cy="0" r="1" gradientUnits="userSpaceOnUse" gradientTransform="translate(255.356 117.685) scale(11.2328 11.2336)">
<stop stop-color="#BD13FF"/>
<stop offset="0.0412098" stop-color="#A210DA"/>
<stop offset="0.0994739" stop-color="#800DAD"/>
<stop offset="0.1635" stop-color="#610A83"/>
<stop offset="0.2317" stop-color="#470760"/>
<stop offset="0.3053" stop-color="#310542"/>
<stop offset="0.3861" stop-color="#1F032A"/>
<stop offset="0.4771" stop-color="#110217"/>
<stop offset="0.5838" stop-color="#07010A"/>
<stop offset="0.7215" stop-color="#020002"/>
<stop offset="1"/>
</radialGradient>
<radialGradient id="paint5_radial" cx="0" cy="0" r="1" gradientUnits="userSpaceOnUse" gradientTransform="translate(1325.57 399.931) scale(11.2328 11.2336)">
<stop stop-color="#BD13FF"/>
<stop offset="0.0412098" stop-color="#A210DA"/>
<stop offset="0.0994739" stop-color="#800DAD"/>
<stop offset="0.1635" stop-color="#610A83"/>
<stop offset="0.2317" stop-color="#470760"/>
<stop offset="0.3053" stop-color="#310542"/>
<stop offset="0.3861" stop-color="#1F032A"/>
<stop offset="0.4771" stop-color="#110217"/>
<stop offset="0.5838" stop-color="#07010A"/>
<stop offset="0.7215" stop-color="#020002"/>
<stop offset="1"/>
</radialGradient>
<radialGradient id="paint6_radial" cx="0" cy="0" r="1" gradientUnits="userSpaceOnUse" gradientTransform="translate(1290.62 402.29) scale(11.2328 11.2336)">
<stop stop-color="#BD13FF"/>
<stop offset="0.0412098" stop-color="#A210DA"/>
<stop offset="0.0994739" stop-color="#800DAD"/>
<stop offset="0.1635" stop-color="#610A83"/>
<stop offset="0.2317" stop-color="#470760"/>
<stop offset="0.3053" stop-color="#310542"/>
<stop offset="0.3861" stop-color="#1F032A"/>
<stop offset="0.4771" stop-color="#110217"/>
<stop offset="0.5838" stop-color="#07010A"/>
<stop offset="0.7215" stop-color="#020002"/>
<stop offset="1"/>
</radialGradient>
<radialGradient id="paint7_radial" cx="0" cy="0" r="1" gradientUnits="userSpaceOnUse" gradientTransform="translate(1107.83 466.161) scale(11.2329 11.2336)">
<stop stop-color="#BD13FF"/>
<stop offset="0.0412098" stop-color="#A210DA"/>
<stop offset="0.0994739" stop-color="#800DAD"/>
<stop offset="0.1635" stop-color="#610A83"/>
<stop offset="0.2317" stop-color="#470760"/>
<stop offset="0.3053" stop-color="#310542"/>
<stop offset="0.3861" stop-color="#1F032A"/>
<stop offset="0.4771" stop-color="#110217"/>
<stop offset="0.5838" stop-color="#07010A"/>
<stop offset="0.7215" stop-color="#020002"/>
<stop offset="1"/>
</radialGradient>
<radialGradient id="paint8_radial" cx="0" cy="0" r="1" gradientUnits="userSpaceOnUse" gradientTransform="translate(1252.26 585.236) scale(17.1762 17.1774)">
<stop stop-color="#BD13FF"/>
<stop offset="0.0412098" stop-color="#A210DA"/>
<stop offset="0.0994739" stop-color="#800DAD"/>
<stop offset="0.1635" stop-color="#610A83"/>
<stop offset="0.2317" stop-color="#470760"/>
<stop offset="0.3053" stop-color="#310542"/>
<stop offset="0.3861" stop-color="#1F032A"/>
<stop offset="0.4771" stop-color="#110217"/>
<stop offset="0.5838" stop-color="#07010A"/>
<stop offset="0.7215" stop-color="#020002"/>
<stop offset="1"/>
</radialGradient>
<radialGradient id="paint9_radial" cx="0" cy="0" r="1" gradientUnits="userSpaceOnUse" gradientTransform="translate(919.201 675.757) scale(17.1764 17.1774)">
<stop stop-color="#BD13FF"/>
<stop offset="0.0412098" stop-color="#A210DA"/>
<stop offset="0.0994739" stop-color="#800DAD"/>
<stop offset="0.1635" stop-color="#610A83"/>
<stop offset="0.2317" stop-color="#470760"/>
<stop offset="0.3053" stop-color="#310542"/>
<stop offset="0.3861" stop-color="#1F032A"/>
<stop offset="0.4771" stop-color="#110217"/>
<stop offset="0.5838" stop-color="#07010A"/>
<stop offset="0.7215" stop-color="#020002"/>
<stop offset="1"/>
</radialGradient>
<radialGradient id="paint10_radial" cx="0" cy="0" r="1" gradientUnits="userSpaceOnUse" gradientTransform="translate(299.487 432.725) scale(17.1763 17.1774)">
<stop stop-color="#BD13FF"/>
<stop offset="0.0412098" stop-color="#A210DA"/>
<stop offset="0.0994739" stop-color="#800DAD"/>
<stop offset="0.1635" stop-color="#610A83"/>
<stop offset="0.2317" stop-color="#470760"/>
<stop offset="0.3053" stop-color="#310542"/>
<stop offset="0.3861" stop-color="#1F032A"/>
<stop offset="0.4771" stop-color="#110217"/>
<stop offset="0.5838" stop-color="#07010A"/>
<stop offset="0.7215" stop-color="#020002"/>
<stop offset="1"/>
</radialGradient>
<radialGradient id="paint11_radial" cx="0" cy="0" r="1" gradientUnits="userSpaceOnUse" gradientTransform="translate(423.415 426.901) scale(34.6661 34.6683)">
<stop stop-color="#BD13FF"/>
<stop offset="0.0412098" stop-color="#A210DA"/>
<stop offset="0.0994739" stop-color="#800DAD"/>
<stop offset="0.1635" stop-color="#610A83"/>
<stop offset="0.2317" stop-color="#470760"/>
<stop offset="0.3053" stop-color="#310542"/>
<stop offset="0.3861" stop-color="#1F032A"/>
<stop offset="0.4771" stop-color="#110217"/>
<stop offset="0.5838" stop-color="#07010A"/>
<stop offset="0.7215" stop-color="#020002"/>
<stop offset="1"/>
</radialGradient>
<radialGradient id="paint12_radial" cx="0" cy="0" r="1" gradientUnits="userSpaceOnUse" gradientTransform="translate(1087.39 263.004) scale(34.666 34.6683)">
<stop stop-color="#BD13FF"/>
<stop offset="0.0412098" stop-color="#A210DA"/>
<stop offset="0.0994739" stop-color="#800DAD"/>
<stop offset="0.1635" stop-color="#610A83"/>
<stop offset="0.2317" stop-color="#470760"/>
<stop offset="0.3053" stop-color="#310542"/>
<stop offset="0.3861" stop-color="#1F032A"/>
<stop offset="0.4771" stop-color="#110217"/>
<stop offset="0.5838" stop-color="#07010A"/>
<stop offset="0.7215" stop-color="#020002"/>
<stop offset="1"/>
</radialGradient>
<radialGradient id="paint13_radial" cx="0" cy="0" r="1" gradientUnits="userSpaceOnUse" gradientTransform="translate(193.467 564.132) scale(34.6661 34.6683)">
<stop stop-color="#BD13FF"/>
<stop offset="0.0412098" stop-color="#A210DA"/>
<stop offset="0.0994739" stop-color="#800DAD"/>
<stop offset="0.1635" stop-color="#610A83"/>
<stop offset="0.2317" stop-color="#470760"/>
<stop offset="0.3053" stop-color="#310542"/>
<stop offset="0.3861" stop-color="#1F032A"/>
<stop offset="0.4771" stop-color="#110217"/>
<stop offset="0.5838" stop-color="#07010A"/>
<stop offset="0.7215" stop-color="#020002"/>
<stop offset="1"/>
</radialGradient>
<radialGradient id="paint14_radial" cx="0" cy="0" r="1" gradientUnits="userSpaceOnUse" gradientTransform="translate(534.755 430.09) scale(15.608 15.609)">
<stop stop-color="#BD13FF"/>
<stop offset="0.0412098" stop-color="#A210DA"/>
<stop offset="0.0994739" stop-color="#800DAD"/>
<stop offset="0.1635" stop-color="#610A83"/>
<stop offset="0.2317" stop-color="#470760"/>
<stop offset="0.3053" stop-color="#310542"/>
<stop offset="0.3861" stop-color="#1F032A"/>
<stop offset="0.4771" stop-color="#110217"/>
<stop offset="0.5838" stop-color="#07010A"/>
<stop offset="0.7215" stop-color="#020002"/>
<stop offset="1"/>
</radialGradient>
<radialGradient id="paint15_radial" cx="0" cy="0" r="1" gradientUnits="userSpaceOnUse" gradientTransform="translate(774.105 598.888) scale(15.608 15.6091)">
<stop stop-color="#BD13FF"/>
<stop offset="0.0412098" stop-color="#A210DA"/>
<stop offset="0.0994739" stop-color="#800DAD"/>
<stop offset="0.1635" stop-color="#610A83"/>
<stop offset="0.2317" stop-color="#470760"/>
<stop offset="0.3053" stop-color="#310542"/>
<stop offset="0.3861" stop-color="#1F032A"/>
<stop offset="0.4771" stop-color="#110217"/>
<stop offset="0.5838" stop-color="#07010A"/>
<stop offset="0.7215" stop-color="#020002"/>
<stop offset="1"/>
</radialGradient>
<radialGradient id="paint16_radial" cx="0" cy="0" r="1" gradientUnits="userSpaceOnUse" gradientTransform="translate(591.196 798.932) scale(4.16491 4.16518)">
<stop stop-color="#BD13FF"/>
<stop offset="0.0412098" stop-color="#A210DA"/>
<stop offset="0.0994739" stop-color="#800DAD"/>
<stop offset="0.1635" stop-color="#610A83"/>
<stop offset="0.2317" stop-color="#470760"/>
<stop offset="0.3053" stop-color="#310542"/>
<stop offset="0.3861" stop-color="#1F032A"/>
<stop offset="0.4771" stop-color="#110217"/>
<stop offset="0.5838" stop-color="#07010A"/>
<stop offset="0.7215" stop-color="#020002"/>
<stop offset="1"/>
</radialGradient>
<radialGradient id="paint17_radial" cx="0" cy="0" r="1" gradientUnits="userSpaceOnUse" gradientTransform="translate(467.112 732.993) scale(4.16472 4.16497)">
<stop stop-color="#BD13FF"/>
<stop offset="0.0412098" stop-color="#A210DA"/>
<stop offset="0.0994739" stop-color="#800DAD"/>
<stop offset="0.1635" stop-color="#610A83"/>
<stop offset="0.2317" stop-color="#470760"/>
<stop offset="0.3053" stop-color="#310542"/>
<stop offset="0.3861" stop-color="#1F032A"/>
<stop offset="0.4771" stop-color="#110217"/>
<stop offset="0.5838" stop-color="#07010A"/>
<stop offset="0.7215" stop-color="#020002"/>
<stop offset="1"/>
</radialGradient>
<radialGradient id="paint18_radial" cx="0" cy="0" r="1" gradientUnits="userSpaceOnUse" gradientTransform="translate(66.505 821.715) scale(4.16493 4.16518)">
<stop stop-color="#BD13FF"/>
<stop offset="0.0412098" stop-color="#A210DA"/>
<stop offset="0.0994739" stop-color="#800DAD"/>
<stop offset="0.1635" stop-color="#610A83"/>
<stop offset="0.2317" stop-color="#470760"/>
<stop offset="0.3053" stop-color="#310542"/>
<stop offset="0.3861" stop-color="#1F032A"/>
<stop offset="0.4771" stop-color="#110217"/>
<stop offset="0.5838" stop-color="#07010A"/>
<stop offset="0.7215" stop-color="#020002"/>
<stop offset="1"/>
</radialGradient>
<radialGradient id="paint19_radial" cx="0" cy="0" r="1" gradientUnits="userSpaceOnUse" gradientTransform="translate(683.892 246.831) scale(4.1647 4.16501)">
<stop stop-color="#BD13FF"/>
<stop offset="0.0412098" stop-color="#A210DA"/>
<stop offset="0.0994739" stop-color="#800DAD"/>
<stop offset="0.1635" stop-color="#610A83"/>
<stop offset="0.2317" stop-color="#470760"/>
<stop offset="0.3053" stop-color="#310542"/>
<stop offset="0.3861" stop-color="#1F032A"/>
<stop offset="0.4771" stop-color="#110217"/>
<stop offset="0.5838" stop-color="#07010A"/>
<stop offset="0.7215" stop-color="#020002"/>
<stop offset="1"/>
</radialGradient>
<radialGradient id="paint20_radial" cx="0" cy="0" r="1" gradientUnits="userSpaceOnUse" gradientTransform="translate(162.885 59.6175) scale(4.16491 4.16518)">
<stop stop-color="#BD13FF"/>
<stop offset="0.0412098" stop-color="#A210DA"/>
<stop offset="0.0994739" stop-color="#800DAD"/>
<stop offset="0.1635" stop-color="#610A83"/>
<stop offset="0.2317" stop-color="#470760"/>
<stop offset="0.3053" stop-color="#310542"/>
<stop offset="0.3861" stop-color="#1F032A"/>
<stop offset="0.4771" stop-color="#110217"/>
<stop offset="0.5838" stop-color="#07010A"/>
<stop offset="0.7215" stop-color="#020002"/>
<stop offset="1"/>
</radialGradient>
<radialGradient id="paint21_radial" cx="0" cy="0" r="1" gradientUnits="userSpaceOnUse" gradientTransform="translate(1249.67 79.4988) scale(7.91918 7.9197)">
<stop stop-color="#BD13FF"/>
<stop offset="0.0412098" stop-color="#A210DA"/>
<stop offset="0.0994739" stop-color="#800DAD"/>
<stop offset="0.1635" stop-color="#610A83"/>
<stop offset="0.2317" stop-color="#470760"/>
<stop offset="0.3053" stop-color="#310542"/>
<stop offset="0.3861" stop-color="#1F032A"/>
<stop offset="0.4771" stop-color="#110217"/>
<stop offset="0.5838" stop-color="#07010A"/>
<stop offset="0.7215" stop-color="#020002"/>
<stop offset="1"/>
</radialGradient>
<radialGradient id="paint22_radial" cx="0" cy="0" r="1" gradientUnits="userSpaceOnUse" gradientTransform="translate(946.913 695.925) scale(7.91903 7.91956)">
<stop stop-color="#BD13FF"/>
<stop offset="0.0412098" stop-color="#A210DA"/>
<stop offset="0.0994739" stop-color="#800DAD"/>
<stop offset="0.1635" stop-color="#610A83"/>
<stop offset="0.2317" stop-color="#470760"/>
<stop offset="0.3053" stop-color="#310542"/>
<stop offset="0.3861" stop-color="#1F032A"/>
<stop offset="0.4771" stop-color="#110217"/>
<stop offset="0.5838" stop-color="#07010A"/>
<stop offset="0.7215" stop-color="#020002"/>
<stop offset="1"/>
</radialGradient>
<radialGradient id="paint23_radial" cx="0" cy="0" r="1" gradientUnits="userSpaceOnUse" gradientTransform="translate(1344.58 772.742) scale(7.91897 7.91953)">
<stop stop-color="#BD13FF"/>
<stop offset="0.0412098" stop-color="#A210DA"/>
<stop offset="0.0994739" stop-color="#800DAD"/>
<stop offset="0.1635" stop-color="#610A83"/>
<stop offset="0.2317" stop-color="#470760"/>
<stop offset="0.3053" stop-color="#310542"/>
<stop offset="0.3861" stop-color="#1F032A"/>
<stop offset="0.4771" stop-color="#110217"/>
<stop offset="0.5838" stop-color="#07010A"/>
<stop offset="0.7215" stop-color="#020002"/>
<stop offset="1"/>
</radialGradient>
<radialGradient id="paint24_radial" cx="0" cy="0" r="1" gradientUnits="userSpaceOnUse" gradientTransform="translate(280.431 677.431) scale(7.919 7.91953)">
<stop stop-color="#BD13FF"/>
<stop offset="0.0412098" stop-color="#A210DA"/>
<stop offset="0.0994739" stop-color="#800DAD"/>
<stop offset="0.1635" stop-color="#610A83"/>
<stop offset="0.2317" stop-color="#470760"/>
<stop offset="0.3053" stop-color="#310542"/>
<stop offset="0.3861" stop-color="#1F032A"/>
<stop offset="0.4771" stop-color="#110217"/>
<stop offset="0.5838" stop-color="#07010A"/>
<stop offset="0.7215" stop-color="#020002"/>
<stop offset="1"/>
</radialGradient>
<radialGradient id="paint25_radial" cx="0" cy="0" r="1" gradientUnits="userSpaceOnUse" gradientTransform="translate(1058.96 434.275) scale(4.16482 4.16502)">
<stop stop-color="#BD13FF"/>
<stop offset="0.0412098" stop-color="#A210DA"/>
<stop offset="0.0994739" stop-color="#800DAD"/>
<stop offset="0.1635" stop-color="#610A83"/>
<stop offset="0.2317" stop-color="#470760"/>
<stop offset="0.3053" stop-color="#310542"/>
<stop offset="0.3861" stop-color="#1F032A"/>
<stop offset="0.4771" stop-color="#110217"/>
<stop offset="0.5838" stop-color="#07010A"/>
<stop offset="0.7215" stop-color="#020002"/>
<stop offset="1"/>
</radialGradient>
<radialGradient id="paint26_radial" cx="0" cy="0" r="1" gradientUnits="userSpaceOnUse" gradientTransform="translate(1237.76 650.647) scale(4.16494 4.16518)">
<stop stop-color="#BD13FF"/>
<stop offset="0.0412098" stop-color="#A210DA"/>
<stop offset="0.0994739" stop-color="#800DAD"/>
<stop offset="0.1635" stop-color="#610A83"/>
<stop offset="0.2317" stop-color="#470760"/>
<stop offset="0.3053" stop-color="#310542"/>
<stop offset="0.3861" stop-color="#1F032A"/>
<stop offset="0.4771" stop-color="#110217"/>
<stop offset="0.5838" stop-color="#07010A"/>
<stop offset="0.7215" stop-color="#020002"/>
<stop offset="1"/>
</radialGradient>
<radialGradient id="paint27_radial" cx="0" cy="0" r="1" gradientUnits="userSpaceOnUse" gradientTransform="translate(902.164 559.966) scale(4.165 4.16515)">
<stop stop-color="#BD13FF"/>
<stop offset="0.0412098" stop-color="#A210DA"/>
<stop offset="0.0994739" stop-color="#800DAD"/>
<stop offset="0.1635" stop-color="#610A83"/>
<stop offset="0.2317" stop-color="#470760"/>
<stop offset="0.3053" stop-color="#310542"/>
<stop offset="0.3861" stop-color="#1F032A"/>
<stop offset="0.4771" stop-color="#110217"/>
<stop offset="0.5838" stop-color="#07010A"/>
<stop offset="0.7215" stop-color="#020002"/>
<stop offset="1"/>
</radialGradient>
<radialGradient id="paint28_radial" cx="0" cy="0" r="1" gradientUnits="userSpaceOnUse" gradientTransform="translate(53.7679 558.153) scale(4.16489 4.16518)">
<stop stop-color="#BD13FF"/>
<stop offset="0.0412098" stop-color="#A210DA"/>
<stop offset="0.0994739" stop-color="#800DAD"/>
<stop offset="0.1635" stop-color="#610A83"/>
<stop offset="0.2317" stop-color="#470760"/>
<stop offset="0.3053" stop-color="#310542"/>
<stop offset="0.3861" stop-color="#1F032A"/>
<stop offset="0.4771" stop-color="#110217"/>
<stop offset="0.5838" stop-color="#07010A"/>
<stop offset="0.7215" stop-color="#020002"/>
<stop offset="1"/>
</radialGradient>
<radialGradient id="paint29_radial" cx="0" cy="0" r="1" gradientUnits="userSpaceOnUse" gradientTransform="translate(822.328 756.574) scale(15.608 15.609)">
<stop stop-color="#BD13FF"/>
<stop offset="0.0412098" stop-color="#A210DA"/>
<stop offset="0.0994739" stop-color="#800DAD"/>
<stop offset="0.1635" stop-color="#610A83"/>
<stop offset="0.2317" stop-color="#470760"/>
<stop offset="0.3053" stop-color="#310542"/>
<stop offset="0.3861" stop-color="#1F032A"/>
<stop offset="0.4771" stop-color="#110217"/>
<stop offset="0.5838" stop-color="#07010A"/>
<stop offset="0.7215" stop-color="#020002"/>
<stop offset="1"/>
</radialGradient>
<radialGradient id="paint30_radial" cx="0" cy="0" r="1" gradientUnits="userSpaceOnUse" gradientTransform="translate(1045.21 794.85) scale(15.6081 15.609)">
<stop stop-color="#BD13FF"/>
<stop offset="0.0412098" stop-color="#A210DA"/>
<stop offset="0.0994739" stop-color="#800DAD"/>
<stop offset="0.1635" stop-color="#610A83"/>
<stop offset="0.2317" stop-color="#470760"/>
<stop offset="0.3053" stop-color="#310542"/>
<stop offset="0.3861" stop-color="#1F032A"/>
<stop offset="0.4771" stop-color="#110217"/>
<stop offset="0.5838" stop-color="#07010A"/>
<stop offset="0.7215" stop-color="#020002"/>
<stop offset="1"/>
</radialGradient>
<radialGradient id="paint31_radial" cx="0" cy="0" r="1" gradientUnits="userSpaceOnUse" gradientTransform="translate(945.196 79.5094) scale(15.6079 15.609)">
<stop stop-color="#BD13FF"/>
<stop offset="0.0412098" stop-color="#A210DA"/>
<stop offset="0.0994739" stop-color="#800DAD"/>
<stop offset="0.1635" stop-color="#610A83"/>
<stop offset="0.2317" stop-color="#470760"/>
<stop offset="0.3053" stop-color="#310542"/>
<stop offset="0.3861" stop-color="#1F032A"/>
<stop offset="0.4771" stop-color="#110217"/>
<stop offset="0.5838" stop-color="#07010A"/>
<stop offset="0.7215" stop-color="#020002"/>
<stop offset="1"/>
</radialGradient>
<radialGradient id="paint32_radial" cx="0" cy="0" r="1" gradientUnits="userSpaceOnUse" gradientTransform="translate(43.0263 370.93) scale(15.6079 15.6091)">
<stop stop-color="#BD13FF"/>
<stop offset="0.0412098" stop-color="#A210DA"/>
<stop offset="0.0994739" stop-color="#800DAD"/>
<stop offset="0.1635" stop-color="#610A83"/>
<stop offset="0.2317" stop-color="#470760"/>
<stop offset="0.3053" stop-color="#310542"/>
<stop offset="0.3861" stop-color="#1F032A"/>
<stop offset="0.4771" stop-color="#110217"/>
<stop offset="0.5838" stop-color="#07010A"/>
<stop offset="0.7215" stop-color="#020002"/>
<stop offset="1"/>
</radialGradient>
<radialGradient id="paint33_radial" cx="0" cy="0" r="1" gradientUnits="userSpaceOnUse" gradientTransform="translate(490.668 128.766) scale(15.608 15.609)">
<stop stop-color="#BD13FF"/>
<stop offset="0.0412098" stop-color="#A210DA"/>
<stop offset="0.0994739" stop-color="#800DAD"/>
<stop offset="0.1635" stop-color="#610A83"/>
<stop offset="0.2317" stop-color="#470760"/>
<stop offset="0.3053" stop-color="#310542"/>
<stop offset="0.3861" stop-color="#1F032A"/>
<stop offset="0.4771" stop-color="#110217"/>
<stop offset="0.5838" stop-color="#07010A"/>
<stop offset="0.7215" stop-color="#020002"/>
<stop offset="1"/>
</radialGradient>
<radialGradient id="paint34_radial" cx="0" cy="0" r="1" gradientUnits="userSpaceOnUse" gradientTransform="translate(1292.19 281.582) scale(15.608 15.609)">
<stop stop-color="#BD13FF"/>
<stop offset="0.0412098" stop-color="#A210DA"/>
<stop offset="0.0994739" stop-color="#800DAD"/>
<stop offset="0.1635" stop-color="#610A83"/>
<stop offset="0.2317" stop-color="#470760"/>
<stop offset="0.3053" stop-color="#310542"/>
<stop offset="0.3861" stop-color="#1F032A"/>
<stop offset="0.4771" stop-color="#110217"/>
<stop offset="0.5838" stop-color="#07010A"/>
<stop offset="0.7215" stop-color="#020002"/>
<stop offset="1"/>
</radialGradient>
<radialGradient id="paint35_radial" cx="0" cy="0" r="1" gradientUnits="userSpaceOnUse" gradientTransform="translate(303.959 794.85) scale(15.608 15.609)">
<stop stop-color="#BD13FF"/>
<stop offset="0.0412098" stop-color="#A210DA"/>
<stop offset="0.0994739" stop-color="#800DAD"/>
<stop offset="0.1635" stop-color="#610A83"/>
<stop offset="0.2317" stop-color="#470760"/>
<stop offset="0.3053" stop-color="#310542"/>
<stop offset="0.3861" stop-color="#1F032A"/>
<stop offset="0.4771" stop-color="#110217"/>
<stop offset="0.5838" stop-color="#07010A"/>
<stop offset="0.7215" stop-color="#020002"/>
<stop offset="1"/>
</radialGradient>
<radialGradient id="paint36_radial" cx="0" cy="0" r="1" gradientUnits="userSpaceOnUse" gradientTransform="translate(507.85 796.275) scale(15.6081 15.609)">
<stop stop-color="#BD13FF"/>
<stop offset="0.0412098" stop-color="#A210DA"/>
<stop offset="0.0994739" stop-color="#800DAD"/>
<stop offset="0.1635" stop-color="#610A83"/>
<stop offset="0.2317" stop-color="#470760"/>
<stop offset="0.3053" stop-color="#310542"/>
<stop offset="0.3861" stop-color="#1F032A"/>
<stop offset="0.4771" stop-color="#110217"/>
<stop offset="0.5838" stop-color="#07010A"/>
<stop offset="0.7215" stop-color="#020002"/>
<stop offset="1"/>
</radialGradient>
<radialGradient id="paint37_radial" cx="0" cy="0" r="1" gradientUnits="userSpaceOnUse" gradientTransform="translate(838.898 709.62) scale(15.608 15.609)">
<stop stop-color="#BD13FF"/>
<stop offset="0.0412098" stop-color="#A210DA"/>
<stop offset="0.0994739" stop-color="#800DAD"/>
<stop offset="0.1635" stop-color="#610A83"/>
<stop offset="0.2317" stop-color="#470760"/>
<stop offset="0.3053" stop-color="#310542"/>
<stop offset="0.3861" stop-color="#1F032A"/>
<stop offset="0.4771" stop-color="#110217"/>
<stop offset="0.5838" stop-color="#07010A"/>
<stop offset="0.7215" stop-color="#020002"/>
<stop offset="1"/>
</radialGradient>
<radialGradient id="paint38_radial" cx="0" cy="0" r="1" gradientUnits="userSpaceOnUse" gradientTransform="translate(213.239 283.007) scale(15.608 15.6091)">
<stop stop-color="#BD13FF"/>
<stop offset="0.0412098" stop-color="#A210DA"/>
<stop offset="0.0994739" stop-color="#800DAD"/>
<stop offset="0.1635" stop-color="#610A83"/>
<stop offset="0.2317" stop-color="#470760"/>
<stop offset="0.3053" stop-color="#310542"/>
<stop offset="0.3861" stop-color="#1F032A"/>
<stop offset="0.4771" stop-color="#110217"/>
<stop offset="0.5838" stop-color="#07010A"/>
<stop offset="0.7215" stop-color="#020002"/>
<stop offset="1"/>
</radialGradient>
<radialGradient id="paint39_radial" cx="0" cy="0" r="1" gradientUnits="userSpaceOnUse" gradientTransform="translate(74.2828 548.789) scale(15.6079 15.6089)">
<stop stop-color="#BD13FF"/>
<stop offset="0.0412098" stop-color="#A210DA"/>
<stop offset="0.0994739" stop-color="#800DAD"/>
<stop offset="0.1635" stop-color="#610A83"/>
<stop offset="0.2317" stop-color="#470760"/>
<stop offset="0.3053" stop-color="#310542"/>
<stop offset="0.3861" stop-color="#1F032A"/>
<stop offset="0.4771" stop-color="#110217"/>
<stop offset="0.5838" stop-color="#07010A"/>
<stop offset="0.7215" stop-color="#020002"/>
<stop offset="1"/>
</radialGradient>
<radialGradient id="paint40_radial" cx="0" cy="0" r="1" gradientUnits="userSpaceOnUse" gradientTransform="translate(724.069 411.136) scale(15.608 15.6091)">
<stop stop-color="#BD13FF"/>
<stop offset="0.0412098" stop-color="#A210DA"/>
<stop offset="0.0994739" stop-color="#800DAD"/>
<stop offset="0.1635" stop-color="#610A83"/>
<stop offset="0.2317" stop-color="#470760"/>
<stop offset="0.3053" stop-color="#310542"/>
<stop offset="0.3861" stop-color="#1F032A"/>
<stop offset="0.4771" stop-color="#110217"/>
<stop offset="0.5838" stop-color="#07010A"/>
<stop offset="0.7215" stop-color="#020002"/>
<stop offset="1"/>
</radialGradient>
<radialGradient id="paint41_radial" cx="0" cy="0" r="1" gradientUnits="userSpaceOnUse" gradientTransform="translate(517.703 602.776) scale(15.608 15.609)">
<stop stop-color="#BD13FF"/>
<stop offset="0.0412098" stop-color="#A210DA"/>
<stop offset="0.0994739" stop-color="#800DAD"/>
<stop offset="0.1635" stop-color="#610A83"/>
<stop offset="0.2317" stop-color="#470760"/>
<stop offset="0.3053" stop-color="#310542"/>
<stop offset="0.3861" stop-color="#1F032A"/>
<stop offset="0.4771" stop-color="#110217"/>
<stop offset="0.5838" stop-color="#07010A"/>
<stop offset="0.7215" stop-color="#020002"/>
<stop offset="1"/>
</radialGradient>
<linearGradient id="paint42_linear" x1="1290.63" y1="704.893" x2="1284.57" y2="388.296" gradientUnits="userSpaceOnUse">
<stop offset="0.00595238" stop-color="#070019" stop-opacity="0"/>
<stop offset="1" stop-color="#1D6DAE"/>
</linearGradient>
<linearGradient id="paint43_linear" x1="1442.45" y1="731.579" x2="1442.45" y2="592.758" gradientUnits="userSpaceOnUse">
<stop offset="0.00595238" stop-color="#070019" stop-opacity="0"/>
<stop offset="1" stop-color="#1D6DAE"/>
</linearGradient>
<linearGradient id="paint44_linear" x1="727.992" y1="552.136" x2="1287.52" y2="552.136" gradientUnits="userSpaceOnUse">
<stop offset="0.00595238" stop-color="#070019"/>
<stop offset="1" stop-color="#1D6DAE"/>
</linearGradient>
<radialGradient id="paint45_radial" cx="0" cy="0" r="1" gradientUnits="userSpaceOnUse" gradientTransform="translate(1176.23 476.227) rotate(4.28561) scale(213.469 135.259)">
<stop stop-color="#008E72"/>
<stop offset="0.0486286" stop-color="#008369"/>
<stop offset="0.2723" stop-color="#005444"/>
<stop offset="0.4859" stop-color="#003026"/>
<stop offset="0.6843" stop-color="#001511"/>
<stop offset="0.8615" stop-color="#000604"/>
<stop offset="1"/>
</radialGradient>
<radialGradient id="paint46_radial" cx="0" cy="0" r="1" gradientUnits="userSpaceOnUse" gradientTransform="translate(1094.25 535.986) rotate(36.7008) scale(214.428 210.106)">
<stop stop-color="#008E72"/>
<stop offset="0.0486286" stop-color="#008369"/>
<stop offset="0.2723" stop-color="#005444"/>
<stop offset="0.4859" stop-color="#003026"/>
<stop offset="0.6843" stop-color="#001511"/>
<stop offset="0.8615" stop-color="#000604"/>
<stop offset="1"/>
</radialGradient>
<radialGradient id="paint47_radial" cx="0" cy="0" r="1" gradientUnits="userSpaceOnUse" gradientTransform="translate(1284.12 384.227) scale(23.4818 23.5176)">
<stop stop-color="#2E00A7"/>
<stop offset="0.0871337" stop-color="#280091"/>
<stop offset="0.3119" stop-color="#1A005E"/>
<stop offset="0.5232" stop-color="#0F0035"/>
<stop offset="0.7147" stop-color="#070018"/>
<stop offset="0.8799" stop-color="#020006"/>
<stop offset="1"/>
</radialGradient>
<radialGradient id="paint48_radial" cx="0" cy="0" r="1" gradientUnits="userSpaceOnUse" gradientTransform="translate(1284.12 384.227) scale(10.8344 10.8509)">
<stop stop-color="#8647A7"/>
<stop offset="0.0871337" stop-color="#743E91"/>
<stop offset="0.3119" stop-color="#4B285E"/>
<stop offset="0.5232" stop-color="#2B1735"/>
<stop offset="0.7147" stop-color="#130A18"/>
<stop offset="0.8799" stop-color="#050306"/>
<stop offset="1"/>
</radialGradient>
<radialGradient id="paint49_radial" cx="0" cy="0" r="1" gradientUnits="userSpaceOnUse" gradientTransform="translate(1392.43 510.295) scale(9.55449 9.59644)">
<stop stop-color="#0457A7"/>
<stop offset="0.4215" stop-color="#022F5B"/>
<stop offset="0.8154" stop-color="#010D19"/>
<stop offset="1"/>
</radialGradient>
<radialGradient id="paint50_radial" cx="0" cy="0" r="1" gradientUnits="userSpaceOnUse" gradientTransform="translate(1393.42 507.829) scale(5.21365 5.23653)">
<stop stop-color="#FFF2F8"/>
<stop offset="0.1299" stop-color="#F1F1F4"/>
<stop offset="0.3759" stop-color="#CCF0E9"/>
<stop offset="0.7091" stop-color="#90EED7"/>
<stop offset="1" stop-color="#57ECC6"/>
</radialGradient>
<radialGradient id="paint51_radial" cx="0" cy="0" r="1" gradientUnits="userSpaceOnUse" gradientTransform="translate(1340.09 544.756) scale(31.9336 32.0737)">
<stop stop-color="#0457A7"/>
<stop offset="0.4215" stop-color="#022F5B"/>
<stop offset="0.8154" stop-color="#010D19"/>
<stop offset="1"/>
</radialGradient>
<radialGradient id="paint52_radial" cx="0" cy="0" r="1" gradientUnits="userSpaceOnUse" gradientTransform="translate(1339.87 544.511) scale(21.7422 21.8376)">
<stop stop-color="#3578B8"/>
<stop offset="0.4694" stop-color="#1A3B5B"/>
<stop offset="0.8307" stop-color="#071119"/>
<stop offset="1"/>
</radialGradient>
<radialGradient id="paint53_radial" cx="0" cy="0" r="1" gradientUnits="userSpaceOnUse" gradientTransform="translate(1342.79 537.247) scale(15.3595 15.4269)">
<stop stop-color="#FFF2F8"/>
<stop offset="0.1299" stop-color="#F1F1F4"/>
<stop offset="0.3759" stop-color="#CCF0E9"/>
<stop offset="0.7091" stop-color="#90EED7"/>
<stop offset="1" stop-color="#57ECC6"/>
</radialGradient>
<clipPath id="clip0">
<rect width="1440" height="900" fill="white"/>
</clipPath>
<clipPath id="clip1">
<rect width="827" height="561" fill="white" transform="translate(659 339)"/>
</clipPath>
<clipPath id="clip2">
<rect width="99" height="134" fill="white" transform="translate(826 621)"/>
</clipPath>
<clipPath id="clip3">
<rect width="209" height="148.8" fill="white" transform="translate(322.063 114.048)"/>
</clipPath>
</defs>
</svg>
